<?xml version='1.0' encoding='utf-8'?>
<svg xmlns="http://www.w3.org/2000/svg" enable-background="new 0 0 2560 1600" version="1.1" viewBox="0 0 2560 1600">
<pattern id="a" width="200" height="200" overflow="visible" patternUnits="userSpaceOnUse" viewBox="82.615 -282.615 200 200">
		<polygon points="82.615 -282.62 282.62 -282.62 282.62 -82.615 82.615 -82.615" fill="none"/>
			<polygon points="263.6 -101.63 263.6 -153.09 279.26 -168.75 265.4 -182.61 258.54 -182.61 272.37 -168.78 258.55 -155.14 258.54 -106.69 210.09 -106.68 196.45 -92.856 182.62 -106.69 182.62 -99.835 196.48 -85.967 212.14 -101.63"/>
			<polygon points="286.62 -86.617 278.61 -86.617 278.61 -78.614 286.62 -78.614"/>
			<polygon points="182.62 -72.308 192.92 -82.615 182.62 -92.923"/>
			<polygon points="272.31 -182.62 282.62 -172.31 292.92 -182.62"/>
			<path d="m282.62-91.489l-8.896-0.021 0.022 8.896-0.022 8.896 8.896-0.021 8.896 0.021-0.022-8.896 0.022-8.896-8.896 0.021zm68.351 23.127l-54.343-0.246 0.246 54.343-14.254 14.265-14.253-14.265 0.246-54.343-54.343 0.246-14.265-14.253 14.265-14.253 54.343 0.246-0.246-54.343 14.253-14.265 14.253 14.265-0.246 54.343 54.343-0.246 14.265 14.253-14.264 14.253z"/>
			<polygon points="101.63 -101.63 153.09 -101.63 168.75 -85.967 182.61 -99.835 182.61 -106.69 168.78 -92.856 155.14 -106.68 106.69 -106.69 106.68 -155.14 92.856 -168.78 106.69 -182.61 99.835 -182.61 85.967 -168.75 101.63 -153.09"/>
			<polygon points="86.617 -86.617 78.614 -86.617 78.614 -78.614 86.617 -78.614"/>
			<polygon points="182.62 -92.923 172.31 -82.615 182.62 -72.308"/>
			<polygon points="72.308 -182.62 82.615 -172.31 92.923 -182.62"/>
			<path d="m82.615-91.489l-8.896-0.021 0.021 8.896-0.02 8.894 8.896-0.021 8.896 0.021-0.021-8.896 0.021-8.896-8.897 0.023zm68.351 23.127l-54.343-0.246 0.246 54.343-14.254 14.265-14.253-14.265 0.246-54.343-54.343 0.246-14.265-14.253 14.265-14.253 54.343 0.246-0.246-54.343 14.253-14.265 14.253 14.265-0.246 54.343 54.343-0.246 14.265 14.253-14.264 14.253z"/>
			<polygon points="201.63 -163.6 201.63 -112.14 185.97 -96.479 199.84 -82.617 206.69 -82.617 192.86 -96.446 206.68 -110.09 206.69 -158.54 255.14 -158.55 268.78 -172.37 282.61 -158.54 282.61 -165.4 268.75 -179.26 253.09 -163.6"/>
			<polygon points="163.6 -163.6 112.14 -163.6 96.479 -179.26 82.617 -165.4 82.617 -158.54 96.446 -172.37 110.09 -158.55 158.54 -158.54 158.55 -110.09 172.37 -96.446 158.54 -82.617 165.4 -82.617 179.26 -96.479 163.6 -112.14"/>
			<polygon points="163.6 -201.63 163.6 -253.09 179.26 -268.75 165.4 -282.61 158.54 -282.61 172.37 -268.78 158.55 -255.14 158.54 -206.69 110.09 -206.68 96.446 -192.86 82.617 -206.69 82.617 -199.84 96.479 -185.97 112.14 -201.63"/>
			<polygon points="201.63 -201.63 253.09 -201.63 268.75 -185.97 282.61 -199.84 282.61 -206.69 268.78 -192.86 255.14 -206.68 206.69 -206.69 206.68 -255.14 192.86 -268.78 206.69 -282.61 199.84 -282.61 185.97 -268.75 201.63 -253.09"/>
			<polygon points="186.62 -186.62 178.61 -186.62 178.61 -178.61 186.62 -178.61"/>
			<polygon points="282.62 -192.92 272.31 -182.62 282.62 -172.31"/>
			<polygon points="192.92 -82.615 182.62 -92.923 172.31 -82.615"/>
			<polygon points="82.615 -172.31 92.923 -182.62 82.615 -192.92"/>
			<polygon points="172.31 -282.62 182.62 -272.31 192.92 -282.62"/>
			<path d="m182.62-191.49l-8.896-0.021 0.021 8.896-0.021 8.896 8.896-0.021 8.896 0.021-0.021-8.896 0.021-8.896-8.896 0.021zm68.351 23.127l-54.343-0.246 0.246 54.343-14.254 14.265-14.253-14.265 0.246-54.343-54.343 0.246-14.265-14.253 14.265-14.253 54.343 0.246-0.246-54.343 14.253-14.265 14.253 14.265-0.246 54.343 54.343-0.246 14.265 14.253-14.264 14.253z"/>
			<polygon points="263.6 -263.6 212.14 -263.6 196.48 -279.26 182.62 -265.4 182.62 -258.54 196.45 -272.37 210.09 -258.55 258.54 -258.54 258.55 -210.09 272.37 -196.45 258.54 -182.62 265.4 -182.62 279.26 -196.48 263.6 -212.14"/>
			<polygon points="286.62 -286.62 278.61 -286.62 278.61 -278.61 286.62 -278.61"/>
			<polygon points="292.92 -182.62 282.62 -192.92 272.31 -182.62"/>
			<polygon points="182.62 -272.31 192.92 -282.62 182.62 -292.92"/>
			<path d="m282.62-291.49l-8.896-0.022 0.022 8.896-0.022 8.896 8.896-0.022 8.896 0.022-0.022-8.896 0.022-8.896-8.896 0.022zm68.351 23.127l-54.343-0.246 0.246 54.343-14.254 14.265-14.253-14.265 0.246-54.343-54.343 0.246-14.265-14.253 14.265-14.253 54.343 0.246-0.246-54.343 14.253-14.265 14.253 14.265-0.246 54.343 54.343-0.246 14.265 14.253-14.264 14.253z"/>
			<polygon points="101.63 -263.6 101.63 -212.14 85.967 -196.48 99.835 -182.62 106.69 -182.62 92.856 -196.45 106.68 -210.09 106.69 -258.54 155.14 -258.55 168.78 -272.37 182.61 -258.54 182.61 -265.4 168.75 -279.26 153.09 -263.6"/>
			<polygon points="86.617 -286.62 78.614 -286.62 78.614 -278.61 86.617 -278.61"/>
			<polygon points="182.62 -292.92 172.31 -282.62 182.62 -272.31"/>
			<polygon points="92.923 -182.62 82.615 -192.92 72.308 -182.62"/>
			<path d="m82.615-291.49l-8.896-0.022 0.021 8.896-0.021 8.896 8.896-0.022 8.896 0.022-0.021-8.896 0.021-8.896-8.896 0.022zm68.351 23.127l-54.343-0.246 0.246 54.343-14.254 14.265-14.253-14.265 0.246-54.343-54.343 0.246-14.265-14.253 14.265-14.253 54.343 0.246-0.246-54.343 14.253-14.265 14.253 14.265-0.246 54.343 54.343-0.246 14.265 14.253-14.264 14.253z"/>
</pattern>
<rect width="2560" height="1600" fill="url(#a)"/>
</svg>