<?xml version='1.0' encoding='utf-8'?>
<svg xmlns="http://www.w3.org/2000/svg" enable-background="new 0 0 2560 1600" version="1.1" viewBox="0 0 2560 1600">
<pattern id="o" width="346.4" height="200" overflow="visible" patternUnits="userSpaceOnUse" viewBox="57.7 -200 346.4 200">
		<polygon points="57.7 -200 404.1 -200 404.1 0 57.7 0" fill="none"/>
				<linearGradient id="i" x1="315.21" x2="430.68" y1="-14558" y2="-14558" gradientTransform="matrix(1 0 0 -1 31.203 -14608)" gradientUnits="userSpaceOnUse">
				<stop stop-color="#fff" offset="0"/>
				<stop offset="1"/>
			</linearGradient>
			<polygon points="461.9 -100 346.4 -100 404.1 0" fill="url(#i)"/>
				<linearGradient id="h" x1="257.47" x2="372.94" y1="-14558" y2="-14558" gradientTransform="matrix(1 0 0 -1 31.203 -14608)" gradientUnits="userSpaceOnUse">
				<stop offset="0"/>
				<stop stop-color="#fff" offset="1"/>
			</linearGradient>
			<polygon points="404.1 0 288.7 0 346.4 -100" fill="url(#h)"/>
				<linearGradient id="g" x1="-31.203" x2="84.267" y1="-14558" y2="-14558" gradientTransform="matrix(1 0 0 -1 31.203 -14608)" gradientUnits="userSpaceOnUse">
				<stop stop-color="#fff" offset="0"/>
				<stop offset="1"/>
			</linearGradient>
			<polygon points="115.5 -100 0 -100 57.7 0" fill="url(#g)"/>
				<linearGradient id="f" x1="26.532" x2="142" y1="-14558" y2="-14558" gradientTransform="matrix(1 0 0 -1 31.203 -14608)" gradientUnits="userSpaceOnUse">
				<stop stop-color="#fff" offset="0"/>
				<stop offset="1"/>
			</linearGradient>
			<polygon points="57.7 0 115.5 -100 173.2 0" fill="url(#f)"/>
				<linearGradient id="e" x1="315.21" x2="430.68" y1="-14458" y2="-14458" gradientTransform="matrix(1 0 0 -1 31.203 -14608)" gradientUnits="userSpaceOnUse">
				<stop stop-color="#fff" offset="0"/>
				<stop offset="1"/>
			</linearGradient>
			<polygon points="404.1 -200 461.9 -100 346.4 -100" fill="url(#e)"/>
				<linearGradient id="d" x1="257.47" x2="372.94" y1="-14458" y2="-14458" gradientTransform="matrix(1 0 0 -1 31.203 -14608)" gradientUnits="userSpaceOnUse">
				<stop stop-color="#fff" offset="0"/>
				<stop offset="1"/>
			</linearGradient>
			<polygon points="404.1 -200 346.4 -100 288.7 -200" fill="url(#d)"/>
				<linearGradient id="c" x1="142" x2="257.47" y1="-14458" y2="-14458" gradientTransform="matrix(1 0 0 -1 31.203 -14608)" gradientUnits="userSpaceOnUse">
				<stop stop-color="#fff" offset="0"/>
				<stop offset="1"/>
			</linearGradient>
			<polygon points="288.7 -200 173.2 -200 230.9 -100" fill="url(#c)"/>
				<linearGradient id="b" x1="84.267" x2="199.74" y1="-14458" y2="-14458" gradientTransform="matrix(1 0 0 -1 31.203 -14608)" gradientUnits="userSpaceOnUse">
				<stop offset="0"/>
				<stop stop-color="#fff" offset="1"/>
			</linearGradient>
			<polygon points="230.9 -100 115.5 -100 173.2 -200" fill="url(#b)"/>
				<linearGradient id="a" x1="199.74" x2="315.21" y1="-14458" y2="-14458" gradientTransform="matrix(1 0 0 -1 31.203 -14608)" gradientUnits="userSpaceOnUse">
				<stop stop-color="#fff" offset="0"/>
				<stop offset="1"/>
			</linearGradient>
			<polygon points="230.9 -100 288.7 -200 346.4 -100" fill="url(#a)"/>
				<linearGradient id="n" x1="142" x2="257.47" y1="-14558" y2="-14558" gradientTransform="matrix(1 0 0 -1 31.203 -14608)" gradientUnits="userSpaceOnUse">
				<stop stop-color="#fff" offset="0"/>
				<stop offset="1"/>
			</linearGradient>
			<polygon points="230.9 -100 288.7 0 173.2 0" fill="url(#n)"/>
				<linearGradient id="m" x1="199.74" x2="315.21" y1="-14558" y2="-14558" gradientTransform="matrix(1 0 0 -1 31.203 -14608)" gradientUnits="userSpaceOnUse">
				<stop offset="0"/>
				<stop stop-color="#fff" offset="1"/>
			</linearGradient>
			<polygon points="346.4 -100 288.7 0 230.9 -100" fill="url(#m)"/>
				<linearGradient id="l" x1="84.267" x2="199.74" y1="-14558" y2="-14558" gradientTransform="matrix(1 0 0 -1 31.203 -14608)" gradientUnits="userSpaceOnUse">
				<stop stop-color="#fff" offset="0"/>
				<stop offset="1"/>
			</linearGradient>
			<polygon points="230.9 -100 173.2 0 115.5 -100" fill="url(#l)"/>
				<linearGradient id="k" x1="-31.203" x2="84.267" y1="-14458" y2="-14458" gradientTransform="matrix(1 0 0 -1 31.203 -14608)" gradientUnits="userSpaceOnUse">
				<stop stop-color="#fff" offset="0"/>
				<stop offset="1"/>
			</linearGradient>
			<polygon points="57.7 -200 115.5 -100 0 -100" fill="url(#k)"/>
				<linearGradient id="j" x1="26.532" x2="142" y1="-14458" y2="-14458" gradientTransform="matrix(1 0 0 -1 31.203 -14608)" gradientUnits="userSpaceOnUse">
				<stop offset="0"/>
				<stop stop-color="#fff" offset="1"/>
			</linearGradient>
			<polygon points="173.2 -200 115.5 -100 57.7 -200" fill="url(#j)"/>
</pattern>
<rect width="2560" height="1600" fill="url(#o)"/>
</svg>