<?xml version="1.0" encoding="UTF-8" standalone="no"?>
<svg
   xmlns:dc="http://purl.org/dc/elements/1.1/"
   xmlns:cc="http://creativecommons.org/ns#"
   xmlns:rdf="http://www.w3.org/1999/02/22-rdf-syntax-ns#"
   xmlns:svg="http://www.w3.org/2000/svg"
   xmlns="http://www.w3.org/2000/svg"
   viewBox="0 0 1333.3333 1333.3333"
   height="1333.3333"
   width="1333.3333"
   xml:space="preserve"
   id="svg2"
   version="1.1"><metadata
     id="metadata8"><rdf:RDF><cc:Work
         rdf:about=""><dc:format>image/svg+xml</dc:format><dc:type
           rdf:resource="http://purl.org/dc/dcmitype/StillImage" /></cc:Work></rdf:RDF></metadata><defs
     id="defs6"><clipPath
       id="clipPath18"
       clipPathUnits="userSpaceOnUse"><path
         id="path16"
         d="M 0,0 H 1000 V 1000 H 0 Z" /></clipPath></defs><g
     transform="matrix(1.3333333,0,0,-1.3333333,0,1333.3333)"
     id="g10"><g
       id="g12"><g
         clip-path="url(#clipPath18)"
         id="g14"><g
           transform="translate(38.48,947.1201)"
           id="g20"><path
             id="path22"
             style="fill:#000000;fill-opacity:1;fill-rule:nonzero;stroke:none"
             d="m 0,0 c -1.92,1.92 -1.92,3.84 0,5.76 l 8.64,8.64 c 1.92,1.92 3.84,1.92 5.76,0 L 23.04,5.76 C 24.96,3.84 24.96,1.92 23.04,0 L 14.4,-8.64 c -1.92,-1.92 -3.84,-1.92 -5.76,0 z" /></g><g
           transform="translate(32.3599,845.5898)"
           id="g24"><path
             id="path26"
             style="fill:#000000;fill-opacity:1;fill-rule:nonzero;stroke:none"
             d="m 0,0 c -2.94,2.94 -2.94,5.88 0,8.82 l 13.23,13.23 c 2.94,2.94 5.88,2.94 8.82,0 L 35.28,8.82 C 38.22,5.88 38.22,2.94 35.28,0 L 22.05,-13.23 c -2.94,-2.94 -5.88,-2.94 -8.82,0 z" /></g><g
           transform="translate(26.2402,744.0601)"
           id="g28"><path
             id="path30"
             style="fill:#000000;fill-opacity:1;fill-rule:nonzero;stroke:none"
             d="M 0,0 C -3.96,3.96 -3.96,7.92 0,11.88 L 17.82,29.7 c 3.96,3.96 7.92,3.96 11.88,0 L 47.52,11.88 C 51.48,7.92 51.48,3.96 47.52,0 L 29.7,-17.82 c -3.96,-3.96 -7.92,-3.96 -11.88,0 z" /></g><g
           transform="translate(20.1201,642.5298)"
           id="g32"><path
             id="path34"
             style="fill:#000000;fill-opacity:1;fill-rule:nonzero;stroke:none"
             d="m 0,0 c -4.98,4.98 -4.98,9.96 0,14.94 l 22.41,22.41 c 4.98,4.98 9.96,4.98 14.94,0 L 59.76,14.94 C 64.74,9.96 64.74,4.98 59.76,0 L 37.35,-22.41 c -4.98,-4.98 -9.96,-4.98 -14.94,0 z" /></g><g
           transform="translate(14,541)"
           id="g36"><path
             id="path38"
             style="fill:#000000;fill-opacity:1;fill-rule:nonzero;stroke:none"
             d="m 0,0 c -6,6 -6,12 0,18 l 27,27 c 6,6 12,6 18,0 L 72,18 C 78,12 78,6 72,0 L 45,-27 c -6,-6 -12,-6 -18,0 z" /></g><g
           transform="translate(14,441)"
           id="g40"><path
             id="path42"
             style="fill:#000000;fill-opacity:1;fill-rule:nonzero;stroke:none"
             d="m 0,0 c -6,6 -6,12 0,18 l 27,27 c 6,6 12,6 18,0 L 72,18 C 78,12 78,6 72,0 L 45,-27 c -6,-6 -12,-6 -18,0 z" /></g><g
           transform="translate(20.1201,342.5303)"
           id="g44"><path
             id="path46"
             style="fill:#000000;fill-opacity:1;fill-rule:nonzero;stroke:none"
             d="M 0,0 C -4.98,4.979 -4.98,9.96 0,14.939 L 22.41,37.35 c 4.98,4.98 9.96,4.98 14.94,0 L 59.76,14.939 C 64.74,9.96 64.74,4.979 59.76,0 L 37.35,-22.41 c -4.98,-4.981 -9.96,-4.981 -14.94,0 z" /></g><g
           transform="translate(26.2402,244.0596)"
           id="g48"><path
             id="path50"
             style="fill:#000000;fill-opacity:1;fill-rule:nonzero;stroke:none"
             d="M 0,0 C -3.96,3.96 -3.96,7.921 0,11.881 L 17.82,29.7 c 3.96,3.96 7.92,3.96 11.88,0 L 47.52,11.881 C 51.48,7.921 51.48,3.96 47.52,0 L 29.7,-17.819 c -3.96,-3.96 -7.92,-3.96 -11.88,0 z" /></g><g
           transform="translate(32.3599,145.5898)"
           id="g52"><path
             id="path54"
             style="fill:#000000;fill-opacity:1;fill-rule:nonzero;stroke:none"
             d="m 0,0 c -2.94,2.94 -2.94,5.88 0,8.82 l 13.23,13.23 c 2.94,2.94 5.88,2.94 8.82,0 L 35.28,8.82 C 38.22,5.88 38.22,2.94 35.28,0 L 22.05,-13.229 c -2.94,-2.941 -5.88,-2.941 -8.82,0 z" /></g><g
           transform="translate(38.48,47.1201)"
           id="g56"><path
             id="path58"
             style="fill:#000000;fill-opacity:1;fill-rule:nonzero;stroke:none"
             d="m 0,0 c -1.92,1.92 -1.92,3.84 0,5.76 l 8.64,8.639 c 1.92,1.921 3.84,1.921 5.76,0 L 23.04,5.76 C 24.96,3.84 24.96,1.92 23.04,0 L 14.4,-8.64 c -1.92,-1.921 -3.84,-1.921 -5.76,0 z" /></g><g
           transform="translate(138.48,947.1201)"
           id="g60"><path
             id="path62"
             style="fill:#000000;fill-opacity:1;fill-rule:nonzero;stroke:none"
             d="m 0,0 c -1.92,1.92 -1.92,3.84 0,5.76 l 8.64,8.64 c 1.92,1.92 3.84,1.92 5.76,0 L 23.04,5.76 C 24.96,3.84 24.96,1.92 23.04,0 L 14.4,-8.64 c -1.92,-1.92 -3.84,-1.92 -5.76,0 z" /></g><g
           transform="translate(132.3599,845.5898)"
           id="g64"><path
             id="path66"
             style="fill:#000000;fill-opacity:1;fill-rule:nonzero;stroke:none"
             d="m 0,0 c -2.94,2.94 -2.94,5.88 0,8.82 l 13.23,13.23 c 2.94,2.94 5.88,2.94 8.82,0 L 35.28,8.82 C 38.22,5.88 38.22,2.94 35.28,0 L 22.05,-13.23 c -2.94,-2.94 -5.88,-2.94 -8.82,0 z" /></g><g
           transform="translate(126.2402,744.0601)"
           id="g68"><path
             id="path70"
             style="fill:#000000;fill-opacity:1;fill-rule:nonzero;stroke:none"
             d="M 0,0 C -3.96,3.96 -3.96,7.92 0,11.88 L 17.82,29.7 c 3.96,3.96 7.92,3.96 11.88,0 L 47.52,11.88 C 51.48,7.92 51.48,3.96 47.52,0 L 29.7,-17.82 c -3.96,-3.96 -7.92,-3.96 -11.88,0 z" /></g><g
           transform="translate(120.1201,642.5298)"
           id="g72"><path
             id="path74"
             style="fill:#000000;fill-opacity:1;fill-rule:nonzero;stroke:none"
             d="m 0,0 c -4.98,4.98 -4.98,9.96 0,14.94 l 22.41,22.41 c 4.98,4.98 9.96,4.98 14.94,0 L 59.76,14.94 C 64.74,9.96 64.74,4.98 59.76,0 L 37.35,-22.41 c -4.98,-4.98 -9.96,-4.98 -14.94,0 z" /></g><g
           transform="translate(114,541)"
           id="g76"><path
             id="path78"
             style="fill:#000000;fill-opacity:1;fill-rule:nonzero;stroke:none"
             d="m 0,0 c -6,6 -6,12 0,18 l 27,27 c 6,6 12,6 18,0 L 72,18 C 78,12 78,6 72,0 L 45,-27 c -6,-6 -12,-6 -18,0 z" /></g><g
           transform="translate(114,441)"
           id="g80"><path
             id="path82"
             style="fill:#000000;fill-opacity:1;fill-rule:nonzero;stroke:none"
             d="m 0,0 c -6,6 -6,12 0,18 l 27,27 c 6,6 12,6 18,0 L 72,18 C 78,12 78,6 72,0 L 45,-27 c -6,-6 -12,-6 -18,0 z" /></g><g
           transform="translate(120.1201,342.5303)"
           id="g84"><path
             id="path86"
             style="fill:#000000;fill-opacity:1;fill-rule:nonzero;stroke:none"
             d="M 0,0 C -4.98,4.979 -4.98,9.96 0,14.939 L 22.41,37.35 c 4.98,4.98 9.96,4.98 14.94,0 L 59.76,14.939 C 64.74,9.96 64.74,4.979 59.76,0 L 37.35,-22.41 c -4.98,-4.981 -9.96,-4.981 -14.94,0 z" /></g><g
           transform="translate(126.2402,244.0596)"
           id="g88"><path
             id="path90"
             style="fill:#000000;fill-opacity:1;fill-rule:nonzero;stroke:none"
             d="M 0,0 C -3.96,3.96 -3.96,7.921 0,11.881 L 17.82,29.7 c 3.96,3.96 7.92,3.96 11.88,0 L 47.52,11.881 C 51.48,7.921 51.48,3.96 47.52,0 L 29.7,-17.819 c -3.96,-3.96 -7.92,-3.96 -11.88,0 z" /></g><g
           transform="translate(132.3599,145.5898)"
           id="g92"><path
             id="path94"
             style="fill:#000000;fill-opacity:1;fill-rule:nonzero;stroke:none"
             d="m 0,0 c -2.94,2.94 -2.94,5.88 0,8.82 l 13.23,13.23 c 2.94,2.94 5.88,2.94 8.82,0 L 35.28,8.82 C 38.22,5.88 38.22,2.94 35.28,0 L 22.05,-13.229 c -2.94,-2.941 -5.88,-2.941 -8.82,0 z" /></g><g
           transform="translate(138.48,47.1201)"
           id="g96"><path
             id="path98"
             style="fill:#000000;fill-opacity:1;fill-rule:nonzero;stroke:none"
             d="m 0,0 c -1.92,1.92 -1.92,3.84 0,5.76 l 8.64,8.639 c 1.92,1.921 3.84,1.921 5.76,0 L 23.04,5.76 C 24.96,3.84 24.96,1.92 23.04,0 L 14.4,-8.64 c -1.92,-1.921 -3.84,-1.921 -5.76,0 z" /></g><g
           transform="translate(238.48,947.1201)"
           id="g100"><path
             id="path102"
             style="fill:#000000;fill-opacity:1;fill-rule:nonzero;stroke:none"
             d="m 0,0 c -1.92,1.92 -1.92,3.84 0,5.76 l 8.64,8.64 c 1.92,1.92 3.84,1.92 5.76,0 L 23.04,5.76 C 24.96,3.84 24.96,1.92 23.04,0 L 14.4,-8.64 c -1.92,-1.92 -3.84,-1.92 -5.76,0 z" /></g><g
           transform="translate(232.3599,845.5898)"
           id="g104"><path
             id="path106"
             style="fill:#000000;fill-opacity:1;fill-rule:nonzero;stroke:none"
             d="m 0,0 c -2.94,2.94 -2.94,5.88 0,8.82 l 13.23,13.23 c 2.94,2.94 5.88,2.94 8.82,0 L 35.28,8.82 C 38.22,5.88 38.22,2.94 35.28,0 L 22.05,-13.23 c -2.94,-2.94 -5.88,-2.94 -8.82,0 z" /></g><g
           transform="translate(226.2402,744.0601)"
           id="g108"><path
             id="path110"
             style="fill:#000000;fill-opacity:1;fill-rule:nonzero;stroke:none"
             d="M 0,0 C -3.96,3.96 -3.96,7.92 0,11.88 L 17.82,29.7 c 3.96,3.96 7.92,3.96 11.88,0 L 47.52,11.88 C 51.48,7.92 51.48,3.96 47.52,0 L 29.7,-17.82 c -3.96,-3.96 -7.92,-3.96 -11.88,0 z" /></g><g
           transform="translate(220.1201,642.5298)"
           id="g112"><path
             id="path114"
             style="fill:#000000;fill-opacity:1;fill-rule:nonzero;stroke:none"
             d="m 0,0 c -4.98,4.98 -4.98,9.96 0,14.94 l 22.41,22.41 c 4.98,4.98 9.96,4.98 14.94,0 L 59.76,14.94 C 64.74,9.96 64.74,4.98 59.76,0 L 37.35,-22.41 c -4.98,-4.98 -9.96,-4.98 -14.94,0 z" /></g><g
           transform="translate(214,541)"
           id="g116"><path
             id="path118"
             style="fill:#000000;fill-opacity:1;fill-rule:nonzero;stroke:none"
             d="m 0,0 c -6,6 -6,12 0,18 l 27,27 c 6,6 12,6 18,0 L 72,18 C 78,12 78,6 72,0 L 45,-27 c -6,-6 -12,-6 -18,0 z" /></g><g
           transform="translate(214,441)"
           id="g120"><path
             id="path122"
             style="fill:#000000;fill-opacity:1;fill-rule:nonzero;stroke:none"
             d="m 0,0 c -6,6 -6,12 0,18 l 27,27 c 6,6 12,6 18,0 L 72,18 C 78,12 78,6 72,0 L 45,-27 c -6,-6 -12,-6 -18,0 z" /></g><g
           transform="translate(220.1201,342.5303)"
           id="g124"><path
             id="path126"
             style="fill:#000000;fill-opacity:1;fill-rule:nonzero;stroke:none"
             d="M 0,0 C -4.98,4.979 -4.98,9.96 0,14.939 L 22.41,37.35 c 4.98,4.98 9.96,4.98 14.94,0 L 59.76,14.939 C 64.74,9.96 64.74,4.979 59.76,0 L 37.35,-22.41 c -4.98,-4.981 -9.96,-4.981 -14.94,0 z" /></g><g
           transform="translate(226.2402,244.0596)"
           id="g128"><path
             id="path130"
             style="fill:#000000;fill-opacity:1;fill-rule:nonzero;stroke:none"
             d="M 0,0 C -3.96,3.96 -3.96,7.921 0,11.881 L 17.82,29.7 c 3.96,3.96 7.92,3.96 11.88,0 L 47.52,11.881 C 51.48,7.921 51.48,3.96 47.52,0 L 29.7,-17.819 c -3.96,-3.96 -7.92,-3.96 -11.88,0 z" /></g><g
           transform="translate(232.3599,145.5898)"
           id="g132"><path
             id="path134"
             style="fill:#000000;fill-opacity:1;fill-rule:nonzero;stroke:none"
             d="m 0,0 c -2.94,2.94 -2.94,5.88 0,8.82 l 13.23,13.23 c 2.94,2.94 5.88,2.94 8.82,0 L 35.28,8.82 C 38.22,5.88 38.22,2.94 35.28,0 L 22.05,-13.229 c -2.94,-2.941 -5.88,-2.941 -8.82,0 z" /></g><g
           transform="translate(238.48,47.1201)"
           id="g136"><path
             id="path138"
             style="fill:#000000;fill-opacity:1;fill-rule:nonzero;stroke:none"
             d="m 0,0 c -1.92,1.92 -1.92,3.84 0,5.76 l 8.64,8.639 c 1.92,1.921 3.84,1.921 5.76,0 L 23.04,5.76 C 24.96,3.84 24.96,1.92 23.04,0 L 14.4,-8.64 c -1.92,-1.921 -3.84,-1.921 -5.76,0 z" /></g><g
           transform="translate(338.4805,947.1201)"
           id="g140"><path
             id="path142"
             style="fill:#000000;fill-opacity:1;fill-rule:nonzero;stroke:none"
             d="m 0,0 c -1.921,1.92 -1.921,3.84 0,5.76 l 8.64,8.64 c 1.92,1.92 3.839,1.92 5.759,0 l 8.64,-8.64 C 24.96,3.84 24.96,1.92 23.039,0 l -8.64,-8.64 c -1.92,-1.92 -3.839,-1.92 -5.759,0 z" /></g><g
           transform="translate(332.3604,845.5898)"
           id="g144"><path
             id="path146"
             style="fill:#000000;fill-opacity:1;fill-rule:nonzero;stroke:none"
             d="m 0,0 c -2.94,2.94 -2.94,5.88 0,8.82 l 13.229,13.23 c 2.941,2.94 5.88,2.94 8.821,0 L 35.279,8.82 C 38.22,5.88 38.22,2.94 35.279,0 L 22.05,-13.23 c -2.941,-2.94 -5.88,-2.94 -8.821,0 z" /></g><g
           transform="translate(326.2402,744.0601)"
           id="g148"><path
             id="path150"
             style="fill:#000000;fill-opacity:1;fill-rule:nonzero;stroke:none"
             d="M 0,0 C -3.96,3.96 -3.96,7.92 0,11.88 L 17.819,29.7 c 3.96,3.96 7.921,3.96 11.881,0 L 47.52,11.88 C 51.479,7.92 51.479,3.96 47.52,0 L 29.7,-17.82 c -3.96,-3.96 -7.921,-3.96 -11.881,0 z" /></g><g
           transform="translate(320.1201,642.5298)"
           id="g152"><path
             id="path154"
             style="fill:#000000;fill-opacity:1;fill-rule:nonzero;stroke:none"
             d="m 0,0 c -4.98,4.98 -4.98,9.96 0,14.94 l 22.41,22.41 c 4.98,4.98 9.96,4.98 14.94,0 L 59.76,14.94 C 64.74,9.96 64.74,4.98 59.76,0 L 37.35,-22.41 c -4.98,-4.98 -9.96,-4.98 -14.94,0 z" /></g><g
           transform="translate(314,541)"
           id="g156"><path
             id="path158"
             style="fill:#000000;fill-opacity:1;fill-rule:nonzero;stroke:none"
             d="m 0,0 c -6,6 -6,12 0,18 l 27,27 c 6,6 12,6 18,0 L 72,18 C 78,12 78,6 72,0 L 45,-27 c -6,-6 -12,-6 -18,0 z" /></g><g
           transform="translate(314,441)"
           id="g160"><path
             id="path162"
             style="fill:#000000;fill-opacity:1;fill-rule:nonzero;stroke:none"
             d="m 0,0 c -6,6 -6,12 0,18 l 27,27 c 6,6 12,6 18,0 L 72,18 C 78,12 78,6 72,0 L 45,-27 c -6,-6 -12,-6 -18,0 z" /></g><g
           transform="translate(320.1201,342.5303)"
           id="g164"><path
             id="path166"
             style="fill:#000000;fill-opacity:1;fill-rule:nonzero;stroke:none"
             d="M 0,0 C -4.98,4.979 -4.98,9.96 0,14.939 L 22.41,37.35 c 4.98,4.98 9.96,4.98 14.94,0 L 59.76,14.939 C 64.74,9.96 64.74,4.979 59.76,0 L 37.35,-22.41 c -4.98,-4.981 -9.96,-4.981 -14.94,0 z" /></g><g
           transform="translate(326.2402,244.0596)"
           id="g168"><path
             id="path170"
             style="fill:#000000;fill-opacity:1;fill-rule:nonzero;stroke:none"
             d="M 0,0 C -3.96,3.96 -3.96,7.921 0,11.881 L 17.819,29.7 c 3.96,3.96 7.921,3.96 11.881,0 L 47.52,11.881 C 51.479,7.921 51.479,3.96 47.52,0 L 29.7,-17.819 c -3.96,-3.96 -7.921,-3.96 -11.881,0 z" /></g><g
           transform="translate(332.3604,145.5898)"
           id="g172"><path
             id="path174"
             style="fill:#000000;fill-opacity:1;fill-rule:nonzero;stroke:none"
             d="m 0,0 c -2.94,2.94 -2.94,5.88 0,8.82 l 13.229,13.23 c 2.941,2.94 5.88,2.94 8.821,0 L 35.279,8.82 C 38.22,5.88 38.22,2.94 35.279,0 L 22.05,-13.229 c -2.941,-2.941 -5.88,-2.941 -8.821,0 z" /></g><g
           transform="translate(338.4805,47.1201)"
           id="g176"><path
             id="path178"
             style="fill:#000000;fill-opacity:1;fill-rule:nonzero;stroke:none"
             d="m 0,0 c -1.921,1.92 -1.921,3.84 0,5.76 l 8.64,8.639 c 1.92,1.921 3.839,1.921 5.759,0 L 23.039,5.76 C 24.96,3.84 24.96,1.92 23.039,0 l -8.64,-8.64 c -1.92,-1.921 -3.839,-1.921 -5.759,0 z" /></g><g
           transform="translate(438.4805,947.1201)"
           id="g180"><path
             id="path182"
             style="fill:#000000;fill-opacity:1;fill-rule:nonzero;stroke:none"
             d="m 0,0 c -1.921,1.92 -1.921,3.84 0,5.76 l 8.64,8.64 c 1.92,1.92 3.839,1.92 5.759,0 l 8.64,-8.64 C 24.96,3.84 24.96,1.92 23.039,0 l -8.64,-8.64 c -1.92,-1.92 -3.839,-1.92 -5.759,0 z" /></g><g
           transform="translate(432.3604,845.5898)"
           id="g184"><path
             id="path186"
             style="fill:#000000;fill-opacity:1;fill-rule:nonzero;stroke:none"
             d="m 0,0 c -2.94,2.94 -2.94,5.88 0,8.82 l 13.229,13.23 c 2.941,2.94 5.88,2.94 8.821,0 L 35.279,8.82 C 38.22,5.88 38.22,2.94 35.279,0 L 22.05,-13.23 c -2.941,-2.94 -5.88,-2.94 -8.821,0 z" /></g><g
           transform="translate(426.2402,744.0601)"
           id="g188"><path
             id="path190"
             style="fill:#000000;fill-opacity:1;fill-rule:nonzero;stroke:none"
             d="M 0,0 C -3.96,3.96 -3.96,7.92 0,11.88 L 17.819,29.7 c 3.96,3.96 7.921,3.96 11.881,0 L 47.52,11.88 C 51.479,7.92 51.479,3.96 47.52,0 L 29.7,-17.82 c -3.96,-3.96 -7.921,-3.96 -11.881,0 z" /></g><g
           transform="translate(420.1201,642.5298)"
           id="g192"><path
             id="path194"
             style="fill:#000000;fill-opacity:1;fill-rule:nonzero;stroke:none"
             d="m 0,0 c -4.98,4.98 -4.98,9.96 0,14.94 l 22.41,22.41 c 4.98,4.98 9.96,4.98 14.94,0 L 59.76,14.94 C 64.74,9.96 64.74,4.98 59.76,0 L 37.35,-22.41 c -4.98,-4.98 -9.96,-4.98 -14.94,0 z" /></g><g
           transform="translate(414,541)"
           id="g196"><path
             id="path198"
             style="fill:#000000;fill-opacity:1;fill-rule:nonzero;stroke:none"
             d="m 0,0 c -6,6 -6,12 0,18 l 27,27 c 6,6 12,6 18,0 L 72,18 C 78,12 78,6 72,0 L 45,-27 c -6,-6 -12,-6 -18,0 z" /></g><g
           transform="translate(414,441)"
           id="g200"><path
             id="path202"
             style="fill:#000000;fill-opacity:1;fill-rule:nonzero;stroke:none"
             d="m 0,0 c -6,6 -6,12 0,18 l 27,27 c 6,6 12,6 18,0 L 72,18 C 78,12 78,6 72,0 L 45,-27 c -6,-6 -12,-6 -18,0 z" /></g><g
           transform="translate(420.1201,342.5303)"
           id="g204"><path
             id="path206"
             style="fill:#000000;fill-opacity:1;fill-rule:nonzero;stroke:none"
             d="M 0,0 C -4.98,4.979 -4.98,9.96 0,14.939 L 22.41,37.35 c 4.98,4.98 9.96,4.98 14.94,0 L 59.76,14.939 C 64.74,9.96 64.74,4.979 59.76,0 L 37.35,-22.41 c -4.98,-4.981 -9.96,-4.981 -14.94,0 z" /></g><g
           transform="translate(426.2402,244.0596)"
           id="g208"><path
             id="path210"
             style="fill:#000000;fill-opacity:1;fill-rule:nonzero;stroke:none"
             d="M 0,0 C -3.96,3.96 -3.96,7.921 0,11.881 L 17.819,29.7 c 3.96,3.96 7.921,3.96 11.881,0 L 47.52,11.881 C 51.479,7.921 51.479,3.96 47.52,0 L 29.7,-17.819 c -3.96,-3.96 -7.921,-3.96 -11.881,0 z" /></g><g
           transform="translate(432.3604,145.5898)"
           id="g212"><path
             id="path214"
             style="fill:#000000;fill-opacity:1;fill-rule:nonzero;stroke:none"
             d="m 0,0 c -2.94,2.94 -2.94,5.88 0,8.82 l 13.229,13.23 c 2.941,2.94 5.88,2.94 8.821,0 L 35.279,8.82 C 38.22,5.88 38.22,2.94 35.279,0 L 22.05,-13.229 c -2.941,-2.941 -5.88,-2.941 -8.821,0 z" /></g><g
           transform="translate(438.4805,47.1201)"
           id="g216"><path
             id="path218"
             style="fill:#000000;fill-opacity:1;fill-rule:nonzero;stroke:none"
             d="m 0,0 c -1.921,1.92 -1.921,3.84 0,5.76 l 8.64,8.639 c 1.92,1.921 3.839,1.921 5.759,0 L 23.039,5.76 C 24.96,3.84 24.96,1.92 23.039,0 l -8.64,-8.64 c -1.92,-1.921 -3.839,-1.921 -5.759,0 z" /></g><g
           transform="translate(538.4805,947.1201)"
           id="g220"><path
             id="path222"
             style="fill:#000000;fill-opacity:1;fill-rule:nonzero;stroke:none"
             d="m 0,0 c -1.921,1.92 -1.921,3.84 0,5.76 l 8.64,8.64 c 1.92,1.92 3.839,1.92 5.759,0 l 8.64,-8.64 C 24.96,3.84 24.96,1.92 23.039,0 l -8.64,-8.64 c -1.92,-1.92 -3.839,-1.92 -5.759,0 z" /></g><g
           transform="translate(532.3604,845.5898)"
           id="g224"><path
             id="path226"
             style="fill:#000000;fill-opacity:1;fill-rule:nonzero;stroke:none"
             d="m 0,0 c -2.94,2.94 -2.94,5.88 0,8.82 l 13.229,13.23 c 2.941,2.94 5.88,2.94 8.821,0 L 35.279,8.82 C 38.22,5.88 38.22,2.94 35.279,0 L 22.05,-13.23 c -2.941,-2.94 -5.88,-2.94 -8.821,0 z" /></g><g
           transform="translate(526.2402,744.0601)"
           id="g228"><path
             id="path230"
             style="fill:#000000;fill-opacity:1;fill-rule:nonzero;stroke:none"
             d="M 0,0 C -3.96,3.96 -3.96,7.92 0,11.88 L 17.819,29.7 c 3.96,3.96 7.921,3.96 11.881,0 L 47.52,11.88 C 51.479,7.92 51.479,3.96 47.52,0 L 29.7,-17.82 c -3.96,-3.96 -7.921,-3.96 -11.881,0 z" /></g><g
           transform="translate(520.1201,642.5298)"
           id="g232"><path
             id="path234"
             style="fill:#000000;fill-opacity:1;fill-rule:nonzero;stroke:none"
             d="m 0,0 c -4.98,4.98 -4.98,9.96 0,14.94 l 22.41,22.41 c 4.98,4.98 9.96,4.98 14.94,0 L 59.76,14.94 C 64.74,9.96 64.74,4.98 59.76,0 L 37.35,-22.41 c -4.98,-4.98 -9.96,-4.98 -14.94,0 z" /></g><g
           transform="translate(514,541)"
           id="g236"><path
             id="path238"
             style="fill:#000000;fill-opacity:1;fill-rule:nonzero;stroke:none"
             d="m 0,0 c -6,6 -6,12 0,18 l 27,27 c 6,6 12,6 18,0 L 72,18 C 78,12 78,6 72,0 L 45,-27 c -6,-6 -12,-6 -18,0 z" /></g><g
           transform="translate(514,441)"
           id="g240"><path
             id="path242"
             style="fill:#000000;fill-opacity:1;fill-rule:nonzero;stroke:none"
             d="m 0,0 c -6,6 -6,12 0,18 l 27,27 c 6,6 12,6 18,0 L 72,18 C 78,12 78,6 72,0 L 45,-27 c -6,-6 -12,-6 -18,0 z" /></g><g
           transform="translate(520.1201,342.5303)"
           id="g244"><path
             id="path246"
             style="fill:#000000;fill-opacity:1;fill-rule:nonzero;stroke:none"
             d="M 0,0 C -4.98,4.979 -4.98,9.96 0,14.939 L 22.41,37.35 c 4.98,4.98 9.96,4.98 14.94,0 L 59.76,14.939 C 64.74,9.96 64.74,4.979 59.76,0 L 37.35,-22.41 c -4.98,-4.981 -9.96,-4.981 -14.94,0 z" /></g><g
           transform="translate(526.2402,244.0596)"
           id="g248"><path
             id="path250"
             style="fill:#000000;fill-opacity:1;fill-rule:nonzero;stroke:none"
             d="M 0,0 C -3.96,3.96 -3.96,7.921 0,11.881 L 17.819,29.7 c 3.96,3.96 7.921,3.96 11.881,0 L 47.52,11.881 C 51.479,7.921 51.479,3.96 47.52,0 L 29.7,-17.819 c -3.96,-3.96 -7.921,-3.96 -11.881,0 z" /></g><g
           transform="translate(532.3604,145.5898)"
           id="g252"><path
             id="path254"
             style="fill:#000000;fill-opacity:1;fill-rule:nonzero;stroke:none"
             d="m 0,0 c -2.94,2.94 -2.94,5.88 0,8.82 l 13.229,13.23 c 2.941,2.94 5.88,2.94 8.821,0 L 35.279,8.82 C 38.22,5.88 38.22,2.94 35.279,0 L 22.05,-13.229 c -2.941,-2.941 -5.88,-2.941 -8.821,0 z" /></g><g
           transform="translate(538.4805,47.1201)"
           id="g256"><path
             id="path258"
             style="fill:#000000;fill-opacity:1;fill-rule:nonzero;stroke:none"
             d="m 0,0 c -1.921,1.92 -1.921,3.84 0,5.76 l 8.64,8.639 c 1.92,1.921 3.839,1.921 5.759,0 L 23.039,5.76 C 24.96,3.84 24.96,1.92 23.039,0 l -8.64,-8.64 c -1.92,-1.921 -3.839,-1.921 -5.759,0 z" /></g><g
           transform="translate(638.4805,947.1201)"
           id="g260"><path
             id="path262"
             style="fill:#000000;fill-opacity:1;fill-rule:nonzero;stroke:none"
             d="m 0,0 c -1.921,1.92 -1.921,3.84 0,5.76 l 8.64,8.64 c 1.92,1.92 3.839,1.92 5.759,0 l 8.64,-8.64 C 24.96,3.84 24.96,1.92 23.039,0 l -8.64,-8.64 c -1.92,-1.92 -3.839,-1.92 -5.759,0 z" /></g><g
           transform="translate(632.3604,845.5898)"
           id="g264"><path
             id="path266"
             style="fill:#000000;fill-opacity:1;fill-rule:nonzero;stroke:none"
             d="m 0,0 c -2.94,2.94 -2.94,5.88 0,8.82 l 13.229,13.23 c 2.941,2.94 5.88,2.94 8.821,0 L 35.279,8.82 C 38.22,5.88 38.22,2.94 35.279,0 L 22.05,-13.23 c -2.941,-2.94 -5.88,-2.94 -8.821,0 z" /></g><g
           transform="translate(626.2402,744.0601)"
           id="g268"><path
             id="path270"
             style="fill:#000000;fill-opacity:1;fill-rule:nonzero;stroke:none"
             d="M 0,0 C -3.96,3.96 -3.96,7.92 0,11.88 L 17.819,29.7 c 3.96,3.96 7.921,3.96 11.881,0 L 47.52,11.88 C 51.479,7.92 51.479,3.96 47.52,0 L 29.7,-17.82 c -3.96,-3.96 -7.921,-3.96 -11.881,0 z" /></g><g
           transform="translate(620.1201,642.5298)"
           id="g272"><path
             id="path274"
             style="fill:#000000;fill-opacity:1;fill-rule:nonzero;stroke:none"
             d="m 0,0 c -4.98,4.98 -4.98,9.96 0,14.94 l 22.41,22.41 c 4.98,4.98 9.96,4.98 14.94,0 L 59.76,14.94 C 64.74,9.96 64.74,4.98 59.76,0 L 37.35,-22.41 c -4.98,-4.98 -9.96,-4.98 -14.94,0 z" /></g><g
           transform="translate(614,541)"
           id="g276"><path
             id="path278"
             style="fill:#000000;fill-opacity:1;fill-rule:nonzero;stroke:none"
             d="m 0,0 c -6,6 -6,12 0,18 l 27,27 c 6,6 12,6 18,0 L 72,18 C 78,12 78,6 72,0 L 45,-27 c -6,-6 -12,-6 -18,0 z" /></g><g
           transform="translate(614,441)"
           id="g280"><path
             id="path282"
             style="fill:#000000;fill-opacity:1;fill-rule:nonzero;stroke:none"
             d="m 0,0 c -6,6 -6,12 0,18 l 27,27 c 6,6 12,6 18,0 L 72,18 C 78,12 78,6 72,0 L 45,-27 c -6,-6 -12,-6 -18,0 z" /></g><g
           transform="translate(620.1201,342.5303)"
           id="g284"><path
             id="path286"
             style="fill:#000000;fill-opacity:1;fill-rule:nonzero;stroke:none"
             d="M 0,0 C -4.98,4.979 -4.98,9.96 0,14.939 L 22.41,37.35 c 4.98,4.98 9.96,4.98 14.94,0 L 59.76,14.939 C 64.74,9.96 64.74,4.979 59.76,0 L 37.35,-22.41 c -4.98,-4.981 -9.96,-4.981 -14.94,0 z" /></g><g
           transform="translate(626.2402,244.0596)"
           id="g288"><path
             id="path290"
             style="fill:#000000;fill-opacity:1;fill-rule:nonzero;stroke:none"
             d="M 0,0 C -3.96,3.96 -3.96,7.921 0,11.881 L 17.819,29.7 c 3.96,3.96 7.921,3.96 11.881,0 L 47.52,11.881 C 51.479,7.921 51.479,3.96 47.52,0 L 29.7,-17.819 c -3.96,-3.96 -7.921,-3.96 -11.881,0 z" /></g><g
           transform="translate(632.3604,145.5898)"
           id="g292"><path
             id="path294"
             style="fill:#000000;fill-opacity:1;fill-rule:nonzero;stroke:none"
             d="m 0,0 c -2.94,2.94 -2.94,5.88 0,8.82 l 13.229,13.23 c 2.941,2.94 5.88,2.94 8.821,0 L 35.279,8.82 C 38.22,5.88 38.22,2.94 35.279,0 L 22.05,-13.229 c -2.941,-2.941 -5.88,-2.941 -8.821,0 z" /></g><g
           transform="translate(638.4805,47.1201)"
           id="g296"><path
             id="path298"
             style="fill:#000000;fill-opacity:1;fill-rule:nonzero;stroke:none"
             d="m 0,0 c -1.921,1.92 -1.921,3.84 0,5.76 l 8.64,8.639 c 1.92,1.921 3.839,1.921 5.759,0 L 23.039,5.76 C 24.96,3.84 24.96,1.92 23.039,0 l -8.64,-8.64 c -1.92,-1.921 -3.839,-1.921 -5.759,0 z" /></g><g
           transform="translate(738.4805,947.1201)"
           id="g300"><path
             id="path302"
             style="fill:#000000;fill-opacity:1;fill-rule:nonzero;stroke:none"
             d="m 0,0 c -1.921,1.92 -1.921,3.84 0,5.76 l 8.64,8.64 c 1.92,1.92 3.839,1.92 5.759,0 l 8.64,-8.64 C 24.96,3.84 24.96,1.92 23.039,0 l -8.64,-8.64 c -1.92,-1.92 -3.839,-1.92 -5.759,0 z" /></g><g
           transform="translate(732.3604,845.5898)"
           id="g304"><path
             id="path306"
             style="fill:#000000;fill-opacity:1;fill-rule:nonzero;stroke:none"
             d="m 0,0 c -2.94,2.94 -2.94,5.88 0,8.82 l 13.229,13.23 c 2.941,2.94 5.88,2.94 8.821,0 L 35.279,8.82 C 38.22,5.88 38.22,2.94 35.279,0 L 22.05,-13.23 c -2.941,-2.94 -5.88,-2.94 -8.821,0 z" /></g><g
           transform="translate(726.2402,744.0601)"
           id="g308"><path
             id="path310"
             style="fill:#000000;fill-opacity:1;fill-rule:nonzero;stroke:none"
             d="M 0,0 C -3.96,3.96 -3.96,7.92 0,11.88 L 17.819,29.7 c 3.96,3.96 7.921,3.96 11.881,0 L 47.52,11.88 C 51.479,7.92 51.479,3.96 47.52,0 L 29.7,-17.82 c -3.96,-3.96 -7.921,-3.96 -11.881,0 z" /></g><g
           transform="translate(720.1201,642.5298)"
           id="g312"><path
             id="path314"
             style="fill:#000000;fill-opacity:1;fill-rule:nonzero;stroke:none"
             d="m 0,0 c -4.98,4.98 -4.98,9.96 0,14.94 l 22.41,22.41 c 4.98,4.98 9.96,4.98 14.94,0 L 59.76,14.94 C 64.74,9.96 64.74,4.98 59.76,0 L 37.35,-22.41 c -4.98,-4.98 -9.96,-4.98 -14.94,0 z" /></g><g
           transform="translate(714,541)"
           id="g316"><path
             id="path318"
             style="fill:#000000;fill-opacity:1;fill-rule:nonzero;stroke:none"
             d="m 0,0 c -6,6 -6,12 0,18 l 27,27 c 6,6 12,6 18,0 L 72,18 C 78,12 78,6 72,0 L 45,-27 c -6,-6 -12,-6 -18,0 z" /></g><g
           transform="translate(714,441)"
           id="g320"><path
             id="path322"
             style="fill:#000000;fill-opacity:1;fill-rule:nonzero;stroke:none"
             d="m 0,0 c -6,6 -6,12 0,18 l 27,27 c 6,6 12,6 18,0 L 72,18 C 78,12 78,6 72,0 L 45,-27 c -6,-6 -12,-6 -18,0 z" /></g><g
           transform="translate(720.1201,342.5303)"
           id="g324"><path
             id="path326"
             style="fill:#000000;fill-opacity:1;fill-rule:nonzero;stroke:none"
             d="M 0,0 C -4.98,4.979 -4.98,9.96 0,14.939 L 22.41,37.35 c 4.98,4.98 9.96,4.98 14.94,0 L 59.76,14.939 C 64.74,9.96 64.74,4.979 59.76,0 L 37.35,-22.41 c -4.98,-4.981 -9.96,-4.981 -14.94,0 z" /></g><g
           transform="translate(726.2402,244.0596)"
           id="g328"><path
             id="path330"
             style="fill:#000000;fill-opacity:1;fill-rule:nonzero;stroke:none"
             d="M 0,0 C -3.96,3.96 -3.96,7.921 0,11.881 L 17.819,29.7 c 3.96,3.96 7.921,3.96 11.881,0 L 47.52,11.881 C 51.479,7.921 51.479,3.96 47.52,0 L 29.7,-17.819 c -3.96,-3.96 -7.921,-3.96 -11.881,0 z" /></g><g
           transform="translate(732.3604,145.5898)"
           id="g332"><path
             id="path334"
             style="fill:#000000;fill-opacity:1;fill-rule:nonzero;stroke:none"
             d="m 0,0 c -2.94,2.94 -2.94,5.88 0,8.82 l 13.229,13.23 c 2.941,2.94 5.88,2.94 8.821,0 L 35.279,8.82 C 38.22,5.88 38.22,2.94 35.279,0 L 22.05,-13.229 c -2.941,-2.941 -5.88,-2.941 -8.821,0 z" /></g><g
           transform="translate(738.4805,47.1201)"
           id="g336"><path
             id="path338"
             style="fill:#000000;fill-opacity:1;fill-rule:nonzero;stroke:none"
             d="m 0,0 c -1.921,1.92 -1.921,3.84 0,5.76 l 8.64,8.639 c 1.92,1.921 3.839,1.921 5.759,0 L 23.039,5.76 C 24.96,3.84 24.96,1.92 23.039,0 l -8.64,-8.64 c -1.92,-1.921 -3.839,-1.921 -5.759,0 z" /></g><g
           transform="translate(838.4805,947.1201)"
           id="g340"><path
             id="path342"
             style="fill:#000000;fill-opacity:1;fill-rule:nonzero;stroke:none"
             d="m 0,0 c -1.921,1.92 -1.921,3.84 0,5.76 l 8.64,8.64 c 1.92,1.92 3.839,1.92 5.759,0 l 8.64,-8.64 C 24.96,3.84 24.96,1.92 23.039,0 l -8.64,-8.64 c -1.92,-1.92 -3.839,-1.92 -5.759,0 z" /></g><g
           transform="translate(832.3604,845.5898)"
           id="g344"><path
             id="path346"
             style="fill:#000000;fill-opacity:1;fill-rule:nonzero;stroke:none"
             d="m 0,0 c -2.94,2.94 -2.94,5.88 0,8.82 l 13.229,13.23 c 2.941,2.94 5.88,2.94 8.821,0 L 35.279,8.82 C 38.22,5.88 38.22,2.94 35.279,0 L 22.05,-13.23 c -2.941,-2.94 -5.88,-2.94 -8.821,0 z" /></g><g
           transform="translate(826.2402,744.0601)"
           id="g348"><path
             id="path350"
             style="fill:#000000;fill-opacity:1;fill-rule:nonzero;stroke:none"
             d="M 0,0 C -3.96,3.96 -3.96,7.92 0,11.88 L 17.819,29.7 c 3.96,3.96 7.921,3.96 11.881,0 L 47.52,11.88 C 51.479,7.92 51.479,3.96 47.52,0 L 29.7,-17.82 c -3.96,-3.96 -7.921,-3.96 -11.881,0 z" /></g><g
           transform="translate(820.1201,642.5298)"
           id="g352"><path
             id="path354"
             style="fill:#000000;fill-opacity:1;fill-rule:nonzero;stroke:none"
             d="m 0,0 c -4.98,4.98 -4.98,9.96 0,14.94 l 22.41,22.41 c 4.98,4.98 9.96,4.98 14.94,0 L 59.76,14.94 C 64.74,9.96 64.74,4.98 59.76,0 L 37.35,-22.41 c -4.98,-4.98 -9.96,-4.98 -14.94,0 z" /></g><g
           transform="translate(814,541)"
           id="g356"><path
             id="path358"
             style="fill:#000000;fill-opacity:1;fill-rule:nonzero;stroke:none"
             d="m 0,0 c -6,6 -6,12 0,18 l 27,27 c 6,6 12,6 18,0 L 72,18 C 78,12 78,6 72,0 L 45,-27 c -6,-6 -12,-6 -18,0 z" /></g><g
           transform="translate(814,441)"
           id="g360"><path
             id="path362"
             style="fill:#000000;fill-opacity:1;fill-rule:nonzero;stroke:none"
             d="m 0,0 c -6,6 -6,12 0,18 l 27,27 c 6,6 12,6 18,0 L 72,18 C 78,12 78,6 72,0 L 45,-27 c -6,-6 -12,-6 -18,0 z" /></g><g
           transform="translate(820.1201,342.5303)"
           id="g364"><path
             id="path366"
             style="fill:#000000;fill-opacity:1;fill-rule:nonzero;stroke:none"
             d="M 0,0 C -4.98,4.979 -4.98,9.96 0,14.939 L 22.41,37.35 c 4.98,4.98 9.96,4.98 14.94,0 L 59.76,14.939 C 64.74,9.96 64.74,4.979 59.76,0 L 37.35,-22.41 c -4.98,-4.981 -9.96,-4.981 -14.94,0 z" /></g><g
           transform="translate(826.2402,244.0596)"
           id="g368"><path
             id="path370"
             style="fill:#000000;fill-opacity:1;fill-rule:nonzero;stroke:none"
             d="M 0,0 C -3.96,3.96 -3.96,7.921 0,11.881 L 17.819,29.7 c 3.96,3.96 7.921,3.96 11.881,0 L 47.52,11.881 C 51.479,7.921 51.479,3.96 47.52,0 L 29.7,-17.819 c -3.96,-3.96 -7.921,-3.96 -11.881,0 z" /></g><g
           transform="translate(832.3604,145.5898)"
           id="g372"><path
             id="path374"
             style="fill:#000000;fill-opacity:1;fill-rule:nonzero;stroke:none"
             d="m 0,0 c -2.94,2.94 -2.94,5.88 0,8.82 l 13.229,13.23 c 2.941,2.94 5.88,2.94 8.821,0 L 35.279,8.82 C 38.22,5.88 38.22,2.94 35.279,0 L 22.05,-13.229 c -2.941,-2.941 -5.88,-2.941 -8.821,0 z" /></g><g
           transform="translate(838.4805,47.1201)"
           id="g376"><path
             id="path378"
             style="fill:#000000;fill-opacity:1;fill-rule:nonzero;stroke:none"
             d="m 0,0 c -1.921,1.92 -1.921,3.84 0,5.76 l 8.64,8.639 c 1.92,1.921 3.839,1.921 5.759,0 L 23.039,5.76 C 24.96,3.84 24.96,1.92 23.039,0 l -8.64,-8.64 c -1.92,-1.921 -3.839,-1.921 -5.759,0 z" /></g><g
           transform="translate(938.4805,947.1201)"
           id="g380"><path
             id="path382"
             style="fill:#000000;fill-opacity:1;fill-rule:nonzero;stroke:none"
             d="m 0,0 c -1.921,1.92 -1.921,3.84 0,5.76 l 8.64,8.64 c 1.92,1.92 3.839,1.92 5.759,0 l 8.64,-8.64 C 24.96,3.84 24.96,1.92 23.039,0 l -8.64,-8.64 c -1.92,-1.92 -3.839,-1.92 -5.759,0 z" /></g><g
           transform="translate(932.3604,845.5898)"
           id="g384"><path
             id="path386"
             style="fill:#000000;fill-opacity:1;fill-rule:nonzero;stroke:none"
             d="m 0,0 c -2.94,2.94 -2.94,5.88 0,8.82 l 13.229,13.23 c 2.941,2.94 5.88,2.94 8.821,0 L 35.279,8.82 C 38.22,5.88 38.22,2.94 35.279,0 L 22.05,-13.23 c -2.941,-2.94 -5.88,-2.94 -8.821,0 z" /></g><g
           transform="translate(926.2402,744.0601)"
           id="g388"><path
             id="path390"
             style="fill:#000000;fill-opacity:1;fill-rule:nonzero;stroke:none"
             d="M 0,0 C -3.96,3.96 -3.96,7.92 0,11.88 L 17.819,29.7 c 3.96,3.96 7.921,3.96 11.881,0 L 47.52,11.88 C 51.479,7.92 51.479,3.96 47.52,0 L 29.7,-17.82 c -3.96,-3.96 -7.921,-3.96 -11.881,0 z" /></g><g
           transform="translate(920.1201,642.5298)"
           id="g392"><path
             id="path394"
             style="fill:#000000;fill-opacity:1;fill-rule:nonzero;stroke:none"
             d="m 0,0 c -4.98,4.98 -4.98,9.96 0,14.94 l 22.41,22.41 c 4.98,4.98 9.96,4.98 14.94,0 L 59.76,14.94 C 64.74,9.96 64.74,4.98 59.76,0 L 37.35,-22.41 c -4.98,-4.98 -9.96,-4.98 -14.94,0 z" /></g><g
           transform="translate(914,541)"
           id="g396"><path
             id="path398"
             style="fill:#000000;fill-opacity:1;fill-rule:nonzero;stroke:none"
             d="m 0,0 c -6,6 -6,12 0,18 l 27,27 c 6,6 12,6 18,0 L 72,18 C 78,12 78,6 72,0 L 45,-27 c -6,-6 -12,-6 -18,0 z" /></g><g
           transform="translate(914,441)"
           id="g400"><path
             id="path402"
             style="fill:#000000;fill-opacity:1;fill-rule:nonzero;stroke:none"
             d="m 0,0 c -6,6 -6,12 0,18 l 27,27 c 6,6 12,6 18,0 L 72,18 C 78,12 78,6 72,0 L 45,-27 c -6,-6 -12,-6 -18,0 z" /></g><g
           transform="translate(920.1201,342.5303)"
           id="g404"><path
             id="path406"
             style="fill:#000000;fill-opacity:1;fill-rule:nonzero;stroke:none"
             d="M 0,0 C -4.98,4.979 -4.98,9.96 0,14.939 L 22.41,37.35 c 4.98,4.98 9.96,4.98 14.94,0 L 59.76,14.939 C 64.74,9.96 64.74,4.979 59.76,0 L 37.35,-22.41 c -4.98,-4.981 -9.96,-4.981 -14.94,0 z" /></g><g
           transform="translate(926.2402,244.0596)"
           id="g408"><path
             id="path410"
             style="fill:#000000;fill-opacity:1;fill-rule:nonzero;stroke:none"
             d="M 0,0 C -3.96,3.96 -3.96,7.921 0,11.881 L 17.819,29.7 c 3.96,3.96 7.921,3.96 11.881,0 L 47.52,11.881 C 51.479,7.921 51.479,3.96 47.52,0 L 29.7,-17.819 c -3.96,-3.96 -7.921,-3.96 -11.881,0 z" /></g><g
           transform="translate(932.3604,145.5898)"
           id="g412"><path
             id="path414"
             style="fill:#000000;fill-opacity:1;fill-rule:nonzero;stroke:none"
             d="m 0,0 c -2.94,2.94 -2.94,5.88 0,8.82 l 13.229,13.23 c 2.941,2.94 5.88,2.94 8.821,0 L 35.279,8.82 C 38.22,5.88 38.22,2.94 35.279,0 L 22.05,-13.229 c -2.941,-2.941 -5.88,-2.941 -8.821,0 z" /></g><g
           transform="translate(938.4805,47.1201)"
           id="g416"><path
             id="path418"
             style="fill:#000000;fill-opacity:1;fill-rule:nonzero;stroke:none"
             d="m 0,0 c -1.921,1.92 -1.921,3.84 0,5.76 l 8.64,8.639 c 1.92,1.921 3.839,1.921 5.759,0 L 23.039,5.76 C 24.96,3.84 24.96,1.92 23.039,0 l -8.64,-8.64 c -1.92,-1.921 -3.839,-1.921 -5.759,0 z" /></g><g
           transform="translate(-9.3999,997.6499)"
           id="g420"><path
             id="path422"
             style="fill:#000000;fill-opacity:1;fill-rule:nonzero;stroke:none"
             d="m 0,0 c -1.567,1.567 -1.567,3.133 0,4.7 l 7.05,7.05 c 1.567,1.567 3.133,1.567 4.7,0 L 18.8,4.7 c 1.567,-1.567 1.567,-3.133 0,-4.7 l -7.05,-7.05 c -1.567,-1.567 -3.133,-1.567 -4.7,0 z" /></g><g
           transform="translate(-16.2002,895.9502)"
           id="g424"><path
             id="path426"
             style="fill:#000000;fill-opacity:1;fill-rule:nonzero;stroke:none"
             d="m 0,0 c -2.7,2.7 -2.7,5.4 0,8.1 l 12.15,12.15 c 2.7,2.7 5.4,2.7 8.1,0 L 32.4,8.1 C 35.1,5.4 35.1,2.7 32.4,0 L 20.25,-12.15 c -2.7,-2.7 -5.4,-2.7 -8.1,0 z" /></g><g
           transform="translate(-23,794.25)"
           id="g428"><path
             id="path430"
             style="fill:#000000;fill-opacity:1;fill-rule:nonzero;stroke:none"
             d="m 0,0 c -3.833,3.833 -3.833,7.667 0,11.5 l 17.25,17.25 c 3.833,3.833 7.667,3.833 11.5,0 L 46,11.5 C 49.833,7.667 49.833,3.833 46,0 L 28.75,-17.25 c -3.833,-3.833 -7.667,-3.833 -11.5,0 z" /></g><g
           transform="translate(-29.7998,692.5498)"
           id="g432"><path
             id="path434"
             style="fill:#000000;fill-opacity:1;fill-rule:nonzero;stroke:none"
             d="m 0,0 c -4.967,4.967 -4.967,9.934 0,14.9 l 22.35,22.35 c 4.966,4.967 9.933,4.967 14.9,0 L 59.6,14.9 C 64.566,9.934 64.566,4.967 59.6,0 L 37.25,-22.35 c -4.967,-4.966 -9.934,-4.966 -14.9,0 z" /></g><g
           transform="translate(-36.6001,590.8496)"
           id="g436"><path
             id="path438"
             style="fill:#000000;fill-opacity:1;fill-rule:nonzero;stroke:none"
             d="m 0,0 c -6.1,6.101 -6.1,12.2 0,18.3 l 27.45,27.45 c 6.1,6.101 12.2,6.101 18.3,0 L 73.2,18.3 C 79.3,12.2 79.3,6.101 73.2,0 L 45.75,-27.449 c -6.1,-6.101 -12.2,-6.101 -18.3,0 z" /></g><g
           transform="translate(-40,490)"
           id="g440"><path
             id="path442"
             style="fill:#000000;fill-opacity:1;fill-rule:nonzero;stroke:none"
             d="m 0,0 c -6.667,6.667 -6.667,13.333 0,20 l 30,30 c 6.667,6.667 13.333,6.667 20,0 L 80,20 C 86.667,13.333 86.667,6.667 80,0 L 50,-30 c -6.667,-6.667 -13.333,-6.667 -20,0 z" /></g><g
           transform="translate(-36.6001,390.8496)"
           id="g444"><path
             id="path446"
             style="fill:#000000;fill-opacity:1;fill-rule:nonzero;stroke:none"
             d="M 0,0 C -6.1,6.101 -6.1,12.2 0,18.301 L 27.45,45.75 c 6.1,6.101 12.2,6.101 18.3,0 L 73.2,18.301 C 79.3,12.2 79.3,6.101 73.2,0 L 45.75,-27.449 c -6.1,-6.101 -12.2,-6.101 -18.3,0 z" /></g><g
           transform="translate(-29.7998,292.5498)"
           id="g448"><path
             id="path450"
             style="fill:#000000;fill-opacity:1;fill-rule:nonzero;stroke:none"
             d="m 0,0 c -4.967,4.967 -4.967,9.934 0,14.9 l 22.35,22.35 c 4.966,4.967 9.933,4.967 14.9,0 L 59.6,14.9 C 64.566,9.934 64.566,4.967 59.6,0 L 37.25,-22.35 c -4.967,-4.966 -9.934,-4.966 -14.9,0 z" /></g><g
           transform="translate(-23,194.25)"
           id="g452"><path
             id="path454"
             style="fill:#000000;fill-opacity:1;fill-rule:nonzero;stroke:none"
             d="m 0,0 c -3.833,3.833 -3.833,7.667 0,11.5 l 17.25,17.25 c 3.833,3.833 7.667,3.833 11.5,0 L 46,11.5 C 49.833,7.667 49.833,3.833 46,0 L 28.75,-17.25 c -3.833,-3.833 -7.667,-3.833 -11.5,0 z" /></g><g
           transform="translate(-16.2002,95.9502)"
           id="g456"><path
             id="path458"
             style="fill:#000000;fill-opacity:1;fill-rule:nonzero;stroke:none"
             d="m 0,0 c -2.7,2.7 -2.7,5.399 0,8.1 l 12.15,12.15 c 2.7,2.7 5.4,2.7 8.1,0 L 32.4,8.1 C 35.1,5.399 35.1,2.7 32.4,0 L 20.25,-12.15 c -2.7,-2.701 -5.4,-2.701 -8.1,0 z" /></g><g
           transform="translate(-9.3999,-2.3496)"
           id="g460"><path
             id="path462"
             style="fill:#000000;fill-opacity:1;fill-rule:nonzero;stroke:none"
             d="m 0,0 c -1.567,1.566 -1.567,3.133 0,4.699 l 7.05,7.051 c 1.567,1.566 3.133,1.566 4.7,0 L 18.8,4.699 C 20.367,3.133 20.367,1.566 18.8,0 l -7.05,-7.051 c -1.567,-1.566 -3.133,-1.566 -4.7,0 z" /></g><g
           transform="translate(90.6001,997.6499)"
           id="g464"><path
             id="path466"
             style="fill:#000000;fill-opacity:1;fill-rule:nonzero;stroke:none"
             d="m 0,0 c -1.567,1.567 -1.567,3.133 0,4.7 l 7.05,7.05 c 1.567,1.567 3.133,1.567 4.7,0 L 18.8,4.7 c 1.567,-1.567 1.567,-3.133 0,-4.7 l -7.05,-7.05 c -1.567,-1.567 -3.133,-1.567 -4.7,0 z" /></g><g
           transform="translate(83.7998,895.9502)"
           id="g468"><path
             id="path470"
             style="fill:#000000;fill-opacity:1;fill-rule:nonzero;stroke:none"
             d="m 0,0 c -2.7,2.7 -2.7,5.4 0,8.1 l 12.15,12.15 c 2.7,2.7 5.4,2.7 8.1,0 L 32.4,8.1 C 35.1,5.4 35.1,2.7 32.4,0 L 20.25,-12.15 c -2.7,-2.7 -5.4,-2.7 -8.1,0 z" /></g><g
           transform="translate(77,794.25)"
           id="g472"><path
             id="path474"
             style="fill:#000000;fill-opacity:1;fill-rule:nonzero;stroke:none"
             d="m 0,0 c -3.833,3.833 -3.833,7.667 0,11.5 l 17.25,17.25 c 3.833,3.833 7.667,3.833 11.5,0 L 46,11.5 C 49.833,7.667 49.833,3.833 46,0 L 28.75,-17.25 c -3.833,-3.833 -7.667,-3.833 -11.5,0 z" /></g><g
           transform="translate(70.2002,692.5498)"
           id="g476"><path
             id="path478"
             style="fill:#000000;fill-opacity:1;fill-rule:nonzero;stroke:none"
             d="m 0,0 c -4.967,4.967 -4.967,9.934 0,14.9 l 22.35,22.35 c 4.966,4.967 9.933,4.967 14.9,0 L 59.6,14.9 C 64.566,9.934 64.566,4.967 59.6,0 L 37.25,-22.35 c -4.967,-4.966 -9.934,-4.966 -14.9,0 z" /></g><g
           transform="translate(63.3999,590.8496)"
           id="g480"><path
             id="path482"
             style="fill:#000000;fill-opacity:1;fill-rule:nonzero;stroke:none"
             d="m 0,0 c -6.1,6.101 -6.1,12.2 0,18.3 l 27.45,27.45 c 6.1,6.101 12.2,6.101 18.3,0 L 73.2,18.3 C 79.3,12.2 79.3,6.101 73.2,0 L 45.75,-27.449 c -6.1,-6.101 -12.2,-6.101 -18.3,0 z" /></g><g
           transform="translate(60,490)"
           id="g484"><path
             id="path486"
             style="fill:#000000;fill-opacity:1;fill-rule:nonzero;stroke:none"
             d="m 0,0 c -6.667,6.667 -6.667,13.333 0,20 l 30,30 c 6.667,6.667 13.333,6.667 20,0 L 80,20 C 86.667,13.333 86.667,6.667 80,0 L 50,-30 c -6.667,-6.667 -13.333,-6.667 -20,0 z" /></g><g
           transform="translate(63.3999,390.8496)"
           id="g488"><path
             id="path490"
             style="fill:#000000;fill-opacity:1;fill-rule:nonzero;stroke:none"
             d="M 0,0 C -6.1,6.101 -6.1,12.2 0,18.301 L 27.45,45.75 c 6.1,6.101 12.2,6.101 18.3,0 L 73.2,18.301 C 79.3,12.2 79.3,6.101 73.2,0 L 45.75,-27.449 c -6.1,-6.101 -12.2,-6.101 -18.3,0 z" /></g><g
           transform="translate(70.2002,292.5498)"
           id="g492"><path
             id="path494"
             style="fill:#000000;fill-opacity:1;fill-rule:nonzero;stroke:none"
             d="m 0,0 c -4.967,4.967 -4.967,9.934 0,14.9 l 22.35,22.35 c 4.966,4.967 9.933,4.967 14.9,0 L 59.6,14.9 C 64.566,9.934 64.566,4.967 59.6,0 L 37.25,-22.35 c -4.967,-4.966 -9.934,-4.966 -14.9,0 z" /></g><g
           transform="translate(77,194.25)"
           id="g496"><path
             id="path498"
             style="fill:#000000;fill-opacity:1;fill-rule:nonzero;stroke:none"
             d="m 0,0 c -3.833,3.833 -3.833,7.667 0,11.5 l 17.25,17.25 c 3.833,3.833 7.667,3.833 11.5,0 L 46,11.5 C 49.833,7.667 49.833,3.833 46,0 L 28.75,-17.25 c -3.833,-3.833 -7.667,-3.833 -11.5,0 z" /></g><g
           transform="translate(83.7998,95.9502)"
           id="g500"><path
             id="path502"
             style="fill:#000000;fill-opacity:1;fill-rule:nonzero;stroke:none"
             d="m 0,0 c -2.7,2.7 -2.7,5.399 0,8.1 l 12.15,12.15 c 2.7,2.7 5.4,2.7 8.1,0 L 32.4,8.1 C 35.1,5.399 35.1,2.7 32.4,0 L 20.25,-12.15 c -2.7,-2.701 -5.4,-2.701 -8.1,0 z" /></g><g
           transform="translate(90.6001,-2.3496)"
           id="g504"><path
             id="path506"
             style="fill:#000000;fill-opacity:1;fill-rule:nonzero;stroke:none"
             d="m 0,0 c -1.567,1.566 -1.567,3.133 0,4.699 l 7.05,7.051 c 1.567,1.566 3.133,1.566 4.7,0 L 18.8,4.699 C 20.367,3.133 20.367,1.566 18.8,0 l -7.05,-7.051 c -1.567,-1.566 -3.133,-1.566 -4.7,0 z" /></g><g
           transform="translate(190.6001,997.6499)"
           id="g508"><path
             id="path510"
             style="fill:#000000;fill-opacity:1;fill-rule:nonzero;stroke:none"
             d="m 0,0 c -1.567,1.567 -1.567,3.133 0,4.7 l 7.05,7.05 c 1.567,1.567 3.133,1.567 4.7,0 L 18.8,4.7 c 1.567,-1.567 1.567,-3.133 0,-4.7 l -7.05,-7.05 c -1.567,-1.567 -3.133,-1.567 -4.7,0 z" /></g><g
           transform="translate(183.7998,895.9502)"
           id="g512"><path
             id="path514"
             style="fill:#000000;fill-opacity:1;fill-rule:nonzero;stroke:none"
             d="m 0,0 c -2.7,2.7 -2.7,5.4 0,8.1 l 12.15,12.15 c 2.7,2.7 5.4,2.7 8.1,0 L 32.4,8.1 C 35.1,5.4 35.1,2.7 32.4,0 L 20.25,-12.15 c -2.7,-2.7 -5.4,-2.7 -8.1,0 z" /></g><g
           transform="translate(177,794.25)"
           id="g516"><path
             id="path518"
             style="fill:#000000;fill-opacity:1;fill-rule:nonzero;stroke:none"
             d="m 0,0 c -3.833,3.833 -3.833,7.667 0,11.5 l 17.25,17.25 c 3.833,3.833 7.667,3.833 11.5,0 L 46,11.5 C 49.833,7.667 49.833,3.833 46,0 L 28.75,-17.25 c -3.833,-3.833 -7.667,-3.833 -11.5,0 z" /></g><g
           transform="translate(170.2002,692.5498)"
           id="g520"><path
             id="path522"
             style="fill:#000000;fill-opacity:1;fill-rule:nonzero;stroke:none"
             d="m 0,0 c -4.967,4.967 -4.967,9.934 0,14.9 l 22.35,22.35 c 4.966,4.967 9.933,4.967 14.9,0 L 59.6,14.9 C 64.566,9.934 64.566,4.967 59.6,0 L 37.25,-22.35 c -4.967,-4.966 -9.934,-4.966 -14.9,0 z" /></g><g
           transform="translate(163.3999,590.8496)"
           id="g524"><path
             id="path526"
             style="fill:#000000;fill-opacity:1;fill-rule:nonzero;stroke:none"
             d="m 0,0 c -6.1,6.101 -6.1,12.2 0,18.3 l 27.45,27.45 c 6.1,6.101 12.2,6.101 18.3,0 L 73.2,18.3 C 79.3,12.2 79.3,6.101 73.2,0 L 45.75,-27.449 c -6.1,-6.101 -12.2,-6.101 -18.3,0 z" /></g><g
           transform="translate(160,490)"
           id="g528"><path
             id="path530"
             style="fill:#000000;fill-opacity:1;fill-rule:nonzero;stroke:none"
             d="m 0,0 c -6.667,6.667 -6.667,13.333 0,20 l 30,30 c 6.667,6.667 13.333,6.667 20,0 L 80,20 C 86.667,13.333 86.667,6.667 80,0 L 50,-30 c -6.667,-6.667 -13.333,-6.667 -20,0 z" /></g><g
           transform="translate(163.3999,390.8496)"
           id="g532"><path
             id="path534"
             style="fill:#000000;fill-opacity:1;fill-rule:nonzero;stroke:none"
             d="M 0,0 C -6.1,6.101 -6.1,12.2 0,18.301 L 27.45,45.75 c 6.1,6.101 12.2,6.101 18.3,0 L 73.2,18.301 C 79.3,12.2 79.3,6.101 73.2,0 L 45.75,-27.449 c -6.1,-6.101 -12.2,-6.101 -18.3,0 z" /></g><g
           transform="translate(170.2002,292.5498)"
           id="g536"><path
             id="path538"
             style="fill:#000000;fill-opacity:1;fill-rule:nonzero;stroke:none"
             d="m 0,0 c -4.967,4.967 -4.967,9.934 0,14.9 l 22.35,22.35 c 4.966,4.967 9.933,4.967 14.9,0 L 59.6,14.9 C 64.566,9.934 64.566,4.967 59.6,0 L 37.25,-22.35 c -4.967,-4.966 -9.934,-4.966 -14.9,0 z" /></g><g
           transform="translate(177,194.25)"
           id="g540"><path
             id="path542"
             style="fill:#000000;fill-opacity:1;fill-rule:nonzero;stroke:none"
             d="m 0,0 c -3.833,3.833 -3.833,7.667 0,11.5 l 17.25,17.25 c 3.833,3.833 7.667,3.833 11.5,0 L 46,11.5 C 49.833,7.667 49.833,3.833 46,0 L 28.75,-17.25 c -3.833,-3.833 -7.667,-3.833 -11.5,0 z" /></g><g
           transform="translate(183.7998,95.9502)"
           id="g544"><path
             id="path546"
             style="fill:#000000;fill-opacity:1;fill-rule:nonzero;stroke:none"
             d="m 0,0 c -2.7,2.7 -2.7,5.399 0,8.1 l 12.15,12.15 c 2.7,2.7 5.4,2.7 8.1,0 L 32.4,8.1 C 35.1,5.399 35.1,2.7 32.4,0 L 20.25,-12.15 c -2.7,-2.701 -5.4,-2.701 -8.1,0 z" /></g><g
           transform="translate(190.6001,-2.3496)"
           id="g548"><path
             id="path550"
             style="fill:#000000;fill-opacity:1;fill-rule:nonzero;stroke:none"
             d="m 0,0 c -1.567,1.566 -1.567,3.133 0,4.699 l 7.05,7.051 c 1.567,1.566 3.133,1.566 4.7,0 L 18.8,4.699 C 20.367,3.133 20.367,1.566 18.8,0 l -7.05,-7.051 c -1.567,-1.566 -3.133,-1.566 -4.7,0 z" /></g><g
           transform="translate(290.6001,997.6499)"
           id="g552"><path
             id="path554"
             style="fill:#000000;fill-opacity:1;fill-rule:nonzero;stroke:none"
             d="m 0,0 c -1.567,1.567 -1.567,3.133 0,4.7 l 7.05,7.05 c 1.567,1.567 3.133,1.567 4.7,0 L 18.8,4.7 c 1.567,-1.567 1.567,-3.133 0,-4.7 l -7.05,-7.05 c -1.567,-1.567 -3.133,-1.567 -4.7,0 z" /></g><g
           transform="translate(283.7998,895.9502)"
           id="g556"><path
             id="path558"
             style="fill:#000000;fill-opacity:1;fill-rule:nonzero;stroke:none"
             d="m 0,0 c -2.7,2.7 -2.7,5.4 0,8.1 l 12.15,12.15 c 2.7,2.7 5.4,2.7 8.1,0 L 32.4,8.1 C 35.101,5.4 35.101,2.7 32.4,0 L 20.25,-12.15 c -2.7,-2.7 -5.4,-2.7 -8.1,0 z" /></g><g
           transform="translate(277,794.25)"
           id="g560"><path
             id="path562"
             style="fill:#000000;fill-opacity:1;fill-rule:nonzero;stroke:none"
             d="m 0,0 c -3.833,3.833 -3.833,7.667 0,11.5 l 17.25,17.25 c 3.833,3.833 7.667,3.833 11.5,0 L 46,11.5 C 49.833,7.667 49.833,3.833 46,0 L 28.75,-17.25 c -3.833,-3.833 -7.667,-3.833 -11.5,0 z" /></g><g
           transform="translate(270.2002,692.5498)"
           id="g564"><path
             id="path566"
             style="fill:#000000;fill-opacity:1;fill-rule:nonzero;stroke:none"
             d="m 0,0 c -4.967,4.967 -4.967,9.934 0,14.9 l 22.35,22.35 c 4.966,4.967 9.933,4.967 14.9,0 L 59.6,14.9 C 64.566,9.934 64.566,4.967 59.6,0 L 37.25,-22.35 c -4.967,-4.966 -9.934,-4.966 -14.9,0 z" /></g><g
           transform="translate(263.3999,590.8496)"
           id="g568"><path
             id="path570"
             style="fill:#000000;fill-opacity:1;fill-rule:nonzero;stroke:none"
             d="m 0,0 c -6.1,6.101 -6.1,12.2 0,18.3 l 27.45,27.45 c 6.1,6.101 12.2,6.101 18.3,0 L 73.2,18.3 C 79.3,12.2 79.3,6.101 73.2,0 L 45.75,-27.449 c -6.1,-6.101 -12.2,-6.101 -18.3,0 z" /></g><g
           transform="translate(260,490)"
           id="g572"><path
             id="path574"
             style="fill:#000000;fill-opacity:1;fill-rule:nonzero;stroke:none"
             d="m 0,0 c -6.667,6.667 -6.667,13.333 0,20 l 30,30 c 6.667,6.667 13.333,6.667 20,0 L 80,20 C 86.667,13.333 86.667,6.667 80,0 L 50,-30 c -6.667,-6.667 -13.333,-6.667 -20,0 z" /></g><g
           transform="translate(263.3999,390.8496)"
           id="g576"><path
             id="path578"
             style="fill:#000000;fill-opacity:1;fill-rule:nonzero;stroke:none"
             d="M 0,0 C -6.1,6.101 -6.1,12.2 0,18.301 L 27.45,45.75 c 6.1,6.101 12.2,6.101 18.3,0 L 73.2,18.301 C 79.3,12.2 79.3,6.101 73.2,0 L 45.75,-27.449 c -6.1,-6.101 -12.2,-6.101 -18.3,0 z" /></g><g
           transform="translate(270.2002,292.5498)"
           id="g580"><path
             id="path582"
             style="fill:#000000;fill-opacity:1;fill-rule:nonzero;stroke:none"
             d="m 0,0 c -4.967,4.967 -4.967,9.934 0,14.9 l 22.35,22.35 c 4.966,4.967 9.933,4.967 14.9,0 L 59.6,14.9 C 64.566,9.934 64.566,4.967 59.6,0 L 37.25,-22.35 c -4.967,-4.966 -9.934,-4.966 -14.9,0 z" /></g><g
           transform="translate(277,194.25)"
           id="g584"><path
             id="path586"
             style="fill:#000000;fill-opacity:1;fill-rule:nonzero;stroke:none"
             d="m 0,0 c -3.833,3.833 -3.833,7.667 0,11.5 l 17.25,17.25 c 3.833,3.833 7.667,3.833 11.5,0 L 46,11.5 C 49.833,7.667 49.833,3.833 46,0 L 28.75,-17.25 c -3.833,-3.833 -7.667,-3.833 -11.5,0 z" /></g><g
           transform="translate(283.7998,95.9502)"
           id="g588"><path
             id="path590"
             style="fill:#000000;fill-opacity:1;fill-rule:nonzero;stroke:none"
             d="m 0,0 c -2.7,2.7 -2.7,5.399 0,8.1 l 12.15,12.15 c 2.7,2.7 5.4,2.7 8.1,0 L 32.4,8.1 C 35.101,5.399 35.101,2.7 32.4,0 L 20.25,-12.15 c -2.7,-2.701 -5.4,-2.701 -8.1,0 z" /></g><g
           transform="translate(290.6001,-2.3496)"
           id="g592"><path
             id="path594"
             style="fill:#000000;fill-opacity:1;fill-rule:nonzero;stroke:none"
             d="m 0,0 c -1.567,1.566 -1.567,3.133 0,4.699 l 7.05,7.051 c 1.567,1.566 3.133,1.566 4.7,0 L 18.8,4.699 C 20.367,3.133 20.367,1.566 18.8,0 l -7.05,-7.051 c -1.567,-1.566 -3.133,-1.566 -4.7,0 z" /></g><g
           transform="translate(390.5996,997.6499)"
           id="g596"><path
             id="path598"
             style="fill:#000000;fill-opacity:1;fill-rule:nonzero;stroke:none"
             d="m 0,0 c -1.566,1.567 -1.566,3.133 0,4.7 l 7.051,7.05 c 1.566,1.567 3.133,1.567 4.699,0 L 18.801,4.7 c 1.566,-1.567 1.566,-3.133 0,-4.7 L 11.75,-7.05 c -1.566,-1.567 -3.133,-1.567 -4.699,0 z" /></g><g
           transform="translate(383.7998,895.9502)"
           id="g600"><path
             id="path602"
             style="fill:#000000;fill-opacity:1;fill-rule:nonzero;stroke:none"
             d="m 0,0 c -2.7,2.7 -2.7,5.4 0,8.1 l 12.15,12.15 c 2.701,2.7 5.4,2.7 8.1,0 L 32.4,8.1 C 35.101,5.4 35.101,2.7 32.4,0 L 20.25,-12.15 c -2.7,-2.7 -5.399,-2.7 -8.1,0 z" /></g><g
           transform="translate(377,794.25)"
           id="g604"><path
             id="path606"
             style="fill:#000000;fill-opacity:1;fill-rule:nonzero;stroke:none"
             d="m 0,0 c -3.833,3.833 -3.833,7.667 0,11.5 l 17.25,17.25 c 3.833,3.833 7.667,3.833 11.5,0 L 46,11.5 C 49.833,7.667 49.833,3.833 46,0 L 28.75,-17.25 c -3.833,-3.833 -7.667,-3.833 -11.5,0 z" /></g><g
           transform="translate(370.2002,692.5498)"
           id="g608"><path
             id="path610"
             style="fill:#000000;fill-opacity:1;fill-rule:nonzero;stroke:none"
             d="m 0,0 c -4.967,4.967 -4.967,9.934 0,14.9 l 22.35,22.35 c 4.966,4.967 9.933,4.967 14.9,0 L 59.6,14.9 C 64.566,9.934 64.566,4.967 59.6,0 L 37.25,-22.35 c -4.967,-4.966 -9.934,-4.966 -14.9,0 z" /></g><g
           transform="translate(363.4004,590.8496)"
           id="g612"><path
             id="path614"
             style="fill:#000000;fill-opacity:1;fill-rule:nonzero;stroke:none"
             d="m 0,0 c -6.101,6.101 -6.101,12.2 0,18.3 l 27.449,27.45 c 6.101,6.101 12.2,6.101 18.301,0 L 73.199,18.3 C 79.3,12.2 79.3,6.101 73.199,0 L 45.75,-27.449 c -6.101,-6.101 -12.2,-6.101 -18.301,0 z" /></g><g
           transform="translate(360,490)"
           id="g616"><path
             id="path618"
             style="fill:#000000;fill-opacity:1;fill-rule:nonzero;stroke:none"
             d="m 0,0 c -6.667,6.667 -6.667,13.333 0,20 l 30,30 c 6.667,6.667 13.333,6.667 20,0 L 80,20 C 86.667,13.333 86.667,6.667 80,0 L 50,-30 c -6.667,-6.667 -13.333,-6.667 -20,0 z" /></g><g
           transform="translate(363.4004,390.8496)"
           id="g620"><path
             id="path622"
             style="fill:#000000;fill-opacity:1;fill-rule:nonzero;stroke:none"
             d="M 0,0 C -6.101,6.101 -6.101,12.2 0,18.301 L 27.449,45.75 c 6.101,6.101 12.2,6.101 18.301,0 L 73.199,18.301 C 79.3,12.2 79.3,6.101 73.199,0 L 45.75,-27.449 c -6.101,-6.101 -12.2,-6.101 -18.301,0 z" /></g><g
           transform="translate(370.2002,292.5498)"
           id="g624"><path
             id="path626"
             style="fill:#000000;fill-opacity:1;fill-rule:nonzero;stroke:none"
             d="m 0,0 c -4.967,4.967 -4.967,9.934 0,14.9 l 22.35,22.35 c 4.966,4.967 9.933,4.967 14.9,0 L 59.6,14.9 C 64.566,9.934 64.566,4.967 59.6,0 L 37.25,-22.35 c -4.967,-4.966 -9.934,-4.966 -14.9,0 z" /></g><g
           transform="translate(377,194.25)"
           id="g628"><path
             id="path630"
             style="fill:#000000;fill-opacity:1;fill-rule:nonzero;stroke:none"
             d="m 0,0 c -3.833,3.833 -3.833,7.667 0,11.5 l 17.25,17.25 c 3.833,3.833 7.667,3.833 11.5,0 L 46,11.5 C 49.833,7.667 49.833,3.833 46,0 L 28.75,-17.25 c -3.833,-3.833 -7.667,-3.833 -11.5,0 z" /></g><g
           transform="translate(383.7998,95.9502)"
           id="g632"><path
             id="path634"
             style="fill:#000000;fill-opacity:1;fill-rule:nonzero;stroke:none"
             d="m 0,0 c -2.7,2.7 -2.7,5.399 0,8.1 l 12.15,12.15 c 2.701,2.7 5.4,2.7 8.1,0 L 32.4,8.1 C 35.101,5.399 35.101,2.7 32.4,0 L 20.25,-12.15 c -2.7,-2.701 -5.399,-2.701 -8.1,0 z" /></g><g
           transform="translate(390.5996,-2.3496)"
           id="g636"><path
             id="path638"
             style="fill:#000000;fill-opacity:1;fill-rule:nonzero;stroke:none"
             d="m 0,0 c -1.566,1.566 -1.566,3.133 0,4.699 l 7.051,7.051 c 1.566,1.566 3.133,1.566 4.699,0 L 18.801,4.699 C 20.367,3.133 20.367,1.566 18.801,0 L 11.75,-7.051 c -1.566,-1.566 -3.133,-1.566 -4.699,0 z" /></g><g
           transform="translate(490.5996,997.6499)"
           id="g640"><path
             id="path642"
             style="fill:#000000;fill-opacity:1;fill-rule:nonzero;stroke:none"
             d="m 0,0 c -1.566,1.567 -1.566,3.133 0,4.7 l 7.051,7.05 c 1.566,1.567 3.133,1.567 4.699,0 L 18.801,4.7 c 1.566,-1.567 1.566,-3.133 0,-4.7 L 11.75,-7.05 c -1.566,-1.567 -3.133,-1.567 -4.699,0 z" /></g><g
           transform="translate(483.7998,895.9502)"
           id="g644"><path
             id="path646"
             style="fill:#000000;fill-opacity:1;fill-rule:nonzero;stroke:none"
             d="m 0,0 c -2.7,2.7 -2.7,5.4 0,8.1 l 12.15,12.15 c 2.701,2.7 5.4,2.7 8.1,0 L 32.4,8.1 C 35.101,5.4 35.101,2.7 32.4,0 L 20.25,-12.15 c -2.7,-2.7 -5.399,-2.7 -8.1,0 z" /></g><g
           transform="translate(477,794.25)"
           id="g648"><path
             id="path650"
             style="fill:#000000;fill-opacity:1;fill-rule:nonzero;stroke:none"
             d="m 0,0 c -3.833,3.833 -3.833,7.667 0,11.5 l 17.25,17.25 c 3.833,3.833 7.667,3.833 11.5,0 L 46,11.5 C 49.833,7.667 49.833,3.833 46,0 L 28.75,-17.25 c -3.833,-3.833 -7.667,-3.833 -11.5,0 z" /></g><g
           transform="translate(470.2002,692.5498)"
           id="g652"><path
             id="path654"
             style="fill:#000000;fill-opacity:1;fill-rule:nonzero;stroke:none"
             d="m 0,0 c -4.967,4.967 -4.967,9.934 0,14.9 l 22.35,22.35 c 4.966,4.967 9.933,4.967 14.9,0 L 59.6,14.9 C 64.566,9.934 64.566,4.967 59.6,0 L 37.25,-22.35 c -4.967,-4.966 -9.934,-4.966 -14.9,0 z" /></g><g
           transform="translate(463.4004,590.8496)"
           id="g656"><path
             id="path658"
             style="fill:#000000;fill-opacity:1;fill-rule:nonzero;stroke:none"
             d="m 0,0 c -6.101,6.101 -6.101,12.2 0,18.3 l 27.449,27.45 c 6.101,6.101 12.2,6.101 18.301,0 L 73.199,18.3 C 79.3,12.2 79.3,6.101 73.199,0 L 45.75,-27.449 c -6.101,-6.101 -12.2,-6.101 -18.301,0 z" /></g><g
           transform="translate(460,490)"
           id="g660"><path
             id="path662"
             style="fill:#000000;fill-opacity:1;fill-rule:nonzero;stroke:none"
             d="m 0,0 c -6.667,6.667 -6.667,13.333 0,20 l 30,30 c 6.667,6.667 13.333,6.667 20,0 L 80,20 C 86.667,13.333 86.667,6.667 80,0 L 50,-30 c -6.667,-6.667 -13.333,-6.667 -20,0 z" /></g><g
           transform="translate(463.4004,390.8496)"
           id="g664"><path
             id="path666"
             style="fill:#000000;fill-opacity:1;fill-rule:nonzero;stroke:none"
             d="M 0,0 C -6.101,6.101 -6.101,12.2 0,18.301 L 27.449,45.75 c 6.101,6.101 12.2,6.101 18.301,0 L 73.199,18.301 C 79.3,12.2 79.3,6.101 73.199,0 L 45.75,-27.449 c -6.101,-6.101 -12.2,-6.101 -18.301,0 z" /></g><g
           transform="translate(470.2002,292.5498)"
           id="g668"><path
             id="path670"
             style="fill:#000000;fill-opacity:1;fill-rule:nonzero;stroke:none"
             d="m 0,0 c -4.967,4.967 -4.967,9.934 0,14.9 l 22.35,22.35 c 4.966,4.967 9.933,4.967 14.9,0 L 59.6,14.9 C 64.566,9.934 64.566,4.967 59.6,0 L 37.25,-22.35 c -4.967,-4.966 -9.934,-4.966 -14.9,0 z" /></g><g
           transform="translate(477,194.25)"
           id="g672"><path
             id="path674"
             style="fill:#000000;fill-opacity:1;fill-rule:nonzero;stroke:none"
             d="m 0,0 c -3.833,3.833 -3.833,7.667 0,11.5 l 17.25,17.25 c 3.833,3.833 7.667,3.833 11.5,0 L 46,11.5 C 49.833,7.667 49.833,3.833 46,0 L 28.75,-17.25 c -3.833,-3.833 -7.667,-3.833 -11.5,0 z" /></g><g
           transform="translate(483.7998,95.9502)"
           id="g676"><path
             id="path678"
             style="fill:#000000;fill-opacity:1;fill-rule:nonzero;stroke:none"
             d="m 0,0 c -2.7,2.7 -2.7,5.399 0,8.1 l 12.15,12.15 c 2.701,2.7 5.4,2.7 8.1,0 L 32.4,8.1 C 35.101,5.399 35.101,2.7 32.4,0 L 20.25,-12.15 c -2.7,-2.701 -5.399,-2.701 -8.1,0 z" /></g><g
           transform="translate(490.5996,-2.3496)"
           id="g680"><path
             id="path682"
             style="fill:#000000;fill-opacity:1;fill-rule:nonzero;stroke:none"
             d="m 0,0 c -1.566,1.566 -1.566,3.133 0,4.699 l 7.051,7.051 c 1.566,1.566 3.133,1.566 4.699,0 L 18.801,4.699 C 20.367,3.133 20.367,1.566 18.801,0 L 11.75,-7.051 c -1.566,-1.566 -3.133,-1.566 -4.699,0 z" /></g><g
           transform="translate(590.5996,997.6499)"
           id="g684"><path
             id="path686"
             style="fill:#000000;fill-opacity:1;fill-rule:nonzero;stroke:none"
             d="m 0,0 c -1.566,1.567 -1.566,3.133 0,4.7 l 7.051,7.05 c 1.566,1.567 3.133,1.567 4.699,0 L 18.801,4.7 c 1.566,-1.567 1.566,-3.133 0,-4.7 L 11.75,-7.05 c -1.566,-1.567 -3.133,-1.567 -4.699,0 z" /></g><g
           transform="translate(583.7998,895.9502)"
           id="g688"><path
             id="path690"
             style="fill:#000000;fill-opacity:1;fill-rule:nonzero;stroke:none"
             d="m 0,0 c -2.7,2.7 -2.7,5.4 0,8.1 l 12.15,12.15 c 2.701,2.7 5.4,2.7 8.1,0 L 32.4,8.1 C 35.101,5.4 35.101,2.7 32.4,0 L 20.25,-12.15 c -2.7,-2.7 -5.399,-2.7 -8.1,0 z" /></g><g
           transform="translate(577,794.25)"
           id="g692"><path
             id="path694"
             style="fill:#000000;fill-opacity:1;fill-rule:nonzero;stroke:none"
             d="m 0,0 c -3.833,3.833 -3.833,7.667 0,11.5 l 17.25,17.25 c 3.833,3.833 7.667,3.833 11.5,0 L 46,11.5 C 49.833,7.667 49.833,3.833 46,0 L 28.75,-17.25 c -3.833,-3.833 -7.667,-3.833 -11.5,0 z" /></g><g
           transform="translate(570.2002,692.5498)"
           id="g696"><path
             id="path698"
             style="fill:#000000;fill-opacity:1;fill-rule:nonzero;stroke:none"
             d="m 0,0 c -4.967,4.967 -4.967,9.934 0,14.9 l 22.35,22.35 c 4.966,4.967 9.933,4.967 14.9,0 L 59.6,14.9 C 64.566,9.934 64.566,4.967 59.6,0 L 37.25,-22.35 c -4.967,-4.966 -9.934,-4.966 -14.9,0 z" /></g><g
           transform="translate(563.4004,590.8496)"
           id="g700"><path
             id="path702"
             style="fill:#000000;fill-opacity:1;fill-rule:nonzero;stroke:none"
             d="m 0,0 c -6.101,6.101 -6.101,12.2 0,18.3 l 27.449,27.45 c 6.101,6.101 12.2,6.101 18.301,0 L 73.199,18.3 C 79.3,12.2 79.3,6.101 73.199,0 L 45.75,-27.449 c -6.101,-6.101 -12.2,-6.101 -18.301,0 z" /></g><g
           transform="translate(560,490)"
           id="g704"><path
             id="path706"
             style="fill:#000000;fill-opacity:1;fill-rule:nonzero;stroke:none"
             d="m 0,0 c -6.667,6.667 -6.667,13.333 0,20 l 30,30 c 6.667,6.667 13.333,6.667 20,0 L 80,20 C 86.667,13.333 86.667,6.667 80,0 L 50,-30 c -6.667,-6.667 -13.333,-6.667 -20,0 z" /></g><g
           transform="translate(563.4004,390.8496)"
           id="g708"><path
             id="path710"
             style="fill:#000000;fill-opacity:1;fill-rule:nonzero;stroke:none"
             d="M 0,0 C -6.101,6.101 -6.101,12.2 0,18.301 L 27.449,45.75 c 6.101,6.101 12.2,6.101 18.301,0 L 73.199,18.301 C 79.3,12.2 79.3,6.101 73.199,0 L 45.75,-27.449 c -6.101,-6.101 -12.2,-6.101 -18.301,0 z" /></g><g
           transform="translate(570.2002,292.5498)"
           id="g712"><path
             id="path714"
             style="fill:#000000;fill-opacity:1;fill-rule:nonzero;stroke:none"
             d="m 0,0 c -4.967,4.967 -4.967,9.934 0,14.9 l 22.35,22.35 c 4.966,4.967 9.933,4.967 14.9,0 L 59.6,14.9 C 64.566,9.934 64.566,4.967 59.6,0 L 37.25,-22.35 c -4.967,-4.966 -9.934,-4.966 -14.9,0 z" /></g><g
           transform="translate(577,194.25)"
           id="g716"><path
             id="path718"
             style="fill:#000000;fill-opacity:1;fill-rule:nonzero;stroke:none"
             d="m 0,0 c -3.833,3.833 -3.833,7.667 0,11.5 l 17.25,17.25 c 3.833,3.833 7.667,3.833 11.5,0 L 46,11.5 C 49.833,7.667 49.833,3.833 46,0 L 28.75,-17.25 c -3.833,-3.833 -7.667,-3.833 -11.5,0 z" /></g><g
           transform="translate(583.7998,95.9502)"
           id="g720"><path
             id="path722"
             style="fill:#000000;fill-opacity:1;fill-rule:nonzero;stroke:none"
             d="m 0,0 c -2.7,2.7 -2.7,5.399 0,8.1 l 12.15,12.15 c 2.701,2.7 5.4,2.7 8.1,0 L 32.4,8.1 C 35.101,5.399 35.101,2.7 32.4,0 L 20.25,-12.15 c -2.7,-2.701 -5.399,-2.701 -8.1,0 z" /></g><g
           transform="translate(590.5996,-2.3496)"
           id="g724"><path
             id="path726"
             style="fill:#000000;fill-opacity:1;fill-rule:nonzero;stroke:none"
             d="m 0,0 c -1.566,1.566 -1.566,3.133 0,4.699 l 7.051,7.051 c 1.566,1.566 3.133,1.566 4.699,0 L 18.801,4.699 C 20.367,3.133 20.367,1.566 18.801,0 L 11.75,-7.051 c -1.566,-1.566 -3.133,-1.566 -4.699,0 z" /></g><g
           transform="translate(690.5996,997.6499)"
           id="g728"><path
             id="path730"
             style="fill:#000000;fill-opacity:1;fill-rule:nonzero;stroke:none"
             d="m 0,0 c -1.566,1.567 -1.566,3.133 0,4.7 l 7.051,7.05 c 1.566,1.567 3.133,1.567 4.699,0 L 18.801,4.7 c 1.566,-1.567 1.566,-3.133 0,-4.7 L 11.75,-7.05 c -1.566,-1.567 -3.133,-1.567 -4.699,0 z" /></g><g
           transform="translate(683.7998,895.9502)"
           id="g732"><path
             id="path734"
             style="fill:#000000;fill-opacity:1;fill-rule:nonzero;stroke:none"
             d="m 0,0 c -2.7,2.7 -2.7,5.4 0,8.1 l 12.15,12.15 c 2.701,2.7 5.4,2.7 8.1,0 L 32.4,8.1 C 35.101,5.4 35.101,2.7 32.4,0 L 20.25,-12.15 c -2.7,-2.7 -5.399,-2.7 -8.1,0 z" /></g><g
           transform="translate(677,794.25)"
           id="g736"><path
             id="path738"
             style="fill:#000000;fill-opacity:1;fill-rule:nonzero;stroke:none"
             d="m 0,0 c -3.833,3.833 -3.833,7.667 0,11.5 l 17.25,17.25 c 3.833,3.833 7.667,3.833 11.5,0 L 46,11.5 C 49.833,7.667 49.833,3.833 46,0 L 28.75,-17.25 c -3.833,-3.833 -7.667,-3.833 -11.5,0 z" /></g><g
           transform="translate(670.2002,692.5498)"
           id="g740"><path
             id="path742"
             style="fill:#000000;fill-opacity:1;fill-rule:nonzero;stroke:none"
             d="m 0,0 c -4.967,4.967 -4.967,9.934 0,14.9 l 22.35,22.35 c 4.966,4.967 9.933,4.967 14.9,0 L 59.6,14.9 C 64.566,9.934 64.566,4.967 59.6,0 L 37.25,-22.35 c -4.967,-4.966 -9.934,-4.966 -14.9,0 z" /></g><g
           transform="translate(663.4004,590.8496)"
           id="g744"><path
             id="path746"
             style="fill:#000000;fill-opacity:1;fill-rule:nonzero;stroke:none"
             d="m 0,0 c -6.101,6.101 -6.101,12.2 0,18.3 l 27.449,27.45 c 6.101,6.101 12.2,6.101 18.301,0 L 73.199,18.3 C 79.3,12.2 79.3,6.101 73.199,0 L 45.75,-27.449 c -6.101,-6.101 -12.2,-6.101 -18.301,0 z" /></g><g
           transform="translate(660,490)"
           id="g748"><path
             id="path750"
             style="fill:#000000;fill-opacity:1;fill-rule:nonzero;stroke:none"
             d="m 0,0 c -6.667,6.667 -6.667,13.333 0,20 l 30,30 c 6.667,6.667 13.333,6.667 20,0 L 80,20 C 86.667,13.333 86.667,6.667 80,0 L 50,-30 c -6.667,-6.667 -13.333,-6.667 -20,0 z" /></g><g
           transform="translate(663.4004,390.8496)"
           id="g752"><path
             id="path754"
             style="fill:#000000;fill-opacity:1;fill-rule:nonzero;stroke:none"
             d="M 0,0 C -6.101,6.101 -6.101,12.2 0,18.301 L 27.449,45.75 c 6.101,6.101 12.2,6.101 18.301,0 L 73.199,18.301 C 79.3,12.2 79.3,6.101 73.199,0 L 45.75,-27.449 c -6.101,-6.101 -12.2,-6.101 -18.301,0 z" /></g><g
           transform="translate(670.2002,292.5498)"
           id="g756"><path
             id="path758"
             style="fill:#000000;fill-opacity:1;fill-rule:nonzero;stroke:none"
             d="m 0,0 c -4.967,4.967 -4.967,9.934 0,14.9 l 22.35,22.35 c 4.966,4.967 9.933,4.967 14.9,0 L 59.6,14.9 C 64.566,9.934 64.566,4.967 59.6,0 L 37.25,-22.35 c -4.967,-4.966 -9.934,-4.966 -14.9,0 z" /></g><g
           transform="translate(677,194.25)"
           id="g760"><path
             id="path762"
             style="fill:#000000;fill-opacity:1;fill-rule:nonzero;stroke:none"
             d="m 0,0 c -3.833,3.833 -3.833,7.667 0,11.5 l 17.25,17.25 c 3.833,3.833 7.667,3.833 11.5,0 L 46,11.5 C 49.833,7.667 49.833,3.833 46,0 L 28.75,-17.25 c -3.833,-3.833 -7.667,-3.833 -11.5,0 z" /></g><g
           transform="translate(683.7998,95.9502)"
           id="g764"><path
             id="path766"
             style="fill:#000000;fill-opacity:1;fill-rule:nonzero;stroke:none"
             d="m 0,0 c -2.7,2.7 -2.7,5.399 0,8.1 l 12.15,12.15 c 2.701,2.7 5.4,2.7 8.1,0 L 32.4,8.1 C 35.101,5.399 35.101,2.7 32.4,0 L 20.25,-12.15 c -2.7,-2.701 -5.399,-2.701 -8.1,0 z" /></g><g
           transform="translate(690.5996,-2.3496)"
           id="g768"><path
             id="path770"
             style="fill:#000000;fill-opacity:1;fill-rule:nonzero;stroke:none"
             d="m 0,0 c -1.566,1.566 -1.566,3.133 0,4.699 l 7.051,7.051 c 1.566,1.566 3.133,1.566 4.699,0 L 18.801,4.699 C 20.367,3.133 20.367,1.566 18.801,0 L 11.75,-7.051 c -1.566,-1.566 -3.133,-1.566 -4.699,0 z" /></g><g
           transform="translate(790.5996,997.6499)"
           id="g772"><path
             id="path774"
             style="fill:#000000;fill-opacity:1;fill-rule:nonzero;stroke:none"
             d="m 0,0 c -1.566,1.567 -1.566,3.133 0,4.7 l 7.051,7.05 c 1.566,1.567 3.133,1.567 4.699,0 L 18.801,4.7 c 1.566,-1.567 1.566,-3.133 0,-4.7 L 11.75,-7.05 c -1.566,-1.567 -3.133,-1.567 -4.699,0 z" /></g><g
           transform="translate(783.7998,895.9502)"
           id="g776"><path
             id="path778"
             style="fill:#000000;fill-opacity:1;fill-rule:nonzero;stroke:none"
             d="m 0,0 c -2.7,2.7 -2.7,5.4 0,8.1 l 12.15,12.15 c 2.701,2.7 5.4,2.7 8.1,0 L 32.4,8.1 C 35.101,5.4 35.101,2.7 32.4,0 L 20.25,-12.15 c -2.7,-2.7 -5.399,-2.7 -8.1,0 z" /></g><g
           transform="translate(777,794.25)"
           id="g780"><path
             id="path782"
             style="fill:#000000;fill-opacity:1;fill-rule:nonzero;stroke:none"
             d="m 0,0 c -3.833,3.833 -3.833,7.667 0,11.5 l 17.25,17.25 c 3.833,3.833 7.667,3.833 11.5,0 L 46,11.5 C 49.833,7.667 49.833,3.833 46,0 L 28.75,-17.25 c -3.833,-3.833 -7.667,-3.833 -11.5,0 z" /></g><g
           transform="translate(770.2002,692.5498)"
           id="g784"><path
             id="path786"
             style="fill:#000000;fill-opacity:1;fill-rule:nonzero;stroke:none"
             d="m 0,0 c -4.967,4.967 -4.967,9.934 0,14.9 l 22.35,22.35 c 4.966,4.967 9.933,4.967 14.9,0 L 59.6,14.9 C 64.566,9.934 64.566,4.967 59.6,0 L 37.25,-22.35 c -4.967,-4.966 -9.934,-4.966 -14.9,0 z" /></g><g
           transform="translate(763.4004,590.8496)"
           id="g788"><path
             id="path790"
             style="fill:#000000;fill-opacity:1;fill-rule:nonzero;stroke:none"
             d="m 0,0 c -6.101,6.101 -6.101,12.2 0,18.3 l 27.449,27.45 c 6.101,6.101 12.2,6.101 18.301,0 L 73.199,18.3 C 79.3,12.2 79.3,6.101 73.199,0 L 45.75,-27.449 c -6.101,-6.101 -12.2,-6.101 -18.301,0 z" /></g><g
           transform="translate(760,490)"
           id="g792"><path
             id="path794"
             style="fill:#000000;fill-opacity:1;fill-rule:nonzero;stroke:none"
             d="m 0,0 c -6.667,6.667 -6.667,13.333 0,20 l 30,30 c 6.667,6.667 13.333,6.667 20,0 L 80,20 C 86.667,13.333 86.667,6.667 80,0 L 50,-30 c -6.667,-6.667 -13.333,-6.667 -20,0 z" /></g><g
           transform="translate(763.4004,390.8496)"
           id="g796"><path
             id="path798"
             style="fill:#000000;fill-opacity:1;fill-rule:nonzero;stroke:none"
             d="M 0,0 C -6.101,6.101 -6.101,12.2 0,18.301 L 27.449,45.75 c 6.101,6.101 12.2,6.101 18.301,0 L 73.199,18.301 C 79.3,12.2 79.3,6.101 73.199,0 L 45.75,-27.449 c -6.101,-6.101 -12.2,-6.101 -18.301,0 z" /></g><g
           transform="translate(770.2002,292.5498)"
           id="g800"><path
             id="path802"
             style="fill:#000000;fill-opacity:1;fill-rule:nonzero;stroke:none"
             d="m 0,0 c -4.967,4.967 -4.967,9.934 0,14.9 l 22.35,22.35 c 4.966,4.967 9.933,4.967 14.9,0 L 59.6,14.9 C 64.566,9.934 64.566,4.967 59.6,0 L 37.25,-22.35 c -4.967,-4.966 -9.934,-4.966 -14.9,0 z" /></g><g
           transform="translate(777,194.25)"
           id="g804"><path
             id="path806"
             style="fill:#000000;fill-opacity:1;fill-rule:nonzero;stroke:none"
             d="m 0,0 c -3.833,3.833 -3.833,7.667 0,11.5 l 17.25,17.25 c 3.833,3.833 7.667,3.833 11.5,0 L 46,11.5 C 49.833,7.667 49.833,3.833 46,0 L 28.75,-17.25 c -3.833,-3.833 -7.667,-3.833 -11.5,0 z" /></g><g
           transform="translate(783.7998,95.9502)"
           id="g808"><path
             id="path810"
             style="fill:#000000;fill-opacity:1;fill-rule:nonzero;stroke:none"
             d="m 0,0 c -2.7,2.7 -2.7,5.399 0,8.1 l 12.15,12.15 c 2.701,2.7 5.4,2.7 8.1,0 L 32.4,8.1 C 35.101,5.399 35.101,2.7 32.4,0 L 20.25,-12.15 c -2.7,-2.701 -5.399,-2.701 -8.1,0 z" /></g><g
           transform="translate(790.5996,-2.3496)"
           id="g812"><path
             id="path814"
             style="fill:#000000;fill-opacity:1;fill-rule:nonzero;stroke:none"
             d="m 0,0 c -1.566,1.566 -1.566,3.133 0,4.699 l 7.051,7.051 c 1.566,1.566 3.133,1.566 4.699,0 L 18.801,4.699 C 20.367,3.133 20.367,1.566 18.801,0 L 11.75,-7.051 c -1.566,-1.566 -3.133,-1.566 -4.699,0 z" /></g><g
           transform="translate(890.5996,997.6499)"
           id="g816"><path
             id="path818"
             style="fill:#000000;fill-opacity:1;fill-rule:nonzero;stroke:none"
             d="m 0,0 c -1.566,1.567 -1.566,3.133 0,4.7 l 7.051,7.05 c 1.566,1.567 3.133,1.567 4.699,0 L 18.801,4.7 c 1.566,-1.567 1.566,-3.133 0,-4.7 L 11.75,-7.05 c -1.566,-1.567 -3.133,-1.567 -4.699,0 z" /></g><g
           transform="translate(883.7998,895.9502)"
           id="g820"><path
             id="path822"
             style="fill:#000000;fill-opacity:1;fill-rule:nonzero;stroke:none"
             d="m 0,0 c -2.7,2.7 -2.7,5.4 0,8.1 l 12.15,12.15 c 2.701,2.7 5.4,2.7 8.1,0 L 32.4,8.1 C 35.101,5.4 35.101,2.7 32.4,0 L 20.25,-12.15 c -2.7,-2.7 -5.399,-2.7 -8.1,0 z" /></g><g
           transform="translate(877,794.25)"
           id="g824"><path
             id="path826"
             style="fill:#000000;fill-opacity:1;fill-rule:nonzero;stroke:none"
             d="m 0,0 c -3.833,3.833 -3.833,7.667 0,11.5 l 17.25,17.25 c 3.833,3.833 7.667,3.833 11.5,0 L 46,11.5 C 49.833,7.667 49.833,3.833 46,0 L 28.75,-17.25 c -3.833,-3.833 -7.667,-3.833 -11.5,0 z" /></g><g
           transform="translate(870.2002,692.5498)"
           id="g828"><path
             id="path830"
             style="fill:#000000;fill-opacity:1;fill-rule:nonzero;stroke:none"
             d="m 0,0 c -4.967,4.967 -4.967,9.934 0,14.9 l 22.35,22.35 c 4.966,4.967 9.933,4.967 14.9,0 L 59.6,14.9 C 64.566,9.934 64.566,4.967 59.6,0 L 37.25,-22.35 c -4.967,-4.966 -9.934,-4.966 -14.9,0 z" /></g><g
           transform="translate(863.4004,590.8496)"
           id="g832"><path
             id="path834"
             style="fill:#000000;fill-opacity:1;fill-rule:nonzero;stroke:none"
             d="m 0,0 c -6.101,6.101 -6.101,12.2 0,18.3 l 27.449,27.45 c 6.101,6.101 12.2,6.101 18.301,0 L 73.199,18.3 C 79.3,12.2 79.3,6.101 73.199,0 L 45.75,-27.449 c -6.101,-6.101 -12.2,-6.101 -18.301,0 z" /></g><g
           transform="translate(860,490)"
           id="g836"><path
             id="path838"
             style="fill:#000000;fill-opacity:1;fill-rule:nonzero;stroke:none"
             d="m 0,0 c -6.667,6.667 -6.667,13.333 0,20 l 30,30 c 6.667,6.667 13.333,6.667 20,0 L 80,20 C 86.667,13.333 86.667,6.667 80,0 L 50,-30 c -6.667,-6.667 -13.333,-6.667 -20,0 z" /></g><g
           transform="translate(863.4004,390.8496)"
           id="g840"><path
             id="path842"
             style="fill:#000000;fill-opacity:1;fill-rule:nonzero;stroke:none"
             d="M 0,0 C -6.101,6.101 -6.101,12.2 0,18.301 L 27.449,45.75 c 6.101,6.101 12.2,6.101 18.301,0 L 73.199,18.301 C 79.3,12.2 79.3,6.101 73.199,0 L 45.75,-27.449 c -6.101,-6.101 -12.2,-6.101 -18.301,0 z" /></g><g
           transform="translate(870.2002,292.5498)"
           id="g844"><path
             id="path846"
             style="fill:#000000;fill-opacity:1;fill-rule:nonzero;stroke:none"
             d="m 0,0 c -4.967,4.967 -4.967,9.934 0,14.9 l 22.35,22.35 c 4.966,4.967 9.933,4.967 14.9,0 L 59.6,14.9 C 64.566,9.934 64.566,4.967 59.6,0 L 37.25,-22.35 c -4.967,-4.966 -9.934,-4.966 -14.9,0 z" /></g><g
           transform="translate(877,194.25)"
           id="g848"><path
             id="path850"
             style="fill:#000000;fill-opacity:1;fill-rule:nonzero;stroke:none"
             d="m 0,0 c -3.833,3.833 -3.833,7.667 0,11.5 l 17.25,17.25 c 3.833,3.833 7.667,3.833 11.5,0 L 46,11.5 C 49.833,7.667 49.833,3.833 46,0 L 28.75,-17.25 c -3.833,-3.833 -7.667,-3.833 -11.5,0 z" /></g><g
           transform="translate(883.7998,95.9502)"
           id="g852"><path
             id="path854"
             style="fill:#000000;fill-opacity:1;fill-rule:nonzero;stroke:none"
             d="m 0,0 c -2.7,2.7 -2.7,5.399 0,8.1 l 12.15,12.15 c 2.701,2.7 5.4,2.7 8.1,0 L 32.4,8.1 C 35.101,5.399 35.101,2.7 32.4,0 L 20.25,-12.15 c -2.7,-2.701 -5.399,-2.701 -8.1,0 z" /></g><g
           transform="translate(890.5996,-2.3496)"
           id="g856"><path
             id="path858"
             style="fill:#000000;fill-opacity:1;fill-rule:nonzero;stroke:none"
             d="m 0,0 c -1.566,1.566 -1.566,3.133 0,4.699 l 7.051,7.051 c 1.566,1.566 3.133,1.566 4.699,0 L 18.801,4.699 C 20.367,3.133 20.367,1.566 18.801,0 L 11.75,-7.051 c -1.566,-1.566 -3.133,-1.566 -4.699,0 z" /></g><g
           transform="translate(990.5996,997.6499)"
           id="g860"><path
             id="path862"
             style="fill:#000000;fill-opacity:1;fill-rule:nonzero;stroke:none"
             d="m 0,0 c -1.566,1.567 -1.566,3.133 0,4.7 l 7.051,7.05 c 1.566,1.567 3.133,1.567 4.699,0 L 18.801,4.7 c 1.566,-1.567 1.566,-3.133 0,-4.7 L 11.75,-7.05 c -1.566,-1.567 -3.133,-1.567 -4.699,0 z" /></g><g
           transform="translate(983.7998,895.9502)"
           id="g864"><path
             id="path866"
             style="fill:#000000;fill-opacity:1;fill-rule:nonzero;stroke:none"
             d="m 0,0 c -2.7,2.7 -2.7,5.4 0,8.1 l 12.15,12.15 c 2.701,2.7 5.4,2.7 8.1,0 L 32.4,8.1 C 35.101,5.4 35.101,2.7 32.4,0 L 20.25,-12.15 c -2.7,-2.7 -5.399,-2.7 -8.1,0 z" /></g><g
           transform="translate(977,794.25)"
           id="g868"><path
             id="path870"
             style="fill:#000000;fill-opacity:1;fill-rule:nonzero;stroke:none"
             d="m 0,0 c -3.833,3.833 -3.833,7.667 0,11.5 l 17.25,17.25 c 3.833,3.833 7.667,3.833 11.5,0 L 46,11.5 C 49.833,7.667 49.833,3.833 46,0 L 28.75,-17.25 c -3.833,-3.833 -7.667,-3.833 -11.5,0 z" /></g><g
           transform="translate(970.2002,692.5498)"
           id="g872"><path
             id="path874"
             style="fill:#000000;fill-opacity:1;fill-rule:nonzero;stroke:none"
             d="m 0,0 c -4.967,4.967 -4.967,9.934 0,14.9 l 22.35,22.35 c 4.966,4.967 9.933,4.967 14.9,0 L 59.6,14.9 C 64.566,9.934 64.566,4.967 59.6,0 L 37.25,-22.35 c -4.967,-4.966 -9.934,-4.966 -14.9,0 z" /></g><g
           transform="translate(963.4004,590.8496)"
           id="g876"><path
             id="path878"
             style="fill:#000000;fill-opacity:1;fill-rule:nonzero;stroke:none"
             d="m 0,0 c -6.101,6.101 -6.101,12.2 0,18.3 l 27.449,27.45 c 6.101,6.101 12.2,6.101 18.301,0 L 73.199,18.3 C 79.3,12.2 79.3,6.101 73.199,0 L 45.75,-27.449 c -6.101,-6.101 -12.2,-6.101 -18.301,0 z" /></g><g
           transform="translate(960,490)"
           id="g880"><path
             id="path882"
             style="fill:#000000;fill-opacity:1;fill-rule:nonzero;stroke:none"
             d="m 0,0 c -6.667,6.667 -6.667,13.333 0,20 l 30,30 c 6.667,6.667 13.333,6.667 20,0 L 80,20 C 86.667,13.333 86.667,6.667 80,0 L 50,-30 c -6.667,-6.667 -13.333,-6.667 -20,0 z" /></g><g
           transform="translate(963.4004,390.8496)"
           id="g884"><path
             id="path886"
             style="fill:#000000;fill-opacity:1;fill-rule:nonzero;stroke:none"
             d="M 0,0 C -6.101,6.101 -6.101,12.2 0,18.301 L 27.449,45.75 c 6.101,6.101 12.2,6.101 18.301,0 L 73.199,18.301 C 79.3,12.2 79.3,6.101 73.199,0 L 45.75,-27.449 c -6.101,-6.101 -12.2,-6.101 -18.301,0 z" /></g><g
           transform="translate(970.2002,292.5498)"
           id="g888"><path
             id="path890"
             style="fill:#000000;fill-opacity:1;fill-rule:nonzero;stroke:none"
             d="m 0,0 c -4.967,4.967 -4.967,9.934 0,14.9 l 22.35,22.35 c 4.966,4.967 9.933,4.967 14.9,0 L 59.6,14.9 C 64.566,9.934 64.566,4.967 59.6,0 L 37.25,-22.35 c -4.967,-4.966 -9.934,-4.966 -14.9,0 z" /></g><g
           transform="translate(977,194.25)"
           id="g892"><path
             id="path894"
             style="fill:#000000;fill-opacity:1;fill-rule:nonzero;stroke:none"
             d="m 0,0 c -3.833,3.833 -3.833,7.667 0,11.5 l 17.25,17.25 c 3.833,3.833 7.667,3.833 11.5,0 L 46,11.5 C 49.833,7.667 49.833,3.833 46,0 L 28.75,-17.25 c -3.833,-3.833 -7.667,-3.833 -11.5,0 z" /></g><g
           transform="translate(983.7998,95.9502)"
           id="g896"><path
             id="path898"
             style="fill:#000000;fill-opacity:1;fill-rule:nonzero;stroke:none"
             d="m 0,0 c -2.7,2.7 -2.7,5.399 0,8.1 l 12.15,12.15 c 2.701,2.7 5.4,2.7 8.1,0 L 32.4,8.1 C 35.101,5.399 35.101,2.7 32.4,0 L 20.25,-12.15 c -2.7,-2.701 -5.399,-2.701 -8.1,0 z" /></g><g
           transform="translate(990.5996,-2.3496)"
           id="g900"><path
             id="path902"
             style="fill:#000000;fill-opacity:1;fill-rule:nonzero;stroke:none"
             d="m 0,0 c -1.566,1.566 -1.566,3.133 0,4.699 l 7.051,7.051 c 1.566,1.566 3.133,1.566 4.699,0 L 18.801,4.699 C 20.367,3.133 20.367,1.566 18.801,0 L 11.75,-7.051 c -1.566,-1.566 -3.133,-1.566 -4.699,0 z" /></g></g></g></g></svg>