<?xml version='1.0' encoding='utf-8'?>
<svg xmlns="http://www.w3.org/2000/svg" enable-background="new 0 0 2560 1600" version="1.1" viewBox="0 0 2560 1600">
<style type="text/css">
	.st0{fill:none;}
	.st1{fill:url(#a);}
</style>
<pattern id="a" width="250" height="250" overflow="visible" patternUnits="userSpaceOnUse" viewBox="0 -250 250 250">
		<rect class="st0" y="-250" width="250" height="250"/>
			<polygon class="st0" points="245.03 -19.38 246.28 -20.1 245.03 -20.821"/>
			<polygon class="st0" points="206.22 -99.131 200.49 -102.44 200.49 -99.212 203.42 -97.518"/>
			<polygon class="st0" points="203.42 -97.518 200.49 -95.823 200.49 -78.378 218.53 -88.795"/>
			<polygon class="st0" points="245.03 -104.1 218.53 -88.795 238.3 -77.38 245.03 -81.265"/>
			<polygon points="250 -0.437 249.72 -0.277 250 0"/>
			<polygon points="245.03 -4.969 245.03 -11.374 240.97 -9.03"/>
			<polygon points="245.03 -11.374 250 -14.243 250 -17.952 246.28 -20.1 245.03 -19.38"/>
			<polygon points="207.53 -42.474 235.9 -14.105 245.03 -19.38 245.03 -20.821"/>
			<polygon points="250 -70.625 245.03 -73.494 245.03 -20.821 246.28 -20.1 250 -22.248"/>
			<polygon points="250 -84.134 250 -106.96 245.03 -104.1 245.03 -81.265"/>
			<polygon points="250 -125 245.03 -125 245.03 -107.54 250 -110.41"/>
			<polygon points="238.3 -77.38 245.03 -73.494 245.03 -81.265"/>
			<polygon points="200.49 -78.378 200.49 -55.547 238.3 -77.38 218.53 -88.795"/>
			<polygon points="200.49 -49.514 200.49 -55.547 196.66 -53.339"/>
			<polygon points="200.49 -99.212 200.49 -95.823 203.42 -97.518"/>
			<polygon points="218.53 -88.795 245.03 -104.1 245.03 -107.54 218.34 -92.133 206.22 -99.131 203.42 -97.518"/>
			<polygon points="213.99 -103.62 213.99 -125 200.49 -125 200.49 -102.44 206.22 -99.131"/>
			<polygon points="171.13 -78.873 182.19 -67.813 200.49 -78.378 200.49 -95.823"/>
			<polygon points="133.87 -125 128.25 -121.75 129.65 -120.35 145.5 -111.2 162.62 -121.08 155.82 -125"/>
			<polygon points="165.41 -122.69 162.62 -121.08 200.49 -99.212 200.49 -102.44"/>
			<polygon points="125 -125 127.3 -122.7 131.28 -125"/>
			<polygon points="161.41 -125 165.41 -122.69 169.41 -125"/>
			<polygon class="st0" points="230.62 -245.03 229.9 -246.28 229.18 -245.03"/>
			<polygon class="st0" points="150.87 -206.22 147.56 -200.49 150.79 -200.49 152.48 -203.42"/>
			<polygon class="st0" points="152.48 -203.42 154.18 -200.49 171.62 -200.49 161.2 -218.53"/>
			<polygon class="st0" points="145.9 -245.03 161.2 -218.53 172.62 -238.3 168.74 -245.03"/>
			<polygon points="249.56 -250 249.72 -249.72 250 -250"/>
			<polygon points="245.03 -245.03 238.63 -245.03 240.97 -240.97"/>
			<polygon points="238.63 -245.03 235.76 -250 232.05 -250 229.9 -246.28 230.62 -245.03"/>
			<polygon points="207.53 -207.53 235.9 -235.9 230.62 -245.03 229.18 -245.03"/>
			<polygon points="179.38 -250 176.51 -245.03 229.18 -245.03 229.9 -246.28 227.75 -250"/>
			<polygon points="165.87 -250 143.04 -250 145.9 -245.03 168.74 -245.03"/>
			<polygon points="125 -250 125 -245.03 142.46 -245.03 139.59 -250"/>
			<polygon points="172.62 -238.3 176.51 -245.03 168.74 -245.03"/>
			<polygon points="171.62 -200.49 194.45 -200.49 172.62 -238.3 161.2 -218.53"/>
			<polygon points="200.49 -200.49 194.45 -200.49 196.66 -196.66"/>
			<polygon points="150.79 -200.49 154.18 -200.49 152.48 -203.42"/>
			<polygon points="161.2 -218.53 145.9 -245.03 142.46 -245.03 157.87 -218.34 150.87 -206.22 152.48 -203.42"/>
			<polygon points="146.38 -213.99 125 -213.99 125 -200.49 147.56 -200.49 150.87 -206.22"/>
			<polygon points="171.13 -171.13 182.19 -182.19 171.62 -200.49 154.18 -200.49"/>
			<polygon points="125 -133.87 128.25 -128.25 129.65 -129.65 138.8 -145.5 128.92 -162.62 125 -155.82"/>
			<polygon points="127.31 -165.41 128.92 -162.62 150.79 -200.49 147.56 -200.49"/>
			<polygon points="125 -125 127.3 -127.3 125 -131.28"/>
			<polygon points="125 -161.41 127.31 -165.41 125 -169.41"/>
			<polygon class="st0" points="4.969 -230.62 3.721 -229.9 4.969 -229.18"/>
			<polygon class="st0" points="43.784 -150.87 49.514 -147.56 49.514 -150.79 46.579 -152.48"/>
			<polygon class="st0" points="46.579 -152.48 49.514 -154.18 49.514 -171.62 31.471 -161.2"/>
			<polygon class="st0" points="4.969 -145.9 31.471 -161.2 11.699 -172.62 4.969 -168.74"/>
			<polygon points="0 -249.56 0.277 -249.72 0 -250"/>
			<polygon points="4.969 -245.03 4.969 -238.63 9.03 -240.97"/>
			<polygon points="4.969 -238.63 0 -235.76 0 -232.05 3.721 -229.9 4.969 -230.62"/>
			<polygon points="42.474 -207.53 14.105 -235.9 4.969 -230.62 4.969 -229.18"/>
			<polygon points="0 -179.38 4.969 -176.51 4.969 -229.18 3.721 -229.9 0 -227.75"/>
			<polygon points="0 -165.87 0 -143.04 4.969 -145.9 4.969 -168.74"/>
			<polygon points="0 -125 4.969 -125 4.969 -142.46 0 -139.59"/>
			<polygon points="11.699 -172.62 4.969 -176.51 4.969 -168.74"/>
			<polygon points="49.514 -171.62 49.514 -194.45 11.699 -172.62 31.471 -161.2"/>
			<polygon points="49.514 -200.49 49.514 -194.45 53.339 -196.66"/>
			<polygon points="49.514 -150.79 49.514 -154.18 46.579 -152.48"/>
			<polygon points="31.471 -161.2 4.969 -145.9 4.969 -142.46 31.663 -157.87 43.784 -150.87 46.579 -152.48"/>
			<polygon points="36.007 -146.38 36.007 -125 49.514 -125 49.514 -147.56 43.784 -150.87"/>
			<polygon points="78.873 -171.13 67.813 -182.19 49.514 -171.62 49.514 -154.18"/>
			<polygon points="116.13 -125 121.75 -128.25 120.35 -129.65 104.5 -138.8 87.385 -128.92 94.18 -125"/>
			<polygon points="84.59 -127.31 87.385 -128.92 49.514 -150.79 49.514 -147.56"/>
			<polygon points="125 -125 122.7 -127.3 118.72 -125"/>
			<polygon points="88.59 -125 84.59 -127.31 80.591 -125"/>
			<polygon class="st0" points="19.38 -4.969 20.1 -3.721 20.821 -4.969"/>
			<polygon class="st0" points="99.131 -43.784 102.44 -49.514 99.212 -49.514 97.518 -46.579"/>
			<polygon class="st0" points="97.518 -46.579 95.823 -49.514 78.378 -49.514 88.795 -31.471"/>
			<polygon class="st0" points="104.1 -4.969 88.795 -31.471 77.38 -11.699 81.265 -4.969"/>
			<polygon points="0.437 0 0.277 -0.277 0 0"/>
			<polygon points="4.969 -4.969 11.374 -4.969 9.03 -9.03"/>
			<polygon points="11.374 -4.969 14.243 0 17.952 0 20.1 -3.721 19.38 -4.969"/>
			<polygon points="42.474 -42.474 14.105 -14.105 19.38 -4.969 20.821 -4.969"/>
			<polygon points="70.625 0 73.494 -4.969 20.821 -4.969 20.1 -3.721 22.248 0"/>
			<polygon points="84.134 0 106.96 0 104.1 -4.969 81.265 -4.969"/>
			<polygon points="125 0 125 -4.969 107.54 -4.969 110.41 0"/>
			<polygon points="77.38 -11.699 73.494 -4.969 81.265 -4.969"/>
			<polygon points="78.378 -49.514 55.547 -49.514 77.38 -11.699 88.795 -31.471"/>
			<polygon points="49.514 -49.514 55.547 -49.514 53.339 -53.339"/>
			<polygon points="99.212 -49.514 95.823 -49.514 97.518 -46.579"/>
			<polygon points="88.795 -31.471 104.1 -4.969 107.54 -4.969 92.133 -31.663 99.131 -43.784 97.518 -46.579"/>
			<polygon points="103.62 -36.007 125 -36.007 125 -49.514 102.44 -49.514 99.131 -43.784"/>
			<polygon points="78.873 -78.873 67.813 -67.813 78.378 -49.514 95.823 -49.514"/>
			<polygon points="125 -116.13 121.75 -121.75 120.35 -120.35 111.2 -104.5 121.08 -87.385 125 -94.18"/>
			<polygon points="122.69 -84.59 121.08 -87.385 99.212 -49.514 102.44 -49.514"/>
			<polygon points="125 -125 122.7 -122.7 125 -118.72"/>
			<polygon points="125 -88.59 122.69 -84.59 125 -80.591"/>
			<polygon class="st0" points="245.03 -230.62 246.28 -229.9 245.03 -229.18"/>
			<polygon class="st0" points="206.22 -150.87 200.49 -147.56 200.49 -150.79 203.42 -152.48"/>
			<polygon class="st0" points="203.42 -152.48 200.49 -154.18 200.49 -171.62 218.53 -161.2"/>
			<polygon class="st0" points="245.03 -145.9 218.53 -161.2 238.3 -172.62 245.03 -168.74"/>
			<polygon points="250 -249.56 249.72 -249.72 250 -250"/>
			<polygon points="245.03 -245.03 245.03 -238.63 240.97 -240.97"/>
			<polygon points="245.03 -238.63 250 -235.76 250 -232.05 246.28 -229.9 245.03 -230.62"/>
			<polygon points="207.53 -207.53 235.9 -235.9 245.03 -230.62 245.03 -229.18"/>
			<polygon points="250 -179.38 245.03 -176.51 245.03 -229.18 246.28 -229.9 250 -227.75"/>
			<polygon points="250 -165.87 250 -143.04 245.03 -145.9 245.03 -168.74"/>
			<polygon points="250 -125 245.03 -125 245.03 -142.46 250 -139.59"/>
			<polygon points="238.3 -172.62 245.03 -176.51 245.03 -168.74"/>
			<polygon points="200.49 -171.62 200.49 -194.45 238.3 -172.62 218.53 -161.2"/>
			<polygon points="200.49 -200.49 200.49 -194.45 196.66 -196.66"/>
			<polygon points="200.49 -150.79 200.49 -154.18 203.42 -152.48"/>
			<polygon points="218.53 -161.2 245.03 -145.9 245.03 -142.46 218.34 -157.87 206.22 -150.87 203.42 -152.48"/>
			<polygon points="213.99 -146.38 213.99 -125 200.49 -125 200.49 -147.56 206.22 -150.87"/>
			<polygon points="171.13 -171.13 182.19 -182.19 200.49 -171.62 200.49 -154.18"/>
			<polygon points="133.87 -125 128.25 -128.25 129.65 -129.65 145.5 -138.8 162.62 -128.92 155.82 -125"/>
			<polygon points="165.41 -127.31 162.62 -128.92 200.49 -150.79 200.49 -147.56"/>
			<polygon points="125 -125 127.3 -127.3 131.28 -125"/>
			<polygon points="161.41 -125 165.41 -127.31 169.41 -125"/>
			<polygon class="st0" points="19.38 -245.03 20.1 -246.28 20.821 -245.03"/>
			<polygon class="st0" points="99.131 -206.22 102.44 -200.49 99.212 -200.49 97.518 -203.42"/>
			<polygon class="st0" points="97.518 -203.42 95.823 -200.49 78.378 -200.49 88.795 -218.53"/>
			<polygon class="st0" points="104.1 -245.03 88.795 -218.53 77.38 -238.3 81.265 -245.03"/>
			<polygon points="0.437 -250 0.277 -249.72 0 -250"/>
			<polygon points="4.969 -245.03 11.374 -245.03 9.03 -240.97"/>
			<polygon points="11.374 -245.03 14.243 -250 17.952 -250 20.1 -246.28 19.38 -245.03"/>
			<polygon points="42.474 -207.53 14.105 -235.9 19.38 -245.03 20.821 -245.03"/>
			<polygon points="70.625 -250 73.494 -245.03 20.821 -245.03 20.1 -246.28 22.248 -250"/>
			<polygon points="84.134 -250 106.96 -250 104.1 -245.03 81.265 -245.03"/>
			<polygon points="125 -250 125 -245.03 107.54 -245.03 110.41 -250"/>
			<polygon points="77.38 -238.3 73.494 -245.03 81.265 -245.03"/>
			<polygon points="78.378 -200.49 55.547 -200.49 77.38 -238.3 88.795 -218.53"/>
			<polygon points="49.514 -200.49 55.547 -200.49 53.339 -196.66"/>
			<polygon points="99.212 -200.49 95.823 -200.49 97.518 -203.42"/>
			<polygon points="88.795 -218.53 104.1 -245.03 107.54 -245.03 92.133 -218.34 99.131 -206.22 97.518 -203.42"/>
			<polygon points="103.62 -213.99 125 -213.99 125 -200.49 102.44 -200.49 99.131 -206.22"/>
			<polygon points="78.873 -171.13 67.813 -182.19 78.378 -200.49 95.823 -200.49"/>
			<polygon points="125 -133.87 121.75 -128.25 120.35 -129.65 111.2 -145.5 121.08 -162.62 125 -155.82"/>
			<polygon points="122.69 -165.41 121.08 -162.62 99.212 -200.49 102.44 -200.49"/>
			<polygon points="125 -125 122.7 -127.3 125 -131.28"/>
			<polygon points="125 -161.41 122.69 -165.41 125 -169.41"/>
			<polygon class="st0" points="4.969 -19.38 3.721 -20.1 4.969 -20.821"/>
			<polygon class="st0" points="43.784 -99.131 49.514 -102.44 49.514 -99.212 46.579 -97.518"/>
			<polygon class="st0" points="46.579 -97.518 49.514 -95.823 49.514 -78.378 31.471 -88.795"/>
			<polygon class="st0" points="4.969 -104.1 31.471 -88.795 11.699 -77.38 4.969 -81.265"/>
			<polygon points="0 -0.437 0.277 -0.277 0 0"/>
			<polygon points="4.969 -4.969 4.969 -11.374 9.03 -9.03"/>
			<polygon points="4.969 -11.374 0 -14.243 0 -17.952 3.721 -20.1 4.969 -19.38"/>
			<polygon points="42.474 -42.474 14.105 -14.105 4.969 -19.38 4.969 -20.821"/>
			<polygon points="0 -70.625 4.969 -73.494 4.969 -20.821 3.721 -20.1 0 -22.248"/>
			<polygon points="0 -84.134 0 -106.96 4.969 -104.1 4.969 -81.265"/>
			<polygon points="0 -125 4.969 -125 4.969 -107.54 0 -110.41"/>
			<polygon points="11.699 -77.38 4.969 -73.494 4.969 -81.265"/>
			<polygon points="49.514 -78.378 49.514 -55.547 11.699 -77.38 31.471 -88.795"/>
			<polygon points="49.514 -49.514 49.514 -55.547 53.339 -53.339"/>
			<polygon points="49.514 -99.212 49.514 -95.823 46.579 -97.518"/>
			<polygon points="31.471 -88.795 4.969 -104.1 4.969 -107.54 31.663 -92.133 43.784 -99.131 46.579 -97.518"/>
			<polygon points="36.007 -103.62 36.007 -125 49.514 -125 49.514 -102.44 43.784 -99.131"/>
			<polygon points="78.873 -78.873 67.813 -67.813 49.514 -78.378 49.514 -95.823"/>
			<polygon points="116.13 -125 121.75 -121.75 120.35 -120.35 104.5 -111.2 87.385 -121.08 94.18 -125"/>
			<polygon points="84.59 -122.69 87.385 -121.08 49.514 -99.212 49.514 -102.44"/>
			<polygon points="125 -125 122.7 -122.7 118.72 -125"/>
			<polygon points="88.59 -125 84.59 -122.69 80.591 -125"/>
			<polygon class="st0" points="230.62 -4.969 229.9 -3.721 229.18 -4.969"/>
			<polygon class="st0" points="150.87 -43.784 147.56 -49.514 150.79 -49.514 152.48 -46.579"/>
			<polygon class="st0" points="152.48 -46.579 154.18 -49.514 171.62 -49.514 161.2 -31.471"/>
			<polygon class="st0" points="145.9 -4.969 161.2 -31.471 172.62 -11.699 168.74 -4.969"/>
			<polygon points="249.56 0 249.72 -0.277 250 0"/>
			<polygon points="245.03 -4.969 238.63 -4.969 240.97 -9.03"/>
			<polygon points="238.63 -4.969 235.76 0 232.05 0 229.9 -3.721 230.62 -4.969"/>
			<polygon points="207.53 -42.474 235.9 -14.105 230.62 -4.969 229.18 -4.969"/>
			<polygon points="179.38 0 176.51 -4.969 229.18 -4.969 229.9 -3.721 227.75 0"/>
			<polygon points="165.87 0 143.04 0 145.9 -4.969 168.74 -4.969"/>
			<polygon points="125 0 125 -4.969 142.46 -4.969 139.59 0"/>
			<polygon points="172.62 -11.699 176.51 -4.969 168.74 -4.969"/>
			<polygon points="171.62 -49.514 194.45 -49.514 172.62 -11.699 161.2 -31.471"/>
			<polygon points="200.49 -49.514 194.45 -49.514 196.66 -53.339"/>
			<polygon points="150.79 -49.514 154.18 -49.514 152.48 -46.579"/>
			<polygon points="161.2 -31.471 145.9 -4.969 142.46 -4.969 157.87 -31.663 150.87 -43.784 152.48 -46.579"/>
			<polygon points="146.38 -36.007 125 -36.007 125 -49.514 147.56 -49.514 150.87 -43.784"/>
			<polygon points="171.13 -78.873 182.19 -67.813 171.62 -49.514 154.18 -49.514"/>
			<polygon points="125 -116.13 128.25 -121.75 129.65 -120.35 138.8 -104.5 128.92 -87.385 125 -94.18"/>
			<polygon points="127.31 -84.59 128.92 -87.385 150.79 -49.514 147.56 -49.514"/>
			<polygon points="125 -125 127.3 -122.7 125 -118.72"/>
			<polygon points="125 -88.59 127.31 -84.59 125 -80.591"/>
</pattern>
<rect class="st1" width="2560" height="1600"/>
</svg>