<?xml version="1.0" encoding="utf-8"?>
<svg version="1.1" id="Layer_1" xmlns="http://www.w3.org/2000/svg" xmlns:xlink="http://www.w3.org/1999/xlink" x="0px" y="0px"
	 viewBox="0 0 2560 1600" enable-background="new 0 0 2560 1600" xml:space="preserve">
<pattern  width="173.206" height="300" patternUnits="userSpaceOnUse" id="New_Pattern_4" viewBox="86.603 -350 173.206 300" overflow="visible">
	<g>
		<rect x="86.603" y="-350" fill="none" width="173.206" height="300"/>
		<g>
			
				<linearGradient id="SVGID_1_" gradientUnits="userSpaceOnUse" x1="17420.0938" y1="-2282.9214" x2="17506.6973" y2="-2282.9214" gradientTransform="matrix(-1 0 0 1 17679.9023 2207.9214)">
				<stop  offset="0" style="stop-color:#000000"/>
				<stop  offset="1" style="stop-color:#999999"/>
			</linearGradient>
			<polygon fill="url(#SVGID_1_)" points="173.206,-100 259.809,-150 259.809,-50 173.206,0 			"/>
			<g>
				
					<linearGradient id="SVGID_2_" gradientUnits="userSpaceOnUse" x1="-577.2573" y1="-14168.9238" x2="-577.2573" y2="-14118.9238" gradientTransform="matrix(1 0 0 -1 837.0661 -14218.9238)">
					<stop  offset="0" style="stop-color:#FFFFFF"/>
					<stop  offset="1" style="stop-color:#999999"/>
				</linearGradient>
				<polygon fill="url(#SVGID_2_)" points="303.11,-75 259.809,-50 216.507,-75 259.809,-100 				"/>
				
					<linearGradient id="SVGID_3_" gradientUnits="userSpaceOnUse" x1="-577.2574" y1="-14181.4238" x2="-620.5589" y2="-14181.4238" gradientTransform="matrix(1 0 0 -1 837.0661 -14218.9238)">
					<stop  offset="0" style="stop-color:#D9D9D9"/>
					<stop  offset="1" style="stop-color:#666666"/>
				</linearGradient>
				<polygon fill="url(#SVGID_3_)" points="259.809,0 216.507,-25 216.507,-75 259.809,-50 				"/>
			</g>
		</g>
		<g>
			
				<linearGradient id="SVGID_4_" gradientUnits="userSpaceOnUse" x1="-755.1447" y1="-14116.2207" x2="-668.4525" y2="-14166.2725" gradientTransform="matrix(1 0 0 -1 837.0661 -14218.9238)">
				<stop  offset="0" style="stop-color:#7D7D7D"/>
				<stop  offset="1" style="stop-color:#E6E6E6"/>
			</linearGradient>
			<polygon fill="url(#SVGID_4_)" points="86.603,-150 173.206,-100 173.206,0 86.603,-50 			"/>
			<g>
				
					<linearGradient id="SVGID_5_" gradientUnits="userSpaceOnUse" x1="-750.4631" y1="-14168.9238" x2="-750.4631" y2="-14118.9238" gradientTransform="matrix(1 0 0 -1 837.0661 -14218.9238)">
					<stop  offset="0" style="stop-color:#FFFFFF"/>
					<stop  offset="1" style="stop-color:#999999"/>
				</linearGradient>
				<polygon fill="url(#SVGID_5_)" points="129.904,-75 86.603,-50 43.302,-75 86.603,-100 				"/>
				
					<linearGradient id="SVGID_6_" gradientUnits="userSpaceOnUse" x1="-750.4632" y1="-14181.4238" x2="-707.1618" y2="-14181.4238" gradientTransform="matrix(1 0 0 -1 837.0661 -14218.9238)">
					<stop  offset="0" style="stop-color:#999999"/>
					<stop  offset="1" style="stop-color:#000000"/>
				</linearGradient>
				<polygon fill="url(#SVGID_6_)" points="129.904,-25 86.603,0 86.603,-50 129.904,-75 				"/>
			</g>
		</g>
		<g>
			
				<linearGradient id="SVGID_7_" gradientUnits="userSpaceOnUse" x1="17506.6973" y1="-2407.9216" x2="17506.6973" y2="-2307.9214" gradientTransform="matrix(-1 0 0 1 17679.9023 2207.9214)">
				<stop  offset="0" style="stop-color:#B8B8B8"/>
				<stop  offset="1" style="stop-color:#F2F2F2"/>
			</linearGradient>
			<polygon fill="url(#SVGID_7_)" points="86.603,-150 173.206,-200 259.808,-150 173.205,-100 			"/>
			
				<linearGradient id="SVGID_8_" gradientUnits="userSpaceOnUse" x1="-668.5419" y1="-13966.2207" x2="-581.8496" y2="-14016.2725" gradientTransform="matrix(1 0 0 -1 837.0661 -14218.9238)">
				<stop  offset="0" style="stop-color:#7D7D7D"/>
				<stop  offset="1" style="stop-color:#E6E6E6"/>
			</linearGradient>
			<polygon fill="url(#SVGID_8_)" points="173.206,-300 259.809,-250 259.809,-150 173.206,-200 			"/>
			
				<linearGradient id="SVGID_9_" gradientUnits="userSpaceOnUse" x1="17506.6973" y1="-2432.9214" x2="17593.3008" y2="-2432.9214" gradientTransform="matrix(-1 0 0 1 17679.9023 2207.9214)">
				<stop  offset="0" style="stop-color:#000000"/>
				<stop  offset="1" style="stop-color:#999999"/>
			</linearGradient>
			<polygon fill="url(#SVGID_9_)" points="86.603,-250 173.206,-300 173.206,-200 86.603,-150 			"/>
			<g>
				
					<linearGradient id="SVGID_10_" gradientUnits="userSpaceOnUse" x1="-663.8602" y1="-14018.9238" x2="-663.8602" y2="-13968.9238" gradientTransform="matrix(1 0 0 -1 837.0661 -14218.9238)">
					<stop  offset="0" style="stop-color:#FFFFFF"/>
					<stop  offset="1" style="stop-color:#999999"/>
				</linearGradient>
				<polygon fill="url(#SVGID_10_)" points="216.507,-225 173.206,-200 129.905,-225 173.206,-250 				"/>
				
					<linearGradient id="SVGID_11_" gradientUnits="userSpaceOnUse" x1="-663.8604" y1="-14031.4238" x2="-707.1618" y2="-14031.4238" gradientTransform="matrix(1 0 0 -1 837.0661 -14218.9238)">
					<stop  offset="0" style="stop-color:#D9D9D9"/>
					<stop  offset="1" style="stop-color:#666666"/>
				</linearGradient>
				<polygon fill="url(#SVGID_11_)" points="173.206,-150 129.904,-175 129.904,-225 173.206,-200 				"/>
				
					<linearGradient id="SVGID_12_" gradientUnits="userSpaceOnUse" x1="-663.8604" y1="-14031.4238" x2="-620.5589" y2="-14031.4238" gradientTransform="matrix(1 0 0 -1 837.0661 -14218.9238)">
					<stop  offset="0" style="stop-color:#999999"/>
					<stop  offset="1" style="stop-color:#000000"/>
				</linearGradient>
				<polygon fill="url(#SVGID_12_)" points="216.507,-175 173.206,-150 173.206,-200 216.507,-225 				"/>
			</g>
		</g>
		<g>
			
				<linearGradient id="SVGID_13_" gradientUnits="userSpaceOnUse" x1="17420.0957" y1="-2557.9216" x2="17420.0957" y2="-2457.9214" gradientTransform="matrix(-1 0 0 1 17679.9023 2207.9214)">
				<stop  offset="0" style="stop-color:#B8B8B8"/>
				<stop  offset="1" style="stop-color:#F2F2F2"/>
			</linearGradient>
			<polygon fill="url(#SVGID_13_)" points="173.206,-300 259.809,-350 346.411,-300 259.808,-250 			"/>
			
				<linearGradient id="SVGID_14_" gradientUnits="userSpaceOnUse" x1="17420.0938" y1="-2582.9214" x2="17506.6973" y2="-2582.9214" gradientTransform="matrix(-1 0 0 1 17679.9023 2207.9214)">
				<stop  offset="0" style="stop-color:#000000"/>
				<stop  offset="1" style="stop-color:#999999"/>
			</linearGradient>
			<polygon fill="url(#SVGID_14_)" points="173.206,-400 259.809,-450 259.809,-350 173.206,-300 			"/>
			<g>
				
					<linearGradient id="SVGID_15_" gradientUnits="userSpaceOnUse" x1="-577.2574" y1="-13881.4238" x2="-620.5589" y2="-13881.4238" gradientTransform="matrix(1 0 0 -1 837.0661 -14218.9238)">
					<stop  offset="0" style="stop-color:#D9D9D9"/>
					<stop  offset="1" style="stop-color:#666666"/>
				</linearGradient>
				<polygon fill="url(#SVGID_15_)" points="259.809,-300 216.507,-325 216.507,-375 259.809,-350 				"/>
			</g>
		</g>
		<g>
			
				<linearGradient id="SVGID_16_" gradientUnits="userSpaceOnUse" x1="17593.3008" y1="-2557.9216" x2="17593.3008" y2="-2457.9214" gradientTransform="matrix(-1 0 0 1 17679.9023 2207.9214)">
				<stop  offset="0" style="stop-color:#B8B8B8"/>
				<stop  offset="1" style="stop-color:#F2F2F2"/>
			</linearGradient>
			<polygon fill="url(#SVGID_16_)" points="0,-300 86.603,-350 173.205,-300 86.602,-250 			"/>
			
				<linearGradient id="SVGID_17_" gradientUnits="userSpaceOnUse" x1="-755.1447" y1="-13816.2207" x2="-668.4525" y2="-13866.2725" gradientTransform="matrix(1 0 0 -1 837.0661 -14218.9238)">
				<stop  offset="0" style="stop-color:#7D7D7D"/>
				<stop  offset="1" style="stop-color:#E6E6E6"/>
			</linearGradient>
			<polygon fill="url(#SVGID_17_)" points="86.603,-450 173.206,-400 173.206,-300 86.603,-350 			"/>
			<g>
				
					<linearGradient id="SVGID_18_" gradientUnits="userSpaceOnUse" x1="-750.4632" y1="-13881.4238" x2="-707.1618" y2="-13881.4238" gradientTransform="matrix(1 0 0 -1 837.0661 -14218.9238)">
					<stop  offset="0" style="stop-color:#999999"/>
					<stop  offset="1" style="stop-color:#000000"/>
				</linearGradient>
				<polygon fill="url(#SVGID_18_)" points="129.904,-325 86.603,-300 86.603,-350 129.904,-375 				"/>
			</g>
		</g>
	</g>
</pattern>
<rect fill="url(#New_Pattern_4)" width="2560" height="1600"/>
</svg>
