<?xml version='1.0' encoding='utf-8'?>
<svg xmlns="http://www.w3.org/2000/svg" width="4096" height="4096" viewBox="0 0 4096 4096" version="1.1"> <defs> <radialGradient id="bg" cx="0" cy="256" r="4096" gradientUnits="userSpaceOnUse"> <stop stop-color="#C4B480" offset="0"/><!-- willow --> <stop stop-color="#004A44" offset="0.8"/><!-- Deep Skobeloff --> </radialGradient> <linearGradient id="fg" x1="0" x2="1" y1="0" y2="1"> <stop stop-color="#C4B480" offset="0"/><!-- willow --> <stop stop-color="#004A44" offset="1"/><!-- Deep Skobeloff --> </linearGradient> <clipPath id="frame"> <rect x="0" y="0" width="4096" height="4096"/> </clipPath> </defs> <polygon points="0,0 4096,0 4096,4096, 0,4096" fill="url(#bg)" clip-path="url(#frame)"/> <g stroke="none" fill="url(#fg)" fill-opacity="0.8" clip-path="url(#frame)"> <polygon points="5207,936 4121,888 3501,637 4176,558 4832,659 "/> <polygon points="4700,1711 3168,1611 2526,1129 3486,990 4303,1169 "/> <polygon points="3372,3740 780,3422 530,2135 2150,1825 3202,2231 "/> <polygon points="3368,20 3877,31 4245,109 3806,144 3418,101 "/> <polygon points="2862,159 3450,175 3842,284 3295,333 2862,271 "/> <polygon points="2147,355 2844,378 3245,541 2527,618 2044,522 "/> <polygon points="1063,653 1918,689 2276,960 1241,1094 722,928 "/> <polygon points="-777,1158 324,1224 420,1761 -1355,2056 -1773,1693 "/> </g> <g stroke="white" stroke-width="12" stroke-opacity="0.125" fill="none" clip-path="url(#frame)"> <polygon points="473,-55 489,-33 380,-19 215,-23 298,-47 "/> <polygon points="652,-29 489,-33 380,-19 393,5 580,-4 "/> <polygon points="652,-29 720,-53 645,-63 473,-55 489,-33 "/> <polygon points="393,5 202,15 127,2 215,-23 380,-19 "/> <polygon points="-15,122 89,88 299,76 311,107 178,127 "/> <polygon points="187,162 412,148 505,112 311,107 178,127 "/> <polygon points="187,162 178,127 -15,122 -130,158 -45,176 "/> <polygon points="505,112 311,107 299,76 503,65 590,79 "/> <polygon points="845,-2 873,23 764,39 585,35 661,7 "/> <polygon points="1051,27 873,23 764,39 791,68 987,56 "/> <polygon points="1051,27 1111,0 1024,-11 845,-2 873,23 "/> <polygon points="791,68 590,79 503,65 585,35 764,39 "/> <polygon points="1505,-42 1339,-46 1248,-32 1288,-9 1460,-18 "/> <polygon points="1288,-9 1111,0 1024,-11 1082,-36 1248,-32 "/> <polygon points="408,205 506,165 728,151 758,188 623,212 "/> <polygon points="651,253 890,237 971,194 758,188 623,212 "/> <polygon points="651,253 623,212 408,205 301,249 404,271 "/> <polygon points="971,194 758,188 728,151 943,138 1046,155 "/> <polygon points="-354,334 -210,283 50,266 53,312 -117,342 "/> <polygon points="-120,396 164,374 290,320 53,312 -117,342 "/> <polygon points="290,320 53,312 50,266 301,249 404,271 "/> <polygon points="1274,59 1320,89 1211,108 1015,103 1082,71 "/> <polygon points="1515,94 1320,89 1211,108 1257,141 1464,128 "/> <polygon points="1515,94 1563,62 1462,48 1274,59 1320,89 "/> <polygon points="1257,141 1046,155 943,138 1015,103 1211,108 "/> <polygon points="1724,-16 1779,8 1690,24 1509,20 1554,-6 "/> <polygon points="1959,12 1779,8 1690,24 1747,51 1928,40 "/> <polygon points="1959,12 1989,-13 1890,-25 1724,-16 1779,8 "/> <polygon points="1747,51 1563,62 1462,48 1509,20 1690,24 "/> <polygon points="2328,-55 2162,-58 2087,-45 2152,-22 2311,-31 "/> <polygon points="2152,-22 1989,-13 1890,-25 1920,-49 2087,-45 "/> <polygon points="918,306 1003,258 1238,241 1292,285 1158,314 "/> <polygon points="1212,364 1467,344 1531,293 1292,285 1158,314 "/> <polygon points="1212,364 1158,314 918,306 824,359 949,385 "/> <polygon points="1531,293 1292,285 1238,241 1465,225 1588,245 "/> <polygon points="140,464 275,401 554,380 584,437 408,474 "/> <polygon points="433,541 741,514 851,446 584,437 408,474 "/> <polygon points="433,541 408,474 140,464 -10,534 111,569 "/> <polygon points="851,446 584,437 554,380 824,359 949,385 "/> <polygon points="-53,651 -355,638 -339,562 -10,534 111,569 "/> <polygon points="1776,132 1845,167 1739,189 1522,183 1575,145 "/> <polygon points="2061,173 1845,167 1739,189 1811,229 2027,213 "/> <polygon points="2061,173 2092,135 1973,119 1776,132 1845,167 "/> <polygon points="1811,229 1588,245 1465,225 1522,183 1739,189 "/> <polygon points="2212,43 2289,72 2203,90 2005,85 2036,54 "/> <polygon points="2486,76 2289,72 2203,90 2285,122 2472,109 "/> <polygon points="2486,76 2499,46 2385,32 2212,43 2289,72 "/> <polygon points="2285,122 2092,135 1973,119 2005,85 2203,90 "/> <polygon points="2572,-29 2653,-5 2582,9 2401,5 2415,-20 "/> <polygon points="2834,-1 2653,-5 2582,9 2668,35 2833,25 "/> <polygon points="2834,-1 2835,-27 2725,-38 2572,-29 2653,-5 "/> <polygon points="2668,35 2499,46 2385,32 2401,5 2582,9 "/> <polygon points="3125,-67 2957,-70 2898,-58 2986,-36 3133,-44 "/> <polygon points="2986,-36 2835,-27 2725,-38 2730,-61 2898,-58 "/> <polygon points="1541,429 1605,370 1854,349 1944,403 1813,439 "/> <polygon points="1908,502 2179,477 2213,413 1944,403 1813,439 "/> <polygon points="1908,502 1813,439 1541,429 1470,495 1627,528 "/> <polygon points="2213,413 1944,403 1854,349 2094,330 2244,355 "/> <polygon points="764,628 881,548 1182,521 1248,593 1073,641 "/> <polygon points="1141,727 1474,692 1555,605 1248,593 1073,641 "/> <polygon points="1141,727 1073,641 764,628 631,717 791,763 "/> <polygon points="1555,605 1248,593 1182,521 1470,495 1627,528 "/> <polygon points="-314,903 -105,791 272,753 292,854 43,922 "/> <polygon points="49,1046 482,996 646,871 292,854 43,922 "/> <polygon points="49,1046 43,922 -314,903 -556,1032 -406,1099 "/> <polygon points="646,871 292,854 272,753 631,717 791,763 "/> <polygon points="2372,217 2472,259 2371,287 2129,279 2160,233 "/> <polygon points="2713,267 2472,259 2371,287 2479,335 2706,316 "/> <polygon points="2713,267 2719,222 2577,202 2372,217 2472,259 "/> <polygon points="2479,335 2244,355 2094,330 2129,279 2371,287 "/> <polygon points="2782,113 2887,146 2807,168 2588,162 2599,125 "/> <polygon points="3104,152 2887,146 2807,168 2919,206 3114,191 "/> <polygon points="3104,152 3095,116 2961,100 2782,113 2887,146 "/> <polygon points="2919,206 2719,222 2577,202 2588,162 2807,168 "/> <polygon points="3115,27 3221,55 3156,73 2957,68 2954,38 "/> <polygon points="3419,60 3221,55 3156,73 3270,103 3440,91 "/> <polygon points="3419,60 3400,30 3273,17 3115,27 3221,55 "/> <polygon points="3270,103 3095,116 2961,100 2957,68 3156,73 "/> <polygon points="3392,-42 3497,-19 3443,-4 3260,-8 3247,-33 "/> <polygon points="3678,-15 3497,-19 3443,-4 3554,20 3706,10 "/> <polygon points="3678,-15 3653,-40 3533,-51 3392,-42 3497,-19 "/> <polygon points="3554,20 3400,30 3273,17 3260,-8 3443,-4 "/> <polygon points="2322,583 2351,509 2615,483 2755,551 2636,596 "/> <polygon points="2791,676 3077,644 3065,562 2755,551 2636,596 "/> <polygon points="2791,676 2636,596 2322,583 2289,668 2491,710 "/> <polygon points="3065,562 2755,551 2615,483 2868,459 3054,490 "/> <polygon points="1573,840 1655,736 1980,701 2106,795 1938,858 "/> <polygon points="2076,972 2438,926 2467,811 2106,795 1938,858 "/> <polygon points="2076,972 1938,858 1573,840 1479,960 1695,1022 "/> <polygon points="2467,811 2106,795 1980,701 2289,668 2491,710 "/> <polygon points="482,1215 666,1060 1083,1008 1169,1146 917,1241 "/> <polygon points="1000,1418 1486,1346 1599,1170 1169,1146 917,1241 "/> <polygon points="1000,1418 917,1241 482,1215 264,1399 482,1496 "/> <polygon points="1599,1170 1169,1146 1083,1008 1479,960 1695,1022 "/> <polygon points="-799,2164 -79,2036 231,1737 -298,1697 -719,1856 "/> <polygon points="231,1737 -298,1697 -275,1475 264,1399 482,1496 "/> <polygon points="3088,321 3232,372 3142,405 2867,396 2867,340 "/> <polygon points="3504,380 3232,372 3142,405 3300,465 3537,441 "/> <polygon points="3504,380 3474,326 3302,302 3088,321 3232,372 "/> <polygon points="3300,465 3054,490 2868,459 2867,396 3142,405 "/> <polygon points="3455,195 3596,235 3527,261 3282,254 3265,210 "/> <polygon points="3839,242 3596,235 3527,261 3682,307 3883,288 "/> <polygon points="3839,242 3798,199 3639,180 3455,195 3596,235 "/> <polygon points="3682,307 3474,326 3302,302 3282,254 3527,261 "/> <polygon points="3747,94 3885,127 3829,147 3609,142 3581,107 "/> <polygon points="4103,132 3885,127 3829,147 3978,184 4153,169 "/> <polygon points="4103,132 4057,98 3909,82 3747,94 3885,127 "/> <polygon points="3978,184 3798,199 3639,180 3609,142 3829,147 "/> <polygon points="3986,12 4118,39 4073,56 3872,51 3838,23 "/> <polygon points="4215,86 4057,98 3909,82 3872,51 4073,56 "/> <polygon points="3327,782 3299,685 3576,652 3794,739 3697,798 "/> <polygon points="3948,904 4247,861 4158,754 3794,739 3697,798 "/> <polygon points="3948,904 3697,798 3327,782 3360,893 3630,950 "/> <polygon points="4158,754 3794,739 3576,652 3841,621 4079,660 "/> <polygon points="2668,1127 2682,985 3030,938 3255,1065 3111,1151 "/> <polygon points="3373,1313 3761,1247 3691,1087 3255,1065 3111,1151 "/> <polygon points="3373,1313 3111,1151 2668,1127 2650,1295 2958,1383 "/> <polygon points="3691,1087 3255,1065 3030,938 3360,893 3630,950 "/> <polygon points="1638,1667 1751,1438 2215,1364 2425,1564 2191,1706 "/> <polygon points="2434,1979 2979,1866 2969,1600 2425,1564 2191,1706 "/> <polygon points="2434,1979 2191,1706 1638,1667 1498,1948 1841,2102 "/> <polygon points="2969,1600 2425,1564 2215,1364 2650,1295 2958,1383 "/> <polygon points="-194,2627 186,2200 871,2068 986,2432 537,2703 "/> <polygon points="633,3260 1519,3023 1703,2499 986,2432 537,2703 "/> <polygon points="633,3260 537,2703 -194,2627 -703,3196 -371,3529 "/> <polygon points="1703,2499 986,2432 871,2068 1498,1948 1841,2102 "/> <polygon points="3967,447 4173,511 4103,553 3786,542 3738,471 "/> <polygon points="4485,522 4401,453 4188,424 3967,447 4173,511 "/> <polygon points="4335,629 4079,660 3841,621 3786,542 4103,553 "/> <polygon points="3464,2380 3393,2010 3904,1894 4371,2213 4218,2446 "/> <polygon points="4842,2919 4218,2446 3464,2380 3555,2865 4179,3143 "/> <polygon points="1834,4181 2010,3327 2829,3082 3345,3780 2976,4343 "/> <polygon points="3743,5643 4825,5067 4440,3916 3345,3780 2976,4343 "/> <polygon points="3743,5643 2976,4343 1834,4181 1564,5481 2421,6347 "/> <polygon points="4440,3916 3345,3780 2829,3082 3555,2865 4179,3143 "/> <polygon points="393,5 408,31 288,47 109,43 202,15 "/> <polygon points="585,35 408,31 288,47 299,76 503,65 "/> <polygon points="585,35 661,7 580,-4 393,5 408,31 "/> <polygon points="299,76 89,88 10,73 109,43 288,47 "/> <polygon points="890,-61 918,-39 818,-26 652,-29 720,-53 "/> <polygon points="1082,-36 918,-39 818,-26 845,-2 1024,-11 "/> <polygon points="845,-2 661,7 580,-4 652,-29 818,-26 "/> <polygon points="-167,217 -45,176 187,162 196,199 46,223 "/> <polygon points="50,266 301,249 408,205 196,199 46,223 "/> <polygon points="50,266 46,223 -167,217 -300,261 -210,283 "/> <polygon points="408,205 196,199 187,162 412,148 506,165 "/> <polygon points="791,68 821,98 700,117 505,112 590,79 "/> <polygon points="1015,103 821,98 700,117 728,151 943,138 "/> <polygon points="1015,103 1082,71 987,56 791,68 821,98 "/> <polygon points="728,151 506,165 412,148 505,112 700,117 "/> <polygon points="1288,-9 1331,15 1231,31 1051,27 1111,0 "/> <polygon points="1509,20 1331,15 1231,31 1274,59 1462,48 "/> <polygon points="1509,20 1554,-6 1460,-18 1288,-9 1331,15 "/> <polygon points="1274,59 1082,71 987,56 1051,27 1231,31 "/> <polygon points="1920,-49 1754,-52 1671,-39 1724,-16 1890,-25 "/> <polygon points="1724,-16 1554,-6 1460,-18 1505,-42 1671,-39 "/> <polygon points="290,320 404,271 651,253 681,298 528,328 "/> <polygon points="554,380 824,359 918,306 681,298 528,328 "/> <polygon points="554,380 528,328 290,320 164,374 275,401 "/> <polygon points="918,306 681,298 651,253 890,237 1003,258 "/> <polygon points="-339,562 -10,534 140,464 -124,454 -323,493 "/> <polygon points="140,464 -124,454 -120,396 164,374 275,401 "/> <polygon points="1257,141 1308,177 1188,201 971,194 1046,155 "/> <polygon points="1522,183 1308,177 1188,201 1238,241 1465,225 "/> <polygon points="1522,183 1575,145 1464,128 1257,141 1308,177 "/> <polygon points="1238,241 1003,258 890,237 971,194 1188,201 "/> <polygon points="1747,51 1810,80 1713,99 1515,94 1563,62 "/> <polygon points="2005,85 1810,80 1713,99 1776,132 1973,119 "/> <polygon points="2005,85 2036,54 1928,40 1747,51 1810,80 "/> <polygon points="1776,132 1575,145 1464,128 1515,94 1713,99 "/> <polygon points="2152,-22 2221,1 2140,16 1959,12 1989,-13 "/> <polygon points="2401,5 2221,1 2140,16 2212,43 2385,32 "/> <polygon points="2401,5 2415,-20 2311,-31 2152,-22 2221,1 "/> <polygon points="2212,43 2036,54 1928,40 1959,12 2140,16 "/> <polygon points="2730,-61 2563,-64 2496,-51 2572,-29 2725,-38 "/> <polygon points="2572,-29 2415,-20 2311,-31 2328,-55 2496,-51 "/> <polygon points="851,446 949,385 1212,364 1273,420 1121,456 "/> <polygon points="1182,521 1470,495 1541,429 1273,420 1121,456 "/> <polygon points="1182,521 1121,456 851,446 741,514 881,548 "/> <polygon points="1541,429 1273,420 1212,364 1467,344 1605,370 "/> <polygon points="-53,651 111,569 433,541 459,615 253,664 "/> <polygon points="272,753 631,717 764,628 459,615 253,664 "/> <polygon points="272,753 253,664 -53,651 -240,744 -105,791 "/> <polygon points="764,628 459,615 433,541 741,514 881,548 "/> <polygon points="1811,229 1889,272 1772,300 1531,293 1588,245 "/> <polygon points="2129,279 1889,272 1772,300 1854,349 2094,330 "/> <polygon points="2129,279 2160,233 2027,213 1811,229 1889,272 "/> <polygon points="1854,349 1605,370 1467,344 1531,293 1772,300 "/> <polygon points="2285,122 2372,156 2279,179 2061,173 2092,135 "/> <polygon points="2588,162 2372,156 2279,179 2372,217 2577,202 "/> <polygon points="2588,162 2599,125 2472,109 2285,122 2372,156 "/> <polygon points="2372,217 2160,233 2027,213 2061,173 2279,179 "/> <polygon points="2668,35 2760,63 2685,81 2486,76 2499,46 "/> <polygon points="2957,68 2760,63 2685,81 2782,113 2961,100 "/> <polygon points="2957,68 2954,38 2833,25 2668,35 2760,63 "/> <polygon points="2782,113 2599,125 2472,109 2486,76 2685,81 "/> <polygon points="2986,-36 3079,-12 3017,2 2834,-1 2835,-27 "/> <polygon points="3260,-8 3079,-12 3017,2 3115,27 3273,17 "/> <polygon points="3260,-8 3247,-33 3133,-44 2986,-36 3079,-12 "/> <polygon points="3115,27 2954,38 2833,25 2834,-1 3017,2 "/> <polygon points="3392,-42 3247,-33 3133,-44 3125,-67 3293,-64 "/> <polygon points="1555,605 1627,528 1908,502 2014,572 1867,618 "/> <polygon points="1980,701 2289,668 2322,583 2014,572 1867,618 "/> <polygon points="1980,701 1867,618 1555,605 1474,692 1655,736 "/> <polygon points="2322,583 2014,572 1908,502 2179,477 2351,509 "/> <polygon points="646,871 791,763 1141,727 1216,824 1009,889 "/> <polygon points="1083,1008 1479,960 1573,840 1216,824 1009,889 "/> <polygon points="1083,1008 1009,889 646,871 482,996 666,1060 "/> <polygon points="1573,840 1216,824 1141,727 1474,692 1655,736 "/> <polygon points="-686,1262 -406,1099 49,1046 57,1190 -256,1289 "/> <polygon points="-275,1475 264,1399 482,1215 57,1190 -256,1289 "/> <polygon points="482,1215 57,1190 49,1046 482,996 666,1060 "/> <polygon points="2479,335 2597,387 2487,422 2213,413 2244,355 "/> <polygon points="2867,396 2597,387 2487,422 2615,483 2868,459 "/> <polygon points="2867,396 2867,340 2706,316 2479,335 2597,387 "/> <polygon points="2615,483 2351,509 2179,477 2213,413 2487,422 "/> <polygon points="2919,206 3041,247 2956,274 2713,267 2719,222 "/> <polygon points="3282,254 3041,247 2956,274 3088,321 3302,302 "/> <polygon points="3282,254 3265,210 3114,191 2919,206 3041,247 "/> <polygon points="3088,321 2867,340 2706,316 2713,267 2956,274 "/> <polygon points="3270,103 3391,136 3324,158 3104,152 3095,116 "/> <polygon points="3609,142 3391,136 3324,158 3455,195 3639,180 "/> <polygon points="3609,142 3581,107 3440,91 3270,103 3391,136 "/> <polygon points="3455,195 3265,210 3114,191 3104,152 3324,158 "/> <polygon points="3554,20 3674,47 3619,64 3419,60 3400,30 "/> <polygon points="3872,51 3674,47 3619,64 3747,94 3909,82 "/> <polygon points="3872,51 3838,23 3706,10 3554,20 3674,47 "/> <polygon points="3747,94 3581,107 3440,91 3419,60 3619,64 "/> <polygon points="3792,-48 3907,-26 3862,-11 3678,-15 3653,-40 "/> <polygon points="4089,-22 3907,-26 3862,-11 3986,12 4130,3 "/> <polygon points="4089,-22 4051,-46 3927,-57 3792,-48 3907,-26 "/> <polygon points="3986,12 3838,23 3706,10 3678,-15 3862,-11 "/> <polygon points="2467,811 2491,710 2791,676 2965,766 2834,827 "/> <polygon points="3030,938 3360,893 3327,782 2965,766 2834,827 "/> <polygon points="3030,938 2834,827 2467,811 2438,926 2682,985 "/> <polygon points="3327,782 2965,766 2791,676 3077,644 3299,685 "/> <polygon points="1599,1170 1695,1022 2076,972 2235,1104 2039,1195 "/> <polygon points="2215,1364 2650,1295 2668,1127 2235,1104 2039,1195 "/> <polygon points="2215,1364 2039,1195 1599,1170 1486,1346 1751,1438 "/> <polygon points="2668,1127 2235,1104 2076,972 2438,926 2682,985 "/> <polygon points="231,1737 482,1496 1000,1418 1101,1629 778,1779 "/> <polygon points="871,2068 1498,1948 1638,1667 1101,1629 778,1779 "/> <polygon points="871,2068 778,1779 231,1737 -79,2036 186,2200 "/> <polygon points="1638,1667 1101,1629 1000,1418 1486,1346 1751,1438 "/> <polygon points="-194,2627 -896,2554 -799,2164 -79,2036 186,2200 "/> <polygon points="3300,465 3475,531 3381,574 3065,562 3054,490 "/> <polygon points="3786,542 3475,531 3381,574 3576,652 3841,621 "/> <polygon points="3786,542 3738,471 3537,441 3300,465 3475,531 "/> <polygon points="3576,652 3299,685 3077,644 3065,562 3381,574 "/> <polygon points="3682,307 3851,357 3780,389 3504,380 3474,326 "/> <polygon points="4124,365 3851,357 3780,389 3967,447 4188,424 "/> <polygon points="4124,365 4066,312 3883,288 3682,307 3851,357 "/> <polygon points="3967,447 3738,471 3537,441 3504,380 3780,389 "/> <polygon points="3978,184 4140,223 4085,248 3839,242 3798,199 "/> <polygon points="4261,293 4066,312 3883,288 3839,242 4085,248 "/> <polygon points="3691,1087 3630,950 3948,904 4233,1026 4137,1109 "/> <polygon points="4476,1264 4137,1109 3691,1087 3761,1247 4107,1330 "/> <polygon points="4671,1047 4233,1026 3948,904 4247,861 4542,916 "/> <polygon points="2969,1600 2958,1383 3373,1313 3682,1503 3527,1637 "/> <polygon points="3904,1894 4374,1788 4228,1537 3682,1503 3527,1637 "/> <polygon points="3904,1894 3527,1637 2969,1600 2979,1866 3393,2010 "/> <polygon points="4228,1537 3682,1503 3373,1313 3761,1247 4107,1330 "/> <polygon points="1703,2499 1841,2102 2434,1979 2739,2318 2448,2569 "/> <polygon points="2829,3082 3555,2865 3464,2380 2739,2318 2448,2569 "/> <polygon points="2829,3082 2448,2569 1703,2499 1519,3023 2010,3327 "/> <polygon points="3464,2380 2739,2318 2434,1979 2979,1866 3393,2010 "/> <polygon points="-1082,4477 -371,3529 633,3260 760,4029 30,4660 "/> <polygon points="52,6149 1564,5481 1834,4181 760,4029 30,4660 "/> <polygon points="1834,4181 760,4029 633,3260 1519,3023 2010,3327 "/> </g> </svg>