<?xml version="1.0" encoding="UTF-8" standalone="no"?>
<svg
   xmlns:dc="http://purl.org/dc/elements/1.1/"
   xmlns:cc="http://creativecommons.org/ns#"
   xmlns:rdf="http://www.w3.org/1999/02/22-rdf-syntax-ns#"
   xmlns:svg="http://www.w3.org/2000/svg"
   xmlns="http://www.w3.org/2000/svg"
   viewBox="0 0 2560 1440"
   height="1440"
   width="2560"
   xml:space="preserve"
   id="svg2"
   version="1.1"><metadata
     id="metadata8"><rdf:RDF><cc:Work
         rdf:about=""><dc:format>image/svg+xml</dc:format><dc:type
           rdf:resource="http://purl.org/dc/dcmitype/StillImage" /></cc:Work></rdf:RDF></metadata><defs
     id="defs6"><clipPath
       id="clipPath18"
       clipPathUnits="userSpaceOnUse"><path
         id="path16"
         d="M 0,1080 H 1920 V 0 H 0 Z" /></clipPath><pattern
       id="pattern38"
       height="1081"
       width="1081"
       y="0"
       x="0"
       patternUnits="userSpaceOnUse"
       patternTransform="translate(-0.9999,1080)"><path
         id="path22"
         style="fill:#ffb400;fill-opacity:1;fill-rule:nonzero;stroke:none"
         d="M 1081,0 0,0 l 0,1081 1081,0 0,-1081 z" /><path
         id="path24"
         style="fill:#0d2c54;fill-opacity:1;fill-rule:nonzero;stroke:none"
         d="m 1081,1011.471 -1081,0 0,11.59 1081,0 0,-11.59 z" /><path
         id="path26"
         style="fill:#0d2c54;fill-opacity:1;fill-rule:nonzero;stroke:none"
         d="m 1081,856.09 -1081,0 0,11.59 1081,0 0,-11.59 z" /><path
         id="path28"
         style="fill:#0d2c54;fill-opacity:1;fill-rule:nonzero;stroke:none"
         d="m 1081,700.721 -1081,0 0,11.59 1081,0 0,-11.59 z" /><path
         id="path30"
         style="fill:#0d2c54;fill-opacity:1;fill-rule:nonzero;stroke:none"
         d="m 1081,545.34 -1081,0 0,11.601 1081,0 0,-11.601 z" /><path
         id="path32"
         style="fill:#0d2c54;fill-opacity:1;fill-rule:nonzero;stroke:none"
         d="m 1081,389.971 -1081,0 0,11.59 1081,0 0,-11.59 z" /><path
         id="path34"
         style="fill:#0d2c54;fill-opacity:1;fill-rule:nonzero;stroke:none"
         d="m 1081,234.59 -1081,0 0,11.601 1081,0 0,-11.601 z" /><path
         id="path36"
         style="fill:#0d2c54;fill-opacity:1;fill-rule:nonzero;stroke:none"
         d="m 1081,79.221 -1081,0 0,11.59 1081,0 0,-11.59 z" /></pattern><pattern
       id="pattern74"
       height="1081"
       width="1081"
       y="0"
       x="0"
       patternUnits="userSpaceOnUse"
       patternTransform="translate(-0.9999,1080)"><path
         id="path44"
         style="fill:#0d2c54;fill-opacity:1;fill-rule:nonzero;stroke:none"
         d="M 1081,0 0,0 l 0,1081 1081,0 0,-1081 z" /><g
         id="g48"
         transform="translate(82.5298,798)"><path
           id="path46"
           style="fill:#ffb400;fill-opacity:1;fill-rule:nonzero;stroke:none"
           d="M 0,0 -26,-103.72 0,-207.45 -26,-311.18 0,-414.9 -26,-518.63 0,-622.36 -26,-726.09 -8,-798 l -11.54,0 -18.05,71.9 26,103.73 -26,103.72 26,103.73 -26,103.72 26,103.73 -26,103.72 26,103.73 -26,103.73 25.97,104.64 -18.83,74.65 11.49,0 L 0,207.45 -26,103.73 0,0 Z" /></g><g
         id="g52"
         transform="translate(237.9102,798)"><path
           id="path50"
           style="fill:#ffb400;fill-opacity:1;fill-rule:nonzero;stroke:none"
           d="M 0,0 -26,-103.72 0,-207.45 -26,-311.18 0,-414.9 -26,-518.63 0,-622.36 -26,-726.09 -8,-798 l -11.54,0 -18.05,71.9 26,103.73 -26,103.72 26,103.73 -26,103.72 26,103.73 -26,103.72 26,103.73 -26,103.73 25.97,104.64 -18.83,74.65 11.49,0 L 0,207.45 -26,103.73 0,0 Z" /></g><g
         id="g56"
         transform="translate(393.2798,798)"><path
           id="path54"
           style="fill:#ffb400;fill-opacity:1;fill-rule:nonzero;stroke:none"
           d="M 0,0 -26,-103.72 0,-207.45 -26,-311.18 0,-414.9 -26,-518.63 0,-622.36 -26,-726.09 -8,-798 l -11.54,0 -18.05,71.9 26,103.73 -26,103.72 26,103.73 -26,103.72 26,103.73 -26,103.72 26,103.73 -26,103.73 25.97,104.64 -18.83,74.65 11.49,0 L 0,207.45 -26,103.73 0,0 Z" /></g><g
         id="g60"
         transform="translate(548.6602,798)"><path
           id="path58"
           style="fill:#ffb400;fill-opacity:1;fill-rule:nonzero;stroke:none"
           d="M 0,0 -26,-103.72 0,-207.45 -26,-311.18 0,-414.9 -26,-518.63 0,-622.36 -26,-726.09 -8,-798 l -11.55,0 -18.05,71.9 26,103.73 -26,103.72 26,103.73 -26,103.72 26,103.73 -26,103.72 26,103.73 -26,103.73 25.97,104.64 -18.83,74.65 11.5,0 L 0,207.45 -26,103.73 0,0 Z" /></g><g
         id="g64"
         transform="translate(704.0298,798)"><path
           id="path62"
           style="fill:#ffb400;fill-opacity:1;fill-rule:nonzero;stroke:none"
           d="M 0,0 -26,-103.72 0,-207.45 -26,-311.18 0,-414.9 -26,-518.63 0,-622.36 -26,-726.09 -8,-798 l -11.54,0 -18.05,71.9 26,103.73 -26,103.72 26,103.73 -26,103.72 26,103.73 -26,103.72 26,103.73 -26,103.73 25.97,104.64 -18.83,74.65 11.49,0 L 0,207.45 -26,103.73 0,0 Z" /></g><g
         id="g68"
         transform="translate(859.4102,798)"><path
           id="path66"
           style="fill:#ffb400;fill-opacity:1;fill-rule:nonzero;stroke:none"
           d="M 0,0 -26,-103.72 0,-207.45 -26,-311.18 0,-414.9 -26,-518.63 0,-622.36 -26,-726.09 -8,-798 l -11.55,0 -18.05,71.9 26,103.73 -26,103.72 26,103.73 -26,103.72 26,103.73 -26,103.72 26,103.73 -26,103.73 25.97,104.64 -18.83,74.65 11.5,0 L 0,207.45 -26,103.73 0,0 Z" /></g><g
         id="g72"
         transform="translate(1014.7798,798)"><path
           id="path70"
           style="fill:#ffb400;fill-opacity:1;fill-rule:nonzero;stroke:none"
           d="M 0,0 -26,-103.72 0,-207.45 -26,-311.18 0,-414.9 -26,-518.63 0,-622.36 -26,-726.09 -8,-798 l -11.54,0 -18.05,71.9 26,103.73 -26,103.72 26,103.73 -26,103.72 26,103.73 -26,103.72 26,103.73 -26,103.73 25.97,104.64 -18.83,74.65 11.49,0 L 0,207.45 -26,103.73 0,0 Z" /></g></pattern><pattern
       id="pattern110"
       height="1081"
       width="1081"
       y="0"
       x="0"
       patternUnits="userSpaceOnUse"
       patternTransform="translate(-0.9999,1080)"><path
         id="path80"
         style="fill:#00a6ed;fill-opacity:1;fill-rule:nonzero;stroke:none"
         d="M 1081,0 0,0 l 0,1081 1081,0 0,-1081 z" /><g
         id="g84"
         transform="translate(79.5298,1080.6997)"><path
           id="path82"
           style="fill:#0d2c54;fill-opacity:1;fill-rule:nonzero;stroke:none"
           d="m 0,0 c 0,-28.21 -20,-28.21 -20,-56.43 0,-28.22 20,-28.22 20,-56.43 0,-28.22 -20,-28.22 -20,-56.44 0,-28.21 20,-28.21 20,-56.43 0,-28.22 -20,-28.22 -20,-56.43 0,-28.22 20,-28.22 20,-56.43 0,-28.22 -20,-28.22 -20,-56.43 0,-28.22 20,-28.22 20,-56.43 0,-28.22 -20,-28.22 -20,-56.43 0,-28.22 20,-28.22 20,-56.44 0,-28.21 -20,-28.21 -20,-56.43 0,-28.22 20,-28.22 20,-56.44 0,-28.22 -20,-28.22 -20,-56.43 0,-28.22 20,-28.22 20,-56.44 0,-28.22 -20,-28.22 -20,-56.43 0,-28.22 20,-28.22 20,-56.44 0,-28.21 -20,-28.21 -20,-56.43 0,-28.22 20,-28.22 20,-56.44 0,-28.22 -20,-28.22 -20,-56.44 0,-3.14 0.25,-5.94 0.7,-8.46 l -11.61,0 c -0.44,2.52 -0.68,5.31 -0.68,8.45 0,28.21 20,28.21 20,56.43 0,28.22 -20,28.22 -20,56.43 0,28.22 20,28.22 20,56.44 0,28.21 -20,28.21 -20,56.43 0,28.22 20,28.22 20,56.43 0,28.22 -20,28.22 -20,56.43 0,28.22 20,28.22 20,56.43 0,28.22 -20,28.22 -20,56.43 0,28.22 20,28.22 20,56.43 0,28.22 -20,28.22 -20,56.44 0,28.21 20,28.21 20,56.43 0,28.22 -20,28.22 -20,56.44 0,28.21 20,28.21 20,56.43 0,28.22 -20,28.22 -20,56.44 0,28.21 20,28.21 20,56.43 0,28.22 -20,28.22 -20,56.44 0,28.21 20,28.21 20,56.43 0,28.22 -20,28.22 -20,56.44 0,27.92 22.82,29.6 20.03,56.75 L 0,0.3 0,0 Z" /></g><g
         id="g88"
         transform="translate(234.9102,1080.6997)"><path
           id="path86"
           style="fill:#0d2c54;fill-opacity:1;fill-rule:nonzero;stroke:none"
           d="m 0,0 c 0,-28.21 -20,-28.21 -20,-56.43 0,-28.22 20,-28.22 20,-56.43 0,-28.22 -20,-28.22 -20,-56.44 0,-28.21 20,-28.21 20,-56.43 0,-28.22 -20,-28.22 -20,-56.43 0,-28.22 20,-28.22 20,-56.43 0,-28.22 -20,-28.22 -20,-56.43 0,-28.22 20,-28.22 20,-56.43 0,-28.22 -20,-28.22 -20,-56.43 0,-28.22 20,-28.22 20,-56.44 0,-28.21 -20,-28.21 -20,-56.43 0,-28.22 20,-28.22 20,-56.44 0,-28.22 -20,-28.22 -20,-56.43 0,-28.22 20,-28.22 20,-56.44 0,-28.22 -20,-28.22 -20,-56.43 0,-28.22 20,-28.22 20,-56.44 0,-28.21 -20,-28.21 -20,-56.43 0,-28.22 20,-28.22 20,-56.44 0,-28.22 -20,-28.22 -20,-56.44 0,-3.14 0.25,-5.94 0.7,-8.46 l -11.61,0 c -0.44,2.52 -0.68,5.31 -0.68,8.45 0,28.21 20,28.21 20,56.43 0,28.22 -20,28.22 -20,56.43 0,28.22 20,28.22 20,56.44 0,28.21 -20,28.21 -20,56.43 0,28.22 20,28.22 20,56.43 0,28.22 -20,28.22 -20,56.43 0,28.22 20,28.22 20,56.43 0,28.22 -20,28.22 -20,56.43 0,28.22 20,28.22 20,56.43 0,28.22 -20,28.22 -20,56.44 0,28.21 20,28.21 20,56.43 0,28.22 -20,28.22 -20,56.44 0,28.21 20,28.21 20,56.43 0,28.22 -20,28.22 -20,56.44 0,28.21 20,28.21 20,56.43 0,28.22 -20,28.22 -20,56.44 0,28.21 20,28.21 20,56.43 0,28.22 -20,28.22 -20,56.44 0,27.92 22.82,29.6 20.03,56.75 L 0,0.3 0,0 Z" /></g><g
         id="g92"
         transform="translate(390.2798,1080.6997)"><path
           id="path90"
           style="fill:#0d2c54;fill-opacity:1;fill-rule:nonzero;stroke:none"
           d="m 0,0 c 0,-28.21 -20,-28.21 -20,-56.43 0,-28.22 20,-28.22 20,-56.43 0,-28.22 -20,-28.22 -20,-56.44 0,-28.21 20,-28.21 20,-56.43 0,-28.22 -20,-28.22 -20,-56.43 0,-28.22 20,-28.22 20,-56.43 0,-28.22 -20,-28.22 -20,-56.43 0,-28.22 20,-28.22 20,-56.43 0,-28.22 -20,-28.22 -20,-56.43 0,-28.22 20,-28.22 20,-56.44 0,-28.21 -20,-28.21 -20,-56.43 0,-28.22 20,-28.22 20,-56.44 0,-28.22 -20,-28.22 -20,-56.43 0,-28.22 20,-28.22 20,-56.44 0,-28.22 -20,-28.22 -20,-56.43 0,-28.22 20,-28.22 20,-56.44 0,-28.21 -20,-28.21 -20,-56.43 0,-28.22 20,-28.22 20,-56.44 0,-28.22 -20,-28.22 -20,-56.44 0,-3.14 0.25,-5.94 0.7,-8.46 l -11.61,0 c -0.44,2.52 -0.68,5.31 -0.68,8.45 0,28.21 20,28.21 20,56.43 0,28.22 -20,28.22 -20,56.43 0,28.22 20,28.22 20,56.44 0,28.21 -20,28.21 -20,56.43 0,28.22 20,28.22 20,56.43 0,28.22 -20,28.22 -20,56.43 0,28.22 20,28.22 20,56.43 0,28.22 -20,28.22 -20,56.43 0,28.22 20,28.22 20,56.43 0,28.22 -20,28.22 -20,56.44 0,28.21 20,28.21 20,56.43 0,28.22 -20,28.22 -20,56.44 0,28.21 20,28.21 20,56.43 0,28.22 -20,28.22 -20,56.44 0,28.21 20,28.21 20,56.43 0,28.22 -20,28.22 -20,56.44 0,28.21 20,28.21 20,56.43 0,28.22 -20,28.22 -20,56.44 0,27.92 22.82,29.6 20.03,56.75 L 0,0.3 0,0 Z" /></g><g
         id="g96"
         transform="translate(545.6602,1080.6997)"><path
           id="path94"
           style="fill:#0d2c54;fill-opacity:1;fill-rule:nonzero;stroke:none"
           d="m 0,0 c 0,-28.21 -20,-28.21 -20,-56.43 0,-28.22 20,-28.22 20,-56.43 0,-28.22 -20,-28.22 -20,-56.44 0,-28.21 20,-28.21 20,-56.43 0,-28.22 -20,-28.22 -20,-56.43 0,-28.22 20,-28.22 20,-56.43 0,-28.22 -20,-28.22 -20,-56.43 0,-28.22 20,-28.22 20,-56.43 0,-28.22 -20,-28.22 -20,-56.43 0,-28.22 20,-28.22 20,-56.44 0,-28.21 -20,-28.21 -20,-56.43 0,-28.22 20,-28.22 20,-56.44 0,-28.22 -20,-28.22 -20,-56.43 0,-28.22 20,-28.22 20,-56.44 0,-28.22 -20,-28.22 -20,-56.43 0,-28.22 20,-28.22 20,-56.44 0,-28.21 -20,-28.21 -20,-56.43 0,-28.22 20,-28.22 20,-56.44 0,-28.22 -20,-28.22 -20,-56.44 0,-3.14 0.25,-5.94 0.7,-8.46 l -11.62,0 c -0.44,2.52 -0.68,5.31 -0.68,8.45 0,28.21 20,28.21 20,56.43 0,28.22 -20,28.22 -20,56.43 0,28.22 20,28.22 20,56.44 0,28.21 -20,28.21 -20,56.43 0,28.22 20,28.22 20,56.43 0,28.22 -20,28.22 -20,56.43 0,28.22 20,28.22 20,56.43 0,28.22 -20,28.22 -20,56.43 0,28.22 20,28.22 20,56.43 0,28.22 -20,28.22 -20,56.44 0,28.21 20,28.21 20,56.43 0,28.22 -20,28.22 -20,56.44 0,28.21 20,28.21 20,56.43 0,28.22 -20,28.22 -20,56.44 0,28.21 20,28.21 20,56.43 0,28.22 -20,28.22 -20,56.44 0,28.21 20,28.21 20,56.43 0,28.22 -20,28.22 -20,56.44 0,27.92 22.82,29.6 20.03,56.75 L 0,0.3 0,0 Z" /></g><g
         id="g100"
         transform="translate(701.0298,1080.6997)"><path
           id="path98"
           style="fill:#0d2c54;fill-opacity:1;fill-rule:nonzero;stroke:none"
           d="m 0,0 c 0,-28.21 -20,-28.21 -20,-56.43 0,-28.22 20,-28.22 20,-56.43 0,-28.22 -20,-28.22 -20,-56.44 0,-28.21 20,-28.21 20,-56.43 0,-28.22 -20,-28.22 -20,-56.43 0,-28.22 20,-28.22 20,-56.43 0,-28.22 -20,-28.22 -20,-56.43 0,-28.22 20,-28.22 20,-56.43 0,-28.22 -20,-28.22 -20,-56.43 0,-28.22 20,-28.22 20,-56.44 0,-28.21 -20,-28.21 -20,-56.43 0,-28.22 20,-28.22 20,-56.44 0,-28.22 -20,-28.22 -20,-56.43 0,-28.22 20,-28.22 20,-56.44 0,-28.22 -20,-28.22 -20,-56.43 0,-28.22 20,-28.22 20,-56.44 0,-28.21 -20,-28.21 -20,-56.43 0,-28.22 20,-28.22 20,-56.44 0,-28.22 -20,-28.22 -20,-56.44 0,-3.14 0.25,-5.94 0.7,-8.46 l -11.61,0 c -0.44,2.52 -0.68,5.31 -0.68,8.45 0,28.21 20,28.21 20,56.43 0,28.22 -20,28.22 -20,56.43 0,28.22 20,28.22 20,56.44 0,28.21 -20,28.21 -20,56.43 0,28.22 20,28.22 20,56.43 0,28.22 -20,28.22 -20,56.43 0,28.22 20,28.22 20,56.43 0,28.22 -20,28.22 -20,56.43 0,28.22 20,28.22 20,56.43 0,28.22 -20,28.22 -20,56.44 0,28.21 20,28.21 20,56.43 0,28.22 -20,28.22 -20,56.44 0,28.21 20,28.21 20,56.43 0,28.22 -20,28.22 -20,56.44 0,28.21 20,28.21 20,56.43 0,28.22 -20,28.22 -20,56.44 0,28.21 20,28.21 20,56.43 0,28.22 -20,28.22 -20,56.44 0,27.92 22.82,29.6 20.03,56.75 L 0,0.3 0,0 Z" /></g><g
         id="g104"
         transform="translate(856.4102,1080.6997)"><path
           id="path102"
           style="fill:#0d2c54;fill-opacity:1;fill-rule:nonzero;stroke:none"
           d="m 0,0 c 0,-28.21 -20,-28.21 -20,-56.43 0,-28.22 20,-28.22 20,-56.43 0,-28.22 -20,-28.22 -20,-56.44 0,-28.21 20,-28.21 20,-56.43 0,-28.22 -20,-28.22 -20,-56.43 0,-28.22 20,-28.22 20,-56.43 0,-28.22 -20,-28.22 -20,-56.43 0,-28.22 20,-28.22 20,-56.43 0,-28.22 -20,-28.22 -20,-56.43 0,-28.22 20,-28.22 20,-56.44 0,-28.21 -20,-28.21 -20,-56.43 0,-28.22 20,-28.22 20,-56.44 0,-28.22 -20,-28.22 -20,-56.43 0,-28.22 20,-28.22 20,-56.44 0,-28.22 -20,-28.22 -20,-56.43 0,-28.22 20,-28.22 20,-56.44 0,-28.21 -20,-28.21 -20,-56.43 0,-28.22 20,-28.22 20,-56.44 0,-28.22 -20,-28.22 -20,-56.44 0,-3.14 0.25,-5.94 0.7,-8.46 l -11.62,0 c -0.44,2.52 -0.68,5.31 -0.68,8.45 0,28.21 20,28.21 20,56.43 0,28.22 -20,28.22 -20,56.43 0,28.22 20,28.22 20,56.44 0,28.21 -20,28.21 -20,56.43 0,28.22 20,28.22 20,56.43 0,28.22 -20,28.22 -20,56.43 0,28.22 20,28.22 20,56.43 0,28.22 -20,28.22 -20,56.43 0,28.22 20,28.22 20,56.43 0,28.22 -20,28.22 -20,56.44 0,28.21 20,28.21 20,56.43 0,28.22 -20,28.22 -20,56.44 0,28.21 20,28.21 20,56.43 0,28.22 -20,28.22 -20,56.44 0,28.21 20,28.21 20,56.43 0,28.22 -20,28.22 -20,56.44 0,28.21 20,28.21 20,56.43 0,28.22 -20,28.22 -20,56.44 0,27.92 22.82,29.6 20.03,56.75 L 0,0.3 0,0 Z" /></g><g
         id="g108"
         transform="translate(1011.7798,1080.6997)"><path
           id="path106"
           style="fill:#0d2c54;fill-opacity:1;fill-rule:nonzero;stroke:none"
           d="m 0,0 c 0,-28.21 -20,-28.21 -20,-56.43 0,-28.22 20,-28.22 20,-56.43 0,-28.22 -20,-28.22 -20,-56.44 0,-28.21 20,-28.21 20,-56.43 0,-28.22 -20,-28.22 -20,-56.43 0,-28.22 20,-28.22 20,-56.43 0,-28.22 -20,-28.22 -20,-56.43 0,-28.22 20,-28.22 20,-56.43 0,-28.22 -20,-28.22 -20,-56.43 0,-28.22 20,-28.22 20,-56.44 0,-28.21 -20,-28.21 -20,-56.43 0,-28.22 20,-28.22 20,-56.44 0,-28.22 -20,-28.22 -20,-56.43 0,-28.22 20,-28.22 20,-56.44 0,-28.22 -20,-28.22 -20,-56.43 0,-28.22 20,-28.22 20,-56.44 0,-28.21 -20,-28.21 -20,-56.43 0,-28.22 20,-28.22 20,-56.44 0,-28.22 -20,-28.22 -20,-56.44 0,-3.14 0.25,-5.94 0.7,-8.46 l -11.61,0 c -0.44,2.52 -0.68,5.31 -0.68,8.45 0,28.21 20,28.21 20,56.43 0,28.22 -20,28.22 -20,56.43 0,28.22 20,28.22 20,56.44 0,28.21 -20,28.21 -20,56.43 0,28.22 20,28.22 20,56.43 0,28.22 -20,28.22 -20,56.43 0,28.22 20,28.22 20,56.43 0,28.22 -20,28.22 -20,56.43 0,28.22 20,28.22 20,56.43 0,28.22 -20,28.22 -20,56.44 0,28.21 20,28.21 20,56.43 0,28.22 -20,28.22 -20,56.44 0,28.21 20,28.21 20,56.43 0,28.22 -20,28.22 -20,56.44 0,28.21 20,28.21 20,56.43 0,28.22 -20,28.22 -20,56.44 0,28.21 20,28.21 20,56.43 0,28.22 -20,28.22 -20,56.44 0,27.92 22.82,29.6 20.03,56.75 L 0,0.3 0,0 Z" /></g></pattern><pattern
       id="pattern240"
       height="1081"
       width="1081"
       y="0"
       x="0"
       patternUnits="userSpaceOnUse"
       patternTransform="translate(-0.9999,1080)"><path
         id="path116"
         style="fill:#f36e21;fill-opacity:1;fill-rule:nonzero;stroke:none"
         d="M 1081,0 0,0 l 0,1081 1081,0 0,-1081 z" /><path
         id="path118"
         style="fill:#ffb400;fill-opacity:1;fill-rule:nonzero;stroke:none"
         d="m 1081,1011.47 -1081,0 0,11.59 1081,0 0,-11.59 z" /><path
         id="path120"
         style="fill:#ffb400;fill-opacity:1;fill-rule:nonzero;stroke:none"
         d="m 1081,856.09 -1081,0 0,11.59 1081,0 0,-11.59 z" /><path
         id="path122"
         style="fill:#ffb400;fill-opacity:1;fill-rule:nonzero;stroke:none"
         d="m 1081,700.72 -1081,0 0,11.59 1081,0 0,-11.59 z" /><path
         id="path124"
         style="fill:#ffb400;fill-opacity:1;fill-rule:nonzero;stroke:none"
         d="m 1081,545.34 -1081,0 0,11.6 1081,0 0,-11.6 z" /><path
         id="path126"
         style="fill:#ffb400;fill-opacity:1;fill-rule:nonzero;stroke:none"
         d="m 1081,389.97 -1081,0 0,11.59 1081,0 0,-11.59 z" /><path
         id="path128"
         style="fill:#ffb400;fill-opacity:1;fill-rule:nonzero;stroke:none"
         d="m 1081,234.59 -1081,0 0,11.6 1081,0 0,-11.6 z" /><path
         id="path130"
         style="fill:#ffb400;fill-opacity:1;fill-rule:nonzero;stroke:none"
         d="m 1081,79.22 -1081,0 0,11.59 1081,0 0,-11.59 z" /><g
         id="g134"
         transform="translate(138.0986,944.5)"><path
           id="path132"
           style="fill:#0d2c54;fill-opacity:1;fill-rule:nonzero;stroke:none"
           d="m 0,0 c 0,-22.091 -17.908,-40 -40,-40 -22.091,0 -40,17.909 -40,40 0,22.091 17.909,40 40,40 C -17.908,40 0,22.091 0,0" /></g><g
         id="g138"
         transform="translate(346.7881,944.5)"><path
           id="path136"
           style="fill:#0d2c54;fill-opacity:1;fill-rule:nonzero;stroke:none"
           d="m 0,0 c 0,-22.091 -17.908,-40 -40,-40 -22.091,0 -40,17.909 -40,40 0,22.091 17.909,40 40,40 C -17.908,40 0,22.091 0,0" /></g><g
         id="g142"
         transform="translate(574.7881,944.5)"><path
           id="path140"
           style="fill:#0d2c54;fill-opacity:1;fill-rule:nonzero;stroke:none"
           d="m 0,0 c 0,-22.091 -17.908,-40 -40,-40 -22.091,0 -40,17.909 -40,40 0,22.091 17.909,40 40,40 C -17.908,40 0,22.091 0,0" /></g><g
         id="g146"
         transform="translate(812.9082,944.5)"><path
           id="path144"
           style="fill:#0d2c54;fill-opacity:1;fill-rule:nonzero;stroke:none"
           d="m 0,0 c 0,-22.091 -17.908,-40 -40,-40 -22.091,0 -40,17.909 -40,40 0,22.091 17.909,40 40,40 C -17.908,40 0,22.091 0,0" /></g><g
         id="g150"
         transform="translate(1032.9082,944.5)"><path
           id="path148"
           style="fill:#0d2c54;fill-opacity:1;fill-rule:nonzero;stroke:none"
           d="m 0,0 c 0,-22.091 -17.908,-40 -40,-40 -22.091,0 -40,17.909 -40,40 0,22.091 17.909,40 40,40 C -17.908,40 0,22.091 0,0" /></g><g
         id="g154"
         transform="translate(230.9805,781.9355)"><path
           id="path152"
           style="fill:#0d2c54;fill-opacity:1;fill-rule:nonzero;stroke:none"
           d="m 0,0 c 0,-16.257 -13.179,-29.436 -29.436,-29.436 -16.256,0 -29.435,13.179 -29.435,29.436 0,16.257 13.179,29.436 29.435,29.436 C -13.179,29.436 0,16.257 0,0" /></g><g
         id="g158"
         transform="translate(456.3359,781.9355)"><path
           id="path156"
           style="fill:#0d2c54;fill-opacity:1;fill-rule:nonzero;stroke:none"
           d="m 0,0 c 0,-16.257 -13.179,-29.436 -29.436,-29.436 -16.256,0 -29.435,13.179 -29.435,29.436 0,16.257 13.179,29.436 29.435,29.436 C -13.179,29.436 0,16.257 0,0" /></g><g
         id="g162"
         transform="translate(690.9307,781.9355)"><path
           id="path160"
           style="fill:#0d2c54;fill-opacity:1;fill-rule:nonzero;stroke:none"
           d="m 0,0 c 0,-16.257 -13.179,-29.436 -29.436,-29.436 -16.256,0 -29.436,13.179 -29.436,29.436 0,16.257 13.18,29.436 29.436,29.436 C -13.179,29.436 0,16.257 0,0" /></g><g
         id="g166"
         transform="translate(918.8984,781.9355)"><path
           id="path164"
           style="fill:#0d2c54;fill-opacity:1;fill-rule:nonzero;stroke:none"
           d="m 0,0 c 0,-16.257 -13.179,-29.436 -29.436,-29.436 -16.256,0 -29.435,13.179 -29.435,29.436 0,16.257 13.179,29.436 29.435,29.436 C -13.179,29.436 0,16.257 0,0" /></g><g
         id="g170"
         transform="translate(143.7344,625.3398)"><path
           id="path168"
           style="fill:#0d2c54;fill-opacity:1;fill-rule:nonzero;stroke:none"
           d="m 0,0 c 0,-22.091 -17.908,-40 -40,-40 -22.091,0 -40,17.909 -40,40 0,22.091 17.909,40 40,40 C -17.908,40 0,22.091 0,0" /></g><g
         id="g174"
         transform="translate(352.4238,625.3398)"><path
           id="path172"
           style="fill:#0d2c54;fill-opacity:1;fill-rule:nonzero;stroke:none"
           d="m 0,0 c 0,-22.091 -17.908,-40 -40,-40 -22.091,0 -40,17.909 -40,40 0,22.091 17.909,40 40,40 C -17.908,40 0,22.091 0,0" /></g><g
         id="g178"
         transform="translate(580.4238,625.3398)"><path
           id="path176"
           style="fill:#0d2c54;fill-opacity:1;fill-rule:nonzero;stroke:none"
           d="m 0,0 c 0,-22.091 -17.908,-40 -40,-40 -22.091,0 -40,17.909 -40,40 0,22.091 17.909,40 40,40 C -17.908,40 0,22.091 0,0" /></g><g
         id="g182"
         transform="translate(818.5439,625.3398)"><path
           id="path180"
           style="fill:#0d2c54;fill-opacity:1;fill-rule:nonzero;stroke:none"
           d="m 0,0 c 0,-22.091 -17.908,-40 -40,-40 -22.091,0 -40,17.909 -40,40 0,22.091 17.909,40 40,40 C -17.908,40 0,22.091 0,0" /></g><g
         id="g186"
         transform="translate(1038.5439,625.3398)"><path
           id="path184"
           style="fill:#0d2c54;fill-opacity:1;fill-rule:nonzero;stroke:none"
           d="m 0,0 c 0,-22.091 -17.908,-40 -40,-40 -22.091,0 -40,17.909 -40,40 0,22.091 17.909,40 40,40 C -17.908,40 0,22.091 0,0" /></g><g
         id="g190"
         transform="translate(236.6162,473.7754)"><path
           id="path188"
           style="fill:#0d2c54;fill-opacity:1;fill-rule:nonzero;stroke:none"
           d="m 0,0 c 0,-16.257 -13.179,-29.436 -29.436,-29.436 -16.256,0 -29.435,13.179 -29.435,29.436 0,16.257 13.179,29.436 29.435,29.436 C -13.179,29.436 0,16.257 0,0" /></g><g
         id="g194"
         transform="translate(461.9717,473.7754)"><path
           id="path192"
           style="fill:#0d2c54;fill-opacity:1;fill-rule:nonzero;stroke:none"
           d="m 0,0 c 0,-16.257 -13.179,-29.436 -29.436,-29.436 -16.256,0 -29.435,13.179 -29.435,29.436 0,16.257 13.179,29.436 29.435,29.436 C -13.179,29.436 0,16.257 0,0" /></g><g
         id="g198"
         transform="translate(696.5664,473.7754)"><path
           id="path196"
           style="fill:#0d2c54;fill-opacity:1;fill-rule:nonzero;stroke:none"
           d="m 0,0 c 0,-16.257 -13.179,-29.436 -29.436,-29.436 -16.256,0 -29.436,13.179 -29.436,29.436 0,16.257 13.18,29.436 29.436,29.436 C -13.179,29.436 0,16.257 0,0" /></g><g
         id="g202"
         transform="translate(924.5342,473.7754)"><path
           id="path200"
           style="fill:#0d2c54;fill-opacity:1;fill-rule:nonzero;stroke:none"
           d="m 0,0 c 0,-16.257 -13.179,-29.436 -29.436,-29.436 -16.256,0 -29.435,13.179 -29.435,29.436 0,16.257 13.179,29.436 29.435,29.436 C -13.179,29.436 0,16.257 0,0" /></g><g
         id="g206"
         transform="translate(149.5293,320.3896)"><path
           id="path204"
           style="fill:#0d2c54;fill-opacity:1;fill-rule:nonzero;stroke:none"
           d="m 0,0 c 0,-22.091 -17.908,-40 -40,-40 -22.091,0 -40,17.909 -40,40 0,22.091 17.909,40 40,40 C -17.908,40 0,22.091 0,0" /></g><g
         id="g210"
         transform="translate(358.2188,320.3896)"><path
           id="path208"
           style="fill:#0d2c54;fill-opacity:1;fill-rule:nonzero;stroke:none"
           d="m 0,0 c 0,-22.091 -17.908,-40 -40,-40 -22.091,0 -40,17.909 -40,40 0,22.091 17.909,40 40,40 C -17.908,40 0,22.091 0,0" /></g><g
         id="g214"
         transform="translate(586.2188,320.3896)"><path
           id="path212"
           style="fill:#0d2c54;fill-opacity:1;fill-rule:nonzero;stroke:none"
           d="m 0,0 c 0,-22.091 -17.908,-40 -40,-40 -22.091,0 -40,17.909 -40,40 0,22.091 17.909,40 40,40 C -17.908,40 0,22.091 0,0" /></g><g
         id="g218"
         transform="translate(824.3389,320.3896)"><path
           id="path216"
           style="fill:#0d2c54;fill-opacity:1;fill-rule:nonzero;stroke:none"
           d="m 0,0 c 0,-22.091 -17.908,-40 -40,-40 -22.091,0 -40,17.909 -40,40 0,22.091 17.909,40 40,40 C -17.908,40 0,22.091 0,0" /></g><g
         id="g222"
         transform="translate(1044.3389,320.3896)"><path
           id="path220"
           style="fill:#0d2c54;fill-opacity:1;fill-rule:nonzero;stroke:none"
           d="m 0,0 c 0,-22.091 -17.908,-40 -40,-40 -22.091,0 -40,17.909 -40,40 0,22.091 17.909,40 40,40 C -17.908,40 0,22.091 0,0" /></g><g
         id="g226"
         transform="translate(242.4111,157.8252)"><path
           id="path224"
           style="fill:#0d2c54;fill-opacity:1;fill-rule:nonzero;stroke:none"
           d="m 0,0 c 0,-16.257 -13.179,-29.436 -29.436,-29.436 -16.256,0 -29.435,13.179 -29.435,29.436 0,16.257 13.179,29.436 29.435,29.436 C -13.179,29.436 0,16.257 0,0" /></g><g
         id="g230"
         transform="translate(467.7666,157.8252)"><path
           id="path228"
           style="fill:#0d2c54;fill-opacity:1;fill-rule:nonzero;stroke:none"
           d="m 0,0 c 0,-16.257 -13.179,-29.436 -29.436,-29.436 -16.256,0 -29.435,13.179 -29.435,29.436 0,16.257 13.179,29.436 29.435,29.436 C -13.179,29.436 0,16.257 0,0" /></g><g
         id="g234"
         transform="translate(702.3613,157.8252)"><path
           id="path232"
           style="fill:#0d2c54;fill-opacity:1;fill-rule:nonzero;stroke:none"
           d="m 0,0 c 0,-16.257 -13.179,-29.436 -29.436,-29.436 -16.256,0 -29.436,13.179 -29.436,29.436 0,16.257 13.18,29.436 29.436,29.436 C -13.179,29.436 0,16.257 0,0" /></g><g
         id="g238"
         transform="translate(930.3291,157.8252)"><path
           id="path236"
           style="fill:#0d2c54;fill-opacity:1;fill-rule:nonzero;stroke:none"
           d="m 0,0 c 0,-16.257 -13.179,-29.436 -29.436,-29.436 -16.256,0 -29.435,13.179 -29.435,29.436 0,16.257 13.179,29.436 29.435,29.436 C -13.179,29.436 0,16.257 0,0" /></g></pattern><pattern
       id="pattern276"
       height="1081"
       width="1081"
       y="0"
       x="0"
       patternUnits="userSpaceOnUse"
       patternTransform="translate(-0.9999,1080)"><path
         id="path246"
         style="fill:#0d2c54;fill-opacity:1;fill-rule:nonzero;stroke:none"
         d="M 1081,0 0,0 l 0,1081 1081,0 0,-1081 z" /><g
         id="g250"
         transform="translate(82.5298,798)"><path
           id="path248"
           style="fill:#ffb400;fill-opacity:1;fill-rule:nonzero;stroke:none"
           d="M 0,0 -26,-103.72 0,-207.45 -26,-311.18 0,-414.9 -26,-518.63 0,-622.36 -26,-726.09 -8,-798 l -11.54,0 -18.05,71.9 26,103.73 -26,103.72 26,103.73 -26,103.72 26,103.73 -26,103.72 26,103.73 -26,103.73 25.97,104.64 -18.83,74.65 11.49,0 L 0,207.45 -26,103.73 0,0 Z" /></g><g
         id="g254"
         transform="translate(237.9102,798)"><path
           id="path252"
           style="fill:#ffb400;fill-opacity:1;fill-rule:nonzero;stroke:none"
           d="M 0,0 -26,-103.72 0,-207.45 -26,-311.18 0,-414.9 -26,-518.63 0,-622.36 -26,-726.09 -8,-798 l -11.54,0 -18.05,71.9 26,103.73 -26,103.72 26,103.73 -26,103.72 26,103.73 -26,103.72 26,103.73 -26,103.73 25.97,104.64 -18.83,74.65 11.49,0 L 0,207.45 -26,103.73 0,0 Z" /></g><g
         id="g258"
         transform="translate(393.2798,798)"><path
           id="path256"
           style="fill:#ffb400;fill-opacity:1;fill-rule:nonzero;stroke:none"
           d="M 0,0 -26,-103.72 0,-207.45 -26,-311.18 0,-414.9 -26,-518.63 0,-622.36 -26,-726.09 -8,-798 l -11.54,0 -18.05,71.9 26,103.73 -26,103.72 26,103.73 -26,103.72 26,103.73 -26,103.72 26,103.73 -26,103.73 25.97,104.64 -18.83,74.65 11.49,0 L 0,207.45 -26,103.73 0,0 Z" /></g><g
         id="g262"
         transform="translate(548.6602,798)"><path
           id="path260"
           style="fill:#ffb400;fill-opacity:1;fill-rule:nonzero;stroke:none"
           d="M 0,0 -26,-103.72 0,-207.45 -26,-311.18 0,-414.9 -26,-518.63 0,-622.36 -26,-726.09 -8,-798 l -11.55,0 -18.05,71.9 26,103.73 -26,103.72 26,103.73 -26,103.72 26,103.73 -26,103.72 26,103.73 -26,103.73 25.97,104.64 -18.83,74.65 11.5,0 L 0,207.45 -26,103.73 0,0 Z" /></g><g
         id="g266"
         transform="translate(704.0298,798)"><path
           id="path264"
           style="fill:#ffb400;fill-opacity:1;fill-rule:nonzero;stroke:none"
           d="M 0,0 -26,-103.72 0,-207.45 -26,-311.18 0,-414.9 -26,-518.63 0,-622.36 -26,-726.09 -8,-798 l -11.54,0 -18.05,71.9 26,103.73 -26,103.72 26,103.73 -26,103.72 26,103.73 -26,103.72 26,103.73 -26,103.73 25.97,104.64 -18.83,74.65 11.49,0 L 0,207.45 -26,103.73 0,0 Z" /></g><g
         id="g270"
         transform="translate(859.4102,798)"><path
           id="path268"
           style="fill:#ffb400;fill-opacity:1;fill-rule:nonzero;stroke:none"
           d="M 0,0 -26,-103.72 0,-207.45 -26,-311.18 0,-414.9 -26,-518.63 0,-622.36 -26,-726.09 -8,-798 l -11.55,0 -18.05,71.9 26,103.73 -26,103.72 26,103.73 -26,103.72 26,103.73 -26,103.72 26,103.73 -26,103.73 25.97,104.64 -18.83,74.65 11.5,0 L 0,207.45 -26,103.73 0,0 Z" /></g><g
         id="g274"
         transform="translate(1014.7798,798)"><path
           id="path272"
           style="fill:#ffb400;fill-opacity:1;fill-rule:nonzero;stroke:none"
           d="M 0,0 -26,-103.72 0,-207.45 -26,-311.18 0,-414.9 -26,-518.63 0,-622.36 -26,-726.09 -8,-798 l -11.54,0 -18.05,71.9 26,103.73 -26,103.72 26,103.73 -26,103.72 26,103.73 -26,103.72 26,103.73 -26,103.73 25.97,104.64 -18.83,74.65 11.49,0 L 0,207.45 -26,103.73 0,0 Z" /></g></pattern><pattern
       id="pattern298"
       height="1081"
       width="1081"
       y="0"
       x="0"
       patternUnits="userSpaceOnUse"
       patternTransform="translate(-0.9999,1080)"><path
         id="path282"
         style="fill:#7fb800;fill-opacity:1;fill-rule:nonzero;stroke:none"
         d="M 1081,0 0,0 l 0,1081 1081,0 0,-1081 z" /><path
         id="path284"
         style="fill:#ffb400;fill-opacity:1;fill-rule:nonzero;stroke:none"
         d="m 1081,1011.471 -1081,0 0,11.59 1081,0 0,-11.59 z" /><path
         id="path286"
         style="fill:#ffb400;fill-opacity:1;fill-rule:nonzero;stroke:none"
         d="m 1081,856.09 -1081,0 0,11.59 1081,0 0,-11.59 z" /><path
         id="path288"
         style="fill:#ffb400;fill-opacity:1;fill-rule:nonzero;stroke:none"
         d="m 1081,700.721 -1081,0 0,11.59 1081,0 0,-11.59 z" /><path
         id="path290"
         style="fill:#ffb400;fill-opacity:1;fill-rule:nonzero;stroke:none"
         d="m 1081,545.34 -1081,0 0,11.601 1081,0 0,-11.601 z" /><path
         id="path292"
         style="fill:#ffb400;fill-opacity:1;fill-rule:nonzero;stroke:none"
         d="m 1081,389.971 -1081,0 0,11.59 1081,0 0,-11.59 z" /><path
         id="path294"
         style="fill:#ffb400;fill-opacity:1;fill-rule:nonzero;stroke:none"
         d="m 1081,234.59 -1081,0 0,11.601 1081,0 0,-11.601 z" /><path
         id="path296"
         style="fill:#ffb400;fill-opacity:1;fill-rule:nonzero;stroke:none"
         d="m 1081,79.221 -1081,0 0,11.59 1081,0 0,-11.59 z" /></pattern><pattern
       id="pattern334"
       height="1081"
       width="1081"
       y="0"
       x="0"
       patternUnits="userSpaceOnUse"
       patternTransform="translate(-0.9999,1080)"><path
         id="path304"
         style="fill:#00a6ed;fill-opacity:1;fill-rule:nonzero;stroke:none"
         d="M 1081,0 0,0 l 0,1081 1081,0 0,-1081 z" /><g
         id="g308"
         transform="translate(79.5298,1080.6997)"><path
           id="path306"
           style="fill:#0d2c54;fill-opacity:1;fill-rule:nonzero;stroke:none"
           d="m 0,0 c 0,-28.21 -20,-28.21 -20,-56.43 0,-28.22 20,-28.22 20,-56.43 0,-28.22 -20,-28.22 -20,-56.44 0,-28.21 20,-28.21 20,-56.43 0,-28.22 -20,-28.22 -20,-56.43 0,-28.22 20,-28.22 20,-56.43 0,-28.22 -20,-28.22 -20,-56.43 0,-28.22 20,-28.22 20,-56.43 0,-28.22 -20,-28.22 -20,-56.43 0,-28.22 20,-28.22 20,-56.44 0,-28.21 -20,-28.21 -20,-56.43 0,-28.22 20,-28.22 20,-56.44 0,-28.22 -20,-28.22 -20,-56.43 0,-28.22 20,-28.22 20,-56.44 0,-28.22 -20,-28.22 -20,-56.43 0,-28.22 20,-28.22 20,-56.44 0,-28.21 -20,-28.21 -20,-56.43 0,-28.22 20,-28.22 20,-56.44 0,-28.22 -20,-28.22 -20,-56.44 0,-3.14 0.25,-5.94 0.7,-8.46 l -11.61,0 c -0.44,2.52 -0.68,5.31 -0.68,8.45 0,28.21 20,28.21 20,56.43 0,28.22 -20,28.22 -20,56.43 0,28.22 20,28.22 20,56.44 0,28.21 -20,28.21 -20,56.43 0,28.22 20,28.22 20,56.43 0,28.22 -20,28.22 -20,56.43 0,28.22 20,28.22 20,56.43 0,28.22 -20,28.22 -20,56.43 0,28.22 20,28.22 20,56.43 0,28.22 -20,28.22 -20,56.44 0,28.21 20,28.21 20,56.43 0,28.22 -20,28.22 -20,56.44 0,28.21 20,28.21 20,56.43 0,28.22 -20,28.22 -20,56.44 0,28.21 20,28.21 20,56.43 0,28.22 -20,28.22 -20,56.44 0,28.21 20,28.21 20,56.43 0,28.22 -20,28.22 -20,56.44 0,27.92 22.82,29.6 20.03,56.75 L 0,0.3 0,0 Z" /></g><g
         id="g312"
         transform="translate(234.9102,1080.6997)"><path
           id="path310"
           style="fill:#0d2c54;fill-opacity:1;fill-rule:nonzero;stroke:none"
           d="m 0,0 c 0,-28.21 -20,-28.21 -20,-56.43 0,-28.22 20,-28.22 20,-56.43 0,-28.22 -20,-28.22 -20,-56.44 0,-28.21 20,-28.21 20,-56.43 0,-28.22 -20,-28.22 -20,-56.43 0,-28.22 20,-28.22 20,-56.43 0,-28.22 -20,-28.22 -20,-56.43 0,-28.22 20,-28.22 20,-56.43 0,-28.22 -20,-28.22 -20,-56.43 0,-28.22 20,-28.22 20,-56.44 0,-28.21 -20,-28.21 -20,-56.43 0,-28.22 20,-28.22 20,-56.44 0,-28.22 -20,-28.22 -20,-56.43 0,-28.22 20,-28.22 20,-56.44 0,-28.22 -20,-28.22 -20,-56.43 0,-28.22 20,-28.22 20,-56.44 0,-28.21 -20,-28.21 -20,-56.43 0,-28.22 20,-28.22 20,-56.44 0,-28.22 -20,-28.22 -20,-56.44 0,-3.14 0.25,-5.94 0.7,-8.46 l -11.61,0 c -0.44,2.52 -0.68,5.31 -0.68,8.45 0,28.21 20,28.21 20,56.43 0,28.22 -20,28.22 -20,56.43 0,28.22 20,28.22 20,56.44 0,28.21 -20,28.21 -20,56.43 0,28.22 20,28.22 20,56.43 0,28.22 -20,28.22 -20,56.43 0,28.22 20,28.22 20,56.43 0,28.22 -20,28.22 -20,56.43 0,28.22 20,28.22 20,56.43 0,28.22 -20,28.22 -20,56.44 0,28.21 20,28.21 20,56.43 0,28.22 -20,28.22 -20,56.44 0,28.21 20,28.21 20,56.43 0,28.22 -20,28.22 -20,56.44 0,28.21 20,28.21 20,56.43 0,28.22 -20,28.22 -20,56.44 0,28.21 20,28.21 20,56.43 0,28.22 -20,28.22 -20,56.44 0,27.92 22.82,29.6 20.03,56.75 L 0,0.3 0,0 Z" /></g><g
         id="g316"
         transform="translate(390.2798,1080.6997)"><path
           id="path314"
           style="fill:#0d2c54;fill-opacity:1;fill-rule:nonzero;stroke:none"
           d="m 0,0 c 0,-28.21 -20,-28.21 -20,-56.43 0,-28.22 20,-28.22 20,-56.43 0,-28.22 -20,-28.22 -20,-56.44 0,-28.21 20,-28.21 20,-56.43 0,-28.22 -20,-28.22 -20,-56.43 0,-28.22 20,-28.22 20,-56.43 0,-28.22 -20,-28.22 -20,-56.43 0,-28.22 20,-28.22 20,-56.43 0,-28.22 -20,-28.22 -20,-56.43 0,-28.22 20,-28.22 20,-56.44 0,-28.21 -20,-28.21 -20,-56.43 0,-28.22 20,-28.22 20,-56.44 0,-28.22 -20,-28.22 -20,-56.43 0,-28.22 20,-28.22 20,-56.44 0,-28.22 -20,-28.22 -20,-56.43 0,-28.22 20,-28.22 20,-56.44 0,-28.21 -20,-28.21 -20,-56.43 0,-28.22 20,-28.22 20,-56.44 0,-28.22 -20,-28.22 -20,-56.44 0,-3.14 0.25,-5.94 0.7,-8.46 l -11.61,0 c -0.44,2.52 -0.68,5.31 -0.68,8.45 0,28.21 20,28.21 20,56.43 0,28.22 -20,28.22 -20,56.43 0,28.22 20,28.22 20,56.44 0,28.21 -20,28.21 -20,56.43 0,28.22 20,28.22 20,56.43 0,28.22 -20,28.22 -20,56.43 0,28.22 20,28.22 20,56.43 0,28.22 -20,28.22 -20,56.43 0,28.22 20,28.22 20,56.43 0,28.22 -20,28.22 -20,56.44 0,28.21 20,28.21 20,56.43 0,28.22 -20,28.22 -20,56.44 0,28.21 20,28.21 20,56.43 0,28.22 -20,28.22 -20,56.44 0,28.21 20,28.21 20,56.43 0,28.22 -20,28.22 -20,56.44 0,28.21 20,28.21 20,56.43 0,28.22 -20,28.22 -20,56.44 0,27.92 22.82,29.6 20.03,56.75 L 0,0.3 0,0 Z" /></g><g
         id="g320"
         transform="translate(545.6602,1080.6997)"><path
           id="path318"
           style="fill:#0d2c54;fill-opacity:1;fill-rule:nonzero;stroke:none"
           d="m 0,0 c 0,-28.21 -20,-28.21 -20,-56.43 0,-28.22 20,-28.22 20,-56.43 0,-28.22 -20,-28.22 -20,-56.44 0,-28.21 20,-28.21 20,-56.43 0,-28.22 -20,-28.22 -20,-56.43 0,-28.22 20,-28.22 20,-56.43 0,-28.22 -20,-28.22 -20,-56.43 0,-28.22 20,-28.22 20,-56.43 0,-28.22 -20,-28.22 -20,-56.43 0,-28.22 20,-28.22 20,-56.44 0,-28.21 -20,-28.21 -20,-56.43 0,-28.22 20,-28.22 20,-56.44 0,-28.22 -20,-28.22 -20,-56.43 0,-28.22 20,-28.22 20,-56.44 0,-28.22 -20,-28.22 -20,-56.43 0,-28.22 20,-28.22 20,-56.44 0,-28.21 -20,-28.21 -20,-56.43 0,-28.22 20,-28.22 20,-56.44 0,-28.22 -20,-28.22 -20,-56.44 0,-3.14 0.25,-5.94 0.7,-8.46 l -11.62,0 c -0.44,2.52 -0.68,5.31 -0.68,8.45 0,28.21 20,28.21 20,56.43 0,28.22 -20,28.22 -20,56.43 0,28.22 20,28.22 20,56.44 0,28.21 -20,28.21 -20,56.43 0,28.22 20,28.22 20,56.43 0,28.22 -20,28.22 -20,56.43 0,28.22 20,28.22 20,56.43 0,28.22 -20,28.22 -20,56.43 0,28.22 20,28.22 20,56.43 0,28.22 -20,28.22 -20,56.44 0,28.21 20,28.21 20,56.43 0,28.22 -20,28.22 -20,56.44 0,28.21 20,28.21 20,56.43 0,28.22 -20,28.22 -20,56.44 0,28.21 20,28.21 20,56.43 0,28.22 -20,28.22 -20,56.44 0,28.21 20,28.21 20,56.43 0,28.22 -20,28.22 -20,56.44 0,27.92 22.82,29.6 20.03,56.75 L 0,0.3 0,0 Z" /></g><g
         id="g324"
         transform="translate(701.0298,1080.6997)"><path
           id="path322"
           style="fill:#0d2c54;fill-opacity:1;fill-rule:nonzero;stroke:none"
           d="m 0,0 c 0,-28.21 -20,-28.21 -20,-56.43 0,-28.22 20,-28.22 20,-56.43 0,-28.22 -20,-28.22 -20,-56.44 0,-28.21 20,-28.21 20,-56.43 0,-28.22 -20,-28.22 -20,-56.43 0,-28.22 20,-28.22 20,-56.43 0,-28.22 -20,-28.22 -20,-56.43 0,-28.22 20,-28.22 20,-56.43 0,-28.22 -20,-28.22 -20,-56.43 0,-28.22 20,-28.22 20,-56.44 0,-28.21 -20,-28.21 -20,-56.43 0,-28.22 20,-28.22 20,-56.44 0,-28.22 -20,-28.22 -20,-56.43 0,-28.22 20,-28.22 20,-56.44 0,-28.22 -20,-28.22 -20,-56.43 0,-28.22 20,-28.22 20,-56.44 0,-28.21 -20,-28.21 -20,-56.43 0,-28.22 20,-28.22 20,-56.44 0,-28.22 -20,-28.22 -20,-56.44 0,-3.14 0.25,-5.94 0.7,-8.46 l -11.61,0 c -0.44,2.52 -0.68,5.31 -0.68,8.45 0,28.21 20,28.21 20,56.43 0,28.22 -20,28.22 -20,56.43 0,28.22 20,28.22 20,56.44 0,28.21 -20,28.21 -20,56.43 0,28.22 20,28.22 20,56.43 0,28.22 -20,28.22 -20,56.43 0,28.22 20,28.22 20,56.43 0,28.22 -20,28.22 -20,56.43 0,28.22 20,28.22 20,56.43 0,28.22 -20,28.22 -20,56.44 0,28.21 20,28.21 20,56.43 0,28.22 -20,28.22 -20,56.44 0,28.21 20,28.21 20,56.43 0,28.22 -20,28.22 -20,56.44 0,28.21 20,28.21 20,56.43 0,28.22 -20,28.22 -20,56.44 0,28.21 20,28.21 20,56.43 0,28.22 -20,28.22 -20,56.44 0,27.92 22.82,29.6 20.03,56.75 L 0,0.3 0,0 Z" /></g><g
         id="g328"
         transform="translate(856.4102,1080.6997)"><path
           id="path326"
           style="fill:#0d2c54;fill-opacity:1;fill-rule:nonzero;stroke:none"
           d="m 0,0 c 0,-28.21 -20,-28.21 -20,-56.43 0,-28.22 20,-28.22 20,-56.43 0,-28.22 -20,-28.22 -20,-56.44 0,-28.21 20,-28.21 20,-56.43 0,-28.22 -20,-28.22 -20,-56.43 0,-28.22 20,-28.22 20,-56.43 0,-28.22 -20,-28.22 -20,-56.43 0,-28.22 20,-28.22 20,-56.43 0,-28.22 -20,-28.22 -20,-56.43 0,-28.22 20,-28.22 20,-56.44 0,-28.21 -20,-28.21 -20,-56.43 0,-28.22 20,-28.22 20,-56.44 0,-28.22 -20,-28.22 -20,-56.43 0,-28.22 20,-28.22 20,-56.44 0,-28.22 -20,-28.22 -20,-56.43 0,-28.22 20,-28.22 20,-56.44 0,-28.21 -20,-28.21 -20,-56.43 0,-28.22 20,-28.22 20,-56.44 0,-28.22 -20,-28.22 -20,-56.44 0,-3.14 0.25,-5.94 0.7,-8.46 l -11.62,0 c -0.44,2.52 -0.68,5.31 -0.68,8.45 0,28.21 20,28.21 20,56.43 0,28.22 -20,28.22 -20,56.43 0,28.22 20,28.22 20,56.44 0,28.21 -20,28.21 -20,56.43 0,28.22 20,28.22 20,56.43 0,28.22 -20,28.22 -20,56.43 0,28.22 20,28.22 20,56.43 0,28.22 -20,28.22 -20,56.43 0,28.22 20,28.22 20,56.43 0,28.22 -20,28.22 -20,56.44 0,28.21 20,28.21 20,56.43 0,28.22 -20,28.22 -20,56.44 0,28.21 20,28.21 20,56.43 0,28.22 -20,28.22 -20,56.44 0,28.21 20,28.21 20,56.43 0,28.22 -20,28.22 -20,56.44 0,28.21 20,28.21 20,56.43 0,28.22 -20,28.22 -20,56.44 0,27.92 22.82,29.6 20.03,56.75 L 0,0.3 0,0 Z" /></g><g
         id="g332"
         transform="translate(1011.7798,1080.6997)"><path
           id="path330"
           style="fill:#0d2c54;fill-opacity:1;fill-rule:nonzero;stroke:none"
           d="m 0,0 c 0,-28.21 -20,-28.21 -20,-56.43 0,-28.22 20,-28.22 20,-56.43 0,-28.22 -20,-28.22 -20,-56.44 0,-28.21 20,-28.21 20,-56.43 0,-28.22 -20,-28.22 -20,-56.43 0,-28.22 20,-28.22 20,-56.43 0,-28.22 -20,-28.22 -20,-56.43 0,-28.22 20,-28.22 20,-56.43 0,-28.22 -20,-28.22 -20,-56.43 0,-28.22 20,-28.22 20,-56.44 0,-28.21 -20,-28.21 -20,-56.43 0,-28.22 20,-28.22 20,-56.44 0,-28.22 -20,-28.22 -20,-56.43 0,-28.22 20,-28.22 20,-56.44 0,-28.22 -20,-28.22 -20,-56.43 0,-28.22 20,-28.22 20,-56.44 0,-28.21 -20,-28.21 -20,-56.43 0,-28.22 20,-28.22 20,-56.44 0,-28.22 -20,-28.22 -20,-56.44 0,-3.14 0.25,-5.94 0.7,-8.46 l -11.61,0 c -0.44,2.52 -0.68,5.31 -0.68,8.45 0,28.21 20,28.21 20,56.43 0,28.22 -20,28.22 -20,56.43 0,28.22 20,28.22 20,56.44 0,28.21 -20,28.21 -20,56.43 0,28.22 20,28.22 20,56.43 0,28.22 -20,28.22 -20,56.43 0,28.22 20,28.22 20,56.43 0,28.22 -20,28.22 -20,56.43 0,28.22 20,28.22 20,56.43 0,28.22 -20,28.22 -20,56.44 0,28.21 20,28.21 20,56.43 0,28.22 -20,28.22 -20,56.44 0,28.21 20,28.21 20,56.43 0,28.22 -20,28.22 -20,56.44 0,28.21 20,28.21 20,56.43 0,28.22 -20,28.22 -20,56.44 0,28.21 20,28.21 20,56.43 0,28.22 -20,28.22 -20,56.44 0,27.92 22.82,29.6 20.03,56.75 L 0,0.3 0,0 Z" /></g></pattern><pattern
       id="pattern356"
       height="1081"
       width="1081"
       y="0"
       x="0"
       patternUnits="userSpaceOnUse"
       patternTransform="translate(-0.9999,1080)"><path
         id="path340"
         style="fill:#0d2c54;fill-opacity:1;fill-rule:nonzero;stroke:none"
         d="M 1081,0 0,0 l 0,1081 1081,0 0,-1081 z" /><path
         id="path342"
         style="fill:#00a6ed;fill-opacity:1;fill-rule:nonzero;stroke:none"
         d="m 1081,1011.471 -1081,0 0,11.59 1081,0 0,-11.59 z" /><path
         id="path344"
         style="fill:#00a6ed;fill-opacity:1;fill-rule:nonzero;stroke:none"
         d="m 1081,856.09 -1081,0 0,11.59 1081,0 0,-11.59 z" /><path
         id="path346"
         style="fill:#00a6ed;fill-opacity:1;fill-rule:nonzero;stroke:none"
         d="m 1081,700.721 -1081,0 0,11.59 1081,0 0,-11.59 z" /><path
         id="path348"
         style="fill:#00a6ed;fill-opacity:1;fill-rule:nonzero;stroke:none"
         d="m 1081,545.34 -1081,0 0,11.601 1081,0 0,-11.601 z" /><path
         id="path350"
         style="fill:#00a6ed;fill-opacity:1;fill-rule:nonzero;stroke:none"
         d="m 1081,389.971 -1081,0 0,11.59 1081,0 0,-11.59 z" /><path
         id="path352"
         style="fill:#00a6ed;fill-opacity:1;fill-rule:nonzero;stroke:none"
         d="m 1081,234.59 -1081,0 0,11.601 1081,0 0,-11.601 z" /><path
         id="path354"
         style="fill:#00a6ed;fill-opacity:1;fill-rule:nonzero;stroke:none"
         d="m 1081,79.221 -1081,0 0,11.59 1081,0 0,-11.59 z" /></pattern></defs><g
     transform="matrix(1.3333333,0,0,-1.3333333,0,1440)"
     id="g10"><g
       id="g12"><g
         clip-path="url(#clipPath18)"
         id="g14"><g
           transform="translate(0.9999)"
           id="g20"><path
             id="path40"
             style="fill:url(#pattern38);fill-opacity:1;fill-rule:nonzero;stroke:none"
             d="M 0,0 H 738.316 L 0,1079 Z" /></g><g
           transform="translate(1133.0127,1079)"
           id="g42"><path
             id="path76"
             style="fill:url(#pattern74);fill-opacity:1;fill-rule:nonzero;stroke:none"
             d="M 0,0 H -1132.013 V -701 Z" /></g><g
           transform="translate(739.3156)"
           id="g78"><path
             id="path112"
             style="fill:url(#pattern110);fill-opacity:1;fill-rule:nonzero;stroke:none"
             d="M 0,0 H 584.017 L -401.407,586.631 Z" /></g><g
           transform="translate(1325.5642)"
           id="g114"><path
             id="path242"
             style="fill:url(#pattern240);fill-opacity:1;fill-rule:nonzero;stroke:none"
             d="M 0,0 H 594.435 V 1077.188 Z" /></g><g
           transform="translate(704.3049,368.5113)"
           id="g244"><path
             id="path278"
             style="fill:url(#pattern276);fill-opacity:1;fill-rule:nonzero;stroke:none"
             d="m 0,0 619.028,-368.511 h 2.231 l 594.436,1077.188 v 1.228 z" /></g><g
           transform="translate(1133.0127,1079.0001)"
           id="g280"><path
             id="path300"
             style="fill:url(#pattern298);fill-opacity:1;fill-rule:nonzero;stroke:none"
             d="M 0,0 59.542,-425.375 786.987,-0.584 V 0 Z" /></g><g
           transform="translate(337.9082,586.6309)"
           id="g302"><path
             id="path336"
             style="fill:url(#pattern334);fill-opacity:1;fill-rule:nonzero;stroke:none"
             d="M 0,0 854.646,66.994 795.104,492.369 Z" /></g><g
           transform="translate(704.3047,368.5117)"
           id="g338"><path
             id="path358"
             style="fill:url(#pattern356);fill-opacity:1;fill-rule:nonzero;stroke:none"
             d="M 0,0 488.25,285.113 -366.396,218.119 Z" /></g></g></g></g></svg>