<svg version="1.2" xmlns="http://www.w3.org/2000/svg" viewBox="0 0 1334 1334" width="1334" height="1334"><defs><clipPath clipPathUnits="userSpaceOnUse" id="cp1"><path d="m0 1334v-1333.33h1333.33v1333.33z"/></clipPath></defs><style></style><g clip-path="url(#cp1)"><path  d="m38.9 1322.7q-5.6 5.6-11.1 0l-16.5-16.5q-5.6-5.5 0-11.1l16.5-16.5q5.5-5.5 11.1 0l16.5 16.5q5.5 5.6 0 11.1z"/><path  d="m105.5 1322.7q-5.5 5.6-11 0l-16.6-16.5q-5.5-5.5 0-11.1l16.6-16.5q5.5-5.5 11 0l16.6 16.5q5.5 5.6 0 11.1z"/><path  d="m172.2 1322.7q-5.5 5.6-11.1 0l-16.5-16.5q-5.5-5.5 0-11.1l16.5-16.5q5.6-5.5 11.1 0l16.5 16.5q5.6 5.6 0 11.1z"/><path  d="m238.9 1322.7q-5.6 5.6-11.1 0l-16.5-16.5q-5.6-5.5 0-11.1l16.5-16.5q5.5-5.5 11.1 0l16.5 16.5q5.5 5.6 0 11.1z"/><path  d="m305.5 1322.7q-5.5 5.6-11 0l-16.6-16.5q-5.5-5.5 0-11.1l16.6-16.5q5.5-5.5 11 0l16.6 16.5q5.5 5.6 0 11.1z"/><path  d="m372.2 1322.7q-5.5 5.6-11.1 0l-16.5-16.5q-5.5-5.5 0-11.1l16.5-16.5q5.6-5.5 11.1 0l16.5 16.5q5.6 5.6 0 11.1z"/><path  d="m438.9 1322.7q-5.6 5.6-11.1 0l-16.5-16.5q-5.6-5.5 0-11.1l16.5-16.5q5.5-5.5 11.1 0l16.5 16.5q5.5 5.6 0 11.1z"/><path  d="m505.5 1322.7q-5.5 5.6-11 0l-16.6-16.5q-5.5-5.5 0-11.1l16.6-16.5q5.5-5.5 11 0l16.6 16.5q5.5 5.6 0 11.1z"/><path  d="m572.2 1322.7q-5.5 5.6-11.1 0l-16.5-16.5q-5.5-5.5 0-11.1l16.5-16.5q5.6-5.5 11.1 0l16.5 16.5q5.6 5.6 0 11.1z"/><path  d="m638.9 1322.7q-5.6 5.6-11.1 0l-16.5-16.5q-5.6-5.5 0-11.1l16.5-16.5q5.5-5.5 11.1 0l16.5 16.5q5.5 5.6 0 11.1z"/><path  d="m705.5 1322.7q-5.5 5.6-11 0l-16.6-16.5q-5.5-5.5 0-11.1l16.6-16.5q5.5-5.5 11 0l16.6 16.5q5.5 5.6 0 11.1z"/><path  d="m772.2 1322.7q-5.5 5.6-11.1 0l-16.5-16.5q-5.5-5.5 0-11.1l16.5-16.5q5.6-5.5 11.1 0l16.5 16.5q5.6 5.6 0 11.1z"/><path  d="m838.9 1322.7q-5.6 5.6-11.1 0l-16.5-16.5q-5.6-5.5 0-11.1l16.5-16.5q5.5-5.5 11.1 0l16.5 16.5q5.5 5.6 0 11.1z"/><path  d="m905.5 1322.7q-5.5 5.6-11 0l-16.6-16.5q-5.5-5.5 0-11.1l16.6-16.5q5.5-5.5 11 0l16.6 16.5q5.5 5.6 0 11.1z"/><path  d="m972.2 1322.7q-5.5 5.6-11.1 0l-16.5-16.5q-5.5-5.5 0-11.1l16.5-16.5q5.6-5.5 11.1 0l16.5 16.5q5.6 5.6 0 11.1z"/><path  d="m1038.9 1322.7q-5.6 5.6-11.1 0l-16.5-16.5q-5.6-5.5 0-11.1l16.5-16.5q5.5-5.5 11.1 0l16.5 16.5q5.5 5.6 0 11.1z"/><path  d="m1105.5 1322.7q-5.5 5.6-11 0l-16.6-16.5q-5.5-5.5 0-11.1l16.6-16.5q5.5-5.5 11 0l16.6 16.5q5.5 5.6 0 11.1z"/><path  d="m1172.2 1322.7q-5.5 5.6-11.1 0l-16.5-16.5q-5.5-5.5 0-11.1l16.5-16.5q5.6-5.5 11.1 0l16.5 16.5q5.6 5.6 0 11.1z"/><path  d="m1238.9 1322.7q-5.6 5.6-11.1 0l-16.5-16.5q-5.6-5.5 0-11.1l16.5-16.5q5.5-5.5 11.1 0l16.5 16.5q5.5 5.6 0 11.1z"/><path  d="m1305.5 1322.7q-5.5 5.6-11 0l-16.6-16.5q-5.5-5.5 0-11.1l16.6-16.5q5.5-5.5 11 0l16.6 16.5q5.5 5.6 0 11.1z"/><path  d="m38.4 1254.2q-5.1 5-10.1 0l-15.1-15.2q-5.1-5 0-10l15.1-15.2q5-5 10.1 0l15.1 15.2q5 5 0 10z"/><path  d="m105 1254.2q-5 5-10 0l-15.2-15.2q-5-5 0-10l15.2-15.2q5-5 10 0l15.2 15.2q5 5 0 10z"/><path  d="m171.7 1254.2q-5 5-10.1 0l-15.1-15.2q-5-5 0-10l15.1-15.2q5.1-5 10.1 0l15.1 15.2q5.1 5 0 10z"/><path  d="m238.4 1254.2q-5.1 5-10.1 0l-15.1-15.2q-5.1-5 0-10l15.1-15.2q5-5 10.1 0l15.1 15.2q5 5 0 10z"/><path  d="m305 1254.2q-5 5-10 0l-15.2-15.2q-5-5 0-10l15.2-15.2q5-5 10 0l15.2 15.2q5 5 0 10z"/><path  d="m371.7 1254.2q-5 5-10.1 0l-15.1-15.2q-5-5 0-10l15.1-15.2q5.1-5 10.1 0l15.1 15.2q5.1 5 0 10z"/><path  d="m438.4 1254.2q-5.1 5-10.1 0l-15.1-15.2q-5.1-5 0-10l15.1-15.2q5-5 10.1 0l15.1 15.2q5 5 0 10z"/><path  d="m505 1254.2q-5 5-10 0l-15.2-15.2q-5-5 0-10l15.2-15.2q5-5 10 0l15.2 15.2q5 5 0 10z"/><path  d="m571.7 1254.2q-5 5-10.1 0l-15.1-15.2q-5-5 0-10l15.1-15.2q5.1-5 10.1 0l15.1 15.2q5.1 5 0 10z"/><path  d="m638.4 1254.2q-5.1 5-10.1 0l-15.1-15.2q-5.1-5 0-10l15.1-15.2q5-5 10.1 0l15.1 15.2q5 5 0 10z"/><path  d="m705 1254.2q-5 5-10 0l-15.2-15.2q-5-5 0-10l15.2-15.2q5-5 10 0l15.2 15.2q5 5 0 10z"/><path  d="m771.7 1254.2q-5 5-10.1 0l-15.1-15.2q-5-5 0-10l15.1-15.2q5.1-5 10.1 0l15.1 15.2q5.1 5 0 10z"/><path  d="m838.4 1254.2q-5.1 5-10.1 0l-15.1-15.2q-5.1-5 0-10l15.1-15.2q5-5 10.1 0l15.1 15.2q5 5 0 10z"/><path  d="m905 1254.2q-5 5-10 0l-15.2-15.2q-5-5 0-10l15.2-15.2q5-5 10 0l15.2 15.2q5 5 0 10z"/><path  d="m971.7 1254.2q-5 5-10.1 0l-15.1-15.2q-5-5 0-10l15.1-15.2q5.1-5 10.1 0l15.1 15.2q5.1 5 0 10z"/><path  d="m1038.4 1254.2q-5.1 5-10.1 0l-15.1-15.2q-5.1-5 0-10l15.1-15.2q5-5 10.1 0l15.1 15.2q5 5 0 10z"/><path  d="m1105 1254.2q-5 5-10 0l-15.2-15.2q-5-5 0-10l15.2-15.2q5-5 10 0l15.2 15.2q5 5 0 10z"/><path  d="m1171.7 1254.2q-5 5-10.1 0l-15.1-15.2q-5-5 0-10l15.1-15.2q5.1-5 10.1 0l15.1 15.2q5.1 5 0 10z"/><path  d="m1238.4 1254.2q-5.1 5-10.1 0l-15.1-15.2q-5.1-5 0-10l15.1-15.2q5-5 10.1 0l15.1 15.2q5 5 0 10z"/><path  d="m1305 1254.2q-5 5-10 0l-15.2-15.2q-5-5 0-10l15.2-15.2q5-5 10 0l15.2 15.2q5 5 0 10z"/><path  d="m37.9 1185.6q-4.6 4.5-9.1 0l-13.7-13.7q-4.6-4.6 0-9.1l13.7-13.7q4.5-4.6 9.1 0l13.7 13.7q4.5 4.5 0 9.1z"/><path  d="m104.6 1185.6q-4.6 4.5-9.2 0l-13.6-13.7q-4.6-4.6 0-9.1l13.6-13.7q4.6-4.6 9.2 0l13.6 13.7q4.6 4.5 0 9.1z"/><path  d="m171.2 1185.6q-4.5 4.5-9.1 0l-13.7-13.7q-4.5-4.6 0-9.1l13.7-13.7q4.6-4.6 9.1 0l13.7 13.7q4.6 4.5 0 9.1z"/><path  d="m237.9 1185.6q-4.6 4.5-9.1 0l-13.7-13.7q-4.6-4.6 0-9.1l13.7-13.7q4.5-4.6 9.1 0l13.7 13.7q4.5 4.5 0 9.1z"/><path  d="m304.6 1185.6q-4.6 4.5-9.2 0l-13.6-13.7q-4.6-4.6 0-9.1l13.6-13.7q4.6-4.6 9.2 0l13.6 13.7q4.6 4.5 0 9.1z"/><path  d="m371.2 1185.6q-4.5 4.5-9.1 0l-13.7-13.7q-4.5-4.6 0-9.1l13.7-13.7q4.6-4.6 9.1 0l13.7 13.7q4.6 4.5 0 9.1z"/><path  d="m437.9 1185.6q-4.6 4.5-9.1 0l-13.7-13.7q-4.6-4.6 0-9.1l13.7-13.7q4.5-4.6 9.1 0l13.7 13.7q4.5 4.5 0 9.1z"/><path  d="m504.6 1185.6q-4.6 4.5-9.2 0l-13.6-13.7q-4.6-4.6 0-9.1l13.6-13.7q4.6-4.6 9.2 0l13.6 13.7q4.6 4.5 0 9.1z"/><path  d="m571.2 1185.6q-4.5 4.5-9.1 0l-13.7-13.7q-4.5-4.6 0-9.1l13.7-13.7q4.6-4.6 9.1 0l13.7 13.7q4.6 4.5 0 9.1z"/><path  d="m637.9 1185.6q-4.6 4.5-9.1 0l-13.7-13.7q-4.6-4.6 0-9.1l13.7-13.7q4.5-4.6 9.1 0l13.7 13.7q4.5 4.5 0 9.1z"/><path  d="m704.6 1185.6q-4.6 4.5-9.2 0l-13.6-13.7q-4.6-4.6 0-9.1l13.6-13.7q4.6-4.6 9.2 0l13.6 13.7q4.6 4.5 0 9.1z"/><path  d="m771.2 1185.6q-4.5 4.5-9.1 0l-13.7-13.7q-4.5-4.6 0-9.1l13.7-13.7q4.6-4.6 9.1 0l13.7 13.7q4.6 4.5 0 9.1z"/><path  d="m837.9 1185.6q-4.6 4.5-9.1 0l-13.7-13.7q-4.6-4.6 0-9.1l13.7-13.7q4.5-4.6 9.1 0l13.7 13.7q4.5 4.5 0 9.1z"/><path  d="m904.6 1185.6q-4.6 4.5-9.2 0l-13.6-13.7q-4.6-4.6 0-9.1l13.6-13.7q4.6-4.6 9.2 0l13.6 13.7q4.6 4.5 0 9.1z"/><path  d="m971.2 1185.6q-4.5 4.5-9.1 0l-13.7-13.7q-4.5-4.6 0-9.1l13.7-13.7q4.6-4.6 9.1 0l13.7 13.7q4.6 4.5 0 9.1z"/><path  d="m1037.9 1185.6q-4.6 4.5-9.1 0l-13.7-13.7q-4.6-4.6 0-9.1l13.7-13.7q4.5-4.6 9.1 0l13.7 13.7q4.5 4.5 0 9.1z"/><path  d="m1104.6 1185.6q-4.6 4.5-9.2 0l-13.6-13.7q-4.6-4.6 0-9.1l13.6-13.7q4.6-4.6 9.2 0l13.6 13.7q4.6 4.5 0 9.1z"/><path  d="m1171.2 1185.6q-4.5 4.5-9.1 0l-13.7-13.7q-4.5-4.6 0-9.1l13.7-13.7q4.6-4.6 9.1 0l13.7 13.7q4.6 4.5 0 9.1z"/><path  d="m1237.9 1185.6q-4.6 4.5-9.1 0l-13.7-13.7q-4.6-4.6 0-9.1l13.7-13.7q4.5-4.6 9.1 0l13.7 13.7q4.5 4.5 0 9.1z"/><path  d="m1304.6 1185.6q-4.6 4.5-9.2 0l-13.6-13.7q-4.6-4.6 0-9.1l13.6-13.7q4.6-4.6 9.2 0l13.6 13.7q4.6 4.5 0 9.1z"/><path  d="m37.4 1117q-4.1 4.1-8.1 0l-12.3-12.3q-4.1-4 0-8.1l12.3-12.3q4-4 8.1 0l12.3 12.3q4 4.1 0 8.1z"/><path  d="m104.1 1117q-4.1 4.1-8.2 0l-12.2-12.3q-4.1-4 0-8.1l12.2-12.3q4.1-4 8.2 0l12.2 12.3q4.1 4.1 0 8.1z"/><path  d="m170.7 1117q-4 4.1-8.1 0l-12.3-12.3q-4-4 0-8.1l12.3-12.3q4.1-4 8.1 0l12.3 12.3q4.1 4.1 0 8.1z"/><path  d="m237.4 1117q-4.1 4.1-8.1 0l-12.3-12.3q-4.1-4 0-8.1l12.3-12.3q4-4 8.1 0l12.3 12.3q4 4.1 0 8.1z"/><path  d="m304.1 1117q-4.1 4.1-8.2 0l-12.2-12.3q-4.1-4 0-8.1l12.2-12.3q4.1-4 8.2 0l12.2 12.3q4.1 4.1 0 8.1z"/><path  d="m370.7 1117q-4 4.1-8.1 0l-12.3-12.3q-4-4 0-8.1l12.3-12.3q4.1-4 8.1 0l12.3 12.3q4.1 4.1 0 8.1z"/><path  d="m437.4 1117q-4.1 4.1-8.1 0l-12.3-12.3q-4.1-4 0-8.1l12.3-12.3q4-4 8.1 0l12.3 12.3q4 4.1 0 8.1z"/><path  d="m504.1 1117q-4.1 4.1-8.2 0l-12.2-12.3q-4.1-4 0-8.1l12.2-12.3q4.1-4 8.2 0l12.2 12.3q4.1 4.1 0 8.1z"/><path  d="m570.7 1117q-4 4.1-8.1 0l-12.3-12.3q-4-4 0-8.1l12.3-12.3q4.1-4 8.1 0l12.3 12.3q4.1 4.1 0 8.1z"/><path  d="m637.4 1117q-4.1 4.1-8.1 0l-12.3-12.3q-4.1-4 0-8.1l12.3-12.3q4-4 8.1 0l12.3 12.3q4 4.1 0 8.1z"/><path  d="m704.1 1117q-4.1 4.1-8.2 0l-12.2-12.3q-4.1-4 0-8.1l12.2-12.3q4.1-4 8.2 0l12.2 12.3q4.1 4.1 0 8.1z"/><path  d="m770.7 1117q-4 4.1-8.1 0l-12.3-12.3q-4-4 0-8.1l12.3-12.3q4.1-4 8.1 0l12.3 12.3q4.1 4.1 0 8.1z"/><path  d="m837.4 1117q-4.1 4.1-8.1 0l-12.3-12.3q-4.1-4 0-8.1l12.3-12.3q4-4 8.1 0l12.3 12.3q4 4.1 0 8.1z"/><path  d="m904.1 1117q-4.1 4.1-8.2 0l-12.2-12.3q-4.1-4 0-8.1l12.2-12.3q4.1-4 8.2 0l12.2 12.3q4.1 4.1 0 8.1z"/><path  d="m970.7 1117q-4 4.1-8.1 0l-12.3-12.3q-4-4 0-8.1l12.3-12.3q4.1-4 8.1 0l12.3 12.3q4.1 4.1 0 8.1z"/><path  d="m1037.4 1117q-4.1 4.1-8.1 0l-12.3-12.3q-4.1-4 0-8.1l12.3-12.3q4-4 8.1 0l12.3 12.3q4 4.1 0 8.1z"/><path  d="m1104.1 1117q-4.1 4.1-8.2 0l-12.2-12.3q-4.1-4 0-8.1l12.2-12.3q4.1-4 8.2 0l12.2 12.3q4.1 4.1 0 8.1z"/><path  d="m1170.7 1117q-4 4.1-8.1 0l-12.3-12.3q-4-4 0-8.1l12.3-12.3q4.1-4 8.1 0l12.3 12.3q4.1 4.1 0 8.1z"/><path  d="m1237.4 1117q-4.1 4.1-8.1 0l-12.3-12.3q-4.1-4 0-8.1l12.3-12.3q4-4 8.1 0l12.3 12.3q4 4.1 0 8.1z"/><path  d="m1304.1 1117q-4.1 4.1-8.2 0l-12.2-12.3q-4.1-4 0-8.1l12.2-12.3q4.1-4 8.2 0l12.2 12.3q4.1 4.1 0 8.1z"/><path  d="m36.9 1048.4q-3.6 3.6-7.2 0l-10.8-10.8q-3.6-3.6 0-7.2l10.8-10.8q3.6-3.6 7.2 0l10.8 10.8q3.6 3.6 0 7.2z"/><path  d="m103.6 1048.4q-3.6 3.6-7.2 0l-10.8-10.8q-3.6-3.6 0-7.2l10.8-10.8q3.6-3.6 7.2 0l10.8 10.8q3.6 3.6 0 7.2z"/><path  d="m170.3 1048.4q-3.6 3.6-7.2 0l-10.8-10.8q-3.6-3.6 0-7.2l10.8-10.8q3.6-3.6 7.2 0l10.8 10.8q3.6 3.6 0 7.2z"/><path  d="m236.9 1048.4q-3.6 3.6-7.2 0l-10.8-10.8q-3.6-3.6 0-7.2l10.8-10.8q3.6-3.6 7.2 0l10.8 10.8q3.6 3.6 0 7.2z"/><path  d="m303.6 1048.4q-3.6 3.6-7.2 0l-10.8-10.8q-3.6-3.6 0-7.2l10.8-10.8q3.6-3.6 7.2 0l10.8 10.8q3.6 3.6 0 7.2z"/><path  d="m370.3 1048.4q-3.6 3.6-7.2 0l-10.8-10.8q-3.6-3.6 0-7.2l10.8-10.8q3.6-3.6 7.2 0l10.8 10.8q3.6 3.6 0 7.2z"/><path  d="m436.9 1048.4q-3.6 3.6-7.2 0l-10.8-10.8q-3.6-3.6 0-7.2l10.8-10.8q3.6-3.6 7.2 0l10.8 10.8q3.6 3.6 0 7.2z"/><path  d="m503.6 1048.4q-3.6 3.6-7.2 0l-10.8-10.8q-3.6-3.6 0-7.2l10.8-10.8q3.6-3.6 7.2 0l10.8 10.8q3.6 3.6 0 7.2z"/><path  d="m570.3 1048.4q-3.6 3.6-7.2 0l-10.8-10.8q-3.6-3.6 0-7.2l10.8-10.8q3.6-3.6 7.2 0l10.8 10.8q3.6 3.6 0 7.2z"/><path  d="m636.9 1048.4q-3.6 3.6-7.2 0l-10.8-10.8q-3.6-3.6 0-7.2l10.8-10.8q3.6-3.6 7.2 0l10.8 10.8q3.6 3.6 0 7.2z"/><path  d="m703.6 1048.4q-3.6 3.6-7.2 0l-10.8-10.8q-3.6-3.6 0-7.2l10.8-10.8q3.6-3.6 7.2 0l10.8 10.8q3.6 3.6 0 7.2z"/><path  d="m770.3 1048.4q-3.6 3.6-7.2 0l-10.8-10.8q-3.6-3.6 0-7.2l10.8-10.8q3.6-3.6 7.2 0l10.8 10.8q3.6 3.6 0 7.2z"/><path  d="m836.9 1048.4q-3.6 3.6-7.2 0l-10.8-10.8q-3.6-3.6 0-7.2l10.8-10.8q3.6-3.6 7.2 0l10.8 10.8q3.6 3.6 0 7.2z"/><path  d="m903.6 1048.4q-3.6 3.6-7.2 0l-10.8-10.8q-3.6-3.6 0-7.2l10.8-10.8q3.6-3.6 7.2 0l10.8 10.8q3.6 3.6 0 7.2z"/><path  d="m970.3 1048.4q-3.6 3.6-7.2 0l-10.8-10.8q-3.6-3.6 0-7.2l10.8-10.8q3.6-3.6 7.2 0l10.8 10.8q3.6 3.6 0 7.2z"/><path  d="m1036.9 1048.4q-3.6 3.6-7.2 0l-10.8-10.8q-3.6-3.6 0-7.2l10.8-10.8q3.6-3.6 7.2 0l10.8 10.8q3.6 3.6 0 7.2z"/><path  d="m1103.6 1048.4q-3.6 3.6-7.2 0l-10.8-10.8q-3.6-3.6 0-7.2l10.8-10.8q3.6-3.6 7.2 0l10.8 10.8q3.6 3.6 0 7.2z"/><path  d="m1170.3 1048.4q-3.6 3.6-7.2 0l-10.8-10.8q-3.6-3.6 0-7.2l10.8-10.8q3.6-3.6 7.2 0l10.8 10.8q3.6 3.6 0 7.2z"/><path  d="m1236.9 1048.4q-3.6 3.6-7.2 0l-10.8-10.8q-3.6-3.6 0-7.2l10.8-10.8q3.6-3.6 7.2 0l10.8 10.8q3.6 3.6 0 7.2z"/><path  d="m1303.6 1048.4q-3.6 3.6-7.2 0l-10.8-10.8q-3.6-3.6 0-7.2l10.8-10.8q3.6-3.6 7.2 0l10.8 10.8q3.6 3.6 0 7.2z"/><path  d="m36.5 979.8q-3.2 3.1-6.3 0l-9.3-9.3q-3.2-3.2 0-6.3l9.3-9.3q3.1-3.2 6.3 0l9.3 9.3q3.1 3.1 0 6.3z"/><path  d="m103.1 979.8q-3.1 3.1-6.2 0l-9.4-9.3q-3.1-3.2 0-6.3l9.4-9.3q3.1-3.2 6.2 0l9.4 9.3q3.1 3.1 0 6.3z"/><path  d="m169.8 979.8q-3.1 3.1-6.3 0l-9.3-9.3q-3.1-3.2 0-6.3l9.3-9.3q3.2-3.2 6.3 0l9.3 9.3q3.2 3.1 0 6.3z"/><path  d="m236.5 979.8q-3.2 3.1-6.3 0l-9.3-9.3q-3.2-3.2 0-6.3l9.3-9.3q3.1-3.2 6.3 0l9.3 9.3q3.1 3.1 0 6.3z"/><path  d="m303.1 979.8q-3.1 3.1-6.2 0l-9.4-9.3q-3.1-3.2 0-6.3l9.4-9.3q3.1-3.2 6.2 0l9.4 9.3q3.1 3.1 0 6.3z"/><path  d="m369.8 979.8q-3.1 3.1-6.3 0l-9.3-9.3q-3.1-3.2 0-6.3l9.3-9.3q3.2-3.2 6.3 0l9.3 9.3q3.2 3.1 0 6.3z"/><path  d="m436.5 979.8q-3.2 3.1-6.3 0l-9.3-9.3q-3.2-3.2 0-6.3l9.3-9.3q3.1-3.2 6.3 0l9.3 9.3q3.1 3.1 0 6.3z"/><path  d="m503.1 979.8q-3.1 3.1-6.2 0l-9.4-9.3q-3.1-3.2 0-6.3l9.4-9.3q3.1-3.2 6.2 0l9.4 9.3q3.1 3.1 0 6.3z"/><path  d="m569.8 979.8q-3.1 3.1-6.3 0l-9.3-9.3q-3.1-3.2 0-6.3l9.3-9.3q3.2-3.2 6.3 0l9.3 9.3q3.2 3.1 0 6.3z"/><path  d="m636.5 979.8q-3.2 3.1-6.3 0l-9.3-9.3q-3.2-3.2 0-6.3l9.3-9.3q3.1-3.2 6.3 0l9.3 9.3q3.1 3.1 0 6.3z"/><path  d="m703.1 979.8q-3.1 3.1-6.2 0l-9.4-9.3q-3.1-3.2 0-6.3l9.4-9.3q3.1-3.2 6.2 0l9.4 9.3q3.1 3.1 0 6.3z"/><path  d="m769.8 979.8q-3.1 3.1-6.3 0l-9.3-9.3q-3.1-3.2 0-6.3l9.3-9.3q3.2-3.2 6.3 0l9.3 9.3q3.2 3.1 0 6.3z"/><path  d="m836.5 979.8q-3.2 3.1-6.3 0l-9.3-9.3q-3.2-3.2 0-6.3l9.3-9.3q3.1-3.2 6.3 0l9.3 9.3q3.1 3.1 0 6.3z"/><path  d="m903.1 979.8q-3.1 3.1-6.2 0l-9.4-9.3q-3.1-3.2 0-6.3l9.4-9.3q3.1-3.2 6.2 0l9.4 9.3q3.1 3.1 0 6.3z"/><path  d="m969.8 979.8q-3.1 3.1-6.3 0l-9.3-9.3q-3.1-3.2 0-6.3l9.3-9.3q3.2-3.2 6.3 0l9.3 9.3q3.2 3.1 0 6.3z"/><path  d="m1036.5 979.8q-3.2 3.1-6.3 0l-9.3-9.3q-3.2-3.2 0-6.3l9.3-9.3q3.1-3.2 6.3 0l9.3 9.3q3.1 3.1 0 6.3z"/><path  d="m1103.1 979.8q-3.1 3.1-6.2 0l-9.4-9.3q-3.1-3.2 0-6.3l9.4-9.3q3.1-3.2 6.2 0l9.4 9.3q3.1 3.1 0 6.3z"/><path  d="m1169.8 979.8q-3.1 3.1-6.3 0l-9.3-9.3q-3.1-3.2 0-6.3l9.3-9.3q3.2-3.2 6.3 0l9.3 9.3q3.2 3.1 0 6.3z"/><path  d="m1236.5 979.8q-3.2 3.1-6.3 0l-9.3-9.3q-3.2-3.2 0-6.3l9.3-9.3q3.1-3.2 6.3 0l9.3 9.3q3.1 3.1 0 6.3z"/><path  d="m1303.1 979.8q-3.1 3.1-6.2 0l-9.4-9.3q-3.1-3.2 0-6.3l9.4-9.3q3.1-3.2 6.2 0l9.4 9.3q3.1 3.1 0 6.3z"/><path  d="m36 911.2q-2.7 2.7-5.3 0l-7.9-7.9q-2.7-2.6 0-5.3l7.9-7.9q2.6-2.6 5.3 0l7.9 7.9q2.6 2.7 0 5.3z"/><path  d="m102.6 911.2q-2.6 2.7-5.2 0l-8-7.9q-2.6-2.6 0-5.3l8-7.9q2.6-2.6 5.2 0l8 7.9q2.6 2.7 0 5.3z"/><path  d="m169.3 911.2q-2.6 2.7-5.3 0l-7.9-7.9q-2.6-2.6 0-5.3l7.9-7.9q2.7-2.6 5.3 0l7.9 7.9q2.7 2.7 0 5.3z"/><path  d="m236 911.2q-2.7 2.7-5.3 0l-7.9-7.9q-2.7-2.6 0-5.3l7.9-7.9q2.6-2.6 5.3 0l7.9 7.9q2.6 2.7 0 5.3z"/><path  d="m302.6 911.2q-2.6 2.7-5.2 0l-8-7.9q-2.6-2.6 0-5.3l8-7.9q2.6-2.6 5.2 0l8 7.9q2.6 2.7 0 5.3z"/><path  d="m369.3 911.2q-2.6 2.7-5.3 0l-7.9-7.9q-2.6-2.6 0-5.3l7.9-7.9q2.7-2.6 5.3 0l7.9 7.9q2.7 2.7 0 5.3z"/><path  d="m436 911.2q-2.7 2.7-5.3 0l-7.9-7.9q-2.7-2.6 0-5.3l7.9-7.9q2.6-2.6 5.3 0l7.9 7.9q2.6 2.7 0 5.3z"/><path  d="m502.6 911.2q-2.6 2.7-5.2 0l-8-7.9q-2.6-2.6 0-5.3l8-7.9q2.6-2.6 5.2 0l8 7.9q2.6 2.7 0 5.3z"/><path  d="m569.3 911.2q-2.6 2.7-5.3 0l-7.9-7.9q-2.6-2.6 0-5.3l7.9-7.9q2.7-2.6 5.3 0l7.9 7.9q2.7 2.7 0 5.3z"/><path  d="m636 911.2q-2.7 2.7-5.3 0l-7.9-7.9q-2.7-2.6 0-5.3l7.9-7.9q2.6-2.6 5.3 0l7.9 7.9q2.6 2.7 0 5.3z"/><path  d="m702.6 911.2q-2.6 2.7-5.2 0l-8-7.9q-2.6-2.6 0-5.3l8-7.9q2.6-2.6 5.2 0l8 7.9q2.6 2.7 0 5.3z"/><path  d="m769.3 911.2q-2.6 2.7-5.3 0l-7.9-7.9q-2.6-2.6 0-5.3l7.9-7.9q2.7-2.6 5.3 0l7.9 7.9q2.7 2.7 0 5.3z"/><path  d="m836 911.2q-2.7 2.7-5.3 0l-7.9-7.9q-2.7-2.6 0-5.3l7.9-7.9q2.6-2.6 5.3 0l7.9 7.9q2.6 2.7 0 5.3z"/><path  d="m902.6 911.2q-2.6 2.7-5.2 0l-8-7.9q-2.6-2.6 0-5.3l8-7.9q2.6-2.6 5.2 0l8 7.9q2.6 2.7 0 5.3z"/><path  d="m969.3 911.2q-2.6 2.7-5.3 0l-7.9-7.9q-2.6-2.6 0-5.3l7.9-7.9q2.7-2.6 5.3 0l7.9 7.9q2.7 2.7 0 5.3z"/><path  d="m1036 911.2q-2.7 2.7-5.3 0l-7.9-7.9q-2.7-2.6 0-5.3l7.9-7.9q2.6-2.6 5.3 0l7.9 7.9q2.6 2.7 0 5.3z"/><path  d="m1102.6 911.2q-2.6 2.7-5.2 0l-8-7.9q-2.6-2.6 0-5.3l8-7.9q2.6-2.6 5.2 0l8 7.9q2.6 2.7 0 5.3z"/><path  d="m1169.3 911.2q-2.6 2.7-5.3 0l-7.9-7.9q-2.6-2.6 0-5.3l7.9-7.9q2.7-2.6 5.3 0l7.9 7.9q2.7 2.7 0 5.3z"/><path  d="m1236 911.2q-2.7 2.7-5.3 0l-7.9-7.9q-2.7-2.6 0-5.3l7.9-7.9q2.6-2.6 5.3 0l7.9 7.9q2.6 2.7 0 5.3z"/><path  d="m1302.6 911.2q-2.6 2.7-5.2 0l-8-7.9q-2.6-2.6 0-5.3l8-7.9q2.6-2.6 5.2 0l8 7.9q2.6 2.7 0 5.3z"/><path  d="m35.5 842.6q-2.2 2.2-4.3 0l-6.5-6.4q-2.2-2.2 0-4.4l6.5-6.4q2.1-2.2 4.3 0l6.5 6.4q2.1 2.2 0 4.4z"/><path  d="m102.2 842.6q-2.2 2.2-4.4 0l-6.4-6.4q-2.2-2.2 0-4.4l6.4-6.4q2.2-2.2 4.4 0l6.4 6.4q2.2 2.2 0 4.4z"/><path  d="m168.8 842.6q-2.1 2.2-4.3 0l-6.5-6.4q-2.1-2.2 0-4.4l6.5-6.4q2.2-2.2 4.3 0l6.5 6.4q2.2 2.2 0 4.4z"/><path  d="m235.5 842.6q-2.2 2.2-4.3 0l-6.5-6.4q-2.2-2.2 0-4.4l6.5-6.4q2.1-2.2 4.3 0l6.5 6.4q2.1 2.2 0 4.4z"/><path  d="m302.2 842.6q-2.2 2.2-4.4 0l-6.4-6.4q-2.2-2.2 0-4.4l6.4-6.4q2.2-2.2 4.4 0l6.4 6.4q2.2 2.2 0 4.4z"/><path  d="m368.8 842.6q-2.1 2.2-4.3 0l-6.5-6.4q-2.1-2.2 0-4.4l6.5-6.4q2.2-2.2 4.3 0l6.5 6.4q2.2 2.2 0 4.4z"/><path  d="m435.5 842.6q-2.2 2.2-4.3 0l-6.5-6.4q-2.2-2.2 0-4.4l6.5-6.4q2.1-2.2 4.3 0l6.5 6.4q2.1 2.2 0 4.4z"/><path  d="m502.2 842.6q-2.2 2.2-4.4 0l-6.4-6.4q-2.2-2.2 0-4.4l6.4-6.4q2.2-2.2 4.4 0l6.4 6.4q2.2 2.2 0 4.4z"/><path  d="m568.8 842.6q-2.1 2.2-4.3 0l-6.5-6.4q-2.1-2.2 0-4.4l6.5-6.4q2.2-2.2 4.3 0l6.5 6.4q2.2 2.2 0 4.4z"/><path  d="m635.5 842.6q-2.2 2.2-4.3 0l-6.5-6.4q-2.2-2.2 0-4.4l6.5-6.4q2.1-2.2 4.3 0l6.5 6.4q2.1 2.2 0 4.4z"/><path  d="m702.2 842.6q-2.2 2.2-4.4 0l-6.4-6.4q-2.2-2.2 0-4.4l6.4-6.4q2.2-2.2 4.4 0l6.4 6.4q2.2 2.2 0 4.4z"/><path  d="m768.8 842.6q-2.1 2.2-4.3 0l-6.5-6.4q-2.1-2.2 0-4.4l6.5-6.4q2.2-2.2 4.3 0l6.5 6.4q2.2 2.2 0 4.4z"/><path  d="m835.5 842.6q-2.2 2.2-4.3 0l-6.5-6.4q-2.2-2.2 0-4.4l6.5-6.4q2.1-2.2 4.3 0l6.5 6.4q2.1 2.2 0 4.4z"/><path  d="m902.2 842.6q-2.2 2.2-4.4 0l-6.4-6.4q-2.2-2.2 0-4.4l6.4-6.4q2.2-2.2 4.4 0l6.4 6.4q2.2 2.2 0 4.4z"/><path  d="m968.8 842.6q-2.1 2.2-4.3 0l-6.5-6.4q-2.1-2.2 0-4.4l6.5-6.4q2.2-2.2 4.3 0l6.5 6.4q2.2 2.2 0 4.4z"/><path  d="m1035.5 842.6q-2.2 2.2-4.3 0l-6.5-6.4q-2.2-2.2 0-4.4l6.5-6.4q2.1-2.2 4.3 0l6.5 6.4q2.1 2.2 0 4.4z"/><path  d="m1102.2 842.6q-2.2 2.2-4.4 0l-6.4-6.4q-2.2-2.2 0-4.4l6.4-6.4q2.2-2.2 4.4 0l6.4 6.4q2.2 2.2 0 4.4z"/><path  d="m1168.8 842.6q-2.1 2.2-4.3 0l-6.5-6.4q-2.1-2.2 0-4.4l6.5-6.4q2.2-2.2 4.3 0l6.5 6.4q2.2 2.2 0 4.4z"/><path  d="m1235.5 842.6q-2.2 2.2-4.3 0l-6.5-6.4q-2.2-2.2 0-4.4l6.5-6.4q2.1-2.2 4.3 0l6.5 6.4q2.1 2.2 0 4.4z"/><path  d="m1302.2 842.6q-2.2 2.2-4.4 0l-6.4-6.4q-2.2-2.2 0-4.4l6.4-6.4q2.2-2.2 4.4 0l6.4 6.4q2.2 2.2 0 4.4z"/><path  d="m35 774.1q-1.7 1.6-3.3 0l-5.1-5.1q-1.7-1.7 0-3.3l5.1-5.1q1.6-1.7 3.3 0l5.1 5.1q1.6 1.6 0 3.3z"/><path  d="m101.7 774.1q-1.7 1.6-3.4 0l-5-5.1q-1.7-1.7 0-3.3l5-5.1q1.7-1.7 3.4 0l5 5.1q1.7 1.6 0 3.3z"/><path  d="m168.3 774.1q-1.6 1.6-3.3 0l-5.1-5.1q-1.6-1.7 0-3.3l5.1-5.1q1.7-1.7 3.3 0l5.1 5.1q1.7 1.6 0 3.3z"/><path  d="m235 774.1q-1.7 1.6-3.3 0l-5.1-5.1q-1.7-1.7 0-3.3l5.1-5.1q1.6-1.7 3.3 0l5.1 5.1q1.6 1.6 0 3.3z"/><path  d="m301.7 774.1q-1.7 1.6-3.4 0l-5-5.1q-1.7-1.7 0-3.3l5-5.1q1.7-1.7 3.4 0l5 5.1q1.7 1.6 0 3.3z"/><path  d="m368.3 774.1q-1.6 1.6-3.3 0l-5.1-5.1q-1.6-1.7 0-3.3l5.1-5.1q1.7-1.7 3.3 0l5.1 5.1q1.7 1.6 0 3.3z"/><path  d="m435 774.1q-1.7 1.6-3.3 0l-5.1-5.1q-1.7-1.7 0-3.3l5.1-5.1q1.6-1.7 3.3 0l5.1 5.1q1.6 1.6 0 3.3z"/><path  d="m501.7 774.1q-1.7 1.6-3.4 0l-5-5.1q-1.7-1.7 0-3.3l5-5.1q1.7-1.7 3.4 0l5 5.1q1.7 1.6 0 3.3z"/><path  d="m568.3 774.1q-1.6 1.6-3.3 0l-5.1-5.1q-1.6-1.7 0-3.3l5.1-5.1q1.7-1.7 3.3 0l5.1 5.1q1.7 1.6 0 3.3z"/><path  d="m635 774.1q-1.7 1.6-3.3 0l-5.1-5.1q-1.7-1.7 0-3.3l5.1-5.1q1.6-1.7 3.3 0l5.1 5.1q1.6 1.6 0 3.3z"/><path  d="m701.7 774.1q-1.7 1.6-3.4 0l-5-5.1q-1.7-1.7 0-3.3l5-5.1q1.7-1.7 3.4 0l5 5.1q1.7 1.6 0 3.3z"/><path  d="m768.3 774.1q-1.6 1.6-3.3 0l-5.1-5.1q-1.6-1.7 0-3.3l5.1-5.1q1.7-1.7 3.3 0l5.1 5.1q1.7 1.6 0 3.3z"/><path  d="m835 774.1q-1.7 1.6-3.3 0l-5.1-5.1q-1.7-1.7 0-3.3l5.1-5.1q1.6-1.7 3.3 0l5.1 5.1q1.6 1.6 0 3.3z"/><path  d="m901.7 774.1q-1.7 1.6-3.4 0l-5-5.1q-1.7-1.7 0-3.3l5-5.1q1.7-1.7 3.4 0l5 5.1q1.7 1.6 0 3.3z"/><path  d="m968.3 774.1q-1.6 1.6-3.3 0l-5.1-5.1q-1.6-1.7 0-3.3l5.1-5.1q1.7-1.7 3.3 0l5.1 5.1q1.7 1.6 0 3.3z"/><path  d="m1035 774.1q-1.7 1.6-3.3 0l-5.1-5.1q-1.7-1.7 0-3.3l5.1-5.1q1.6-1.7 3.3 0l5.1 5.1q1.6 1.6 0 3.3z"/><path  d="m1101.7 774.1q-1.7 1.6-3.4 0l-5-5.1q-1.7-1.7 0-3.3l5-5.1q1.7-1.7 3.4 0l5 5.1q1.7 1.6 0 3.3z"/><path  d="m1168.3 774.1q-1.6 1.6-3.3 0l-5.1-5.1q-1.6-1.7 0-3.3l5.1-5.1q1.7-1.7 3.3 0l5.1 5.1q1.7 1.6 0 3.3z"/><path  d="m1235 774.1q-1.7 1.6-3.3 0l-5.1-5.1q-1.7-1.7 0-3.3l5.1-5.1q1.6-1.7 3.3 0l5.1 5.1q1.6 1.6 0 3.3z"/><path  d="m1301.7 774.1q-1.7 1.6-3.4 0l-5-5.1q-1.7-1.7 0-3.3l5-5.1q1.7-1.7 3.4 0l5 5.1q1.7 1.6 0 3.3z"/><path  d="m34.5 705.5q-1.2 1.2-2.4 0l-3.6-3.6q-1.2-1.2 0-2.4l3.6-3.6q1.2-1.2 2.4 0l3.6 3.6q1.2 1.2 0 2.4z"/><path  d="m101.2 705.5q-1.2 1.2-2.4 0l-3.6-3.6q-1.2-1.2 0-2.4l3.6-3.6q1.2-1.2 2.4 0l3.6 3.6q1.2 1.2 0 2.4z"/><path  d="m167.9 705.5q-1.2 1.2-2.4 0l-3.6-3.6q-1.2-1.2 0-2.4l3.6-3.6q1.2-1.2 2.4 0l3.6 3.6q1.2 1.2 0 2.4z"/><path  d="m234.5 705.5q-1.2 1.2-2.4 0l-3.6-3.6q-1.2-1.2 0-2.4l3.6-3.6q1.2-1.2 2.4 0l3.6 3.6q1.2 1.2 0 2.4z"/><path  d="m301.2 705.5q-1.2 1.2-2.4 0l-3.6-3.6q-1.2-1.2 0-2.4l3.6-3.6q1.2-1.2 2.4 0l3.6 3.6q1.2 1.2 0 2.4z"/><path  d="m367.9 705.5q-1.2 1.2-2.4 0l-3.6-3.6q-1.2-1.2 0-2.4l3.6-3.6q1.2-1.2 2.4 0l3.6 3.6q1.2 1.2 0 2.4z"/><path  d="m434.5 705.5q-1.2 1.2-2.4 0l-3.6-3.6q-1.2-1.2 0-2.4l3.6-3.6q1.2-1.2 2.4 0l3.6 3.6q1.2 1.2 0 2.4z"/><path  d="m501.2 705.5q-1.2 1.2-2.4 0l-3.6-3.6q-1.2-1.2 0-2.4l3.6-3.6q1.2-1.2 2.4 0l3.6 3.6q1.2 1.2 0 2.4z"/><path  d="m567.9 705.5q-1.2 1.2-2.4 0l-3.6-3.6q-1.2-1.2 0-2.4l3.6-3.6q1.2-1.2 2.4 0l3.6 3.6q1.2 1.2 0 2.4z"/><path  d="m634.5 705.5q-1.2 1.2-2.4 0l-3.6-3.6q-1.2-1.2 0-2.4l3.6-3.6q1.2-1.2 2.4 0l3.6 3.6q1.2 1.2 0 2.4z"/><path  d="m701.2 705.5q-1.2 1.2-2.4 0l-3.6-3.6q-1.2-1.2 0-2.4l3.6-3.6q1.2-1.2 2.4 0l3.6 3.6q1.2 1.2 0 2.4z"/><path  d="m767.9 705.5q-1.2 1.2-2.4 0l-3.6-3.6q-1.2-1.2 0-2.4l3.6-3.6q1.2-1.2 2.4 0l3.6 3.6q1.2 1.2 0 2.4z"/><path  d="m834.5 705.5q-1.2 1.2-2.4 0l-3.6-3.6q-1.2-1.2 0-2.4l3.6-3.6q1.2-1.2 2.4 0l3.6 3.6q1.2 1.2 0 2.4z"/><path  d="m901.2 705.5q-1.2 1.2-2.4 0l-3.6-3.6q-1.2-1.2 0-2.4l3.6-3.6q1.2-1.2 2.4 0l3.6 3.6q1.2 1.2 0 2.4z"/><path  d="m967.9 705.5q-1.2 1.2-2.4 0l-3.6-3.6q-1.2-1.2 0-2.4l3.6-3.6q1.2-1.2 2.4 0l3.6 3.6q1.2 1.2 0 2.4z"/><path  d="m1034.5 705.5q-1.2 1.2-2.4 0l-3.6-3.6q-1.2-1.2 0-2.4l3.6-3.6q1.2-1.2 2.4 0l3.6 3.6q1.2 1.2 0 2.4z"/><path  d="m1101.2 705.5q-1.2 1.2-2.4 0l-3.6-3.6q-1.2-1.2 0-2.4l3.6-3.6q1.2-1.2 2.4 0l3.6 3.6q1.2 1.2 0 2.4z"/><path  d="m1167.9 705.5q-1.2 1.2-2.4 0l-3.6-3.6q-1.2-1.2 0-2.4l3.6-3.6q1.2-1.2 2.4 0l3.6 3.6q1.2 1.2 0 2.4z"/><path  d="m1234.5 705.5q-1.2 1.2-2.4 0l-3.6-3.6q-1.2-1.2 0-2.4l3.6-3.6q1.2-1.2 2.4 0l3.6 3.6q1.2 1.2 0 2.4z"/><path  d="m1301.2 705.5q-1.2 1.2-2.4 0l-3.6-3.6q-1.2-1.2 0-2.4l3.6-3.6q1.2-1.2 2.4 0l3.6 3.6q1.2 1.2 0 2.4z"/><path  d="m34.5 638.8q-1.2 1.2-2.4 0l-3.6-3.6q-1.2-1.2 0-2.4l3.6-3.6q1.2-1.2 2.4 0l3.6 3.6q1.2 1.2 0 2.4z"/><path  d="m101.2 638.8q-1.2 1.2-2.4 0l-3.6-3.6q-1.2-1.2 0-2.4l3.6-3.6q1.2-1.2 2.4 0l3.6 3.6q1.2 1.2 0 2.4z"/><path  d="m167.9 638.8q-1.2 1.2-2.4 0l-3.6-3.6q-1.2-1.2 0-2.4l3.6-3.6q1.2-1.2 2.4 0l3.6 3.6q1.2 1.2 0 2.4z"/><path  d="m234.5 638.8q-1.2 1.2-2.4 0l-3.6-3.6q-1.2-1.2 0-2.4l3.6-3.6q1.2-1.2 2.4 0l3.6 3.6q1.2 1.2 0 2.4z"/><path  d="m301.2 638.8q-1.2 1.2-2.4 0l-3.6-3.6q-1.2-1.2 0-2.4l3.6-3.6q1.2-1.2 2.4 0l3.6 3.6q1.2 1.2 0 2.4z"/><path  d="m367.9 638.8q-1.2 1.2-2.4 0l-3.6-3.6q-1.2-1.2 0-2.4l3.6-3.6q1.2-1.2 2.4 0l3.6 3.6q1.2 1.2 0 2.4z"/><path  d="m434.5 638.8q-1.2 1.2-2.4 0l-3.6-3.6q-1.2-1.2 0-2.4l3.6-3.6q1.2-1.2 2.4 0l3.6 3.6q1.2 1.2 0 2.4z"/><path  d="m501.2 638.8q-1.2 1.2-2.4 0l-3.6-3.6q-1.2-1.2 0-2.4l3.6-3.6q1.2-1.2 2.4 0l3.6 3.6q1.2 1.2 0 2.4z"/><path  d="m567.9 638.8q-1.2 1.2-2.4 0l-3.6-3.6q-1.2-1.2 0-2.4l3.6-3.6q1.2-1.2 2.4 0l3.6 3.6q1.2 1.2 0 2.4z"/><path  d="m634.5 638.8q-1.2 1.2-2.4 0l-3.6-3.6q-1.2-1.2 0-2.4l3.6-3.6q1.2-1.2 2.4 0l3.6 3.6q1.2 1.2 0 2.4z"/><path  d="m701.2 638.8q-1.2 1.2-2.4 0l-3.6-3.6q-1.2-1.2 0-2.4l3.6-3.6q1.2-1.2 2.4 0l3.6 3.6q1.2 1.2 0 2.4z"/><path  d="m767.9 638.8q-1.2 1.2-2.4 0l-3.6-3.6q-1.2-1.2 0-2.4l3.6-3.6q1.2-1.2 2.4 0l3.6 3.6q1.2 1.2 0 2.4z"/><path  d="m834.5 638.8q-1.2 1.2-2.4 0l-3.6-3.6q-1.2-1.2 0-2.4l3.6-3.6q1.2-1.2 2.4 0l3.6 3.6q1.2 1.2 0 2.4z"/><path  d="m901.2 638.8q-1.2 1.2-2.4 0l-3.6-3.6q-1.2-1.2 0-2.4l3.6-3.6q1.2-1.2 2.4 0l3.6 3.6q1.2 1.2 0 2.4z"/><path  d="m967.9 638.8q-1.2 1.2-2.4 0l-3.6-3.6q-1.2-1.2 0-2.4l3.6-3.6q1.2-1.2 2.4 0l3.6 3.6q1.2 1.2 0 2.4z"/><path  d="m1034.5 638.8q-1.2 1.2-2.4 0l-3.6-3.6q-1.2-1.2 0-2.4l3.6-3.6q1.2-1.2 2.4 0l3.6 3.6q1.2 1.2 0 2.4z"/><path  d="m1101.2 638.8q-1.2 1.2-2.4 0l-3.6-3.6q-1.2-1.2 0-2.4l3.6-3.6q1.2-1.2 2.4 0l3.6 3.6q1.2 1.2 0 2.4z"/><path  d="m1167.9 638.8q-1.2 1.2-2.4 0l-3.6-3.6q-1.2-1.2 0-2.4l3.6-3.6q1.2-1.2 2.4 0l3.6 3.6q1.2 1.2 0 2.4z"/><path  d="m1234.5 638.8q-1.2 1.2-2.4 0l-3.6-3.6q-1.2-1.2 0-2.4l3.6-3.6q1.2-1.2 2.4 0l3.6 3.6q1.2 1.2 0 2.4z"/><path  d="m1301.2 638.8q-1.2 1.2-2.4 0l-3.6-3.6q-1.2-1.2 0-2.4l3.6-3.6q1.2-1.2 2.4 0l3.6 3.6q1.2 1.2 0 2.4z"/><path  d="m35 574.1q-1.7 1.6-3.3 0l-5.1-5.1q-1.7-1.7 0-3.3l5.1-5.1q1.6-1.7 3.3 0l5.1 5.1q1.6 1.6 0 3.3z"/><path  d="m101.7 574.1q-1.7 1.6-3.4 0l-5-5.1q-1.7-1.7 0-3.3l5-5.1q1.7-1.7 3.4 0l5 5.1q1.7 1.6 0 3.3z"/><path  d="m168.3 574.1q-1.6 1.6-3.3 0l-5.1-5.1q-1.6-1.7 0-3.3l5.1-5.1q1.7-1.7 3.3 0l5.1 5.1q1.7 1.6 0 3.3z"/><path  d="m235 574.1q-1.7 1.6-3.3 0l-5.1-5.1q-1.7-1.7 0-3.3l5.1-5.1q1.6-1.7 3.3 0l5.1 5.1q1.6 1.6 0 3.3z"/><path  d="m301.7 574.1q-1.7 1.6-3.4 0l-5-5.1q-1.7-1.7 0-3.3l5-5.1q1.7-1.7 3.4 0l5 5.1q1.7 1.6 0 3.3z"/><path  d="m368.3 574.1q-1.6 1.6-3.3 0l-5.1-5.1q-1.6-1.7 0-3.3l5.1-5.1q1.7-1.7 3.3 0l5.1 5.1q1.7 1.6 0 3.3z"/><path  d="m435 574.1q-1.7 1.6-3.3 0l-5.1-5.1q-1.7-1.7 0-3.3l5.1-5.1q1.6-1.7 3.3 0l5.1 5.1q1.6 1.6 0 3.3z"/><path  d="m501.7 574.1q-1.7 1.6-3.4 0l-5-5.1q-1.7-1.7 0-3.3l5-5.1q1.7-1.7 3.4 0l5 5.1q1.7 1.6 0 3.3z"/><path  d="m568.3 574.1q-1.6 1.6-3.3 0l-5.1-5.1q-1.6-1.7 0-3.3l5.1-5.1q1.7-1.7 3.3 0l5.1 5.1q1.7 1.6 0 3.3z"/><path  d="m635 574.1q-1.7 1.6-3.3 0l-5.1-5.1q-1.7-1.7 0-3.3l5.1-5.1q1.6-1.7 3.3 0l5.1 5.1q1.6 1.6 0 3.3z"/><path  d="m701.7 574.1q-1.7 1.6-3.4 0l-5-5.1q-1.7-1.7 0-3.3l5-5.1q1.7-1.7 3.4 0l5 5.1q1.7 1.6 0 3.3z"/><path  d="m768.3 574.1q-1.6 1.6-3.3 0l-5.1-5.1q-1.6-1.7 0-3.3l5.1-5.1q1.7-1.7 3.3 0l5.1 5.1q1.7 1.6 0 3.3z"/><path  d="m835 574.1q-1.7 1.6-3.3 0l-5.1-5.1q-1.7-1.7 0-3.3l5.1-5.1q1.6-1.7 3.3 0l5.1 5.1q1.6 1.6 0 3.3z"/><path  d="m901.7 574.1q-1.7 1.6-3.4 0l-5-5.1q-1.7-1.7 0-3.3l5-5.1q1.7-1.7 3.4 0l5 5.1q1.7 1.6 0 3.3z"/><path  d="m968.3 574.1q-1.6 1.6-3.3 0l-5.1-5.1q-1.6-1.7 0-3.3l5.1-5.1q1.7-1.7 3.3 0l5.1 5.1q1.7 1.6 0 3.3z"/><path  d="m1035 574.1q-1.7 1.6-3.3 0l-5.1-5.1q-1.7-1.7 0-3.3l5.1-5.1q1.6-1.7 3.3 0l5.1 5.1q1.6 1.6 0 3.3z"/><path  d="m1101.7 574.1q-1.7 1.6-3.4 0l-5-5.1q-1.7-1.7 0-3.3l5-5.1q1.7-1.7 3.4 0l5 5.1q1.7 1.6 0 3.3z"/><path  d="m1168.3 574.1q-1.6 1.6-3.3 0l-5.1-5.1q-1.6-1.7 0-3.3l5.1-5.1q1.7-1.7 3.3 0l5.1 5.1q1.7 1.6 0 3.3z"/><path  d="m1235 574.1q-1.7 1.6-3.3 0l-5.1-5.1q-1.7-1.7 0-3.3l5.1-5.1q1.6-1.7 3.3 0l5.1 5.1q1.6 1.6 0 3.3z"/><path  d="m1301.7 574.1q-1.7 1.6-3.4 0l-5-5.1q-1.7-1.7 0-3.3l5-5.1q1.7-1.7 3.4 0l5 5.1q1.7 1.6 0 3.3z"/><path  d="m35.5 509.3q-2.2 2.2-4.3 0l-6.5-6.5q-2.2-2.1 0-4.3l6.5-6.5q2.1-2.1 4.3 0l6.5 6.5q2.1 2.2 0 4.3z"/><path  d="m102.2 509.3q-2.2 2.2-4.4 0l-6.4-6.5q-2.2-2.1 0-4.3l6.4-6.5q2.2-2.1 4.4 0l6.4 6.5q2.2 2.2 0 4.3z"/><path  d="m168.8 509.3q-2.1 2.2-4.3 0l-6.5-6.5q-2.1-2.1 0-4.3l6.5-6.5q2.2-2.1 4.3 0l6.5 6.5q2.2 2.2 0 4.3z"/><path  d="m235.5 509.3q-2.2 2.2-4.3 0l-6.5-6.5q-2.2-2.1 0-4.3l6.5-6.5q2.1-2.1 4.3 0l6.5 6.5q2.1 2.2 0 4.3z"/><path  d="m302.2 509.3q-2.2 2.2-4.4 0l-6.4-6.5q-2.2-2.1 0-4.3l6.4-6.5q2.2-2.1 4.4 0l6.4 6.5q2.2 2.2 0 4.3z"/><path  d="m368.8 509.3q-2.1 2.2-4.3 0l-6.5-6.5q-2.1-2.1 0-4.3l6.5-6.5q2.2-2.1 4.3 0l6.5 6.5q2.2 2.2 0 4.3z"/><path  d="m435.5 509.3q-2.2 2.2-4.3 0l-6.5-6.5q-2.2-2.1 0-4.3l6.5-6.5q2.1-2.1 4.3 0l6.5 6.5q2.1 2.2 0 4.3z"/><path  d="m502.2 509.3q-2.2 2.2-4.4 0l-6.4-6.5q-2.2-2.1 0-4.3l6.4-6.5q2.2-2.1 4.4 0l6.4 6.5q2.2 2.2 0 4.3z"/><path  d="m568.8 509.3q-2.1 2.2-4.3 0l-6.5-6.5q-2.1-2.1 0-4.3l6.5-6.5q2.2-2.1 4.3 0l6.5 6.5q2.2 2.2 0 4.3z"/><path  d="m635.5 509.3q-2.2 2.2-4.3 0l-6.5-6.5q-2.2-2.1 0-4.3l6.5-6.5q2.1-2.1 4.3 0l6.5 6.5q2.1 2.2 0 4.3z"/><path  d="m702.2 509.3q-2.2 2.2-4.4 0l-6.4-6.5q-2.2-2.1 0-4.3l6.4-6.5q2.2-2.1 4.4 0l6.4 6.5q2.2 2.2 0 4.3z"/><path  d="m768.8 509.3q-2.1 2.2-4.3 0l-6.5-6.5q-2.1-2.1 0-4.3l6.5-6.5q2.2-2.1 4.3 0l6.5 6.5q2.2 2.2 0 4.3z"/><path  d="m835.5 509.3q-2.2 2.2-4.3 0l-6.5-6.5q-2.2-2.1 0-4.3l6.5-6.5q2.1-2.1 4.3 0l6.5 6.5q2.1 2.2 0 4.3z"/><path  d="m902.2 509.3q-2.2 2.2-4.4 0l-6.4-6.5q-2.2-2.1 0-4.3l6.4-6.5q2.2-2.1 4.4 0l6.4 6.5q2.2 2.2 0 4.3z"/><path  d="m968.8 509.3q-2.1 2.2-4.3 0l-6.5-6.5q-2.1-2.1 0-4.3l6.5-6.5q2.2-2.1 4.3 0l6.5 6.5q2.2 2.2 0 4.3z"/><path  d="m1035.5 509.3q-2.2 2.2-4.3 0l-6.5-6.5q-2.2-2.1 0-4.3l6.5-6.5q2.1-2.1 4.3 0l6.5 6.5q2.1 2.2 0 4.3z"/><path  d="m1102.2 509.3q-2.2 2.2-4.4 0l-6.4-6.5q-2.2-2.1 0-4.3l6.4-6.5q2.2-2.1 4.4 0l6.4 6.5q2.2 2.2 0 4.3z"/><path  d="m1168.8 509.3q-2.1 2.2-4.3 0l-6.5-6.5q-2.1-2.1 0-4.3l6.5-6.5q2.2-2.1 4.3 0l6.5 6.5q2.2 2.2 0 4.3z"/><path  d="m1235.5 509.3q-2.2 2.2-4.3 0l-6.5-6.5q-2.2-2.1 0-4.3l6.5-6.5q2.1-2.1 4.3 0l6.5 6.5q2.1 2.2 0 4.3z"/><path  d="m1302.2 509.3q-2.2 2.2-4.4 0l-6.4-6.5q-2.2-2.1 0-4.3l6.4-6.5q2.2-2.1 4.4 0l6.4 6.5q2.2 2.2 0 4.3z"/><path  d="m36 444.6q-2.7 2.6-5.3 0l-7.9-8q-2.7-2.6 0-5.2l7.9-8q2.6-2.6 5.3 0l7.9 8q2.6 2.6 0 5.2z"/><path  d="m102.6 444.6q-2.6 2.6-5.2 0l-8-8q-2.6-2.6 0-5.2l8-8q2.6-2.6 5.2 0l8 8q2.6 2.6 0 5.2z"/><path  d="m169.3 444.6q-2.6 2.6-5.3 0l-7.9-8q-2.6-2.6 0-5.2l7.9-8q2.7-2.6 5.3 0l7.9 8q2.7 2.6 0 5.2z"/><path  d="m236 444.6q-2.7 2.6-5.3 0l-7.9-8q-2.7-2.6 0-5.2l7.9-8q2.6-2.6 5.3 0l7.9 8q2.6 2.6 0 5.2z"/><path  d="m302.6 444.6q-2.6 2.6-5.2 0l-8-8q-2.6-2.6 0-5.2l8-8q2.6-2.6 5.2 0l8 8q2.6 2.6 0 5.2z"/><path  d="m369.3 444.6q-2.6 2.6-5.3 0l-7.9-8q-2.6-2.6 0-5.2l7.9-8q2.7-2.6 5.3 0l7.9 8q2.7 2.6 0 5.2z"/><path  d="m436 444.6q-2.7 2.6-5.3 0l-7.9-8q-2.7-2.6 0-5.2l7.9-8q2.6-2.6 5.3 0l7.9 8q2.6 2.6 0 5.2z"/><path  d="m502.6 444.6q-2.6 2.6-5.2 0l-8-8q-2.6-2.6 0-5.2l8-8q2.6-2.6 5.2 0l8 8q2.6 2.6 0 5.2z"/><path  d="m569.3 444.6q-2.6 2.6-5.3 0l-7.9-8q-2.6-2.6 0-5.2l7.9-8q2.7-2.6 5.3 0l7.9 8q2.7 2.6 0 5.2z"/><path  d="m636 444.6q-2.7 2.6-5.3 0l-7.9-8q-2.7-2.6 0-5.2l7.9-8q2.6-2.6 5.3 0l7.9 8q2.6 2.6 0 5.2z"/><path  d="m702.6 444.6q-2.6 2.6-5.2 0l-8-8q-2.6-2.6 0-5.2l8-8q2.6-2.6 5.2 0l8 8q2.6 2.6 0 5.2z"/><path  d="m769.3 444.6q-2.6 2.6-5.3 0l-7.9-8q-2.6-2.6 0-5.2l7.9-8q2.7-2.6 5.3 0l7.9 8q2.7 2.6 0 5.2z"/><path  d="m836 444.6q-2.7 2.6-5.3 0l-7.9-8q-2.7-2.6 0-5.2l7.9-8q2.6-2.6 5.3 0l7.9 8q2.6 2.6 0 5.2z"/><path  d="m902.6 444.6q-2.6 2.6-5.2 0l-8-8q-2.6-2.6 0-5.2l8-8q2.6-2.6 5.2 0l8 8q2.6 2.6 0 5.2z"/><path  d="m969.3 444.6q-2.6 2.6-5.3 0l-7.9-8q-2.6-2.6 0-5.2l7.9-8q2.7-2.6 5.3 0l7.9 8q2.7 2.6 0 5.2z"/><path  d="m1036 444.6q-2.7 2.6-5.3 0l-7.9-8q-2.7-2.6 0-5.2l7.9-8q2.6-2.6 5.3 0l7.9 8q2.6 2.6 0 5.2z"/><path  d="m1102.6 444.6q-2.6 2.6-5.2 0l-8-8q-2.6-2.6 0-5.2l8-8q2.6-2.6 5.2 0l8 8q2.6 2.6 0 5.2z"/><path  d="m1169.3 444.6q-2.6 2.6-5.3 0l-7.9-8q-2.6-2.6 0-5.2l7.9-8q2.7-2.6 5.3 0l7.9 8q2.7 2.6 0 5.2z"/><path  d="m1236 444.6q-2.7 2.6-5.3 0l-7.9-8q-2.7-2.6 0-5.2l7.9-8q2.6-2.6 5.3 0l7.9 8q2.6 2.6 0 5.2z"/><path  d="m1302.6 444.6q-2.6 2.6-5.2 0l-8-8q-2.6-2.6 0-5.2l8-8q2.6-2.6 5.2 0l8 8q2.6 2.6 0 5.2z"/><path  d="m36.5 379.8q-3.2 3.1-6.3 0l-9.3-9.3q-3.2-3.2 0-6.3l9.3-9.3q3.1-3.2 6.3 0l9.3 9.3q3.1 3.1 0 6.3z"/><path  d="m103.1 379.8q-3.1 3.1-6.2 0l-9.4-9.3q-3.1-3.2 0-6.3l9.4-9.3q3.1-3.2 6.2 0l9.4 9.3q3.1 3.1 0 6.3z"/><path  d="m169.8 379.8q-3.1 3.1-6.3 0l-9.3-9.3q-3.1-3.2 0-6.3l9.3-9.3q3.2-3.2 6.3 0l9.3 9.3q3.2 3.1 0 6.3z"/><path  d="m236.5 379.8q-3.2 3.1-6.3 0l-9.3-9.3q-3.2-3.2 0-6.3l9.3-9.3q3.1-3.2 6.3 0l9.3 9.3q3.1 3.1 0 6.3z"/><path  d="m303.1 379.8q-3.1 3.1-6.2 0l-9.4-9.3q-3.1-3.2 0-6.3l9.4-9.3q3.1-3.2 6.2 0l9.4 9.3q3.1 3.1 0 6.3z"/><path  d="m369.8 379.8q-3.1 3.1-6.3 0l-9.3-9.3q-3.1-3.2 0-6.3l9.3-9.3q3.2-3.2 6.3 0l9.3 9.3q3.2 3.1 0 6.3z"/><path  d="m436.5 379.8q-3.2 3.1-6.3 0l-9.3-9.3q-3.2-3.2 0-6.3l9.3-9.3q3.1-3.2 6.3 0l9.3 9.3q3.1 3.1 0 6.3z"/><path  d="m503.1 379.8q-3.1 3.1-6.2 0l-9.4-9.3q-3.1-3.2 0-6.3l9.4-9.3q3.1-3.2 6.2 0l9.4 9.3q3.1 3.1 0 6.3z"/><path  d="m569.8 379.8q-3.1 3.1-6.3 0l-9.3-9.3q-3.1-3.2 0-6.3l9.3-9.3q3.2-3.2 6.3 0l9.3 9.3q3.2 3.1 0 6.3z"/><path  d="m636.5 379.8q-3.2 3.1-6.3 0l-9.3-9.3q-3.2-3.2 0-6.3l9.3-9.3q3.1-3.2 6.3 0l9.3 9.3q3.1 3.1 0 6.3z"/><path  d="m703.1 379.8q-3.1 3.1-6.2 0l-9.4-9.3q-3.1-3.2 0-6.3l9.4-9.3q3.1-3.2 6.2 0l9.4 9.3q3.1 3.1 0 6.3z"/><path  d="m769.8 379.8q-3.1 3.1-6.3 0l-9.3-9.3q-3.1-3.2 0-6.3l9.3-9.3q3.2-3.2 6.3 0l9.3 9.3q3.2 3.1 0 6.3z"/><path  d="m836.5 379.8q-3.2 3.1-6.3 0l-9.3-9.3q-3.2-3.2 0-6.3l9.3-9.3q3.1-3.2 6.3 0l9.3 9.3q3.1 3.1 0 6.3z"/><path  d="m903.1 379.8q-3.1 3.1-6.2 0l-9.4-9.3q-3.1-3.2 0-6.3l9.4-9.3q3.1-3.2 6.2 0l9.4 9.3q3.1 3.1 0 6.3z"/><path  d="m969.8 379.8q-3.1 3.1-6.3 0l-9.3-9.3q-3.1-3.2 0-6.3l9.3-9.3q3.2-3.2 6.3 0l9.3 9.3q3.2 3.1 0 6.3z"/><path  d="m1036.5 379.8q-3.2 3.1-6.3 0l-9.3-9.3q-3.2-3.2 0-6.3l9.3-9.3q3.1-3.2 6.3 0l9.3 9.3q3.1 3.1 0 6.3z"/><path  d="m1103.1 379.8q-3.1 3.1-6.2 0l-9.4-9.3q-3.1-3.2 0-6.3l9.4-9.3q3.1-3.2 6.2 0l9.4 9.3q3.1 3.1 0 6.3z"/><path  d="m1169.8 379.8q-3.1 3.1-6.3 0l-9.3-9.3q-3.1-3.2 0-6.3l9.3-9.3q3.2-3.2 6.3 0l9.3 9.3q3.2 3.1 0 6.3z"/><path  d="m1236.5 379.8q-3.2 3.1-6.3 0l-9.3-9.3q-3.2-3.2 0-6.3l9.3-9.3q3.1-3.2 6.3 0l9.3 9.3q3.1 3.1 0 6.3z"/><path  d="m1303.1 379.8q-3.1 3.1-6.2 0l-9.4-9.3q-3.1-3.2 0-6.3l9.4-9.3q3.1-3.2 6.2 0l9.4 9.3q3.1 3.1 0 6.3z"/><path  d="m36.9 315.1q-3.6 3.6-7.2 0l-10.8-10.8q-3.6-3.6 0-7.2l10.8-10.8q3.6-3.6 7.2 0l10.8 10.8q3.6 3.6 0 7.2z"/><path  d="m103.6 315.1q-3.6 3.6-7.2 0l-10.8-10.8q-3.6-3.6 0-7.2l10.8-10.8q3.6-3.6 7.2 0l10.8 10.8q3.6 3.6 0 7.2z"/><path  d="m170.3 315.1q-3.6 3.6-7.2 0l-10.8-10.8q-3.6-3.6 0-7.2l10.8-10.8q3.6-3.6 7.2 0l10.8 10.8q3.6 3.6 0 7.2z"/><path  d="m236.9 315.1q-3.6 3.6-7.2 0l-10.8-10.8q-3.6-3.6 0-7.2l10.8-10.8q3.6-3.6 7.2 0l10.8 10.8q3.6 3.6 0 7.2z"/><path  d="m303.6 315.1q-3.6 3.6-7.2 0l-10.8-10.8q-3.6-3.6 0-7.2l10.8-10.8q3.6-3.6 7.2 0l10.8 10.8q3.6 3.6 0 7.2z"/><path  d="m370.3 315.1q-3.6 3.6-7.2 0l-10.8-10.8q-3.6-3.6 0-7.2l10.8-10.8q3.6-3.6 7.2 0l10.8 10.8q3.6 3.6 0 7.2z"/><path  d="m436.9 315.1q-3.6 3.6-7.2 0l-10.8-10.8q-3.6-3.6 0-7.2l10.8-10.8q3.6-3.6 7.2 0l10.8 10.8q3.6 3.6 0 7.2z"/><path  d="m503.6 315.1q-3.6 3.6-7.2 0l-10.8-10.8q-3.6-3.6 0-7.2l10.8-10.8q3.6-3.6 7.2 0l10.8 10.8q3.6 3.6 0 7.2z"/><path  d="m570.3 315.1q-3.6 3.6-7.2 0l-10.8-10.8q-3.6-3.6 0-7.2l10.8-10.8q3.6-3.6 7.2 0l10.8 10.8q3.6 3.6 0 7.2z"/><path  d="m636.9 315.1q-3.6 3.6-7.2 0l-10.8-10.8q-3.6-3.6 0-7.2l10.8-10.8q3.6-3.6 7.2 0l10.8 10.8q3.6 3.6 0 7.2z"/><path  d="m703.6 315.1q-3.6 3.6-7.2 0l-10.8-10.8q-3.6-3.6 0-7.2l10.8-10.8q3.6-3.6 7.2 0l10.8 10.8q3.6 3.6 0 7.2z"/><path  d="m770.3 315.1q-3.6 3.6-7.2 0l-10.8-10.8q-3.6-3.6 0-7.2l10.8-10.8q3.6-3.6 7.2 0l10.8 10.8q3.6 3.6 0 7.2z"/><path  d="m836.9 315.1q-3.6 3.6-7.2 0l-10.8-10.8q-3.6-3.6 0-7.2l10.8-10.8q3.6-3.6 7.2 0l10.8 10.8q3.6 3.6 0 7.2z"/><path  d="m903.6 315.1q-3.6 3.6-7.2 0l-10.8-10.8q-3.6-3.6 0-7.2l10.8-10.8q3.6-3.6 7.2 0l10.8 10.8q3.6 3.6 0 7.2z"/><path  d="m970.3 315.1q-3.6 3.6-7.2 0l-10.8-10.8q-3.6-3.6 0-7.2l10.8-10.8q3.6-3.6 7.2 0l10.8 10.8q3.6 3.6 0 7.2z"/><path  d="m1036.9 315.1q-3.6 3.6-7.2 0l-10.8-10.8q-3.6-3.6 0-7.2l10.8-10.8q3.6-3.6 7.2 0l10.8 10.8q3.6 3.6 0 7.2z"/><path  d="m1103.6 315.1q-3.6 3.6-7.2 0l-10.8-10.8q-3.6-3.6 0-7.2l10.8-10.8q3.6-3.6 7.2 0l10.8 10.8q3.6 3.6 0 7.2z"/><path  d="m1170.3 315.1q-3.6 3.6-7.2 0l-10.8-10.8q-3.6-3.6 0-7.2l10.8-10.8q3.6-3.6 7.2 0l10.8 10.8q3.6 3.6 0 7.2z"/><path  d="m1236.9 315.1q-3.6 3.6-7.2 0l-10.8-10.8q-3.6-3.6 0-7.2l10.8-10.8q3.6-3.6 7.2 0l10.8 10.8q3.6 3.6 0 7.2z"/><path  d="m1303.6 315.1q-3.6 3.6-7.2 0l-10.8-10.8q-3.6-3.6 0-7.2l10.8-10.8q3.6-3.6 7.2 0l10.8 10.8q3.6 3.6 0 7.2z"/><path  d="m37.4 250.3q-4.1 4.1-8.1 0l-12.3-12.2q-4.1-4.1 0-8.2l12.3-12.2q4-4.1 8.1 0l12.3 12.2q4 4.1 0 8.2z"/><path  d="m104.1 250.3q-4.1 4.1-8.2 0l-12.2-12.2q-4.1-4.1 0-8.2l12.2-12.2q4.1-4.1 8.2 0l12.2 12.2q4.1 4.1 0 8.2z"/><path  d="m170.7 250.3q-4 4.1-8.1 0l-12.3-12.2q-4-4.1 0-8.2l12.3-12.2q4.1-4.1 8.1 0l12.3 12.2q4.1 4.1 0 8.2z"/><path  d="m237.4 250.3q-4.1 4.1-8.1 0l-12.3-12.2q-4.1-4.1 0-8.2l12.3-12.2q4-4.1 8.1 0l12.3 12.2q4 4.1 0 8.2z"/><path  d="m304.1 250.3q-4.1 4.1-8.2 0l-12.2-12.2q-4.1-4.1 0-8.2l12.2-12.2q4.1-4.1 8.2 0l12.2 12.2q4.1 4.1 0 8.2z"/><path  d="m370.7 250.3q-4 4.1-8.1 0l-12.3-12.2q-4-4.1 0-8.2l12.3-12.2q4.1-4.1 8.1 0l12.3 12.2q4.1 4.1 0 8.2z"/><path  d="m437.4 250.3q-4.1 4.1-8.1 0l-12.3-12.2q-4.1-4.1 0-8.2l12.3-12.2q4-4.1 8.1 0l12.3 12.2q4 4.1 0 8.2z"/><path  d="m504.1 250.3q-4.1 4.1-8.2 0l-12.2-12.2q-4.1-4.1 0-8.2l12.2-12.2q4.1-4.1 8.2 0l12.2 12.2q4.1 4.1 0 8.2z"/><path  d="m570.7 250.3q-4 4.1-8.1 0l-12.3-12.2q-4-4.1 0-8.2l12.3-12.2q4.1-4.1 8.1 0l12.3 12.2q4.1 4.1 0 8.2z"/><path  d="m637.4 250.3q-4.1 4.1-8.1 0l-12.3-12.2q-4.1-4.1 0-8.2l12.3-12.2q4-4.1 8.1 0l12.3 12.2q4 4.1 0 8.2z"/><path  d="m704.1 250.3q-4.1 4.1-8.2 0l-12.2-12.2q-4.1-4.1 0-8.2l12.2-12.2q4.1-4.1 8.2 0l12.2 12.2q4.1 4.1 0 8.2z"/><path  d="m770.7 250.3q-4 4.1-8.1 0l-12.3-12.2q-4-4.1 0-8.2l12.3-12.2q4.1-4.1 8.1 0l12.3 12.2q4.1 4.1 0 8.2z"/><path  d="m837.4 250.3q-4.1 4.1-8.1 0l-12.3-12.2q-4.1-4.1 0-8.2l12.3-12.2q4-4.1 8.1 0l12.3 12.2q4 4.1 0 8.2z"/><path  d="m904.1 250.3q-4.1 4.1-8.2 0l-12.2-12.2q-4.1-4.1 0-8.2l12.2-12.2q4.1-4.1 8.2 0l12.2 12.2q4.1 4.1 0 8.2z"/><path  d="m970.7 250.3q-4 4.1-8.1 0l-12.3-12.2q-4-4.1 0-8.2l12.3-12.2q4.1-4.1 8.1 0l12.3 12.2q4.1 4.1 0 8.2z"/><path  d="m1037.4 250.3q-4.1 4.1-8.1 0l-12.3-12.2q-4.1-4.1 0-8.2l12.3-12.2q4-4.1 8.1 0l12.3 12.2q4 4.1 0 8.2z"/><path  d="m1104.1 250.3q-4.1 4.1-8.2 0l-12.2-12.2q-4.1-4.1 0-8.2l12.2-12.2q4.1-4.1 8.2 0l12.2 12.2q4.1 4.1 0 8.2z"/><path  d="m1170.7 250.3q-4 4.1-8.1 0l-12.3-12.2q-4-4.1 0-8.2l12.3-12.2q4.1-4.1 8.1 0l12.3 12.2q4.1 4.1 0 8.2z"/><path  d="m1237.4 250.3q-4.1 4.1-8.1 0l-12.3-12.2q-4.1-4.1 0-8.2l12.3-12.2q4-4.1 8.1 0l12.3 12.2q4 4.1 0 8.2z"/><path  d="m1304.1 250.3q-4.1 4.1-8.2 0l-12.2-12.2q-4.1-4.1 0-8.2l12.2-12.2q4.1-4.1 8.2 0l12.2 12.2q4.1 4.1 0 8.2z"/><path  d="m37.9 185.6q-4.6 4.5-9.1 0l-13.7-13.7q-4.6-4.6 0-9.1l13.7-13.7q4.5-4.6 9.1 0l13.7 13.7q4.5 4.5 0 9.1z"/><path  d="m104.6 185.6q-4.6 4.5-9.2 0l-13.6-13.7q-4.6-4.6 0-9.1l13.6-13.7q4.6-4.6 9.2 0l13.6 13.7q4.6 4.5 0 9.1z"/><path  d="m171.2 185.6q-4.5 4.5-9.1 0l-13.7-13.7q-4.5-4.6 0-9.1l13.7-13.7q4.6-4.6 9.1 0l13.7 13.7q4.6 4.5 0 9.1z"/><path  d="m237.9 185.6q-4.6 4.5-9.1 0l-13.7-13.7q-4.6-4.6 0-9.1l13.7-13.7q4.5-4.6 9.1 0l13.7 13.7q4.5 4.5 0 9.1z"/><path  d="m304.6 185.6q-4.6 4.5-9.2 0l-13.6-13.7q-4.6-4.6 0-9.1l13.6-13.7q4.6-4.6 9.2 0l13.6 13.7q4.6 4.5 0 9.1z"/><path  d="m371.2 185.6q-4.5 4.5-9.1 0l-13.7-13.7q-4.5-4.6 0-9.1l13.7-13.7q4.6-4.6 9.1 0l13.7 13.7q4.6 4.5 0 9.1z"/><path  d="m437.9 185.6q-4.6 4.5-9.1 0l-13.7-13.7q-4.6-4.6 0-9.1l13.7-13.7q4.5-4.6 9.1 0l13.7 13.7q4.5 4.5 0 9.1z"/><path  d="m504.6 185.6q-4.6 4.5-9.2 0l-13.6-13.7q-4.6-4.6 0-9.1l13.6-13.7q4.6-4.6 9.2 0l13.6 13.7q4.6 4.5 0 9.1z"/><path  d="m571.2 185.6q-4.5 4.5-9.1 0l-13.7-13.7q-4.5-4.6 0-9.1l13.7-13.7q4.6-4.6 9.1 0l13.7 13.7q4.6 4.5 0 9.1z"/><path  d="m637.9 185.6q-4.6 4.5-9.1 0l-13.7-13.7q-4.6-4.6 0-9.1l13.7-13.7q4.5-4.6 9.1 0l13.7 13.7q4.5 4.5 0 9.1z"/><path  d="m704.6 185.6q-4.6 4.5-9.2 0l-13.6-13.7q-4.6-4.6 0-9.1l13.6-13.7q4.6-4.6 9.2 0l13.6 13.7q4.6 4.5 0 9.1z"/><path  d="m771.2 185.6q-4.5 4.5-9.1 0l-13.7-13.7q-4.5-4.6 0-9.1l13.7-13.7q4.6-4.6 9.1 0l13.7 13.7q4.6 4.5 0 9.1z"/><path  d="m837.9 185.6q-4.6 4.5-9.1 0l-13.7-13.7q-4.6-4.6 0-9.1l13.7-13.7q4.5-4.6 9.1 0l13.7 13.7q4.5 4.5 0 9.1z"/><path  d="m904.6 185.6q-4.6 4.5-9.2 0l-13.6-13.7q-4.6-4.6 0-9.1l13.6-13.7q4.6-4.6 9.2 0l13.6 13.7q4.6 4.5 0 9.1z"/><path  d="m971.2 185.6q-4.5 4.5-9.1 0l-13.7-13.7q-4.5-4.6 0-9.1l13.7-13.7q4.6-4.6 9.1 0l13.7 13.7q4.6 4.5 0 9.1z"/><path  d="m1037.9 185.6q-4.6 4.5-9.1 0l-13.7-13.7q-4.6-4.6 0-9.1l13.7-13.7q4.5-4.6 9.1 0l13.7 13.7q4.5 4.5 0 9.1z"/><path  d="m1104.6 185.6q-4.6 4.5-9.2 0l-13.6-13.7q-4.6-4.6 0-9.1l13.6-13.7q4.6-4.6 9.2 0l13.6 13.7q4.6 4.5 0 9.1z"/><path  d="m1171.2 185.6q-4.5 4.5-9.1 0l-13.7-13.7q-4.5-4.6 0-9.1l13.7-13.7q4.6-4.6 9.1 0l13.7 13.7q4.6 4.5 0 9.1z"/><path  d="m1237.9 185.6q-4.6 4.5-9.1 0l-13.7-13.7q-4.6-4.6 0-9.1l13.7-13.7q4.5-4.6 9.1 0l13.7 13.7q4.5 4.5 0 9.1z"/><path  d="m1304.6 185.6q-4.6 4.5-9.2 0l-13.6-13.7q-4.6-4.6 0-9.1l13.6-13.7q4.6-4.6 9.2 0l13.6 13.7q4.6 4.5 0 9.1z"/><path  d="m38.4 120.8q-5.1 5.1-10.1 0l-15.1-15.1q-5.1-5 0-10.1l15.1-15.1q5-5 10.1 0l15.1 15.1q5 5.1 0 10.1z"/><path  d="m105 120.8q-5 5.1-10 0l-15.2-15.1q-5-5 0-10.1l15.2-15.1q5-5 10 0l15.2 15.1q5 5.1 0 10.1z"/><path  d="m171.7 120.8q-5 5.1-10.1 0l-15.1-15.1q-5-5 0-10.1l15.1-15.1q5.1-5 10.1 0l15.1 15.1q5.1 5.1 0 10.1z"/><path  d="m238.4 120.8q-5.1 5.1-10.1 0l-15.1-15.1q-5.1-5 0-10.1l15.1-15.1q5-5 10.1 0l15.1 15.1q5 5.1 0 10.1z"/><path  d="m305 120.8q-5 5.1-10 0l-15.2-15.1q-5-5 0-10.1l15.2-15.1q5-5 10 0l15.2 15.1q5 5.1 0 10.1z"/><path  d="m371.7 120.8q-5 5.1-10.1 0l-15.1-15.1q-5-5 0-10.1l15.1-15.1q5.1-5 10.1 0l15.1 15.1q5.1 5.1 0 10.1z"/><path  d="m438.4 120.8q-5.1 5.1-10.1 0l-15.1-15.1q-5.1-5 0-10.1l15.1-15.1q5-5 10.1 0l15.1 15.1q5 5.1 0 10.1z"/><path  d="m505 120.8q-5 5.1-10 0l-15.2-15.1q-5-5 0-10.1l15.2-15.1q5-5 10 0l15.2 15.1q5 5.1 0 10.1z"/><path  d="m571.7 120.8q-5 5.1-10.1 0l-15.1-15.1q-5-5 0-10.1l15.1-15.1q5.1-5 10.1 0l15.1 15.1q5.1 5.1 0 10.1z"/><path  d="m638.4 120.8q-5.1 5.1-10.1 0l-15.1-15.1q-5.1-5 0-10.1l15.1-15.1q5-5 10.1 0l15.1 15.1q5 5.1 0 10.1z"/><path  d="m705 120.8q-5 5.1-10 0l-15.2-15.1q-5-5 0-10.1l15.2-15.1q5-5 10 0l15.2 15.1q5 5.1 0 10.1z"/><path  d="m771.7 120.8q-5 5.1-10.1 0l-15.1-15.1q-5-5 0-10.1l15.1-15.1q5.1-5 10.1 0l15.1 15.1q5.1 5.1 0 10.1z"/><path  d="m838.4 120.8q-5.1 5.1-10.1 0l-15.1-15.1q-5.1-5 0-10.1l15.1-15.1q5-5 10.1 0l15.1 15.1q5 5.1 0 10.1z"/><path  d="m905 120.8q-5 5.1-10 0l-15.2-15.1q-5-5 0-10.1l15.2-15.1q5-5 10 0l15.2 15.1q5 5.1 0 10.1z"/><path  d="m971.7 120.8q-5 5.1-10.1 0l-15.1-15.1q-5-5 0-10.1l15.1-15.1q5.1-5 10.1 0l15.1 15.1q5.1 5.1 0 10.1z"/><path  d="m1038.4 120.8q-5.1 5.1-10.1 0l-15.1-15.1q-5.1-5 0-10.1l15.1-15.1q5-5 10.1 0l15.1 15.1q5 5.1 0 10.1z"/><path  d="m1105 120.8q-5 5.1-10 0l-15.2-15.1q-5-5 0-10.1l15.2-15.1q5-5 10 0l15.2 15.1q5 5.1 0 10.1z"/><path  d="m1171.7 120.8q-5 5.1-10.1 0l-15.1-15.1q-5-5 0-10.1l15.1-15.1q5.1-5 10.1 0l15.1 15.1q5.1 5.1 0 10.1z"/><path  d="m1238.4 120.8q-5.1 5.1-10.1 0l-15.1-15.1q-5.1-5 0-10.1l15.1-15.1q5-5 10.1 0l15.1 15.1q5 5.1 0 10.1z"/><path  d="m1305 120.8q-5 5.1-10 0l-15.2-15.1q-5-5 0-10.1l15.2-15.1q5-5 10 0l15.2 15.1q5 5.1 0 10.1z"/><path  d="m38.9 56.1q-5.6 5.5-11.1 0l-16.5-16.6q-5.6-5.5 0-11l16.5-16.6q5.5-5.5 11.1 0l16.5 16.6q5.5 5.5 0 11z"/><path  d="m105.5 56.1q-5.5 5.5-11 0l-16.6-16.6q-5.5-5.5 0-11l16.6-16.6q5.5-5.5 11 0l16.6 16.6q5.5 5.5 0 11z"/><path  d="m172.2 56.1q-5.5 5.5-11.1 0l-16.5-16.6q-5.5-5.5 0-11l16.5-16.6q5.6-5.5 11.1 0l16.5 16.6q5.6 5.5 0 11z"/><path  d="m238.9 56.1q-5.6 5.5-11.1 0l-16.5-16.6q-5.6-5.5 0-11l16.5-16.6q5.5-5.5 11.1 0l16.5 16.6q5.5 5.5 0 11z"/><path  d="m305.5 56.1q-5.5 5.5-11 0l-16.6-16.6q-5.5-5.5 0-11l16.6-16.6q5.5-5.5 11 0l16.6 16.6q5.5 5.5 0 11z"/><path  d="m372.2 56.1q-5.5 5.5-11.1 0l-16.5-16.6q-5.5-5.5 0-11l16.5-16.6q5.6-5.5 11.1 0l16.5 16.6q5.6 5.5 0 11z"/><path  d="m438.9 56.1q-5.6 5.5-11.1 0l-16.5-16.6q-5.6-5.5 0-11l16.5-16.6q5.5-5.5 11.1 0l16.5 16.6q5.5 5.5 0 11z"/><path  d="m505.5 56.1q-5.5 5.5-11 0l-16.6-16.6q-5.5-5.5 0-11l16.6-16.6q5.5-5.5 11 0l16.6 16.6q5.5 5.5 0 11z"/><path  d="m572.2 56.1q-5.5 5.5-11.1 0l-16.5-16.6q-5.5-5.5 0-11l16.5-16.6q5.6-5.5 11.1 0l16.5 16.6q5.6 5.5 0 11z"/><path  d="m638.9 56.1q-5.6 5.5-11.1 0l-16.5-16.6q-5.6-5.5 0-11l16.5-16.6q5.5-5.5 11.1 0l16.5 16.6q5.5 5.5 0 11z"/><path  d="m705.5 56.1q-5.5 5.5-11 0l-16.6-16.6q-5.5-5.5 0-11l16.6-16.6q5.5-5.5 11 0l16.6 16.6q5.5 5.5 0 11z"/><path  d="m772.2 56.1q-5.5 5.5-11.1 0l-16.5-16.6q-5.5-5.5 0-11l16.5-16.6q5.6-5.5 11.1 0l16.5 16.6q5.6 5.5 0 11z"/><path  d="m838.9 56.1q-5.6 5.5-11.1 0l-16.5-16.6q-5.6-5.5 0-11l16.5-16.6q5.5-5.5 11.1 0l16.5 16.6q5.5 5.5 0 11z"/><path  d="m905.5 56.1q-5.5 5.5-11 0l-16.6-16.6q-5.5-5.5 0-11l16.6-16.6q5.5-5.5 11 0l16.6 16.6q5.5 5.5 0 11z"/><path  d="m972.2 56.1q-5.5 5.5-11.1 0l-16.5-16.6q-5.5-5.5 0-11l16.5-16.6q5.6-5.5 11.1 0l16.5 16.6q5.6 5.5 0 11z"/><path  d="m1038.9 56.1q-5.6 5.5-11.1 0l-16.5-16.6q-5.6-5.5 0-11l16.5-16.6q5.5-5.5 11.1 0l16.5 16.6q5.5 5.5 0 11z"/><path  d="m1105.5 56.1q-5.5 5.5-11 0l-16.6-16.6q-5.5-5.5 0-11l16.6-16.6q5.5-5.5 11 0l16.6 16.6q5.5 5.5 0 11z"/><path  d="m1172.2 56.1q-5.5 5.5-11.1 0l-16.5-16.6q-5.5-5.5 0-11l16.5-16.6q5.6-5.5 11.1 0l16.5 16.6q5.6 5.5 0 11z"/><path  d="m1238.9 56.1q-5.6 5.5-11.1 0l-16.5-16.6q-5.6-5.5 0-11l16.5-16.6q5.5-5.5 11.1 0l16.5 16.6q5.5 5.5 0 11z"/><path  d="m1305.5 56.1q-5.5 5.5-11 0l-16.6-16.6q-5.5-5.5 0-11l16.6-16.6q5.5-5.5 11 0l16.6 16.6q5.5 5.5 0 11z"/><path  d="m6.4 1359.6q-6.4 6.4-12.8 0l-19.2-19.2q-6.4-6.4 0-12.8l19.2-19.2q6.4-6.4 12.8 0l19.2 19.2q6.4 6.4 0 12.8z"/><path  d="m73.1 1359.6q-6.4 6.4-12.8 0l-19.2-19.2q-6.4-6.4 0-12.8l19.2-19.2q6.4-6.4 12.8 0l19.2 19.2q6.4 6.4 0 12.8z"/><path  d="m139.7 1359.6q-6.4 6.4-12.8 0l-19.2-19.2q-6.4-6.4 0-12.8l19.2-19.2q6.4-6.4 12.8 0l19.2 19.2q6.4 6.4 0 12.8z"/><path  d="m206.4 1359.6q-6.4 6.4-12.8 0l-19.2-19.2q-6.4-6.4 0-12.8l19.2-19.2q6.4-6.4 12.8 0l19.2 19.2q6.4 6.4 0 12.8z"/><path  d="m273.1 1359.6q-6.4 6.4-12.8 0l-19.2-19.2q-6.4-6.4 0-12.8l19.2-19.2q6.4-6.4 12.8 0l19.2 19.2q6.4 6.4 0 12.8z"/><path  d="m339.7 1359.6q-6.4 6.4-12.8 0l-19.2-19.2q-6.4-6.4 0-12.8l19.2-19.2q6.4-6.4 12.8 0l19.2 19.2q6.4 6.4 0 12.8z"/><path  d="m406.4 1359.6q-6.4 6.4-12.8 0l-19.2-19.2q-6.4-6.4 0-12.8l19.2-19.2q6.4-6.4 12.8 0l19.2 19.2q6.4 6.4 0 12.8z"/><path  d="m473.1 1359.6q-6.4 6.4-12.8 0l-19.2-19.2q-6.4-6.4 0-12.8l19.2-19.2q6.4-6.4 12.8 0l19.2 19.2q6.4 6.4 0 12.8z"/><path  d="m539.7 1359.6q-6.4 6.4-12.8 0l-19.2-19.2q-6.4-6.4 0-12.8l19.2-19.2q6.4-6.4 12.8 0l19.2 19.2q6.4 6.4 0 12.8z"/><path  d="m606.4 1359.6q-6.4 6.4-12.8 0l-19.2-19.2q-6.4-6.4 0-12.8l19.2-19.2q6.4-6.4 12.8 0l19.2 19.2q6.4 6.4 0 12.8z"/><path  d="m673.1 1359.6q-6.4 6.4-12.8 0l-19.2-19.2q-6.4-6.4 0-12.8l19.2-19.2q6.4-6.4 12.8 0l19.2 19.2q6.4 6.4 0 12.8z"/><path  d="m739.7 1359.6q-6.4 6.4-12.8 0l-19.2-19.2q-6.4-6.4 0-12.8l19.2-19.2q6.4-6.4 12.8 0l19.2 19.2q6.4 6.4 0 12.8z"/><path  d="m806.4 1359.6q-6.4 6.4-12.8 0l-19.2-19.2q-6.4-6.4 0-12.8l19.2-19.2q6.4-6.4 12.8 0l19.2 19.2q6.4 6.4 0 12.8z"/><path  d="m873.1 1359.6q-6.4 6.4-12.8 0l-19.2-19.2q-6.4-6.4 0-12.8l19.2-19.2q6.4-6.4 12.8 0l19.2 19.2q6.4 6.4 0 12.8z"/><path  d="m939.7 1359.6q-6.4 6.4-12.8 0l-19.2-19.2q-6.4-6.4 0-12.8l19.2-19.2q6.4-6.4 12.8 0l19.2 19.2q6.4 6.4 0 12.8z"/><path  d="m1006.4 1359.6q-6.4 6.4-12.8 0l-19.2-19.2q-6.4-6.4 0-12.8l19.2-19.2q6.4-6.4 12.8 0l19.2 19.2q6.4 6.4 0 12.8z"/><path  d="m1073.1 1359.6q-6.4 6.4-12.8 0l-19.2-19.2q-6.4-6.4 0-12.8l19.2-19.2q6.4-6.4 12.8 0l19.2 19.2q6.4 6.4 0 12.8z"/><path  d="m1139.7 1359.6q-6.4 6.4-12.8 0l-19.2-19.2q-6.4-6.4 0-12.8l19.2-19.2q6.4-6.4 12.8 0l19.2 19.2q6.4 6.4 0 12.8z"/><path  d="m1206.4 1359.6q-6.4 6.4-12.8 0l-19.2-19.2q-6.4-6.4 0-12.8l19.2-19.2q6.4-6.4 12.8 0l19.2 19.2q6.4 6.4 0 12.8z"/><path  d="m1273.1 1359.6q-6.4 6.4-12.8 0l-19.2-19.2q-6.4-6.4 0-12.8l19.2-19.2q6.4-6.4 12.8 0l19.2 19.2q6.4 6.4 0 12.8z"/><path  d="m1339.7 1359.6q-6.4 6.4-12.8 0l-19.2-19.2q-6.4-6.4 0-12.8l19.2-19.2q6.4-6.4 12.8 0l19.2 19.2q6.4 6.4 0 12.8z"/><path  d="m5.9 1290.8q-5.9 5.9-11.8 0l-17.6-17.6q-5.8-5.9 0-11.7l17.6-17.6q5.9-5.9 11.8 0l17.6 17.6q5.8 5.8 0 11.7z"/><path  d="m72.5 1290.8q-5.8 5.9-11.7 0l-17.6-17.6q-5.9-5.9 0-11.7l17.6-17.6q5.9-5.9 11.7 0l17.6 17.6q5.9 5.8 0 11.7z"/><path  d="m139.2 1290.8q-5.9 5.9-11.7 0l-17.6-17.6q-5.9-5.9 0-11.7l17.6-17.6q5.8-5.9 11.7 0l17.6 17.6q5.9 5.8 0 11.7z"/><path  d="m205.9 1290.8q-5.9 5.9-11.8 0l-17.6-17.6q-5.8-5.9 0-11.7l17.6-17.6q5.9-5.9 11.8 0l17.6 17.6q5.8 5.8 0 11.7z"/><path  d="m272.5 1290.8q-5.8 5.9-11.7 0l-17.6-17.6q-5.9-5.9 0-11.7l17.6-17.6q5.9-5.9 11.7 0l17.6 17.6q5.9 5.8 0 11.7z"/><path  d="m339.2 1290.8q-5.9 5.9-11.7 0l-17.6-17.6q-5.9-5.9 0-11.7l17.6-17.6q5.8-5.9 11.7 0l17.6 17.6q5.9 5.8 0 11.7z"/><path  d="m405.9 1290.8q-5.9 5.9-11.8 0l-17.6-17.6q-5.8-5.9 0-11.7l17.6-17.6q5.9-5.9 11.8 0l17.6 17.6q5.8 5.8 0 11.7z"/><path  d="m472.5 1290.8q-5.8 5.9-11.7 0l-17.6-17.6q-5.9-5.9 0-11.7l17.6-17.6q5.9-5.9 11.7 0l17.6 17.6q5.9 5.8 0 11.7z"/><path  d="m539.2 1290.8q-5.9 5.9-11.7 0l-17.6-17.6q-5.9-5.9 0-11.7l17.6-17.6q5.8-5.9 11.7 0l17.6 17.6q5.9 5.8 0 11.7z"/><path  d="m605.9 1290.8q-5.9 5.9-11.8 0l-17.6-17.6q-5.8-5.9 0-11.7l17.6-17.6q5.9-5.9 11.8 0l17.6 17.6q5.8 5.8 0 11.7z"/><path  d="m672.5 1290.8q-5.8 5.9-11.7 0l-17.6-17.6q-5.9-5.9 0-11.7l17.6-17.6q5.9-5.9 11.7 0l17.6 17.6q5.9 5.8 0 11.7z"/><path  d="m739.2 1290.8q-5.9 5.9-11.7 0l-17.6-17.6q-5.9-5.9 0-11.7l17.6-17.6q5.8-5.9 11.7 0l17.6 17.6q5.9 5.8 0 11.7z"/><path  d="m805.9 1290.8q-5.9 5.9-11.8 0l-17.6-17.6q-5.8-5.9 0-11.7l17.6-17.6q5.9-5.9 11.8 0l17.6 17.6q5.8 5.8 0 11.7z"/><path  d="m872.5 1290.8q-5.8 5.9-11.7 0l-17.6-17.6q-5.9-5.9 0-11.7l17.6-17.6q5.9-5.9 11.7 0l17.6 17.6q5.9 5.8 0 11.7z"/><path  d="m939.2 1290.8q-5.9 5.9-11.7 0l-17.6-17.6q-5.9-5.9 0-11.7l17.6-17.6q5.8-5.9 11.7 0l17.6 17.6q5.9 5.8 0 11.7z"/><path  d="m1005.9 1290.8q-5.9 5.9-11.8 0l-17.6-17.6q-5.8-5.9 0-11.7l17.6-17.6q5.9-5.9 11.8 0l17.6 17.6q5.8 5.8 0 11.7z"/><path  d="m1072.5 1290.8q-5.8 5.9-11.7 0l-17.6-17.6q-5.9-5.9 0-11.7l17.6-17.6q5.9-5.9 11.7 0l17.6 17.6q5.9 5.8 0 11.7z"/><path  d="m1139.2 1290.8q-5.9 5.9-11.7 0l-17.6-17.6q-5.9-5.9 0-11.7l17.6-17.6q5.8-5.9 11.7 0l17.6 17.6q5.9 5.8 0 11.7z"/><path  d="m1205.9 1290.8q-5.9 5.9-11.8 0l-17.6-17.6q-5.8-5.9 0-11.7l17.6-17.6q5.9-5.9 11.8 0l17.6 17.6q5.8 5.8 0 11.7z"/><path  d="m1272.5 1290.8q-5.8 5.9-11.7 0l-17.6-17.6q-5.9-5.9 0-11.7l17.6-17.6q5.9-5.9 11.7 0l17.6 17.6q5.9 5.8 0 11.7z"/><path  d="m1339.2 1290.8q-5.9 5.9-11.7 0l-17.6-17.6q-5.9-5.9 0-11.7l17.6-17.6q5.8-5.9 11.7 0l17.6 17.6q5.9 5.8 0 11.7z"/><path  d="m5.3 1222q-5.3 5.3-10.6 0l-16-16q-5.4-5.3 0-10.7l16-16q5.3-5.3 10.6 0l16 16q5.4 5.4 0 10.7z"/><path  d="m72 1222q-5.3 5.3-10.7 0l-16-16q-5.3-5.3 0-10.7l16-16q5.4-5.3 10.7 0l16 16q5.3 5.4 0 10.7z"/><path  d="m138.7 1222q-5.4 5.3-10.7 0l-16-16q-5.3-5.3 0-10.7l16-16q5.3-5.3 10.7 0l16 16q5.3 5.4 0 10.7z"/><path  d="m205.3 1222q-5.3 5.3-10.6 0l-16-16q-5.4-5.3 0-10.7l16-16q5.3-5.3 10.6 0l16 16q5.4 5.4 0 10.7z"/><path  d="m272 1222q-5.3 5.3-10.7 0l-16-16q-5.3-5.3 0-10.7l16-16q5.4-5.3 10.7 0l16 16q5.3 5.4 0 10.7z"/><path  d="m338.7 1222q-5.4 5.3-10.7 0l-16-16q-5.3-5.3 0-10.7l16-16q5.3-5.3 10.7 0l16 16q5.3 5.4 0 10.7z"/><path  d="m405.3 1222q-5.3 5.3-10.6 0l-16-16q-5.4-5.3 0-10.7l16-16q5.3-5.3 10.6 0l16 16q5.4 5.4 0 10.7z"/><path  d="m472 1222q-5.3 5.3-10.7 0l-16-16q-5.3-5.3 0-10.7l16-16q5.4-5.3 10.7 0l16 16q5.3 5.4 0 10.7z"/><path  d="m538.7 1222q-5.4 5.3-10.7 0l-16-16q-5.3-5.3 0-10.7l16-16q5.3-5.3 10.7 0l16 16q5.3 5.4 0 10.7z"/><path  d="m605.3 1222q-5.3 5.3-10.6 0l-16-16q-5.4-5.3 0-10.7l16-16q5.3-5.3 10.6 0l16 16q5.4 5.4 0 10.7z"/><path  d="m672 1222q-5.3 5.3-10.7 0l-16-16q-5.3-5.3 0-10.7l16-16q5.4-5.3 10.7 0l16 16q5.3 5.4 0 10.7z"/><path  d="m738.7 1222q-5.4 5.3-10.7 0l-16-16q-5.3-5.3 0-10.7l16-16q5.3-5.3 10.7 0l16 16q5.3 5.4 0 10.7z"/><path  d="m805.3 1222q-5.3 5.3-10.6 0l-16-16q-5.4-5.3 0-10.7l16-16q5.3-5.3 10.6 0l16 16q5.4 5.4 0 10.7z"/><path  d="m872 1222q-5.3 5.3-10.7 0l-16-16q-5.3-5.3 0-10.7l16-16q5.4-5.3 10.7 0l16 16q5.3 5.4 0 10.7z"/><path  d="m938.7 1222q-5.4 5.3-10.7 0l-16-16q-5.3-5.3 0-10.7l16-16q5.3-5.3 10.7 0l16 16q5.3 5.4 0 10.7z"/><path  d="m1005.3 1222q-5.3 5.3-10.6 0l-16-16q-5.4-5.3 0-10.7l16-16q5.3-5.3 10.6 0l16 16q5.4 5.4 0 10.7z"/><path  d="m1072 1222q-5.3 5.3-10.7 0l-16-16q-5.3-5.3 0-10.7l16-16q5.4-5.3 10.7 0l16 16q5.3 5.4 0 10.7z"/><path  d="m1138.7 1222q-5.4 5.3-10.7 0l-16-16q-5.3-5.3 0-10.7l16-16q5.3-5.3 10.7 0l16 16q5.3 5.4 0 10.7z"/><path  d="m1205.3 1222q-5.3 5.3-10.6 0l-16-16q-5.4-5.3 0-10.7l16-16q5.3-5.3 10.6 0l16 16q5.4 5.4 0 10.7z"/><path  d="m1272 1222q-5.3 5.3-10.7 0l-16-16q-5.3-5.3 0-10.7l16-16q5.4-5.3 10.7 0l16 16q5.3 5.4 0 10.7z"/><path  d="m1338.7 1222q-5.4 5.3-10.7 0l-16-16q-5.3-5.3 0-10.7l16-16q5.3-5.3 10.7 0l16 16q5.3 5.4 0 10.7z"/><path  d="m4.8 1153.2q-4.8 4.8-9.6 0l-14.4-14.4q-4.8-4.8 0-9.6l14.4-14.4q4.8-4.8 9.6 0l14.4 14.4q4.8 4.8 0 9.6z"/><path  d="m71.5 1153.2q-4.8 4.8-9.6 0l-14.4-14.4q-4.8-4.8 0-9.6l14.4-14.4q4.8-4.8 9.6 0l14.4 14.4q4.8 4.8 0 9.6z"/><path  d="m138.1 1153.2q-4.8 4.8-9.6 0l-14.4-14.4q-4.8-4.8 0-9.6l14.4-14.4q4.8-4.8 9.6 0l14.4 14.4q4.8 4.8 0 9.6z"/><path  d="m204.8 1153.2q-4.8 4.8-9.6 0l-14.4-14.4q-4.8-4.8 0-9.6l14.4-14.4q4.8-4.8 9.6 0l14.4 14.4q4.8 4.8 0 9.6z"/><path  d="m271.5 1153.2q-4.8 4.8-9.6 0l-14.4-14.4q-4.8-4.8 0-9.6l14.4-14.4q4.8-4.8 9.6 0l14.4 14.4q4.8 4.8 0 9.6z"/><path  d="m338.1 1153.2q-4.8 4.8-9.6 0l-14.4-14.4q-4.8-4.8 0-9.6l14.4-14.4q4.8-4.8 9.6 0l14.4 14.4q4.8 4.8 0 9.6z"/><path  d="m404.8 1153.2q-4.8 4.8-9.6 0l-14.4-14.4q-4.8-4.8 0-9.6l14.4-14.4q4.8-4.8 9.6 0l14.4 14.4q4.8 4.8 0 9.6z"/><path  d="m471.5 1153.2q-4.8 4.8-9.6 0l-14.4-14.4q-4.8-4.8 0-9.6l14.4-14.4q4.8-4.8 9.6 0l14.4 14.4q4.8 4.8 0 9.6z"/><path  d="m538.1 1153.2q-4.8 4.8-9.6 0l-14.4-14.4q-4.8-4.8 0-9.6l14.4-14.4q4.8-4.8 9.6 0l14.4 14.4q4.8 4.8 0 9.6z"/><path  d="m604.8 1153.2q-4.8 4.8-9.6 0l-14.4-14.4q-4.8-4.8 0-9.6l14.4-14.4q4.8-4.8 9.6 0l14.4 14.4q4.8 4.8 0 9.6z"/><path  d="m671.5 1153.2q-4.8 4.8-9.6 0l-14.4-14.4q-4.8-4.8 0-9.6l14.4-14.4q4.8-4.8 9.6 0l14.4 14.4q4.8 4.8 0 9.6z"/><path  d="m738.1 1153.2q-4.8 4.8-9.6 0l-14.4-14.4q-4.8-4.8 0-9.6l14.4-14.4q4.8-4.8 9.6 0l14.4 14.4q4.8 4.8 0 9.6z"/><path  d="m804.8 1153.2q-4.8 4.8-9.6 0l-14.4-14.4q-4.8-4.8 0-9.6l14.4-14.4q4.8-4.8 9.6 0l14.4 14.4q4.8 4.8 0 9.6z"/><path  d="m871.5 1153.2q-4.8 4.8-9.6 0l-14.4-14.4q-4.8-4.8 0-9.6l14.4-14.4q4.8-4.8 9.6 0l14.4 14.4q4.8 4.8 0 9.6z"/><path  d="m938.1 1153.2q-4.8 4.8-9.6 0l-14.4-14.4q-4.8-4.8 0-9.6l14.4-14.4q4.8-4.8 9.6 0l14.4 14.4q4.8 4.8 0 9.6z"/><path  d="m1004.8 1153.2q-4.8 4.8-9.6 0l-14.4-14.4q-4.8-4.8 0-9.6l14.4-14.4q4.8-4.8 9.6 0l14.4 14.4q4.8 4.8 0 9.6z"/><path  d="m1071.5 1153.2q-4.8 4.8-9.6 0l-14.4-14.4q-4.8-4.8 0-9.6l14.4-14.4q4.8-4.8 9.6 0l14.4 14.4q4.8 4.8 0 9.6z"/><path  d="m1138.1 1153.2q-4.8 4.8-9.6 0l-14.4-14.4q-4.8-4.8 0-9.6l14.4-14.4q4.8-4.8 9.6 0l14.4 14.4q4.8 4.8 0 9.6z"/><path  d="m1204.8 1153.2q-4.8 4.8-9.6 0l-14.4-14.4q-4.8-4.8 0-9.6l14.4-14.4q4.8-4.8 9.6 0l14.4 14.4q4.8 4.8 0 9.6z"/><path  d="m1271.5 1153.2q-4.8 4.8-9.6 0l-14.4-14.4q-4.8-4.8 0-9.6l14.4-14.4q4.8-4.8 9.6 0l14.4 14.4q4.8 4.8 0 9.6z"/><path  d="m1338.1 1153.2q-4.8 4.8-9.6 0l-14.4-14.4q-4.8-4.8 0-9.6l14.4-14.4q4.8-4.8 9.6 0l14.4 14.4q4.8 4.8 0 9.6z"/><path  d="m4.3 1084.4q-4.3 4.3-8.6 0l-12.8-12.8q-4.2-4.3 0-8.5l12.8-12.8q4.3-4.3 8.6 0l12.8 12.8q4.2 4.2 0 8.5z"/><path  d="m70.9 1084.4q-4.2 4.3-8.5 0l-12.8-12.8q-4.3-4.3 0-8.5l12.8-12.8q4.3-4.3 8.5 0l12.8 12.8q4.3 4.2 0 8.5z"/><path  d="m137.6 1084.4q-4.3 4.3-8.5 0l-12.8-12.8q-4.3-4.3 0-8.5l12.8-12.8q4.2-4.3 8.5 0l12.8 12.8q4.3 4.2 0 8.5z"/><path  d="m204.3 1084.4q-4.3 4.3-8.6 0l-12.8-12.8q-4.2-4.3 0-8.5l12.8-12.8q4.3-4.3 8.6 0l12.8 12.8q4.2 4.2 0 8.5z"/><path  d="m270.9 1084.4q-4.2 4.3-8.5 0l-12.8-12.8q-4.3-4.3 0-8.5l12.8-12.8q4.3-4.3 8.5 0l12.8 12.8q4.3 4.2 0 8.5z"/><path  d="m337.6 1084.4q-4.3 4.3-8.5 0l-12.8-12.8q-4.3-4.3 0-8.5l12.8-12.8q4.2-4.3 8.5 0l12.8 12.8q4.3 4.2 0 8.5z"/><path  d="m404.3 1084.4q-4.3 4.3-8.6 0l-12.8-12.8q-4.2-4.3 0-8.5l12.8-12.8q4.3-4.3 8.6 0l12.8 12.8q4.2 4.2 0 8.5z"/><path  d="m470.9 1084.4q-4.2 4.3-8.5 0l-12.8-12.8q-4.3-4.3 0-8.5l12.8-12.8q4.3-4.3 8.5 0l12.8 12.8q4.3 4.2 0 8.5z"/><path  d="m537.6 1084.4q-4.3 4.3-8.5 0l-12.8-12.8q-4.3-4.3 0-8.5l12.8-12.8q4.2-4.3 8.5 0l12.8 12.8q4.3 4.2 0 8.5z"/><path  d="m604.3 1084.4q-4.3 4.3-8.6 0l-12.8-12.8q-4.2-4.3 0-8.5l12.8-12.8q4.3-4.3 8.6 0l12.8 12.8q4.2 4.2 0 8.5z"/><path  d="m670.9 1084.4q-4.2 4.3-8.5 0l-12.8-12.8q-4.3-4.3 0-8.5l12.8-12.8q4.3-4.3 8.5 0l12.8 12.8q4.3 4.2 0 8.5z"/><path  d="m737.6 1084.4q-4.3 4.3-8.5 0l-12.8-12.8q-4.3-4.3 0-8.5l12.8-12.8q4.2-4.3 8.5 0l12.8 12.8q4.3 4.2 0 8.5z"/><path  d="m804.3 1084.4q-4.3 4.3-8.6 0l-12.8-12.8q-4.2-4.3 0-8.5l12.8-12.8q4.3-4.3 8.6 0l12.8 12.8q4.2 4.2 0 8.5z"/><path  d="m870.9 1084.4q-4.2 4.3-8.5 0l-12.8-12.8q-4.3-4.3 0-8.5l12.8-12.8q4.3-4.3 8.5 0l12.8 12.8q4.3 4.2 0 8.5z"/><path  d="m937.6 1084.4q-4.3 4.3-8.5 0l-12.8-12.8q-4.3-4.3 0-8.5l12.8-12.8q4.2-4.3 8.5 0l12.8 12.8q4.3 4.2 0 8.5z"/><path  d="m1004.3 1084.4q-4.3 4.3-8.6 0l-12.8-12.8q-4.2-4.3 0-8.5l12.8-12.8q4.3-4.3 8.6 0l12.8 12.8q4.2 4.2 0 8.5z"/><path  d="m1070.9 1084.4q-4.2 4.3-8.5 0l-12.8-12.8q-4.3-4.3 0-8.5l12.8-12.8q4.3-4.3 8.5 0l12.8 12.8q4.3 4.2 0 8.5z"/><path  d="m1137.6 1084.4q-4.3 4.3-8.5 0l-12.8-12.8q-4.3-4.3 0-8.5l12.8-12.8q4.2-4.3 8.5 0l12.8 12.8q4.3 4.2 0 8.5z"/><path  d="m1204.3 1084.4q-4.3 4.3-8.6 0l-12.8-12.8q-4.2-4.3 0-8.5l12.8-12.8q4.3-4.3 8.6 0l12.8 12.8q4.2 4.2 0 8.5z"/><path  d="m1270.9 1084.4q-4.2 4.3-8.5 0l-12.8-12.8q-4.3-4.3 0-8.5l12.8-12.8q4.3-4.3 8.5 0l12.8 12.8q4.3 4.2 0 8.5z"/><path  d="m1337.6 1084.4q-4.3 4.3-8.5 0l-12.8-12.8q-4.3-4.3 0-8.5l12.8-12.8q4.2-4.3 8.5 0l12.8 12.8q4.3 4.2 0 8.5z"/><path  d="m3.7 1015.6q-3.7 3.7-7.4 0l-11.2-11.2q-3.8-3.7 0-7.5l11.2-11.2q3.7-3.7 7.4 0l11.2 11.2q3.8 3.8 0 7.5z"/><path  d="m70.4 1015.6q-3.7 3.7-7.5 0l-11.2-11.2q-3.7-3.7 0-7.5l11.2-11.2q3.8-3.7 7.5 0l11.2 11.2q3.7 3.8 0 7.5z"/><path  d="m137.1 1015.6q-3.8 3.7-7.5 0l-11.2-11.2q-3.7-3.7 0-7.5l11.2-11.2q3.7-3.7 7.5 0l11.2 11.2q3.7 3.8 0 7.5z"/><path  d="m203.7 1015.6q-3.7 3.7-7.4 0l-11.2-11.2q-3.8-3.7 0-7.5l11.2-11.2q3.7-3.7 7.4 0l11.2 11.2q3.8 3.8 0 7.5z"/><path  d="m270.4 1015.6q-3.7 3.7-7.5 0l-11.2-11.2q-3.7-3.7 0-7.5l11.2-11.2q3.8-3.7 7.5 0l11.2 11.2q3.7 3.8 0 7.5z"/><path  d="m337.1 1015.6q-3.8 3.7-7.5 0l-11.2-11.2q-3.7-3.7 0-7.5l11.2-11.2q3.7-3.7 7.5 0l11.2 11.2q3.7 3.8 0 7.5z"/><path  d="m403.7 1015.6q-3.7 3.7-7.4 0l-11.2-11.2q-3.8-3.7 0-7.5l11.2-11.2q3.7-3.7 7.4 0l11.2 11.2q3.8 3.8 0 7.5z"/><path  d="m470.4 1015.6q-3.7 3.7-7.5 0l-11.2-11.2q-3.7-3.7 0-7.5l11.2-11.2q3.8-3.7 7.5 0l11.2 11.2q3.7 3.8 0 7.5z"/><path  d="m537.1 1015.6q-3.8 3.7-7.5 0l-11.2-11.2q-3.7-3.7 0-7.5l11.2-11.2q3.7-3.7 7.5 0l11.2 11.2q3.7 3.8 0 7.5z"/><path  d="m603.7 1015.6q-3.7 3.7-7.4 0l-11.2-11.2q-3.8-3.7 0-7.5l11.2-11.2q3.7-3.7 7.4 0l11.2 11.2q3.8 3.8 0 7.5z"/><path  d="m670.4 1015.6q-3.7 3.7-7.5 0l-11.2-11.2q-3.7-3.7 0-7.5l11.2-11.2q3.8-3.7 7.5 0l11.2 11.2q3.7 3.8 0 7.5z"/><path  d="m737.1 1015.6q-3.8 3.7-7.5 0l-11.2-11.2q-3.7-3.7 0-7.5l11.2-11.2q3.7-3.7 7.5 0l11.2 11.2q3.7 3.8 0 7.5z"/><path  d="m803.7 1015.6q-3.7 3.7-7.4 0l-11.2-11.2q-3.8-3.7 0-7.5l11.2-11.2q3.7-3.7 7.4 0l11.2 11.2q3.8 3.8 0 7.5z"/><path  d="m870.4 1015.6q-3.7 3.7-7.5 0l-11.2-11.2q-3.7-3.7 0-7.5l11.2-11.2q3.8-3.7 7.5 0l11.2 11.2q3.7 3.8 0 7.5z"/><path  d="m937.1 1015.6q-3.8 3.7-7.5 0l-11.2-11.2q-3.7-3.7 0-7.5l11.2-11.2q3.7-3.7 7.5 0l11.2 11.2q3.7 3.8 0 7.5z"/><path  d="m1003.7 1015.6q-3.7 3.7-7.4 0l-11.2-11.2q-3.8-3.7 0-7.5l11.2-11.2q3.7-3.7 7.4 0l11.2 11.2q3.8 3.8 0 7.5z"/><path  d="m1070.4 1015.6q-3.7 3.7-7.5 0l-11.2-11.2q-3.7-3.7 0-7.5l11.2-11.2q3.8-3.7 7.5 0l11.2 11.2q3.7 3.8 0 7.5z"/><path  d="m1137.1 1015.6q-3.8 3.7-7.5 0l-11.2-11.2q-3.7-3.7 0-7.5l11.2-11.2q3.7-3.7 7.5 0l11.2 11.2q3.7 3.8 0 7.5z"/><path  d="m1203.7 1015.6q-3.7 3.7-7.4 0l-11.2-11.2q-3.8-3.7 0-7.5l11.2-11.2q3.7-3.7 7.4 0l11.2 11.2q3.8 3.8 0 7.5z"/><path  d="m1270.4 1015.6q-3.7 3.7-7.5 0l-11.2-11.2q-3.7-3.7 0-7.5l11.2-11.2q3.8-3.7 7.5 0l11.2 11.2q3.7 3.8 0 7.5z"/><path  d="m1337.1 1015.6q-3.8 3.7-7.5 0l-11.2-11.2q-3.7-3.7 0-7.5l11.2-11.2q3.7-3.7 7.5 0l11.2 11.2q3.7 3.8 0 7.5z"/><path  d="m3.2 946.8q-3.2 3.2-6.4 0l-9.6-9.6q-3.2-3.2 0-6.4l9.6-9.6q3.2-3.2 6.4 0l9.6 9.6q3.2 3.2 0 6.4z"/><path  d="m69.9 946.8q-3.2 3.2-6.4 0l-9.6-9.6q-3.2-3.2 0-6.4l9.6-9.6q3.2-3.2 6.4 0l9.6 9.6q3.2 3.2 0 6.4z"/><path  d="m136.5 946.8q-3.2 3.2-6.4 0l-9.6-9.6q-3.2-3.2 0-6.4l9.6-9.6q3.2-3.2 6.4 0l9.6 9.6q3.2 3.2 0 6.4z"/><path  d="m203.2 946.8q-3.2 3.2-6.4 0l-9.6-9.6q-3.2-3.2 0-6.4l9.6-9.6q3.2-3.2 6.4 0l9.6 9.6q3.2 3.2 0 6.4z"/><path  d="m269.9 946.8q-3.2 3.2-6.4 0l-9.6-9.6q-3.2-3.2 0-6.4l9.6-9.6q3.2-3.2 6.4 0l9.6 9.6q3.2 3.2 0 6.4z"/><path  d="m336.5 946.8q-3.2 3.2-6.4 0l-9.6-9.6q-3.2-3.2 0-6.4l9.6-9.6q3.2-3.2 6.4 0l9.6 9.6q3.2 3.2 0 6.4z"/><path  d="m403.2 946.8q-3.2 3.2-6.4 0l-9.6-9.6q-3.2-3.2 0-6.4l9.6-9.6q3.2-3.2 6.4 0l9.6 9.6q3.2 3.2 0 6.4z"/><path  d="m469.9 946.8q-3.2 3.2-6.4 0l-9.6-9.6q-3.2-3.2 0-6.4l9.6-9.6q3.2-3.2 6.4 0l9.6 9.6q3.2 3.2 0 6.4z"/><path  d="m536.5 946.8q-3.2 3.2-6.4 0l-9.6-9.6q-3.2-3.2 0-6.4l9.6-9.6q3.2-3.2 6.4 0l9.6 9.6q3.2 3.2 0 6.4z"/><path  d="m603.2 946.8q-3.2 3.2-6.4 0l-9.6-9.6q-3.2-3.2 0-6.4l9.6-9.6q3.2-3.2 6.4 0l9.6 9.6q3.2 3.2 0 6.4z"/><path  d="m669.9 946.8q-3.2 3.2-6.4 0l-9.6-9.6q-3.2-3.2 0-6.4l9.6-9.6q3.2-3.2 6.4 0l9.6 9.6q3.2 3.2 0 6.4z"/><path  d="m736.5 946.8q-3.2 3.2-6.4 0l-9.6-9.6q-3.2-3.2 0-6.4l9.6-9.6q3.2-3.2 6.4 0l9.6 9.6q3.2 3.2 0 6.4z"/><path  d="m803.2 946.8q-3.2 3.2-6.4 0l-9.6-9.6q-3.2-3.2 0-6.4l9.6-9.6q3.2-3.2 6.4 0l9.6 9.6q3.2 3.2 0 6.4z"/><path  d="m869.9 946.8q-3.2 3.2-6.4 0l-9.6-9.6q-3.2-3.2 0-6.4l9.6-9.6q3.2-3.2 6.4 0l9.6 9.6q3.2 3.2 0 6.4z"/><path  d="m936.5 946.8q-3.2 3.2-6.4 0l-9.6-9.6q-3.2-3.2 0-6.4l9.6-9.6q3.2-3.2 6.4 0l9.6 9.6q3.2 3.2 0 6.4z"/><path  d="m1003.2 946.8q-3.2 3.2-6.4 0l-9.6-9.6q-3.2-3.2 0-6.4l9.6-9.6q3.2-3.2 6.4 0l9.6 9.6q3.2 3.2 0 6.4z"/><path  d="m1069.9 946.8q-3.2 3.2-6.4 0l-9.6-9.6q-3.2-3.2 0-6.4l9.6-9.6q3.2-3.2 6.4 0l9.6 9.6q3.2 3.2 0 6.4z"/><path  d="m1136.5 946.8q-3.2 3.2-6.4 0l-9.6-9.6q-3.2-3.2 0-6.4l9.6-9.6q3.2-3.2 6.4 0l9.6 9.6q3.2 3.2 0 6.4z"/><path  d="m1203.2 946.8q-3.2 3.2-6.4 0l-9.6-9.6q-3.2-3.2 0-6.4l9.6-9.6q3.2-3.2 6.4 0l9.6 9.6q3.2 3.2 0 6.4z"/><path  d="m1269.9 946.8q-3.2 3.2-6.4 0l-9.6-9.6q-3.2-3.2 0-6.4l9.6-9.6q3.2-3.2 6.4 0l9.6 9.6q3.2 3.2 0 6.4z"/><path  d="m1336.5 946.8q-3.2 3.2-6.4 0l-9.6-9.6q-3.2-3.2 0-6.4l9.6-9.6q3.2-3.2 6.4 0l9.6 9.6q3.2 3.2 0 6.4z"/><path  d="m2.7 878q-2.7 2.7-5.4 0l-8-8q-2.6-2.7 0-5.3l8-8q2.7-2.7 5.4 0l8 8q2.6 2.6 0 5.3z"/><path  d="m69.3 878q-2.6 2.7-5.3 0l-8-8q-2.7-2.7 0-5.3l8-8q2.7-2.7 5.3 0l8 8q2.7 2.6 0 5.3z"/><path  d="m136 878q-2.7 2.7-5.3 0l-8-8q-2.7-2.7 0-5.3l8-8q2.6-2.7 5.3 0l8 8q2.7 2.6 0 5.3z"/><path  d="m202.7 878q-2.7 2.7-5.4 0l-8-8q-2.6-2.7 0-5.3l8-8q2.7-2.7 5.4 0l8 8q2.6 2.6 0 5.3z"/><path  d="m269.3 878q-2.6 2.7-5.3 0l-8-8q-2.7-2.7 0-5.3l8-8q2.7-2.7 5.3 0l8 8q2.7 2.6 0 5.3z"/><path  d="m336 878q-2.7 2.7-5.3 0l-8-8q-2.7-2.7 0-5.3l8-8q2.6-2.7 5.3 0l8 8q2.7 2.6 0 5.3z"/><path  d="m402.7 878q-2.7 2.7-5.4 0l-8-8q-2.6-2.7 0-5.3l8-8q2.7-2.7 5.4 0l8 8q2.6 2.6 0 5.3z"/><path  d="m469.3 878q-2.6 2.7-5.3 0l-8-8q-2.7-2.7 0-5.3l8-8q2.7-2.7 5.3 0l8 8q2.7 2.6 0 5.3z"/><path  d="m536 878q-2.7 2.7-5.3 0l-8-8q-2.7-2.7 0-5.3l8-8q2.6-2.7 5.3 0l8 8q2.7 2.6 0 5.3z"/><path  d="m602.7 878q-2.7 2.7-5.4 0l-8-8q-2.6-2.7 0-5.3l8-8q2.7-2.7 5.4 0l8 8q2.6 2.6 0 5.3z"/><path  d="m669.3 878q-2.6 2.7-5.3 0l-8-8q-2.7-2.7 0-5.3l8-8q2.7-2.7 5.3 0l8 8q2.7 2.6 0 5.3z"/><path  d="m736 878q-2.7 2.7-5.3 0l-8-8q-2.7-2.7 0-5.3l8-8q2.6-2.7 5.3 0l8 8q2.7 2.6 0 5.3z"/><path  d="m802.7 878q-2.7 2.7-5.4 0l-8-8q-2.6-2.7 0-5.3l8-8q2.7-2.7 5.4 0l8 8q2.6 2.6 0 5.3z"/><path  d="m869.3 878q-2.6 2.7-5.3 0l-8-8q-2.7-2.7 0-5.3l8-8q2.7-2.7 5.3 0l8 8q2.7 2.6 0 5.3z"/><path  d="m936 878q-2.7 2.7-5.3 0l-8-8q-2.7-2.7 0-5.3l8-8q2.6-2.7 5.3 0l8 8q2.7 2.6 0 5.3z"/><path  d="m1002.7 878q-2.7 2.7-5.4 0l-8-8q-2.6-2.7 0-5.3l8-8q2.7-2.7 5.4 0l8 8q2.6 2.6 0 5.3z"/><path  d="m1069.3 878q-2.6 2.7-5.3 0l-8-8q-2.7-2.7 0-5.3l8-8q2.7-2.7 5.3 0l8 8q2.7 2.6 0 5.3z"/><path  d="m1136 878q-2.7 2.7-5.3 0l-8-8q-2.7-2.7 0-5.3l8-8q2.6-2.7 5.3 0l8 8q2.7 2.6 0 5.3z"/><path  d="m1202.7 878q-2.7 2.7-5.4 0l-8-8q-2.6-2.7 0-5.3l8-8q2.7-2.7 5.4 0l8 8q2.6 2.6 0 5.3z"/><path  d="m1269.3 878q-2.6 2.7-5.3 0l-8-8q-2.7-2.7 0-5.3l8-8q2.7-2.7 5.3 0l8 8q2.7 2.6 0 5.3z"/><path  d="m1336 878q-2.7 2.7-5.3 0l-8-8q-2.7-2.7 0-5.3l8-8q2.6-2.7 5.3 0l8 8q2.7 2.6 0 5.3z"/><path  d="m2.1 809.2q-2.1 2.1-4.2 0l-6.4-6.4q-2.2-2.1 0-4.3l6.4-6.4q2.1-2.1 4.2 0l6.4 6.4q2.2 2.2 0 4.3z"/><path  d="m68.8 809.2q-2.1 2.1-4.3 0l-6.4-6.4q-2.1-2.1 0-4.3l6.4-6.4q2.2-2.1 4.3 0l6.4 6.4q2.1 2.2 0 4.3z"/><path  d="m135.5 809.2q-2.2 2.1-4.3 0l-6.4-6.4q-2.1-2.1 0-4.3l6.4-6.4q2.1-2.1 4.3 0l6.4 6.4q2.1 2.2 0 4.3z"/><path  d="m202.1 809.2q-2.1 2.1-4.2 0l-6.4-6.4q-2.2-2.1 0-4.3l6.4-6.4q2.1-2.1 4.2 0l6.4 6.4q2.2 2.2 0 4.3z"/><path  d="m268.8 809.2q-2.1 2.1-4.3 0l-6.4-6.4q-2.1-2.1 0-4.3l6.4-6.4q2.2-2.1 4.3 0l6.4 6.4q2.1 2.2 0 4.3z"/><path  d="m335.5 809.2q-2.2 2.1-4.3 0l-6.4-6.4q-2.1-2.1 0-4.3l6.4-6.4q2.1-2.1 4.3 0l6.4 6.4q2.1 2.2 0 4.3z"/><path  d="m402.1 809.2q-2.1 2.1-4.2 0l-6.4-6.4q-2.2-2.1 0-4.3l6.4-6.4q2.1-2.1 4.2 0l6.4 6.4q2.2 2.2 0 4.3z"/><path  d="m468.8 809.2q-2.1 2.1-4.3 0l-6.4-6.4q-2.1-2.1 0-4.3l6.4-6.4q2.2-2.1 4.3 0l6.4 6.4q2.1 2.2 0 4.3z"/><path  d="m535.5 809.2q-2.2 2.1-4.3 0l-6.4-6.4q-2.1-2.1 0-4.3l6.4-6.4q2.1-2.1 4.3 0l6.4 6.4q2.1 2.2 0 4.3z"/><path  d="m602.1 809.2q-2.1 2.1-4.2 0l-6.4-6.4q-2.2-2.1 0-4.3l6.4-6.4q2.1-2.1 4.2 0l6.4 6.4q2.2 2.2 0 4.3z"/><path  d="m668.8 809.2q-2.1 2.1-4.3 0l-6.4-6.4q-2.1-2.1 0-4.3l6.4-6.4q2.2-2.1 4.3 0l6.4 6.4q2.1 2.2 0 4.3z"/><path  d="m735.5 809.2q-2.2 2.1-4.3 0l-6.4-6.4q-2.1-2.1 0-4.3l6.4-6.4q2.1-2.1 4.3 0l6.4 6.4q2.1 2.2 0 4.3z"/><path  d="m802.1 809.2q-2.1 2.1-4.2 0l-6.4-6.4q-2.2-2.1 0-4.3l6.4-6.4q2.1-2.1 4.2 0l6.4 6.4q2.2 2.2 0 4.3z"/><path  d="m868.8 809.2q-2.1 2.1-4.3 0l-6.4-6.4q-2.1-2.1 0-4.3l6.4-6.4q2.2-2.1 4.3 0l6.4 6.4q2.1 2.2 0 4.3z"/><path  d="m935.5 809.2q-2.2 2.1-4.3 0l-6.4-6.4q-2.1-2.1 0-4.3l6.4-6.4q2.1-2.1 4.3 0l6.4 6.4q2.1 2.2 0 4.3z"/><path  d="m1002.1 809.2q-2.1 2.1-4.2 0l-6.4-6.4q-2.2-2.1 0-4.3l6.4-6.4q2.1-2.1 4.2 0l6.4 6.4q2.2 2.2 0 4.3z"/><path  d="m1068.8 809.2q-2.1 2.1-4.3 0l-6.4-6.4q-2.1-2.1 0-4.3l6.4-6.4q2.2-2.1 4.3 0l6.4 6.4q2.1 2.2 0 4.3z"/><path  d="m1135.5 809.2q-2.2 2.1-4.3 0l-6.4-6.4q-2.1-2.1 0-4.3l6.4-6.4q2.1-2.1 4.3 0l6.4 6.4q2.1 2.2 0 4.3z"/><path  d="m1202.1 809.2q-2.1 2.1-4.2 0l-6.4-6.4q-2.2-2.1 0-4.3l6.4-6.4q2.1-2.1 4.2 0l6.4 6.4q2.2 2.2 0 4.3z"/><path  d="m1268.8 809.2q-2.1 2.1-4.3 0l-6.4-6.4q-2.1-2.1 0-4.3l6.4-6.4q2.2-2.1 4.3 0l6.4 6.4q2.1 2.2 0 4.3z"/><path  d="m1335.5 809.2q-2.2 2.1-4.3 0l-6.4-6.4q-2.1-2.1 0-4.3l6.4-6.4q2.1-2.1 4.3 0l6.4 6.4q2.1 2.2 0 4.3z"/><path  d="m1.6 740.4q-1.6 1.6-3.2 0l-4.8-4.8q-1.6-1.6 0-3.2l4.8-4.8q1.6-1.6 3.2 0l4.8 4.8q1.6 1.6 0 3.2z"/><path  d="m68.3 740.4q-1.6 1.6-3.2 0l-4.8-4.8q-1.6-1.6 0-3.2l4.8-4.8q1.6-1.6 3.2 0l4.8 4.8q1.6 1.6 0 3.2z"/><path  d="m134.9 740.4q-1.6 1.6-3.2 0l-4.8-4.8q-1.6-1.6 0-3.2l4.8-4.8q1.6-1.6 3.2 0l4.8 4.8q1.6 1.6 0 3.2z"/><path  d="m201.6 740.4q-1.6 1.6-3.2 0l-4.8-4.8q-1.6-1.6 0-3.2l4.8-4.8q1.6-1.6 3.2 0l4.8 4.8q1.6 1.6 0 3.2z"/><path  d="m268.3 740.4q-1.6 1.6-3.2 0l-4.8-4.8q-1.6-1.6 0-3.2l4.8-4.8q1.6-1.6 3.2 0l4.8 4.8q1.6 1.6 0 3.2z"/><path  d="m334.9 740.4q-1.6 1.6-3.2 0l-4.8-4.8q-1.6-1.6 0-3.2l4.8-4.8q1.6-1.6 3.2 0l4.8 4.8q1.6 1.6 0 3.2z"/><path  d="m401.6 740.4q-1.6 1.6-3.2 0l-4.8-4.8q-1.6-1.6 0-3.2l4.8-4.8q1.6-1.6 3.2 0l4.8 4.8q1.6 1.6 0 3.2z"/><path  d="m468.3 740.4q-1.6 1.6-3.2 0l-4.8-4.8q-1.6-1.6 0-3.2l4.8-4.8q1.6-1.6 3.2 0l4.8 4.8q1.6 1.6 0 3.2z"/><path  d="m534.9 740.4q-1.6 1.6-3.2 0l-4.8-4.8q-1.6-1.6 0-3.2l4.8-4.8q1.6-1.6 3.2 0l4.8 4.8q1.6 1.6 0 3.2z"/><path  d="m601.6 740.4q-1.6 1.6-3.2 0l-4.8-4.8q-1.6-1.6 0-3.2l4.8-4.8q1.6-1.6 3.2 0l4.8 4.8q1.6 1.6 0 3.2z"/><path  d="m668.3 740.4q-1.6 1.6-3.2 0l-4.8-4.8q-1.6-1.6 0-3.2l4.8-4.8q1.6-1.6 3.2 0l4.8 4.8q1.6 1.6 0 3.2z"/><path  d="m734.9 740.4q-1.6 1.6-3.2 0l-4.8-4.8q-1.6-1.6 0-3.2l4.8-4.8q1.6-1.6 3.2 0l4.8 4.8q1.6 1.6 0 3.2z"/><path  d="m801.6 740.4q-1.6 1.6-3.2 0l-4.8-4.8q-1.6-1.6 0-3.2l4.8-4.8q1.6-1.6 3.2 0l4.8 4.8q1.6 1.6 0 3.2z"/><path  d="m868.3 740.4q-1.6 1.6-3.2 0l-4.8-4.8q-1.6-1.6 0-3.2l4.8-4.8q1.6-1.6 3.2 0l4.8 4.8q1.6 1.6 0 3.2z"/><path  d="m934.9 740.4q-1.6 1.6-3.2 0l-4.8-4.8q-1.6-1.6 0-3.2l4.8-4.8q1.6-1.6 3.2 0l4.8 4.8q1.6 1.6 0 3.2z"/><path  d="m1001.6 740.4q-1.6 1.6-3.2 0l-4.8-4.8q-1.6-1.6 0-3.2l4.8-4.8q1.6-1.6 3.2 0l4.8 4.8q1.6 1.6 0 3.2z"/><path  d="m1068.3 740.4q-1.6 1.6-3.2 0l-4.8-4.8q-1.6-1.6 0-3.2l4.8-4.8q1.6-1.6 3.2 0l4.8 4.8q1.6 1.6 0 3.2z"/><path  d="m1134.9 740.4q-1.6 1.6-3.2 0l-4.8-4.8q-1.6-1.6 0-3.2l4.8-4.8q1.6-1.6 3.2 0l4.8 4.8q1.6 1.6 0 3.2z"/><path  d="m1201.6 740.4q-1.6 1.6-3.2 0l-4.8-4.8q-1.6-1.6 0-3.2l4.8-4.8q1.6-1.6 3.2 0l4.8 4.8q1.6 1.6 0 3.2z"/><path  d="m1268.3 740.4q-1.6 1.6-3.2 0l-4.8-4.8q-1.6-1.6 0-3.2l4.8-4.8q1.6-1.6 3.2 0l4.8 4.8q1.6 1.6 0 3.2z"/><path  d="m1334.9 740.4q-1.6 1.6-3.2 0l-4.8-4.8q-1.6-1.6 0-3.2l4.8-4.8q1.6-1.6 3.2 0l4.8 4.8q1.6 1.6 0 3.2z"/><path  d="m1.3 672.7q-1.3 1.3-2.6 0l-4-4q-1.4-1.4 0-2.7l4-4q1.3-1.3 2.6 0l4 4q1.4 1.3 0 2.7z"/><path  d="m68 672.7q-1.3 1.3-2.7 0l-4-4q-1.3-1.4 0-2.7l4-4q1.4-1.3 2.7 0l4 4q1.3 1.3 0 2.7z"/><path  d="m134.7 672.7q-1.4 1.3-2.7 0l-4-4q-1.3-1.4 0-2.7l4-4q1.3-1.3 2.7 0l4 4q1.3 1.3 0 2.7z"/><path  d="m201.3 672.7q-1.3 1.3-2.6 0l-4-4q-1.4-1.4 0-2.7l4-4q1.3-1.3 2.6 0l4 4q1.4 1.3 0 2.7z"/><path  d="m268 672.7q-1.3 1.3-2.7 0l-4-4q-1.3-1.4 0-2.7l4-4q1.4-1.3 2.7 0l4 4q1.3 1.3 0 2.7z"/><path  d="m334.7 672.7q-1.4 1.3-2.7 0l-4-4q-1.3-1.4 0-2.7l4-4q1.3-1.3 2.7 0l4 4q1.3 1.3 0 2.7z"/><path  d="m401.3 672.7q-1.3 1.3-2.6 0l-4-4q-1.4-1.4 0-2.7l4-4q1.3-1.3 2.6 0l4 4q1.4 1.3 0 2.7z"/><path  d="m468 672.7q-1.3 1.3-2.7 0l-4-4q-1.3-1.4 0-2.7l4-4q1.4-1.3 2.7 0l4 4q1.3 1.3 0 2.7z"/><path  d="m534.7 672.7q-1.4 1.3-2.7 0l-4-4q-1.3-1.4 0-2.7l4-4q1.3-1.3 2.7 0l4 4q1.3 1.3 0 2.7z"/><path  d="m601.3 672.7q-1.3 1.3-2.6 0l-4-4q-1.4-1.4 0-2.7l4-4q1.3-1.3 2.6 0l4 4q1.4 1.3 0 2.7z"/><path  d="m668 672.7q-1.3 1.3-2.7 0l-4-4q-1.3-1.4 0-2.7l4-4q1.4-1.3 2.7 0l4 4q1.3 1.3 0 2.7z"/><path  d="m734.7 672.7q-1.4 1.3-2.7 0l-4-4q-1.3-1.4 0-2.7l4-4q1.3-1.3 2.7 0l4 4q1.3 1.3 0 2.7z"/><path  d="m801.3 672.7q-1.3 1.3-2.6 0l-4-4q-1.4-1.4 0-2.7l4-4q1.3-1.3 2.6 0l4 4q1.4 1.3 0 2.7z"/><path  d="m868 672.7q-1.3 1.3-2.7 0l-4-4q-1.3-1.4 0-2.7l4-4q1.4-1.3 2.7 0l4 4q1.3 1.3 0 2.7z"/><path  d="m934.7 672.7q-1.4 1.3-2.7 0l-4-4q-1.3-1.4 0-2.7l4-4q1.3-1.3 2.7 0l4 4q1.3 1.3 0 2.7z"/><path  d="m1001.3 672.7q-1.3 1.3-2.6 0l-4-4q-1.4-1.4 0-2.7l4-4q1.3-1.3 2.6 0l4 4q1.4 1.3 0 2.7z"/><path  d="m1068 672.7q-1.3 1.3-2.7 0l-4-4q-1.3-1.4 0-2.7l4-4q1.4-1.3 2.7 0l4 4q1.3 1.3 0 2.7z"/><path  d="m1134.7 672.7q-1.4 1.3-2.7 0l-4-4q-1.3-1.4 0-2.7l4-4q1.3-1.3 2.7 0l4 4q1.3 1.3 0 2.7z"/><path  d="m1201.3 672.7q-1.3 1.3-2.6 0l-4-4q-1.4-1.4 0-2.7l4-4q1.3-1.3 2.6 0l4 4q1.4 1.3 0 2.7z"/><path  d="m1268 672.7q-1.3 1.3-2.7 0l-4-4q-1.3-1.4 0-2.7l4-4q1.4-1.3 2.7 0l4 4q1.3 1.3 0 2.7z"/><path  d="m1334.7 672.7q-1.4 1.3-2.7 0l-4-4q-1.3-1.4 0-2.7l4-4q1.3-1.3 2.7 0l4 4q1.3 1.3 0 2.7z"/><path  d="m1.6 607.1q-1.6 1.6-3.2 0l-4.8-4.8q-1.6-1.6 0-3.2l4.8-4.8q1.6-1.6 3.2 0l4.8 4.8q1.6 1.6 0 3.2z"/><path  d="m68.3 607.1q-1.6 1.6-3.2 0l-4.8-4.8q-1.6-1.6 0-3.2l4.8-4.8q1.6-1.6 3.2 0l4.8 4.8q1.6 1.6 0 3.2z"/><path  d="m134.9 607.1q-1.6 1.6-3.2 0l-4.8-4.8q-1.6-1.6 0-3.2l4.8-4.8q1.6-1.6 3.2 0l4.8 4.8q1.6 1.6 0 3.2z"/><path  d="m201.6 607.1q-1.6 1.6-3.2 0l-4.8-4.8q-1.6-1.6 0-3.2l4.8-4.8q1.6-1.6 3.2 0l4.8 4.8q1.6 1.6 0 3.2z"/><path  d="m268.3 607.1q-1.6 1.6-3.2 0l-4.8-4.8q-1.6-1.6 0-3.2l4.8-4.8q1.6-1.6 3.2 0l4.8 4.8q1.6 1.6 0 3.2z"/><path  d="m334.9 607.1q-1.6 1.6-3.2 0l-4.8-4.8q-1.6-1.6 0-3.2l4.8-4.8q1.6-1.6 3.2 0l4.8 4.8q1.6 1.6 0 3.2z"/><path  d="m401.6 607.1q-1.6 1.6-3.2 0l-4.8-4.8q-1.6-1.6 0-3.2l4.8-4.8q1.6-1.6 3.2 0l4.8 4.8q1.6 1.6 0 3.2z"/><path  d="m468.3 607.1q-1.6 1.6-3.2 0l-4.8-4.8q-1.6-1.6 0-3.2l4.8-4.8q1.6-1.6 3.2 0l4.8 4.8q1.6 1.6 0 3.2z"/><path  d="m534.9 607.1q-1.6 1.6-3.2 0l-4.8-4.8q-1.6-1.6 0-3.2l4.8-4.8q1.6-1.6 3.2 0l4.8 4.8q1.6 1.6 0 3.2z"/><path  d="m601.6 607.1q-1.6 1.6-3.2 0l-4.8-4.8q-1.6-1.6 0-3.2l4.8-4.8q1.6-1.6 3.2 0l4.8 4.8q1.6 1.6 0 3.2z"/><path  d="m668.3 607.1q-1.6 1.6-3.2 0l-4.8-4.8q-1.6-1.6 0-3.2l4.8-4.8q1.6-1.6 3.2 0l4.8 4.8q1.6 1.6 0 3.2z"/><path  d="m734.9 607.1q-1.6 1.6-3.2 0l-4.8-4.8q-1.6-1.6 0-3.2l4.8-4.8q1.6-1.6 3.2 0l4.8 4.8q1.6 1.6 0 3.2z"/><path  d="m801.6 607.1q-1.6 1.6-3.2 0l-4.8-4.8q-1.6-1.6 0-3.2l4.8-4.8q1.6-1.6 3.2 0l4.8 4.8q1.6 1.6 0 3.2z"/><path  d="m868.3 607.1q-1.6 1.6-3.2 0l-4.8-4.8q-1.6-1.6 0-3.2l4.8-4.8q1.6-1.6 3.2 0l4.8 4.8q1.6 1.6 0 3.2z"/><path  d="m934.9 607.1q-1.6 1.6-3.2 0l-4.8-4.8q-1.6-1.6 0-3.2l4.8-4.8q1.6-1.6 3.2 0l4.8 4.8q1.6 1.6 0 3.2z"/><path  d="m1001.6 607.1q-1.6 1.6-3.2 0l-4.8-4.8q-1.6-1.6 0-3.2l4.8-4.8q1.6-1.6 3.2 0l4.8 4.8q1.6 1.6 0 3.2z"/><path  d="m1068.3 607.1q-1.6 1.6-3.2 0l-4.8-4.8q-1.6-1.6 0-3.2l4.8-4.8q1.6-1.6 3.2 0l4.8 4.8q1.6 1.6 0 3.2z"/><path  d="m1134.9 607.1q-1.6 1.6-3.2 0l-4.8-4.8q-1.6-1.6 0-3.2l4.8-4.8q1.6-1.6 3.2 0l4.8 4.8q1.6 1.6 0 3.2z"/><path  d="m1201.6 607.1q-1.6 1.6-3.2 0l-4.8-4.8q-1.6-1.6 0-3.2l4.8-4.8q1.6-1.6 3.2 0l4.8 4.8q1.6 1.6 0 3.2z"/><path  d="m1268.3 607.1q-1.6 1.6-3.2 0l-4.8-4.8q-1.6-1.6 0-3.2l4.8-4.8q1.6-1.6 3.2 0l4.8 4.8q1.6 1.6 0 3.2z"/><path  d="m1334.9 607.1q-1.6 1.6-3.2 0l-4.8-4.8q-1.6-1.6 0-3.2l4.8-4.8q1.6-1.6 3.2 0l4.8 4.8q1.6 1.6 0 3.2z"/><path  d="m2.1 542.5q-2.1 2.2-4.2 0l-6.4-6.4q-2.2-2.1 0-4.2l6.4-6.4q2.1-2.2 4.2 0l6.4 6.4q2.2 2.1 0 4.2z"/><path  d="m68.8 542.5q-2.1 2.2-4.3 0l-6.4-6.4q-2.1-2.1 0-4.2l6.4-6.4q2.2-2.2 4.3 0l6.4 6.4q2.1 2.1 0 4.2z"/><path  d="m135.5 542.5q-2.2 2.2-4.3 0l-6.4-6.4q-2.1-2.1 0-4.2l6.4-6.4q2.1-2.2 4.3 0l6.4 6.4q2.1 2.1 0 4.2z"/><path  d="m202.1 542.5q-2.1 2.2-4.2 0l-6.4-6.4q-2.2-2.1 0-4.2l6.4-6.4q2.1-2.2 4.2 0l6.4 6.4q2.2 2.1 0 4.2z"/><path  d="m268.8 542.5q-2.1 2.2-4.3 0l-6.4-6.4q-2.1-2.1 0-4.2l6.4-6.4q2.2-2.2 4.3 0l6.4 6.4q2.1 2.1 0 4.2z"/><path  d="m335.5 542.5q-2.2 2.2-4.3 0l-6.4-6.4q-2.1-2.1 0-4.2l6.4-6.4q2.1-2.2 4.3 0l6.4 6.4q2.1 2.1 0 4.2z"/><path  d="m402.1 542.5q-2.1 2.2-4.2 0l-6.4-6.4q-2.2-2.1 0-4.2l6.4-6.4q2.1-2.2 4.2 0l6.4 6.4q2.2 2.1 0 4.2z"/><path  d="m468.8 542.5q-2.1 2.2-4.3 0l-6.4-6.4q-2.1-2.1 0-4.2l6.4-6.4q2.2-2.2 4.3 0l6.4 6.4q2.1 2.1 0 4.2z"/><path  d="m535.5 542.5q-2.2 2.2-4.3 0l-6.4-6.4q-2.1-2.1 0-4.2l6.4-6.4q2.1-2.2 4.3 0l6.4 6.4q2.1 2.1 0 4.2z"/><path  d="m602.1 542.5q-2.1 2.2-4.2 0l-6.4-6.4q-2.2-2.1 0-4.2l6.4-6.4q2.1-2.2 4.2 0l6.4 6.4q2.2 2.1 0 4.2z"/><path  d="m668.8 542.5q-2.1 2.2-4.3 0l-6.4-6.4q-2.1-2.1 0-4.2l6.4-6.4q2.2-2.2 4.3 0l6.4 6.4q2.1 2.1 0 4.2z"/><path  d="m735.5 542.5q-2.2 2.2-4.3 0l-6.4-6.4q-2.1-2.1 0-4.2l6.4-6.4q2.1-2.2 4.3 0l6.4 6.4q2.1 2.1 0 4.2z"/><path  d="m802.1 542.5q-2.1 2.2-4.2 0l-6.4-6.4q-2.2-2.1 0-4.2l6.4-6.4q2.1-2.2 4.2 0l6.4 6.4q2.2 2.1 0 4.2z"/><path  d="m868.8 542.5q-2.1 2.2-4.3 0l-6.4-6.4q-2.1-2.1 0-4.2l6.4-6.4q2.2-2.2 4.3 0l6.4 6.4q2.1 2.1 0 4.2z"/><path  d="m935.5 542.5q-2.2 2.2-4.3 0l-6.4-6.4q-2.1-2.1 0-4.2l6.4-6.4q2.1-2.2 4.3 0l6.4 6.4q2.1 2.1 0 4.2z"/><path  d="m1002.1 542.5q-2.1 2.2-4.2 0l-6.4-6.4q-2.2-2.1 0-4.2l6.4-6.4q2.1-2.2 4.2 0l6.4 6.4q2.2 2.1 0 4.2z"/><path  d="m1068.8 542.5q-2.1 2.2-4.3 0l-6.4-6.4q-2.1-2.1 0-4.2l6.4-6.4q2.2-2.2 4.3 0l6.4 6.4q2.1 2.1 0 4.2z"/><path  d="m1135.5 542.5q-2.2 2.2-4.3 0l-6.4-6.4q-2.1-2.1 0-4.2l6.4-6.4q2.1-2.2 4.3 0l6.4 6.4q2.1 2.1 0 4.2z"/><path  d="m1202.1 542.5q-2.1 2.2-4.2 0l-6.4-6.4q-2.2-2.1 0-4.2l6.4-6.4q2.1-2.2 4.2 0l6.4 6.4q2.2 2.1 0 4.2z"/><path  d="m1268.8 542.5q-2.1 2.2-4.3 0l-6.4-6.4q-2.1-2.1 0-4.2l6.4-6.4q2.2-2.2 4.3 0l6.4 6.4q2.1 2.1 0 4.2z"/><path  d="m1335.5 542.5q-2.2 2.2-4.3 0l-6.4-6.4q-2.1-2.1 0-4.2l6.4-6.4q2.1-2.2 4.3 0l6.4 6.4q2.1 2.1 0 4.2z"/><path  d="m2.7 478q-2.7 2.7-5.4 0l-8-8q-2.6-2.7 0-5.3l8-8q2.7-2.7 5.4 0l8 8q2.6 2.6 0 5.3z"/><path  d="m69.3 478q-2.6 2.7-5.3 0l-8-8q-2.7-2.7 0-5.3l8-8q2.7-2.7 5.3 0l8 8q2.7 2.6 0 5.3z"/><path  d="m136 478q-2.7 2.7-5.3 0l-8-8q-2.7-2.7 0-5.3l8-8q2.6-2.7 5.3 0l8 8q2.7 2.6 0 5.3z"/><path  d="m202.7 478q-2.7 2.7-5.4 0l-8-8q-2.6-2.7 0-5.3l8-8q2.7-2.7 5.4 0l8 8q2.6 2.6 0 5.3z"/><path  d="m269.3 478q-2.6 2.7-5.3 0l-8-8q-2.7-2.7 0-5.3l8-8q2.7-2.7 5.3 0l8 8q2.7 2.6 0 5.3z"/><path  d="m336 478q-2.7 2.7-5.3 0l-8-8q-2.7-2.7 0-5.3l8-8q2.6-2.7 5.3 0l8 8q2.7 2.6 0 5.3z"/><path  d="m402.7 478q-2.7 2.7-5.4 0l-8-8q-2.6-2.7 0-5.3l8-8q2.7-2.7 5.4 0l8 8q2.6 2.6 0 5.3z"/><path  d="m469.3 478q-2.6 2.7-5.3 0l-8-8q-2.7-2.7 0-5.3l8-8q2.7-2.7 5.3 0l8 8q2.7 2.6 0 5.3z"/><path  d="m536 478q-2.7 2.7-5.3 0l-8-8q-2.7-2.7 0-5.3l8-8q2.6-2.7 5.3 0l8 8q2.7 2.6 0 5.3z"/><path  d="m602.7 478q-2.7 2.7-5.4 0l-8-8q-2.6-2.7 0-5.3l8-8q2.7-2.7 5.4 0l8 8q2.6 2.6 0 5.3z"/><path  d="m669.3 478q-2.6 2.7-5.3 0l-8-8q-2.7-2.7 0-5.3l8-8q2.7-2.7 5.3 0l8 8q2.7 2.6 0 5.3z"/><path  d="m736 478q-2.7 2.7-5.3 0l-8-8q-2.7-2.7 0-5.3l8-8q2.6-2.7 5.3 0l8 8q2.7 2.6 0 5.3z"/><path  d="m802.7 478q-2.7 2.7-5.4 0l-8-8q-2.6-2.7 0-5.3l8-8q2.7-2.7 5.4 0l8 8q2.6 2.6 0 5.3z"/><path  d="m869.3 478q-2.6 2.7-5.3 0l-8-8q-2.7-2.7 0-5.3l8-8q2.7-2.7 5.3 0l8 8q2.7 2.6 0 5.3z"/><path  d="m936 478q-2.7 2.7-5.3 0l-8-8q-2.7-2.7 0-5.3l8-8q2.6-2.7 5.3 0l8 8q2.7 2.6 0 5.3z"/><path  d="m1002.7 478q-2.7 2.7-5.4 0l-8-8q-2.6-2.7 0-5.3l8-8q2.7-2.7 5.4 0l8 8q2.6 2.6 0 5.3z"/><path  d="m1069.3 478q-2.6 2.7-5.3 0l-8-8q-2.7-2.7 0-5.3l8-8q2.7-2.7 5.3 0l8 8q2.7 2.6 0 5.3z"/><path  d="m1136 478q-2.7 2.7-5.3 0l-8-8q-2.7-2.7 0-5.3l8-8q2.6-2.7 5.3 0l8 8q2.7 2.6 0 5.3z"/><path  d="m1202.7 478q-2.7 2.7-5.4 0l-8-8q-2.6-2.7 0-5.3l8-8q2.7-2.7 5.4 0l8 8q2.6 2.6 0 5.3z"/><path  d="m1269.3 478q-2.6 2.7-5.3 0l-8-8q-2.7-2.7 0-5.3l8-8q2.7-2.7 5.3 0l8 8q2.7 2.6 0 5.3z"/><path  d="m1336 478q-2.7 2.7-5.3 0l-8-8q-2.7-2.7 0-5.3l8-8q2.6-2.7 5.3 0l8 8q2.7 2.6 0 5.3z"/><path  d="m3.2 413.5q-3.2 3.2-6.4 0l-9.6-9.6q-3.2-3.2 0-6.4l9.6-9.6q3.2-3.2 6.4 0l9.6 9.6q3.2 3.2 0 6.4z"/><path  d="m69.9 413.5q-3.2 3.2-6.4 0l-9.6-9.6q-3.2-3.2 0-6.4l9.6-9.6q3.2-3.2 6.4 0l9.6 9.6q3.2 3.2 0 6.4z"/><path  d="m136.5 413.5q-3.2 3.2-6.4 0l-9.6-9.6q-3.2-3.2 0-6.4l9.6-9.6q3.2-3.2 6.4 0l9.6 9.6q3.2 3.2 0 6.4z"/><path  d="m203.2 413.5q-3.2 3.2-6.4 0l-9.6-9.6q-3.2-3.2 0-6.4l9.6-9.6q3.2-3.2 6.4 0l9.6 9.6q3.2 3.2 0 6.4z"/><path  d="m269.9 413.5q-3.2 3.2-6.4 0l-9.6-9.6q-3.2-3.2 0-6.4l9.6-9.6q3.2-3.2 6.4 0l9.6 9.6q3.2 3.2 0 6.4z"/><path  d="m336.5 413.5q-3.2 3.2-6.4 0l-9.6-9.6q-3.2-3.2 0-6.4l9.6-9.6q3.2-3.2 6.4 0l9.6 9.6q3.2 3.2 0 6.4z"/><path  d="m403.2 413.5q-3.2 3.2-6.4 0l-9.6-9.6q-3.2-3.2 0-6.4l9.6-9.6q3.2-3.2 6.4 0l9.6 9.6q3.2 3.2 0 6.4z"/><path  d="m469.9 413.5q-3.2 3.2-6.4 0l-9.6-9.6q-3.2-3.2 0-6.4l9.6-9.6q3.2-3.2 6.4 0l9.6 9.6q3.2 3.2 0 6.4z"/><path  d="m536.5 413.5q-3.2 3.2-6.4 0l-9.6-9.6q-3.2-3.2 0-6.4l9.6-9.6q3.2-3.2 6.4 0l9.6 9.6q3.2 3.2 0 6.4z"/><path  d="m603.2 413.5q-3.2 3.2-6.4 0l-9.6-9.6q-3.2-3.2 0-6.4l9.6-9.6q3.2-3.2 6.4 0l9.6 9.6q3.2 3.2 0 6.4z"/><path  d="m669.9 413.5q-3.2 3.2-6.4 0l-9.6-9.6q-3.2-3.2 0-6.4l9.6-9.6q3.2-3.2 6.4 0l9.6 9.6q3.2 3.2 0 6.4z"/><path  d="m736.5 413.5q-3.2 3.2-6.4 0l-9.6-9.6q-3.2-3.2 0-6.4l9.6-9.6q3.2-3.2 6.4 0l9.6 9.6q3.2 3.2 0 6.4z"/><path  d="m803.2 413.5q-3.2 3.2-6.4 0l-9.6-9.6q-3.2-3.2 0-6.4l9.6-9.6q3.2-3.2 6.4 0l9.6 9.6q3.2 3.2 0 6.4z"/><path  d="m869.9 413.5q-3.2 3.2-6.4 0l-9.6-9.6q-3.2-3.2 0-6.4l9.6-9.6q3.2-3.2 6.4 0l9.6 9.6q3.2 3.2 0 6.4z"/><path  d="m936.5 413.5q-3.2 3.2-6.4 0l-9.6-9.6q-3.2-3.2 0-6.4l9.6-9.6q3.2-3.2 6.4 0l9.6 9.6q3.2 3.2 0 6.4z"/><path  d="m1003.2 413.5q-3.2 3.2-6.4 0l-9.6-9.6q-3.2-3.2 0-6.4l9.6-9.6q3.2-3.2 6.4 0l9.6 9.6q3.2 3.2 0 6.4z"/><path  d="m1069.9 413.5q-3.2 3.2-6.4 0l-9.6-9.6q-3.2-3.2 0-6.4l9.6-9.6q3.2-3.2 6.4 0l9.6 9.6q3.2 3.2 0 6.4z"/><path  d="m1136.5 413.5q-3.2 3.2-6.4 0l-9.6-9.6q-3.2-3.2 0-6.4l9.6-9.6q3.2-3.2 6.4 0l9.6 9.6q3.2 3.2 0 6.4z"/><path  d="m1203.2 413.5q-3.2 3.2-6.4 0l-9.6-9.6q-3.2-3.2 0-6.4l9.6-9.6q3.2-3.2 6.4 0l9.6 9.6q3.2 3.2 0 6.4z"/><path  d="m1269.9 413.5q-3.2 3.2-6.4 0l-9.6-9.6q-3.2-3.2 0-6.4l9.6-9.6q3.2-3.2 6.4 0l9.6 9.6q3.2 3.2 0 6.4z"/><path  d="m1336.5 413.5q-3.2 3.2-6.4 0l-9.6-9.6q-3.2-3.2 0-6.4l9.6-9.6q3.2-3.2 6.4 0l9.6 9.6q3.2 3.2 0 6.4z"/><path  d="m3.7 348.9q-3.7 3.8-7.4 0l-11.2-11.2q-3.8-3.7 0-7.4l11.2-11.2q3.7-3.8 7.4 0l11.2 11.2q3.8 3.7 0 7.4z"/><path  d="m70.4 348.9q-3.7 3.8-7.5 0l-11.2-11.2q-3.7-3.7 0-7.4l11.2-11.2q3.8-3.8 7.5 0l11.2 11.2q3.7 3.7 0 7.4z"/><path  d="m137.1 348.9q-3.8 3.8-7.5 0l-11.2-11.2q-3.7-3.7 0-7.4l11.2-11.2q3.7-3.8 7.5 0l11.2 11.2q3.7 3.7 0 7.4z"/><path  d="m203.7 348.9q-3.7 3.8-7.4 0l-11.2-11.2q-3.8-3.7 0-7.4l11.2-11.2q3.7-3.8 7.4 0l11.2 11.2q3.8 3.7 0 7.4z"/><path  d="m270.4 348.9q-3.7 3.8-7.5 0l-11.2-11.2q-3.7-3.7 0-7.4l11.2-11.2q3.8-3.8 7.5 0l11.2 11.2q3.7 3.7 0 7.4z"/><path  d="m337.1 348.9q-3.8 3.8-7.5 0l-11.2-11.2q-3.7-3.7 0-7.4l11.2-11.2q3.7-3.8 7.5 0l11.2 11.2q3.7 3.7 0 7.4z"/><path  d="m403.7 348.9q-3.7 3.8-7.4 0l-11.2-11.2q-3.8-3.7 0-7.4l11.2-11.2q3.7-3.8 7.4 0l11.2 11.2q3.8 3.7 0 7.4z"/><path  d="m470.4 348.9q-3.7 3.8-7.5 0l-11.2-11.2q-3.7-3.7 0-7.4l11.2-11.2q3.8-3.8 7.5 0l11.2 11.2q3.7 3.7 0 7.4z"/><path  d="m537.1 348.9q-3.8 3.8-7.5 0l-11.2-11.2q-3.7-3.7 0-7.4l11.2-11.2q3.7-3.8 7.5 0l11.2 11.2q3.7 3.7 0 7.4z"/><path  d="m603.7 348.9q-3.7 3.8-7.4 0l-11.2-11.2q-3.8-3.7 0-7.4l11.2-11.2q3.7-3.8 7.4 0l11.2 11.2q3.8 3.7 0 7.4z"/><path  d="m670.4 348.9q-3.7 3.8-7.5 0l-11.2-11.2q-3.7-3.7 0-7.4l11.2-11.2q3.8-3.8 7.5 0l11.2 11.2q3.7 3.7 0 7.4z"/><path  d="m737.1 348.9q-3.8 3.8-7.5 0l-11.2-11.2q-3.7-3.7 0-7.4l11.2-11.2q3.7-3.8 7.5 0l11.2 11.2q3.7 3.7 0 7.4z"/><path  d="m803.7 348.9q-3.7 3.8-7.4 0l-11.2-11.2q-3.8-3.7 0-7.4l11.2-11.2q3.7-3.8 7.4 0l11.2 11.2q3.8 3.7 0 7.4z"/><path  d="m870.4 348.9q-3.7 3.8-7.5 0l-11.2-11.2q-3.7-3.7 0-7.4l11.2-11.2q3.8-3.8 7.5 0l11.2 11.2q3.7 3.7 0 7.4z"/><path  d="m937.1 348.9q-3.8 3.8-7.5 0l-11.2-11.2q-3.7-3.7 0-7.4l11.2-11.2q3.7-3.8 7.5 0l11.2 11.2q3.7 3.7 0 7.4z"/><path  d="m1003.7 348.9q-3.7 3.8-7.4 0l-11.2-11.2q-3.8-3.7 0-7.4l11.2-11.2q3.7-3.8 7.4 0l11.2 11.2q3.8 3.7 0 7.4z"/><path  d="m1070.4 348.9q-3.7 3.8-7.5 0l-11.2-11.2q-3.7-3.7 0-7.4l11.2-11.2q3.8-3.8 7.5 0l11.2 11.2q3.7 3.7 0 7.4z"/><path  d="m1137.1 348.9q-3.8 3.8-7.5 0l-11.2-11.2q-3.7-3.7 0-7.4l11.2-11.2q3.7-3.8 7.5 0l11.2 11.2q3.7 3.7 0 7.4z"/><path  d="m1203.7 348.9q-3.7 3.8-7.4 0l-11.2-11.2q-3.8-3.7 0-7.4l11.2-11.2q3.7-3.8 7.4 0l11.2 11.2q3.8 3.7 0 7.4z"/><path  d="m1270.4 348.9q-3.7 3.8-7.5 0l-11.2-11.2q-3.7-3.7 0-7.4l11.2-11.2q3.8-3.8 7.5 0l11.2 11.2q3.7 3.7 0 7.4z"/><path  d="m1337.1 348.9q-3.8 3.8-7.5 0l-11.2-11.2q-3.7-3.7 0-7.4l11.2-11.2q3.7-3.8 7.5 0l11.2 11.2q3.7 3.7 0 7.4z"/><path  d="m4.3 284.4q-4.3 4.3-8.6 0l-12.8-12.8q-4.2-4.3 0-8.5l12.8-12.8q4.3-4.3 8.6 0l12.8 12.8q4.2 4.2 0 8.5z"/><path  d="m70.9 284.4q-4.2 4.3-8.5 0l-12.8-12.8q-4.3-4.3 0-8.5l12.8-12.8q4.3-4.3 8.5 0l12.8 12.8q4.3 4.2 0 8.5z"/><path  d="m137.6 284.4q-4.3 4.3-8.5 0l-12.8-12.8q-4.3-4.3 0-8.5l12.8-12.8q4.2-4.3 8.5 0l12.8 12.8q4.3 4.2 0 8.5z"/><path  d="m204.3 284.4q-4.3 4.3-8.6 0l-12.8-12.8q-4.2-4.3 0-8.5l12.8-12.8q4.3-4.3 8.6 0l12.8 12.8q4.2 4.2 0 8.5z"/><path  d="m270.9 284.4q-4.2 4.3-8.5 0l-12.8-12.8q-4.3-4.3 0-8.5l12.8-12.8q4.3-4.3 8.5 0l12.8 12.8q4.3 4.2 0 8.5z"/><path  d="m337.6 284.4q-4.3 4.3-8.5 0l-12.8-12.8q-4.3-4.3 0-8.5l12.8-12.8q4.2-4.3 8.5 0l12.8 12.8q4.3 4.2 0 8.5z"/><path  d="m404.3 284.4q-4.3 4.3-8.6 0l-12.8-12.8q-4.2-4.3 0-8.5l12.8-12.8q4.3-4.3 8.6 0l12.8 12.8q4.2 4.2 0 8.5z"/><path  d="m470.9 284.4q-4.2 4.3-8.5 0l-12.8-12.8q-4.3-4.3 0-8.5l12.8-12.8q4.3-4.3 8.5 0l12.8 12.8q4.3 4.2 0 8.5z"/><path  d="m537.6 284.4q-4.3 4.3-8.5 0l-12.8-12.8q-4.3-4.3 0-8.5l12.8-12.8q4.2-4.3 8.5 0l12.8 12.8q4.3 4.2 0 8.5z"/><path  d="m604.3 284.4q-4.3 4.3-8.6 0l-12.8-12.8q-4.2-4.3 0-8.5l12.8-12.8q4.3-4.3 8.6 0l12.8 12.8q4.2 4.2 0 8.5z"/><path  d="m670.9 284.4q-4.2 4.3-8.5 0l-12.8-12.8q-4.3-4.3 0-8.5l12.8-12.8q4.3-4.3 8.5 0l12.8 12.8q4.3 4.2 0 8.5z"/><path  d="m737.6 284.4q-4.3 4.3-8.5 0l-12.8-12.8q-4.3-4.3 0-8.5l12.8-12.8q4.2-4.3 8.5 0l12.8 12.8q4.3 4.2 0 8.5z"/><path  d="m804.3 284.4q-4.3 4.3-8.6 0l-12.8-12.8q-4.2-4.3 0-8.5l12.8-12.8q4.3-4.3 8.6 0l12.8 12.8q4.2 4.2 0 8.5z"/><path  d="m870.9 284.4q-4.2 4.3-8.5 0l-12.8-12.8q-4.3-4.3 0-8.5l12.8-12.8q4.3-4.3 8.5 0l12.8 12.8q4.3 4.2 0 8.5z"/><path  d="m937.6 284.4q-4.3 4.3-8.5 0l-12.8-12.8q-4.3-4.3 0-8.5l12.8-12.8q4.2-4.3 8.5 0l12.8 12.8q4.3 4.2 0 8.5z"/><path  d="m1004.3 284.4q-4.3 4.3-8.6 0l-12.8-12.8q-4.2-4.3 0-8.5l12.8-12.8q4.3-4.3 8.6 0l12.8 12.8q4.2 4.2 0 8.5z"/><path  d="m1070.9 284.4q-4.2 4.3-8.5 0l-12.8-12.8q-4.3-4.3 0-8.5l12.8-12.8q4.3-4.3 8.5 0l12.8 12.8q4.3 4.2 0 8.5z"/><path  d="m1137.6 284.4q-4.3 4.3-8.5 0l-12.8-12.8q-4.3-4.3 0-8.5l12.8-12.8q4.2-4.3 8.5 0l12.8 12.8q4.3 4.2 0 8.5z"/><path  d="m1204.3 284.4q-4.3 4.3-8.6 0l-12.8-12.8q-4.2-4.3 0-8.5l12.8-12.8q4.3-4.3 8.6 0l12.8 12.8q4.2 4.2 0 8.5z"/><path  d="m1270.9 284.4q-4.2 4.3-8.5 0l-12.8-12.8q-4.3-4.3 0-8.5l12.8-12.8q4.3-4.3 8.5 0l12.8 12.8q4.3 4.2 0 8.5z"/><path  d="m1337.6 284.4q-4.3 4.3-8.5 0l-12.8-12.8q-4.3-4.3 0-8.5l12.8-12.8q4.2-4.3 8.5 0l12.8 12.8q4.3 4.2 0 8.5z"/><path  d="m4.8 219.9q-4.8 4.8-9.6 0l-14.4-14.4q-4.8-4.8 0-9.6l14.4-14.4q4.8-4.8 9.6 0l14.4 14.4q4.8 4.8 0 9.6z"/><path  d="m71.5 219.9q-4.8 4.8-9.6 0l-14.4-14.4q-4.8-4.8 0-9.6l14.4-14.4q4.8-4.8 9.6 0l14.4 14.4q4.8 4.8 0 9.6z"/><path  d="m138.1 219.9q-4.8 4.8-9.6 0l-14.4-14.4q-4.8-4.8 0-9.6l14.4-14.4q4.8-4.8 9.6 0l14.4 14.4q4.8 4.8 0 9.6z"/><path  d="m204.8 219.9q-4.8 4.8-9.6 0l-14.4-14.4q-4.8-4.8 0-9.6l14.4-14.4q4.8-4.8 9.6 0l14.4 14.4q4.8 4.8 0 9.6z"/><path  d="m271.5 219.9q-4.8 4.8-9.6 0l-14.4-14.4q-4.8-4.8 0-9.6l14.4-14.4q4.8-4.8 9.6 0l14.4 14.4q4.8 4.8 0 9.6z"/><path  d="m338.1 219.9q-4.8 4.8-9.6 0l-14.4-14.4q-4.8-4.8 0-9.6l14.4-14.4q4.8-4.8 9.6 0l14.4 14.4q4.8 4.8 0 9.6z"/><path  d="m404.8 219.9q-4.8 4.8-9.6 0l-14.4-14.4q-4.8-4.8 0-9.6l14.4-14.4q4.8-4.8 9.6 0l14.4 14.4q4.8 4.8 0 9.6z"/><path  d="m471.5 219.9q-4.8 4.8-9.6 0l-14.4-14.4q-4.8-4.8 0-9.6l14.4-14.4q4.8-4.8 9.6 0l14.4 14.4q4.8 4.8 0 9.6z"/><path  d="m538.1 219.9q-4.8 4.8-9.6 0l-14.4-14.4q-4.8-4.8 0-9.6l14.4-14.4q4.8-4.8 9.6 0l14.4 14.4q4.8 4.8 0 9.6z"/><path  d="m604.8 219.9q-4.8 4.8-9.6 0l-14.4-14.4q-4.8-4.8 0-9.6l14.4-14.4q4.8-4.8 9.6 0l14.4 14.4q4.8 4.8 0 9.6z"/><path  d="m671.5 219.9q-4.8 4.8-9.6 0l-14.4-14.4q-4.8-4.8 0-9.6l14.4-14.4q4.8-4.8 9.6 0l14.4 14.4q4.8 4.8 0 9.6z"/><path  d="m738.1 219.9q-4.8 4.8-9.6 0l-14.4-14.4q-4.8-4.8 0-9.6l14.4-14.4q4.8-4.8 9.6 0l14.4 14.4q4.8 4.8 0 9.6z"/><path  d="m804.8 219.9q-4.8 4.8-9.6 0l-14.4-14.4q-4.8-4.8 0-9.6l14.4-14.4q4.8-4.8 9.6 0l14.4 14.4q4.8 4.8 0 9.6z"/><path  d="m871.5 219.9q-4.8 4.8-9.6 0l-14.4-14.4q-4.8-4.8 0-9.6l14.4-14.4q4.8-4.8 9.6 0l14.4 14.4q4.8 4.8 0 9.6z"/><path  d="m938.1 219.9q-4.8 4.8-9.6 0l-14.4-14.4q-4.8-4.8 0-9.6l14.4-14.4q4.8-4.8 9.6 0l14.4 14.4q4.8 4.8 0 9.6z"/><path  d="m1004.8 219.9q-4.8 4.8-9.6 0l-14.4-14.4q-4.8-4.8 0-9.6l14.4-14.4q4.8-4.8 9.6 0l14.4 14.4q4.8 4.8 0 9.6z"/><path  d="m1071.5 219.9q-4.8 4.8-9.6 0l-14.4-14.4q-4.8-4.8 0-9.6l14.4-14.4q4.8-4.8 9.6 0l14.4 14.4q4.8 4.8 0 9.6z"/><path  d="m1138.1 219.9q-4.8 4.8-9.6 0l-14.4-14.4q-4.8-4.8 0-9.6l14.4-14.4q4.8-4.8 9.6 0l14.4 14.4q4.8 4.8 0 9.6z"/><path  d="m1204.8 219.9q-4.8 4.8-9.6 0l-14.4-14.4q-4.8-4.8 0-9.6l14.4-14.4q4.8-4.8 9.6 0l14.4 14.4q4.8 4.8 0 9.6z"/><path  d="m1271.5 219.9q-4.8 4.8-9.6 0l-14.4-14.4q-4.8-4.8 0-9.6l14.4-14.4q4.8-4.8 9.6 0l14.4 14.4q4.8 4.8 0 9.6z"/><path  d="m1338.1 219.9q-4.8 4.8-9.6 0l-14.4-14.4q-4.8-4.8 0-9.6l14.4-14.4q4.8-4.8 9.6 0l14.4 14.4q4.8 4.8 0 9.6z"/><path  d="m5.3 155.3q-5.3 5.4-10.6 0l-16-16q-5.4-5.3 0-10.6l16-16q5.3-5.4 10.6 0l16 16q5.4 5.3 0 10.6z"/><path  d="m72 155.3q-5.3 5.4-10.7 0l-16-16q-5.3-5.3 0-10.6l16-16q5.4-5.4 10.7 0l16 16q5.3 5.3 0 10.6z"/><path  d="m138.7 155.3q-5.4 5.4-10.7 0l-16-16q-5.3-5.3 0-10.6l16-16q5.3-5.4 10.7 0l16 16q5.3 5.3 0 10.6z"/><path  d="m205.3 155.3q-5.3 5.4-10.6 0l-16-16q-5.4-5.3 0-10.6l16-16q5.3-5.4 10.6 0l16 16q5.4 5.3 0 10.6z"/><path  d="m272 155.3q-5.3 5.4-10.7 0l-16-16q-5.3-5.3 0-10.6l16-16q5.4-5.4 10.7 0l16 16q5.3 5.3 0 10.6z"/><path  d="m338.7 155.3q-5.4 5.4-10.7 0l-16-16q-5.3-5.3 0-10.6l16-16q5.3-5.4 10.7 0l16 16q5.3 5.3 0 10.6z"/><path  d="m405.3 155.3q-5.3 5.4-10.6 0l-16-16q-5.4-5.3 0-10.6l16-16q5.3-5.4 10.6 0l16 16q5.4 5.3 0 10.6z"/><path  d="m472 155.3q-5.3 5.4-10.7 0l-16-16q-5.3-5.3 0-10.6l16-16q5.4-5.4 10.7 0l16 16q5.3 5.3 0 10.6z"/><path  d="m538.7 155.3q-5.4 5.4-10.7 0l-16-16q-5.3-5.3 0-10.6l16-16q5.3-5.4 10.7 0l16 16q5.3 5.3 0 10.6z"/><path  d="m605.3 155.3q-5.3 5.4-10.6 0l-16-16q-5.4-5.3 0-10.6l16-16q5.3-5.4 10.6 0l16 16q5.4 5.3 0 10.6z"/><path  d="m672 155.3q-5.3 5.4-10.7 0l-16-16q-5.3-5.3 0-10.6l16-16q5.4-5.4 10.7 0l16 16q5.3 5.3 0 10.6z"/><path  d="m738.7 155.3q-5.4 5.4-10.7 0l-16-16q-5.3-5.3 0-10.6l16-16q5.3-5.4 10.7 0l16 16q5.3 5.3 0 10.6z"/><path  d="m805.3 155.3q-5.3 5.4-10.6 0l-16-16q-5.4-5.3 0-10.6l16-16q5.3-5.4 10.6 0l16 16q5.4 5.3 0 10.6z"/><path  d="m872 155.3q-5.3 5.4-10.7 0l-16-16q-5.3-5.3 0-10.6l16-16q5.4-5.4 10.7 0l16 16q5.3 5.3 0 10.6z"/><path  d="m938.7 155.3q-5.4 5.4-10.7 0l-16-16q-5.3-5.3 0-10.6l16-16q5.3-5.4 10.7 0l16 16q5.3 5.3 0 10.6z"/><path  d="m1005.3 155.3q-5.3 5.4-10.6 0l-16-16q-5.4-5.3 0-10.6l16-16q5.3-5.4 10.6 0l16 16q5.4 5.3 0 10.6z"/><path  d="m1072 155.3q-5.3 5.4-10.7 0l-16-16q-5.3-5.3 0-10.6l16-16q5.4-5.4 10.7 0l16 16q5.3 5.3 0 10.6z"/><path  d="m1138.7 155.3q-5.4 5.4-10.7 0l-16-16q-5.3-5.3 0-10.6l16-16q5.3-5.4 10.7 0l16 16q5.3 5.3 0 10.6z"/><path  d="m1205.3 155.3q-5.3 5.4-10.6 0l-16-16q-5.4-5.3 0-10.6l16-16q5.3-5.4 10.6 0l16 16q5.4 5.3 0 10.6z"/><path  d="m1272 155.3q-5.3 5.4-10.7 0l-16-16q-5.3-5.3 0-10.6l16-16q5.4-5.4 10.7 0l16 16q5.3 5.3 0 10.6z"/><path  d="m1338.7 155.3q-5.4 5.4-10.7 0l-16-16q-5.3-5.3 0-10.6l16-16q5.3-5.4 10.7 0l16 16q5.3 5.3 0 10.6z"/><path  d="m5.9 90.8q-5.9 5.9-11.8 0l-17.6-17.6q-5.8-5.9 0-11.7l17.6-17.6q5.9-5.9 11.8 0l17.6 17.6q5.8 5.8 0 11.7z"/><path  d="m72.5 90.8q-5.8 5.9-11.7 0l-17.6-17.6q-5.9-5.9 0-11.7l17.6-17.6q5.9-5.9 11.7 0l17.6 17.6q5.9 5.8 0 11.7z"/><path  d="m139.2 90.8q-5.9 5.9-11.7 0l-17.6-17.6q-5.9-5.9 0-11.7l17.6-17.6q5.8-5.9 11.7 0l17.6 17.6q5.9 5.8 0 11.7z"/><path  d="m205.9 90.8q-5.9 5.9-11.8 0l-17.6-17.6q-5.8-5.9 0-11.7l17.6-17.6q5.9-5.9 11.8 0l17.6 17.6q5.8 5.8 0 11.7z"/><path  d="m272.5 90.8q-5.8 5.9-11.7 0l-17.6-17.6q-5.9-5.9 0-11.7l17.6-17.6q5.9-5.9 11.7 0l17.6 17.6q5.9 5.8 0 11.7z"/><path  d="m339.2 90.8q-5.9 5.9-11.7 0l-17.6-17.6q-5.9-5.9 0-11.7l17.6-17.6q5.8-5.9 11.7 0l17.6 17.6q5.9 5.8 0 11.7z"/><path  d="m405.9 90.8q-5.9 5.9-11.8 0l-17.6-17.6q-5.8-5.9 0-11.7l17.6-17.6q5.9-5.9 11.8 0l17.6 17.6q5.8 5.8 0 11.7z"/><path  d="m472.5 90.8q-5.8 5.9-11.7 0l-17.6-17.6q-5.9-5.9 0-11.7l17.6-17.6q5.9-5.9 11.7 0l17.6 17.6q5.9 5.8 0 11.7z"/><path  d="m539.2 90.8q-5.9 5.9-11.7 0l-17.6-17.6q-5.9-5.9 0-11.7l17.6-17.6q5.8-5.9 11.7 0l17.6 17.6q5.9 5.8 0 11.7z"/><path  d="m605.9 90.8q-5.9 5.9-11.8 0l-17.6-17.6q-5.8-5.9 0-11.7l17.6-17.6q5.9-5.9 11.8 0l17.6 17.6q5.8 5.8 0 11.7z"/><path  d="m672.5 90.8q-5.8 5.9-11.7 0l-17.6-17.6q-5.9-5.9 0-11.7l17.6-17.6q5.9-5.9 11.7 0l17.6 17.6q5.9 5.8 0 11.7z"/><path  d="m739.2 90.8q-5.9 5.9-11.7 0l-17.6-17.6q-5.9-5.9 0-11.7l17.6-17.6q5.8-5.9 11.7 0l17.6 17.6q5.9 5.8 0 11.7z"/><path  d="m805.9 90.8q-5.9 5.9-11.8 0l-17.6-17.6q-5.8-5.9 0-11.7l17.6-17.6q5.9-5.9 11.8 0l17.6 17.6q5.8 5.8 0 11.7z"/><path  d="m872.5 90.8q-5.8 5.9-11.7 0l-17.6-17.6q-5.9-5.9 0-11.7l17.6-17.6q5.9-5.9 11.7 0l17.6 17.6q5.9 5.8 0 11.7z"/><path  d="m939.2 90.8q-5.9 5.9-11.7 0l-17.6-17.6q-5.9-5.9 0-11.7l17.6-17.6q5.8-5.9 11.7 0l17.6 17.6q5.9 5.8 0 11.7z"/><path  d="m1005.9 90.8q-5.9 5.9-11.8 0l-17.6-17.6q-5.8-5.9 0-11.7l17.6-17.6q5.9-5.9 11.8 0l17.6 17.6q5.8 5.8 0 11.7z"/><path  d="m1072.5 90.8q-5.8 5.9-11.7 0l-17.6-17.6q-5.9-5.9 0-11.7l17.6-17.6q5.9-5.9 11.7 0l17.6 17.6q5.9 5.8 0 11.7z"/><path  d="m1139.2 90.8q-5.9 5.9-11.7 0l-17.6-17.6q-5.9-5.9 0-11.7l17.6-17.6q5.8-5.9 11.7 0l17.6 17.6q5.9 5.8 0 11.7z"/><path  d="m1205.9 90.8q-5.9 5.9-11.8 0l-17.6-17.6q-5.8-5.9 0-11.7l17.6-17.6q5.9-5.9 11.8 0l17.6 17.6q5.8 5.8 0 11.7z"/><path  d="m1272.5 90.8q-5.8 5.9-11.7 0l-17.6-17.6q-5.9-5.9 0-11.7l17.6-17.6q5.9-5.9 11.7 0l17.6 17.6q5.9 5.8 0 11.7z"/><path  d="m1339.2 90.8q-5.9 5.9-11.7 0l-17.6-17.6q-5.9-5.9 0-11.7l17.6-17.6q5.8-5.9 11.7 0l17.6 17.6q5.9 5.8 0 11.7z"/><path  d="m6.4 26.3q-6.4 6.4-12.8 0l-19.2-19.2q-6.4-6.4 0-12.8l19.2-19.2q6.4-6.4 12.8 0l19.2 19.2q6.4 6.4 0 12.8z"/><path  d="m73.1 26.3q-6.4 6.4-12.8 0l-19.2-19.2q-6.4-6.4 0-12.8l19.2-19.2q6.4-6.4 12.8 0l19.2 19.2q6.4 6.4 0 12.8z"/><path  d="m139.7 26.3q-6.4 6.4-12.8 0l-19.2-19.2q-6.4-6.4 0-12.8l19.2-19.2q6.4-6.4 12.8 0l19.2 19.2q6.4 6.4 0 12.8z"/><path  d="m206.4 26.3q-6.4 6.4-12.8 0l-19.2-19.2q-6.4-6.4 0-12.8l19.2-19.2q6.4-6.4 12.8 0l19.2 19.2q6.4 6.4 0 12.8z"/><path  d="m273.1 26.3q-6.4 6.4-12.8 0l-19.2-19.2q-6.4-6.4 0-12.8l19.2-19.2q6.4-6.4 12.8 0l19.2 19.2q6.4 6.4 0 12.8z"/><path  d="m339.7 26.3q-6.4 6.4-12.8 0l-19.2-19.2q-6.4-6.4 0-12.8l19.2-19.2q6.4-6.4 12.8 0l19.2 19.2q6.4 6.4 0 12.8z"/><path  d="m406.4 26.3q-6.4 6.4-12.8 0l-19.2-19.2q-6.4-6.4 0-12.8l19.2-19.2q6.4-6.4 12.8 0l19.2 19.2q6.4 6.4 0 12.8z"/><path  d="m473.1 26.3q-6.4 6.4-12.8 0l-19.2-19.2q-6.4-6.4 0-12.8l19.2-19.2q6.4-6.4 12.8 0l19.2 19.2q6.4 6.4 0 12.8z"/><path  d="m539.7 26.3q-6.4 6.4-12.8 0l-19.2-19.2q-6.4-6.4 0-12.8l19.2-19.2q6.4-6.4 12.8 0l19.2 19.2q6.4 6.4 0 12.8z"/><path  d="m606.4 26.3q-6.4 6.4-12.8 0l-19.2-19.2q-6.4-6.4 0-12.8l19.2-19.2q6.4-6.4 12.8 0l19.2 19.2q6.4 6.4 0 12.8z"/><path  d="m673.1 26.3q-6.4 6.4-12.8 0l-19.2-19.2q-6.4-6.4 0-12.8l19.2-19.2q6.4-6.4 12.8 0l19.2 19.2q6.4 6.4 0 12.8z"/><path  d="m739.7 26.3q-6.4 6.4-12.8 0l-19.2-19.2q-6.4-6.4 0-12.8l19.2-19.2q6.4-6.4 12.8 0l19.2 19.2q6.4 6.4 0 12.8z"/><path  d="m806.4 26.3q-6.4 6.4-12.8 0l-19.2-19.2q-6.4-6.4 0-12.8l19.2-19.2q6.4-6.4 12.8 0l19.2 19.2q6.4 6.4 0 12.8z"/><path  d="m873.1 26.3q-6.4 6.4-12.8 0l-19.2-19.2q-6.4-6.4 0-12.8l19.2-19.2q6.4-6.4 12.8 0l19.2 19.2q6.4 6.4 0 12.8z"/><path  d="m939.7 26.3q-6.4 6.4-12.8 0l-19.2-19.2q-6.4-6.4 0-12.8l19.2-19.2q6.4-6.4 12.8 0l19.2 19.2q6.4 6.4 0 12.8z"/><path  d="m1006.4 26.3q-6.4 6.4-12.8 0l-19.2-19.2q-6.4-6.4 0-12.8l19.2-19.2q6.4-6.4 12.8 0l19.2 19.2q6.4 6.4 0 12.8z"/><path  d="m1073.1 26.3q-6.4 6.4-12.8 0l-19.2-19.2q-6.4-6.4 0-12.8l19.2-19.2q6.4-6.4 12.8 0l19.2 19.2q6.4 6.4 0 12.8z"/><path  d="m1139.7 26.3q-6.4 6.4-12.8 0l-19.2-19.2q-6.4-6.4 0-12.8l19.2-19.2q6.4-6.4 12.8 0l19.2 19.2q6.4 6.4 0 12.8z"/><path  d="m1206.4 26.3q-6.4 6.4-12.8 0l-19.2-19.2q-6.4-6.4 0-12.8l19.2-19.2q6.4-6.4 12.8 0l19.2 19.2q6.4 6.4 0 12.8z"/><path  d="m1273.1 26.3q-6.4 6.4-12.8 0l-19.2-19.2q-6.4-6.4 0-12.8l19.2-19.2q6.4-6.4 12.8 0l19.2 19.2q6.4 6.4 0 12.8z"/><path  d="m1339.7 26.3q-6.4 6.4-12.8 0l-19.2-19.2q-6.4-6.4 0-12.8l19.2-19.2q6.4-6.4 12.8 0l19.2 19.2q6.4 6.4 0 12.8z"/></g></svg>